<svg width="89" height="89" viewBox="0 0 89 89" fill="none" xmlns="http://www.w3.org/2000/svg">
<g clip-path="url(#clip0_19_1086)">
<path d="M3.91748 14.3896H87.7014V73.3016H3.91748V14.3896Z" fill="#ECF4FF"/>
<path d="M44.5 14.3896H87.7012V73.3016H44.5V14.3896Z" fill="#D5E7FD"/>
<path d="M62.8279 73.3014V83.7735C62.8279 85.2149 60.1027 85.0636 58.42 85.0636L29.4315 85.0341C27.7488 85.0341 26.1724 85.2149 26.1724 83.7735V73.3014C26.1724 71.86 27.5345 70.6934 29.2172 70.6934H59.7831C61.4658 70.6934 62.8279 71.86 62.8279 73.3014Z" fill="#3F558F"/>
<path d="M62.8279 73.3014V83.7735C62.8279 85.2149 61.4155 85.3595 59.7328 85.3595L44.5 85.6555V70.6934H59.7831C61.4658 70.6934 62.8279 71.86 62.8279 73.3014Z" fill="#1C3470"/>
<path d="M73.2909 83.774C73.2909 85.2154 72.1225 86.3821 70.6828 86.3821H18.317C16.8774 86.3821 15.709 85.2154 15.709 83.774C15.709 82.3344 16.8774 81.166 18.317 81.166H44.4999L64.6799 82.9629C66.1195 82.9629 73.2909 82.3344 73.2909 83.774Z" fill="#5A729E"/>
<path d="M73.2909 83.774C73.2909 85.2154 72.1226 86.3821 70.6829 86.3821H44.5V81.166H70.6829C72.1226 81.166 73.2909 82.3344 73.2909 83.774Z" fill="#3F558F"/>
<path d="M89 14.3903V73.3023C89 74.7419 87.8316 75.9103 86.392 75.9103H2.60803C1.1684 75.9103 0 74.7419 0 73.3023V14.3903C0 12.9489 1.1684 11.7822 2.60803 11.7822H18.3171C19.7567 11.7822 20.9251 12.9489 20.9251 14.3903C20.9251 15.8299 19.7567 16.9983 18.3171 16.9983H5.21607V70.6942H83.784V16.9983H71.9922C70.5525 16.9983 69.3841 15.8299 69.3841 14.3903C69.3841 12.9489 70.5525 11.7822 71.9922 11.7822H86.392C87.8316 11.7822 89 12.9489 89 14.3903Z" fill="#5A729E"/>
<path d="M89 14.3903V73.3023C89 74.7419 87.8316 75.9103 86.392 75.9103H44.5V70.6942H83.7839V16.9983H71.9922C70.5525 16.9983 69.3841 15.8299 69.3841 14.3903C69.3841 12.9489 70.5525 11.7822 71.9922 11.7822H86.392C87.8316 11.7822 89 12.9489 89 14.3903Z" fill="#3F558F"/>
<path d="M64.1262 17.8807V30.0985C64.1262 31.1782 63.462 32.1449 62.4536 32.5326L44.4999 39.2527C43.8066 39.2527 44.0707 39.2575 26.5444 32.5326C26.0525 32.3433 25.6296 32.0093 25.3313 31.5748C25.033 31.1403 24.8734 30.6255 24.8735 30.0985V17.5973C24.8735 16.1577 26.0419 14.9893 27.4816 14.9893C28.9212 14.9893 30.0896 16.1577 30.0896 17.5973C30.0896 17.6347 28.8019 17.6091 58.9118 17.8598C58.9223 16.4289 60.0855 15.2727 61.5181 15.2727C62.9578 15.2727 64.1262 16.4411 64.1262 17.8807Z" fill="#5A729E"/>
<path d="M64.1263 17.8815V30.0992C64.1263 31.179 63.4621 32.1457 62.4537 32.5334C44.9921 39.2583 45.1873 39.2534 44.5 39.2534V17.7406L58.912 17.8606C58.9224 16.4297 60.0856 15.2734 61.5183 15.2734C62.9579 15.2734 64.1263 16.4418 64.1263 17.8815Z" fill="#3F558F"/>
<path d="M74.6 14.3899V32.7174C74.6 34.1587 73.4316 35.3254 71.992 35.3254C70.5523 35.3254 69.3839 34.1587 69.3839 32.7174L70.4804 16.0788L44.4998 26.1625C43.8633 26.1625 44.1262 26.1649 17.4563 16.8518C15.1325 16.0374 15.1323 12.7424 17.4563 11.9279C44.093 2.60919 43.8629 2.61719 44.4998 2.61719L69.9772 12.9713C71.043 13.3259 74.6 13.2667 74.6 14.3899Z" fill="#3F558F"/>
<path d="M74.6002 14.3898V32.7174C74.6002 34.1587 73.4318 35.3254 71.9921 35.3254C70.5525 35.3254 69.3841 34.1587 69.3841 32.7174V18.0081C45.0364 26.1705 45.1113 26.1625 44.5 26.1625V2.61719C45.1063 2.61719 44.8227 2.61719 72.8163 11.9157C73.3358 12.0885 73.7877 12.4205 74.1079 12.8646C74.4281 13.3087 74.6004 13.8423 74.6002 14.3898Z" fill="#1C3470"/>
<path d="M23.5537 47.1289H13.0807C11.6404 47.1289 10.4727 48.2966 10.4727 49.7369V60.2099C10.4727 61.6503 11.6404 62.818 13.0807 62.818H23.5537C24.994 62.818 26.1617 61.6503 26.1617 60.2099V49.7369C26.1617 48.2966 24.994 47.1289 23.5537 47.1289Z" fill="#FC6284"/>
<path d="M78.5277 49.7369C78.5277 51.1766 77.3593 52.345 75.9197 52.345H34.026C32.5864 52.345 31.418 51.1766 31.418 49.7369C31.418 48.2956 32.5864 47.1289 34.026 47.1289H75.9197C77.3593 47.1289 78.5277 48.2956 78.5277 49.7369ZM78.5277 60.2091C78.5277 61.6504 77.3593 62.8171 75.9197 62.8171H34.026C32.5864 62.8171 31.418 61.6504 31.418 60.2091C31.418 58.7694 32.5864 57.601 34.026 57.601H75.9197C77.3593 57.601 78.5277 58.7694 78.5277 60.2091Z" fill="#01C1F0"/>
<path d="M78.5279 60.2091C78.5279 61.6504 77.3595 62.8171 75.9198 62.8171H44.5V57.601H75.9198C77.3595 57.601 78.5279 58.7694 78.5279 60.2091ZM75.9198 52.345H44.5V47.1289H75.9198C77.3595 47.1289 78.5279 48.2956 78.5279 49.7369C78.5279 51.1766 77.3595 52.345 75.9198 52.345Z" fill="#00ADE9"/>
</g>
<defs>
<clipPath id="clip0_19_1086">
<rect width="89" height="89" fill="white"/>
</clipPath>
</defs>
</svg>
