<svg width="98" height="98" viewBox="0 0 98 98" fill="none" xmlns="http://www.w3.org/2000/svg">
<g clip-path="url(#clip0_13_663)">
<path d="M88.0453 64.8947H35.822C34.2324 64.8947 32.9438 63.6092 32.9438 62.0236V9.92969C32.9438 8.34408 34.2326 7.05859 35.822 7.05859H88.0453C89.6349 7.05859 90.9235 8.34408 90.9235 9.92969V62.0236C90.9235 63.6092 89.6349 64.8947 88.0453 64.8947ZM38.7004 59.1525H85.1671V12.8008H38.7004V59.1525Z" fill="#FFD92E"/>
<path d="M9.95438 90.9416C9.19586 90.9428 8.46768 90.6439 7.92873 90.1101C6.79943 88.994 6.79101 87.1763 7.90959 86.0498L33.7776 60.0029C34.8963 58.8763 36.7187 58.8678 37.848 59.9837C38.9773 61.0998 38.9857 62.9176 37.8672 64.044L11.9992 90.091C11.7316 90.361 11.413 90.5752 11.062 90.7212C10.711 90.8673 10.3345 90.9422 9.95438 90.9416Z" fill="#FFD92E"/>
<path d="M61.934 90.9415H9.7107C8.12107 90.9415 6.83252 89.6561 6.83252 88.0705V35.9766C6.83252 34.391 8.12126 33.1055 9.7107 33.1055H61.934C63.5236 33.1055 64.8122 34.391 64.8122 35.9766V88.0705C64.8122 89.6561 63.5236 90.9415 61.934 90.9415ZM12.5891 85.1994H59.0558V38.8477H12.5891V85.1994Z" fill="#FFE370"/>
<path d="M9.71084 38.8478C9.33295 38.8484 8.95866 38.7744 8.60942 38.6301C8.26018 38.4858 7.94285 38.274 7.67562 38.0068C6.55149 36.8855 6.55149 35.0677 7.67562 33.9465L33.7873 7.89954C34.9114 6.77828 36.734 6.77828 37.8577 7.89954C38.9818 9.02079 38.9818 10.8386 37.8577 11.9598L11.7461 38.0068C11.4788 38.2739 11.1615 38.4857 10.8122 38.63C10.463 38.7744 10.0887 38.8484 9.71084 38.8478ZM61.9341 90.9417C61.5562 90.9423 61.1819 90.8683 60.8327 90.724C60.4835 90.5797 60.1661 90.3679 59.8989 90.1007C58.7748 88.9794 58.7748 87.1616 59.8989 86.0404L86.0105 59.9934C87.1345 58.8722 88.957 58.8722 90.081 59.9934C91.2051 61.1147 91.2051 62.9325 90.081 64.0537L63.9693 90.1007C63.7021 90.3678 63.3847 90.5796 63.0355 90.7239C62.6863 90.8682 62.312 90.9422 61.9341 90.9417ZM61.9341 38.8478C61.5562 38.8484 61.1819 38.7744 60.8327 38.6301C60.4835 38.4858 60.1661 38.274 59.8989 38.0068C58.7748 36.8855 58.7748 35.0677 59.8989 33.9465L86.0105 7.89973C87.1345 6.77847 88.957 6.77847 90.081 7.89973C91.2051 9.02099 91.2051 10.8388 90.081 11.96L63.9693 38.007C63.702 38.274 63.3847 38.4858 63.0355 38.6301C62.6862 38.7743 62.312 38.8483 61.9341 38.8478Z" fill="#FFD92E"/>
<path d="M61.9339 45.906C56.4449 45.906 51.9796 41.4516 51.9796 35.9765C51.9796 30.5013 56.4449 26.0469 61.9339 26.0469C67.4229 26.0469 71.8884 30.5013 71.8884 35.9765C71.8884 41.4516 67.4227 45.906 61.9339 45.906ZM9.95446 45.906C4.46551 45.906 0 41.4516 0 35.9765C0 30.5013 4.46551 26.0469 9.95446 26.0469C15.4434 26.0469 19.9087 30.5013 19.9087 35.9765C19.9087 41.4516 15.4432 45.906 9.95446 45.906ZM61.9339 97.9999C56.4449 97.9999 51.9796 93.5455 51.9796 88.0703C51.9796 82.5952 56.4449 78.1408 61.9339 78.1408C67.4229 78.1408 71.8884 82.5952 71.8884 88.0703C71.8884 93.5455 67.4227 97.9999 61.9339 97.9999ZM9.95446 97.9999C4.46551 97.9999 0 93.5455 0 88.0703C0 82.5952 4.46551 78.1408 9.95446 78.1408C15.4434 78.1408 19.9087 82.5952 19.9087 88.0703C19.9087 93.5455 15.4432 97.9999 9.95446 97.9999Z" fill="#EC6990"/>
<path d="M88.0457 19.8592C82.5568 19.8592 78.0914 15.4048 78.0914 9.92958C78.0914 4.45441 82.557 0 88.0457 0C93.5345 0 98.0002 4.45441 98.0002 9.92958C98.0002 15.4048 93.5347 19.8592 88.0457 19.8592ZM88.0457 71.9531C82.5568 71.9531 78.0914 67.4986 78.0914 62.0235C78.0914 56.5483 82.5568 52.0939 88.0457 52.0939C93.5347 52.0939 98.0002 56.5483 98.0002 62.0235C98.0002 67.4986 93.5347 71.9531 88.0457 71.9531ZM35.8226 19.8592C30.3337 19.8592 25.8682 15.4048 25.8682 9.92958C25.8682 4.45441 30.3337 0 35.8226 0C41.3116 0 45.7769 4.45441 45.7769 9.92958C45.7767 15.4048 41.3114 19.8592 35.8226 19.8592ZM35.8226 71.9531C30.3337 71.9531 25.8682 67.4986 25.8682 62.0235C25.8682 56.5483 30.3337 52.0939 35.8226 52.0939C41.3116 52.0939 45.7769 56.5483 45.7769 62.0235C45.7767 67.4986 41.3114 71.9531 35.8226 71.9531Z" fill="#92D3F1"/>
<path d="M35.8224 0C35.8222 0 35.8222 0 35.8224 0V19.8592C41.3114 19.8592 45.7767 15.4048 45.7767 9.92958C45.7765 4.45441 41.3112 0 35.8224 0ZM35.8224 52.0939C35.8222 52.0939 35.8222 52.0939 35.8224 52.0939V71.9531C41.3114 71.9531 45.7767 67.4986 45.7767 62.0235C45.7765 56.5483 41.3112 52.0939 35.8224 52.0939ZM88.0457 0L88.0455 19.8592C93.5345 19.8592 98 15.4048 98 9.92958C98 4.45441 93.5346 0 88.0457 0Z" fill="#7198F8"/>
<path d="M9.95459 26.0469V45.906C15.4435 45.906 19.9089 41.4516 19.9089 35.9765C19.9089 30.5013 15.4434 26.0469 9.95459 26.0469ZM61.9342 26.0469V45.906C67.4232 45.906 71.8885 41.4516 71.8885 35.9765C71.8885 30.5013 67.423 26.0469 61.9342 26.0469Z" fill="#BF28AC"/>
<path d="M88.0456 52.0938L88.0454 71.9529C93.5344 71.9529 97.9999 67.4985 97.9999 62.0233C97.9999 56.5482 93.5346 52.0938 88.0456 52.0938Z" fill="#7198F8"/>
<path d="M9.95459 78.1406V97.9998C15.4435 97.9998 19.9089 93.5454 19.9089 88.0702C19.9089 82.595 15.4434 78.1406 9.95459 78.1406ZM61.9342 78.1406V97.9998C67.4232 97.9998 71.8885 93.5454 71.8885 88.0702C71.8885 82.595 67.423 78.1406 61.9342 78.1406Z" fill="#BF28AC"/>
</g>
<defs>
<clipPath id="clip0_13_663">
<rect width="98" height="98" fill="white"/>
</clipPath>
</defs>
</svg>
