<svg width="60" height="60" viewBox="0 0 60 60" fill="none" xmlns="http://www.w3.org/2000/svg">
<path fill-rule="evenodd" clip-rule="evenodd" d="M51.25 34.3926L31.7375 44.5751C31.2009 44.8544 30.6049 45.0003 30 45.0003C29.3951 45.0003 28.7991 44.8544 28.2625 44.5751L8.75 34.3926V46.8751C8.75 49.0351 10.3312 51.1463 13.2562 52.7657C17.0312 54.8595 23.125 56.2501 30 56.2501C36.875 56.2501 42.9688 54.8595 46.7438 52.7657C49.6688 51.1463 51.25 49.0351 51.25 46.8751V34.3926Z" fill="white"/>
<path fill-rule="evenodd" clip-rule="evenodd" d="M37.1625 13.5774L39.55 12.6949L42.5562 4.56619C42.6448 4.3267 42.8046 4.12008 43.0141 3.97416C43.2236 3.82823 43.4728 3.75 43.7281 3.75C43.9835 3.75 44.2327 3.82823 44.4422 3.97416C44.6517 4.12008 44.8115 4.3267 44.9 4.56619L47.9125 12.6949L56.0375 15.7024C56.278 15.7902 56.4856 15.9497 56.6323 16.1595C56.7791 16.3692 56.8578 16.619 56.8578 16.8749C56.8578 17.1309 56.7791 17.3807 56.6323 17.5904C56.4856 17.8001 56.278 17.9597 56.0375 18.0474L50.0063 20.2787L59.3312 25.1418C59.7438 25.3574 60 25.7843 60 26.2499C60 26.7156 59.7438 27.1424 59.3312 27.3581L30.5812 42.3581C30.2188 42.5474 29.7875 42.5474 29.425 42.3581L6.25 30.2687V43.7499C6.25 44.4399 5.6875 44.9999 5 44.9999C4.3125 44.9999 3.75 44.4399 3.75 43.7499V28.9643L0.675 27.3581C0.25625 27.1424 0 26.7156 0 26.2499C0 25.7843 0.25625 25.3574 0.675 25.1418L29.425 10.1418C29.6034 10.0485 29.8018 9.99977 30.0031 9.99977C30.2045 9.99977 30.4028 10.0485 30.5812 10.1418L37.1625 13.5774ZM32.5 21.8749L34.0187 25.9806L38.125 27.4999L34.0187 29.0193L32.5 33.1249L30.9813 29.0193L26.875 27.4999L30.9813 25.9806L32.5 21.8749ZM43.7313 8.60182L45.7625 14.1012C45.8937 14.4437 46.1625 14.7131 46.5063 14.8399L52 16.8749L46.5063 18.9099C46.1625 19.0368 45.8937 19.3062 45.7625 19.6487L43.7313 25.1481L41.6937 19.6487C41.5687 19.3062 41.3 19.0368 40.9562 18.9099L35.4562 16.8749L40.9562 14.8399C41.3 14.7131 41.5687 14.4437 41.6937 14.1012L43.7313 8.60182ZM52.4813 7.49994H51.2313C50.5375 7.49994 49.9813 8.05994 49.9813 8.74994C49.9813 9.43994 50.5375 9.99994 51.2313 9.99994H52.4813V11.2499C52.4813 11.9399 53.0375 12.4999 53.7313 12.4999C54.4188 12.4999 54.9813 11.9399 54.9813 11.2499V9.99994H56.2313C56.9188 9.99994 57.4813 9.43994 57.4813 8.74994C57.4813 8.05994 56.9188 7.49994 56.2313 7.49994H54.9813V6.24994C54.9813 5.55994 54.4188 4.99994 53.7313 4.99994C53.0375 4.99994 52.4813 5.55994 52.4813 6.24994V7.49994Z" fill="white"/>
</svg>
