<svg width="64" height="64" viewBox="0 0 64 64" fill="none" xmlns="http://www.w3.org/2000/svg">
<path d="M12.0025 11.9667H52.1972C52.926 11.971 53.6516 12.0627 54.3585 12.24C53.5812 9.79067 51.3145 8 48.6105 8H15.3892C12.6692 8 10.3905 9.81333 9.62784 12.2853C10.402 12.0754 11.2004 11.9682 12.0025 11.9667ZM7.99984 18.6667H55.9998C56.8025 18.6667 57.5758 18.788 58.3065 19.0093C58.1938 18.668 58.0528 18.3366 57.8852 18.0187C57.3297 16.9946 56.508 16.1397 55.5068 15.544C54.5056 14.9484 53.3621 14.6342 52.1972 14.6347H12.0025C10.8345 14.6342 9.68822 14.95 8.68533 15.5487C7.68243 16.1473 6.86039 17.0064 6.3065 18.0347C6.15058 18.3305 6.01818 18.6381 5.9105 18.9547C6.59111 18.7667 7.29375 18.6703 7.99984 18.668V18.6667ZM55.9998 21.3333H7.99984C6.58535 21.3333 5.2288 21.8952 4.2286 22.8954C3.22841 23.8956 2.6665 25.2522 2.6665 26.6667V52C2.6665 53.4145 3.22841 54.771 4.2286 55.7712C5.2288 56.7714 6.58535 57.3333 7.99984 57.3333H55.9998C57.4143 57.3333 58.7709 56.7714 59.7711 55.7712C60.7713 54.771 61.3332 53.4145 61.3332 52V26.6667C61.3332 25.2522 60.7713 23.8956 59.7711 22.8954C58.7709 21.8952 57.4143 21.3333 55.9998 21.3333ZM41.2185 42.7973L29.2185 49.7253C28.5918 50.0867 27.9052 50.268 27.2185 50.268C26.5318 50.268 25.8438 50.088 25.2185 49.7253C24.6076 49.3775 24.1003 48.8733 23.7488 48.2645C23.3973 47.6557 23.2143 46.9643 23.2185 46.2613V32.4053C23.2185 30.9587 23.9665 29.664 25.2185 28.9413C26.4705 28.2187 27.9665 28.2187 29.2185 28.9413L41.2185 35.8693C42.4705 36.592 43.2185 37.888 43.2185 39.3333C43.2185 40.7787 42.4705 42.0747 41.2185 42.7973Z" fill="white"/>
</svg>
