<svg width="423" height="9" viewBox="0 0 423 9" fill="none" xmlns="http://www.w3.org/2000/svg">
<path d="M15.6393 8.95438L3.39744 7.80671C3.15776 7.78424 2.9241 7.71868 2.70772 7.61319L2.02848 7.28206C0.473312 6.52392 0.549232 4.28256 2.15213 3.63138L2.67295 3.41979C2.91203 3.32267 3.16765 3.27273 3.42571 3.27273H10.0839H18.9677C19.0869 3.27273 19.2058 3.26208 19.3231 3.2409L27.9182 1.68902C28.1115 1.6541 28.309 1.64788 28.5041 1.67053L42.3077 3.27273H55.3986H65.4685L80.3888 1.65636C80.5116 1.64306 80.6354 1.64116 80.7585 1.65069L101.72 3.27273L127.902 1.63636H149.049L165.972 0.0187597C166.102 0.00628376 166.234 0.00667191 166.364 0.0199203L182.28 1.63636C185.301 1.63636 191.745 1.55455 193.357 1.22727C194.954 0.902911 212.509 2.42704 221.317 3.25072C221.477 3.26565 221.633 3.26089 221.791 3.23746L232.337 1.67954C232.531 1.65091 232.728 1.65091 232.922 1.67954L243.437 3.23288C243.616 3.25932 243.797 3.26135 243.977 3.2389L256.797 1.63636H282.979L303.119 3.27273H329.301L342.106 1.67201C342.296 1.64837 342.487 1.65189 342.675 1.68246L352.101 3.21411C352.339 3.25287 352.583 3.24808 352.82 3.19998L360.213 1.69823C360.415 1.65723 360.622 1.64765 360.826 1.66984L375.425 3.25134C375.556 3.26556 375.689 3.26675 375.82 3.25487L393.524 1.65665C393.673 1.64317 393.823 1.64652 393.972 1.66664L405.832 3.27273H421.97C422.864 3.27273 422.983 4.56848 422.103 4.73094L421.596 4.82455C420.95 4.94398 420.912 5.85688 421.547 6.02881C422.216 6.20989 422.126 7.18523 421.435 7.24132L414.895 7.77273L367.901 6.96033C367.68 6.9565 367.459 6.98949 367.248 7.05796L362.932 8.46062C362.668 8.54654 362.389 8.5764 362.112 8.54832L346.722 6.98525C346.522 6.9649 346.319 6.97494 346.122 7.01504L342.723 7.70541C342.504 7.74997 342.278 7.75739 342.057 7.72735L336.769 7.01133C336.493 6.97389 336.211 6.99472 335.943 7.07248L329.643 8.90078C329.416 8.96641 329.18 8.99158 328.946 8.97512L300.678 6.99521C300.299 6.96865 299.92 7.0507 299.586 7.23174L297.575 8.32091C297.25 8.49743 296.881 8.57993 296.511 8.55919L270.114 7.08005C269.605 7.05152 269.42 7.7394 269.874 7.97024C270.33 8.20172 270.142 8.89168 269.632 8.86027L239 6.97475C238.782 6.96137 238.564 6.98359 238.354 7.04052L232.98 8.49583C232.748 8.5587 232.507 8.57918 232.267 8.5563L216.089 7.0098C215.711 6.97371 215.331 7.04574 214.993 7.21748L211.967 8.75389C211.65 8.91504 211.295 8.98859 210.94 8.96694L191.343 7.77273L166.38 8.58403C166.239 8.5886 166.098 8.57829 165.959 8.55326L157.373 7.00294C157.195 6.97083 157.014 6.96297 156.834 6.97959L135.164 8.98031C135.023 8.9934 134.88 8.99131 134.738 8.97409L125.203 7.81198C124.99 7.78598 124.774 7.79454 124.563 7.83732L121.211 8.51816C120.975 8.56626 120.731 8.57105 120.492 8.53229L116.47 7.87865C116.055 7.81127 115.632 7.92426 115.306 8.18916C114.99 8.4455 114.583 8.55997 114.18 8.50542L109.409 7.85937C109.071 7.81353 108.769 8.07676 108.769 8.41841C108.769 8.73671 108.506 8.99198 108.188 8.98229L68.6549 7.77777C68.5448 7.77441 68.4347 7.78015 68.3256 7.79493L62.6123 8.5686C62.5026 8.58345 62.392 8.58917 62.2814 8.58572L36.6603 7.78506C36.4444 7.77831 36.2657 7.95149 36.2657 8.16748C36.2657 8.39407 36.0699 8.57102 35.8445 8.54812L28.81 7.83369C28.4888 7.80107 28.2098 8.05319 28.2098 8.37605C28.2098 8.7062 27.9186 8.96057 27.5915 8.91627L19.6746 7.84419C19.3288 7.79736 18.9768 7.84183 18.6535 7.97317L16.5787 8.81604C16.2812 8.9369 15.959 8.98435 15.6393 8.95438Z" fill="#FFD700"/>
</svg>
