<svg width="66" height="66" viewBox="0 0 66 66" fill="none" xmlns="http://www.w3.org/2000/svg">
<path d="M27.0184 40.2186C26.6059 40.2186 26.2966 40.0124 26.0903 39.703C25.8841 39.3936 25.7809 38.9811 25.8841 38.6718L28.5653 30.3186L18.7684 24.9562L20.2122 15.5718L17.1184 20.1093L14.6434 23.5124C14.2309 24.028 13.6122 24.3374 12.9934 24.3374C12.7872 24.3374 12.5809 24.3374 12.3747 24.2343C11.7559 24.028 11.2403 23.6155 11.0341 22.9968C10.8278 22.378 10.9309 21.6562 11.2403 21.1405L18.2528 10.9312C18.6653 10.3124 19.3872 9.8999 20.2122 9.8999H27.6372C28.4622 9.8999 29.1841 10.3124 29.5966 11.0343L31.1434 13.5093H38.8778C39.5997 13.5093 40.2184 13.8187 40.6309 14.4374C41.0434 15.0562 41.1466 15.6749 40.9403 16.3968C40.6309 17.3249 39.8059 17.9437 38.8778 17.9437H28.0497L27.8434 23.4093L32.5872 26.503C33.4122 27.1218 33.8247 28.153 33.5153 29.1843L31.3497 36.8155H33.8247C34.3403 36.8155 34.8559 37.1249 35.1653 37.5374C35.4747 37.9499 35.4747 38.5686 35.2684 39.0843L35.1653 39.3937C34.9591 39.9093 34.3403 40.3218 33.7216 40.3218H27.0184V40.2186Z" fill="white"/>
<path d="M15.7779 49.9125C15.4685 49.9125 15.056 49.7062 14.8497 49.5C14.6435 49.1906 14.5404 48.8812 14.6435 48.4687L18.5622 26.8125L23.5122 29.2875L19.5935 46.7156H21.4497C21.9654 46.7156 22.481 47.025 22.7904 47.4375C23.0997 47.85 23.2029 48.4687 22.9966 48.8812C22.7904 49.5 22.1716 49.9125 21.5529 49.9125H15.7779ZM28.3591 4.125C28.3591 6.39375 26.5029 8.25 24.2341 8.25C21.9654 8.25 20.1091 6.39375 20.1091 4.125C20.1091 1.85625 21.9654 0 24.2341 0C26.5029 0 28.3591 1.85625 28.3591 4.125Z" fill="white"/>
<path d="M63.5248 22.4812V27.6375C63.5248 27.9469 63.3186 28.3594 63.1123 28.5656L19.6967 65.6906C19.4905 65.8969 19.1811 66 18.8717 66H15.1592V52.4906C15.1592 51.8719 15.6748 51.2531 16.3967 51.2531H27.5342V42.7969C27.5342 42.1781 28.0498 41.5594 28.7717 41.5594H38.7748V33.1031C38.7748 32.4844 39.2905 31.8656 40.0123 31.8656H49.9123V23.4094C49.9123 22.7906 50.428 22.1719 51.1498 22.1719H63.5248V22.4812ZM14.953 29.5969L13.0967 28.7719L13.8186 27.1219C13.9217 27.0187 13.9217 26.8125 13.8186 26.7094C13.7155 26.6062 13.6123 26.4 13.5092 26.4L9.59047 24.6469C9.48734 24.5437 9.28109 24.5437 9.17796 24.6469C9.07484 24.75 8.86859 24.8531 8.86859 24.9563L8.14672 26.6062L6.08422 25.7812C5.98109 25.6781 5.77484 25.6781 5.67172 25.6781C5.46547 25.6781 5.36234 25.6781 5.25922 25.7812C4.94984 25.8844 4.74359 26.0906 4.64047 26.4L2.68109 31.0406C2.47484 31.35 2.57797 31.7625 2.68109 31.8656C2.78422 32.175 2.99047 32.3813 3.29984 32.4844L12.0655 36.3C12.2717 36.4031 12.3748 36.4031 12.478 36.4031C12.9936 36.4031 13.4061 36.0937 13.6123 35.6812L15.5717 31.0406C15.778 30.525 15.5717 29.9063 14.953 29.5969ZM9.59047 25.9875L12.478 27.225L11.9623 28.3594L9.07484 27.1219L9.59047 25.9875Z" fill="white"/>
</svg>
