<svg width="97" height="97" viewBox="0 0 97 97" fill="none" xmlns="http://www.w3.org/2000/svg">
<g clip-path="url(#clip0_13_560)">
<path d="M93.6552 90.3104H95.3277C95.7712 90.3104 96.1966 90.4866 96.5102 90.8002C96.8239 91.1139 97.0001 91.5392 97.0001 91.9828V95.3276C97.0001 95.7712 96.8239 96.1966 96.5102 96.5102C96.1966 96.8238 95.7712 97 95.3277 97H17.2427C12.9488 97.0547 8.79263 95.4865 5.60513 92.6091C2.41762 89.7316 0.433761 85.757 0.0502427 81.48C-0.115151 79.1889 0.193228 76.8882 0.956152 74.7215C1.71908 72.5547 2.92018 70.5684 4.48459 68.8863C6.049 67.2042 7.94315 65.8624 10.049 64.9446C12.1548 64.0268 14.4271 63.5527 16.7242 63.5518H95.3277C95.7712 63.5518 96.1966 63.728 96.5102 64.0416C96.8239 64.3552 97.0001 64.7806 97.0001 65.2242V68.569C97.0001 69.0126 96.8239 69.4379 96.5102 69.7516C96.1966 70.0652 95.7712 70.2414 95.3277 70.2414H93.6552" fill="#E04C34"/>
<path d="M93.6553 70.2412V90.3102H17.0755C14.5963 90.3444 12.1882 89.4813 10.295 87.8801C8.40184 86.2789 7.15117 84.0475 6.77345 81.5969C6.58689 80.18 6.70485 78.7396 7.11943 77.3719C7.53402 76.0042 8.23569 74.7407 9.17757 73.6658C10.1195 72.591 11.2799 71.7295 12.5813 71.1389C13.8827 70.5484 15.2952 70.2423 16.7243 70.2412H93.6553Z" fill="#F8E8AB"/>
<path d="M25.0861 85.2933H20.0689C19.6253 85.2933 19.2 85.1171 18.8863 84.8034C18.5727 84.4898 18.3965 84.0644 18.3965 83.6209C18.3965 83.1773 18.5727 82.7519 18.8863 82.4383C19.2 82.1246 19.6253 81.9484 20.0689 81.9484H25.0861C25.5297 81.9484 25.9551 82.1246 26.2687 82.4383C26.5824 82.7519 26.7586 83.1773 26.7586 83.6209C26.7586 84.0644 26.5824 84.4898 26.2687 84.8034C25.9551 85.1171 25.5297 85.2933 25.0861 85.2933ZM78.6034 85.2933H31.7758C31.3322 85.2933 30.9069 85.1171 30.5932 84.8034C30.2796 84.4898 30.1034 84.0644 30.1034 83.6209C30.1034 83.1773 30.2796 82.7519 30.5932 82.4383C30.9069 82.1246 31.3322 81.9484 31.7758 81.9484H78.6034C79.0469 81.9484 79.4723 82.1246 79.786 82.4383C80.0996 82.7519 80.2758 83.1773 80.2758 83.6209C80.2758 84.0644 80.0996 84.4898 79.786 84.8034C79.4723 85.1171 79.0469 85.2933 78.6034 85.2933ZM86.9655 85.2933H85.293C84.8495 85.2933 84.4241 85.1171 84.1105 84.8034C83.7968 84.4898 83.6206 84.0644 83.6206 83.6209C83.6206 83.1773 83.7968 82.7519 84.1105 82.4383C84.4241 82.1246 84.8495 81.9484 85.293 81.9484H86.9655C87.409 81.9484 87.8344 82.1246 88.148 82.4383C88.4617 82.7519 88.6379 83.1773 88.6379 83.6209C88.6379 84.0644 88.4617 84.4898 88.148 84.8034C87.8344 85.1171 87.409 85.2933 86.9655 85.2933ZM86.9655 78.6036H81.9482C81.5047 78.6036 81.0793 78.4274 80.7656 78.1138C80.452 77.8001 80.2758 77.3748 80.2758 76.9312C80.2758 76.4877 80.452 76.0623 80.7656 75.7486C81.0793 75.435 81.5047 75.2588 81.9482 75.2588H86.9655C87.409 75.2588 87.8344 75.435 88.148 75.7486C88.4617 76.0623 88.6379 76.4877 88.6379 76.9312C88.6379 77.3748 88.4617 77.8001 88.148 78.1138C87.8344 78.4274 87.409 78.6036 86.9655 78.6036ZM75.2586 78.6036H45.1551C44.7116 78.6036 44.2862 78.4274 43.9725 78.1138C43.6589 77.8001 43.4827 77.3748 43.4827 76.9312C43.4827 76.4877 43.6589 76.0623 43.9725 75.7486C44.2862 75.435 44.7116 75.2588 45.1551 75.2588H75.2586C75.7021 75.2588 76.1275 75.435 76.4411 75.7486C76.7548 76.0623 76.931 76.4877 76.931 76.9312C76.931 77.3748 76.7548 77.8001 76.4411 78.1138C76.1275 78.4274 75.7021 78.6036 75.2586 78.6036ZM38.4655 78.6036H20.0689C19.6253 78.6036 19.2 78.4274 18.8863 78.1138C18.5727 77.8001 18.3965 77.3748 18.3965 76.9312C18.3965 76.4877 18.5727 76.0623 18.8863 75.7486C19.2 75.435 19.6253 75.2588 20.0689 75.2588H38.4655C38.909 75.2588 39.3344 75.435 39.648 75.7486C39.9617 76.0623 40.1379 76.4877 40.1379 76.9312C40.1379 77.3748 39.9617 77.8001 39.648 78.1138C39.3344 78.4274 38.909 78.6036 38.4655 78.6036Z" fill="#E2BE50"/>
<path d="M71.9136 28.5314L80.5432 25.4541L85.1792 23.7984L95.8826 19.9686C96.2055 19.8514 96.4844 19.6377 96.6816 19.3564C96.8787 19.0751 96.9845 18.74 96.9845 18.3965C96.9845 18.0531 96.8787 17.7179 96.6816 17.4367C96.4844 17.1554 96.2055 16.9417 95.8826 16.8245L49.0851 0.100328C48.7064 -0.0334427 48.2932 -0.0334427 47.9144 0.100328L1.11697 16.8245C0.794105 16.9417 0.515153 17.1554 0.318021 17.4367C0.120889 17.7179 0.0151367 18.0531 0.0151367 18.3965C0.0151367 18.74 0.120889 19.0751 0.318021 19.3564C0.515153 19.6377 0.794105 19.8514 1.11697 19.9686L25.086 28.5314H71.9136Z" fill="#393F4B"/>
<path d="M25.0864 43.4827V21.7414C25.0864 18.9652 35.5725 16.7241 48.5002 16.7241C61.428 16.7241 71.914 18.9652 71.914 21.7414V43.4827H25.0864Z" fill="#464F5E"/>
<path d="M83.6207 25.0864C83.1771 25.0864 82.7517 24.9102 82.4381 24.5965C82.1244 24.2829 81.9482 23.8575 81.9482 23.414V12.4429C81.9482 11.9994 82.1244 11.574 82.4381 11.2603C82.7517 10.9467 83.1771 10.7705 83.6207 10.7705C84.0642 10.7705 84.4896 10.9467 84.8032 11.2603C85.1169 11.574 85.2931 11.9994 85.2931 12.4429V23.414C85.2931 23.8575 85.1169 24.2829 84.8032 24.5965C84.4896 24.9102 84.0642 25.0864 83.6207 25.0864Z" fill="#EDC100"/>
<path d="M80.2759 26.7584V31.7756C80.2759 32.2192 80.4521 32.6446 80.7657 32.9582C81.0794 33.2719 81.5047 33.4481 81.9483 33.4481H85.2931C85.7367 33.4481 86.1621 33.2719 86.4757 32.9582C86.7893 32.6446 86.9655 32.2192 86.9655 31.7756V26.7584C86.9655 25.8713 86.6131 25.0205 85.9859 24.3933C85.3586 23.766 84.5078 23.4136 83.6207 23.4136C82.7336 23.4136 81.8828 23.766 81.2556 24.3933C80.6283 25.0205 80.2759 25.8713 80.2759 26.7584Z" fill="#F1D24B"/>
<path d="M48.5002 48.4998C61.4313 48.4998 71.914 46.2535 71.914 43.4826C71.914 40.7116 61.4313 38.4653 48.5002 38.4653C35.5691 38.4653 25.0864 40.7116 25.0864 43.4826C25.0864 46.2535 35.5691 48.4998 48.5002 48.4998Z" fill="#393F4B"/>
</g>
<defs>
<clipPath id="clip0_13_560">
<rect width="97" height="97" fill="white"/>
</clipPath>
</defs>
</svg>
