<svg width="86" height="86" viewBox="0 0 86 86" fill="none" xmlns="http://www.w3.org/2000/svg">
<path d="M77.9925 52.7751C77.8522 52.7751 77.7156 52.7797 77.5806 52.786C79.8581 50.8808 81.0564 47.5054 81.0564 44.2635C81.0564 39.9892 77.5771 36.5117 73.3006 36.5117C69.0241 36.5117 65.5399 39.9892 65.5399 44.2635C65.5399 48.1598 67.6469 54.3413 73.3006 54.3413C73.3103 54.3413 73.3197 54.3404 73.3296 54.3403C72.5991 54.884 71.9827 55.4977 71.4197 56.0592L61.3436 66.1223H49.5259C47.3106 66.1223 45.5083 67.9227 45.5083 70.1357C45.5083 72.3487 47.3106 74.1444 49.5259 74.1444H62.8175C64.046 74.1444 65.1099 73.704 65.9798 72.8356L68.7454 70.0734V81.2826C68.7454 81.4608 68.8162 81.6317 68.9422 81.7577C69.0682 81.8837 69.2391 81.9545 69.4173 81.9545H83.1446C83.3228 81.9545 83.4936 81.8837 83.6196 81.7577C83.7456 81.6317 83.8164 81.4608 83.8164 81.2826V58.5922C83.8164 55.3845 81.204 52.775 77.9926 52.775L77.9925 52.7751Z" fill="#83D9FF"/>
<path d="M73.3007 36.5127C69.0215 36.5127 65.54 39.9902 65.54 44.2645C65.54 48.1608 67.647 54.3422 73.3007 54.3422C78.3383 54.3422 81.0565 49.1498 81.0565 44.2645C81.0565 39.9902 77.5772 36.5127 73.3007 36.5127Z" fill="#FEDFC5"/>
<path d="M73.3006 36.5119C72.8421 36.5119 72.3934 36.554 71.9565 36.6306C75.5948 37.2686 78.3691 40.4472 78.3691 44.2635C78.3691 48.697 76.1302 53.3827 71.9512 54.2118C72.3771 54.2941 72.8253 54.3413 73.3006 54.3413C78.3382 54.3413 81.0564 49.1488 81.0564 44.2635C81.0564 39.9892 77.5771 36.5117 73.3006 36.5117V36.5119Z" fill="#FECBAA"/>
<path d="M78.9199 52.8506C80.3454 53.6499 81.3093 55.1744 81.3093 56.925V81.2837C81.3093 81.4619 81.2385 81.6328 81.1125 81.7588C80.9865 81.8848 80.8156 81.9555 80.6374 81.9555H83.1443C83.3225 81.9555 83.4934 81.8848 83.6194 81.7588C83.7454 81.6328 83.8162 81.4619 83.8162 81.2837V58.5933C83.8162 55.701 81.6917 53.2957 78.9199 52.8506ZM60.8663 74.1453H62.8172C64.0458 74.1453 65.1097 73.7049 65.9796 72.8365L68.7452 70.0743L73.9324 64.8934C74.0595 64.7693 74.1608 64.6211 74.2303 64.4575C74.2998 64.2939 74.3361 64.1182 74.3372 63.9405C74.3383 63.7627 74.3042 63.5866 74.2367 63.4221C74.1693 63.2577 74.0699 63.1083 73.9443 62.9825C73.8187 62.8568 73.6694 62.7572 73.505 62.6895C73.3407 62.6219 73.1645 62.5875 72.9868 62.5884C72.8091 62.5893 72.6333 62.6254 72.4696 62.6947C72.306 62.764 72.1577 62.865 72.0333 62.992L62.6137 72.4001C61.8005 73.1165 60.5146 74.0244 59.1162 74.1453L60.9002 74.1112L60.8661 74.1453H60.8663Z" fill="#62CEF4"/>
<path d="M42.9985 13.2373C34.4634 13.2373 27.5195 20.1749 27.5195 28.7024C27.5195 31.9678 28.528 35.0905 30.4356 37.7325C31.1199 38.6807 31.8197 39.4621 32.4961 40.2176C33.8587 41.7393 35.0474 43.0696 35.6024 45.2611C34.6972 45.7055 34.071 46.6337 34.071 47.7075C34.071 49.0005 34.9805 50.0839 36.1944 50.3599C35.9176 50.7942 35.7705 51.2984 35.7703 51.8133C35.7703 53.2322 36.865 54.3996 38.2559 54.5234C38.0017 54.9446 37.8672 55.4272 37.8669 55.9192C37.8669 57.4228 39.0916 58.6463 40.5966 58.6463H45.4048C46.9073 58.6463 48.1296 57.423 48.1296 55.9192C48.1296 55.4087 47.9864 54.9325 47.7415 54.5235C49.1317 54.4016 50.2264 53.2335 50.2264 51.8133C50.2264 51.2792 50.0698 50.782 49.8036 50.3609C51.0195 50.0863 51.9308 49.0021 51.9308 47.7077C51.9308 46.6337 51.3046 45.7055 50.3992 45.2611C50.9547 43.066 52.1451 41.7344 53.5095 40.2111C54.1842 39.4576 54.8821 38.6784 55.5661 37.7327C57.4737 35.0905 58.4822 31.9678 58.4822 28.7024C58.4822 20.1749 51.5362 13.2373 42.9984 13.2373H42.9985Z" fill="#FDD559"/>
<path d="M8.00741 52.7751C8.14766 52.7751 8.28422 52.7797 8.41927 52.786C6.14178 50.8808 4.94349 47.5054 4.94349 44.2635C4.94349 39.9892 8.42279 36.5117 12.6993 36.5117C16.9784 36.5117 20.4599 39.9892 20.4599 44.2635C20.4599 48.1598 18.3529 54.3413 12.6993 54.3413C12.6895 54.3413 12.6801 54.3404 12.6702 54.3403C13.4007 54.884 14.0172 55.4977 14.5802 56.0592L24.6563 66.1223H36.4739C38.6893 66.1223 40.4916 67.9227 40.4916 70.1357C40.4916 72.3487 38.6893 74.1444 36.4739 74.1444H23.1824C21.9539 74.1444 20.8899 73.704 20.02 72.8356L17.2544 70.0734V81.2826C17.2544 81.4608 17.1836 81.6317 17.0576 81.7577C16.9316 81.8837 16.7607 81.9545 16.5825 81.9545H2.85547C2.67728 81.9545 2.50638 81.8837 2.38038 81.7577C2.25438 81.6317 2.18359 81.4608 2.18359 81.2826V58.5922C2.18359 55.3845 4.79601 52.7751 8.00741 52.7751Z" fill="#FF84A7"/>
<path d="M12.6996 36.5127C16.9788 36.5127 20.4603 39.9902 20.4603 44.2645C20.4603 48.1608 18.3533 54.3422 12.6996 54.3422C7.66209 54.3422 4.94385 49.1498 4.94385 44.2645C4.94385 39.9902 8.42315 36.5127 12.6996 36.5127Z" fill="#FEDFC5"/>
<path d="M12.6996 36.5119C13.1582 36.5119 13.6068 36.554 14.0437 36.6306C10.4055 37.2686 7.63118 40.4472 7.63118 44.2635C7.63118 48.697 9.87004 53.3827 14.0491 54.2118C13.6231 54.2941 13.175 54.3413 12.6996 54.3413C7.66209 54.3413 4.94385 49.1488 4.94385 44.2635C4.94385 39.9892 8.42315 36.5117 12.6996 36.5117V36.5119Z" fill="#FECBAA"/>
<path d="M7.07988 52.8506C5.65433 53.6499 4.69053 55.1744 4.69053 56.925V81.2837C4.69053 81.4619 4.76131 81.6328 4.88732 81.7588C5.01332 81.8848 5.18421 81.9555 5.3624 81.9555H2.85547C2.67728 81.9555 2.50638 81.8848 2.38038 81.7588C2.25438 81.6328 2.18359 81.4619 2.18359 81.2837V58.5933C2.18359 55.701 4.30806 53.2957 7.07988 52.8506ZM25.1335 74.1453H23.1825C21.954 74.1453 20.8901 73.7049 20.0202 72.8365L17.2546 70.0743L12.0674 64.8934C11.9402 64.7693 11.839 64.6211 11.7695 64.4575C11.7 64.2939 11.6637 64.1182 11.6626 63.9405C11.6615 63.7627 11.6956 63.5866 11.7631 63.4221C11.8305 63.2577 11.9299 63.1083 12.0555 62.9825C12.1811 62.8568 12.3304 62.7572 12.4948 62.6895C12.6591 62.6219 12.8352 62.5875 13.013 62.5884C13.1907 62.5893 13.3665 62.6254 13.5301 62.6947C13.6938 62.764 13.8421 62.865 13.9664 62.992L23.3861 72.4001C24.1993 73.1165 25.4852 74.0244 26.8836 74.1453L25.0996 74.1112L25.1335 74.1453Z" fill="#F4739E"/>
<path d="M51.9312 47.7076C51.9312 46.204 50.7066 44.9805 49.2014 44.9805H36.801C35.2958 44.9805 34.0713 46.2038 34.0713 47.7076C34.0713 49.0006 34.9808 50.084 36.1947 50.36C35.9179 50.7942 35.7708 51.2985 35.7706 51.8134C35.7706 53.2323 36.8653 54.3997 38.2562 54.5234C38.002 54.9447 37.8675 55.4273 37.8672 55.9193C37.8672 57.4229 39.0919 58.6464 40.5969 58.6464H45.4052C46.9076 58.6464 48.1299 57.4231 48.1299 55.9193C48.1299 55.4088 47.9867 54.9326 47.7418 54.5236C49.132 54.4017 50.2267 53.2336 50.2267 51.8134C50.2267 51.2793 50.0701 50.7821 49.8039 50.361C51.0198 50.0864 51.9311 49.0021 51.9311 47.7078L51.9312 47.7076Z" fill="#5F849B"/>
<path d="M51.9316 47.7076C51.9316 46.204 50.7069 44.9805 49.2018 44.9805H46.0446C47.55 44.9805 48.7745 46.2038 48.7745 47.7076C48.7745 49.002 47.8631 50.0862 46.6473 50.3608C46.9233 50.795 47.0699 51.2988 47.0701 51.8133C47.0701 53.2334 45.9754 54.4013 44.5852 54.5234C44.8389 54.9448 44.9731 55.4273 44.9733 55.9191C44.9733 57.4228 43.751 58.6462 42.2485 58.6462H45.4057C46.9082 58.6462 48.1305 57.4229 48.1305 55.9191C48.1305 55.4086 47.9872 54.9325 47.7423 54.5234C49.1326 54.4015 50.2272 53.2334 50.2272 51.8133C50.2272 51.2791 50.0707 50.7819 49.8044 50.3608C51.0204 50.0862 51.9316 49.002 51.9316 47.7076Z" fill="#4E7689"/>
<path d="M47.521 24.7458C45.2877 24.7458 43.4704 26.5591 43.4704 28.7879V30.1475H42.5311V28.7879C42.5311 26.5591 40.714 24.7458 38.4806 24.7458C36.2471 24.7458 34.43 26.5591 34.43 28.7879C34.43 31.0167 36.2471 32.835 38.4806 32.835H39.8436V44.9801H42.5311V32.835H43.4704V44.9801H46.1579V32.835H47.521C49.7518 32.835 51.5665 31.0194 51.5665 28.7879C51.5665 26.5565 49.7518 24.7458 47.521 24.7458ZM37.1177 28.7879C37.1177 28.041 37.7292 27.4333 38.4807 27.4333C39.2322 27.4333 39.8438 28.041 39.8438 28.7879V30.1475H38.4807C37.7292 30.1475 37.1177 29.5376 37.1177 28.7879ZM47.521 30.1475H46.1579V28.7879C46.1579 28.041 46.7695 27.4333 47.521 27.4333C48.2725 27.4333 48.8792 28.041 48.8792 28.7879C48.8792 29.5349 48.27 30.1475 47.521 30.1475ZM23.0298 30.0457H19.6597C18.9176 30.0457 18.3159 29.4442 18.3159 28.7019C18.3159 27.9597 18.9176 27.3582 19.6597 27.3582H23.0298C23.7719 27.3582 24.3735 27.9597 24.3735 28.7019C24.3735 29.4442 23.7719 30.0457 23.0298 30.0457ZM28.879 15.944C28.7024 15.9443 28.5275 15.9096 28.3644 15.842C28.2012 15.7744 28.0531 15.6752 27.9284 15.5501L25.5461 13.166C25.4214 13.0412 25.3225 12.893 25.255 12.7299C25.1876 12.5668 25.1529 12.3921 25.153 12.2156C25.153 12.0391 25.1879 11.8644 25.2555 11.7014C25.3231 11.5384 25.4221 11.3903 25.547 11.2656C25.7991 11.0137 26.1409 10.8723 26.4972 10.8724C26.8536 10.8725 27.1953 11.0142 27.4472 11.2663L29.8295 13.6504C29.9542 13.7752 30.0532 13.9234 30.1206 14.0865C30.1881 14.2496 30.2228 14.4243 30.2227 14.6008C30.2226 14.7773 30.1878 14.952 30.1202 15.115C30.0526 15.278 29.9535 15.4261 29.8287 15.5508C29.7041 15.6757 29.556 15.7747 29.3931 15.8422C29.2301 15.9097 29.0554 15.9443 28.879 15.944ZM42.9984 10.1021C42.642 10.1021 42.3002 9.9605 42.0482 9.7085C41.7962 9.4565 41.6547 9.11471 41.6547 8.75832V5.38769C41.6547 5.03131 41.7962 4.68952 42.0482 4.43752C42.3002 4.18552 42.642 4.04395 42.9984 4.04395C43.3548 4.04395 43.6966 4.18552 43.9486 4.43752C44.2006 4.68952 44.3422 5.03131 44.3422 5.38769V8.75832C44.3422 9.11471 44.2006 9.4565 43.9486 9.7085C43.6966 9.9605 43.3548 10.1021 42.9984 10.1021ZM57.118 15.944C56.9414 15.9443 56.7665 15.9096 56.6033 15.8419C56.4401 15.7743 56.292 15.675 56.1673 15.5498C55.9155 15.2977 55.7742 14.9558 55.7744 14.5994C55.7746 14.2431 55.9164 13.9014 56.1685 13.6496L58.5555 11.2654C58.6804 11.1407 58.8285 11.0418 58.9916 10.9744C59.1547 10.907 59.3294 10.8723 59.5059 10.8724C59.6823 10.8725 59.857 10.9074 60.02 10.975C60.183 11.0427 60.3311 11.1417 60.4558 11.2666C60.7076 11.5188 60.8489 11.8606 60.8487 12.217C60.8485 12.5733 60.7067 12.915 60.4546 13.1668L58.0676 15.551C57.943 15.6758 57.795 15.7748 57.632 15.8422C57.4691 15.9097 57.2944 15.9443 57.118 15.944ZM66.3422 30.0457H62.9674C62.2253 30.0457 61.6236 29.4442 61.6236 28.7019C61.6236 27.9597 62.2253 27.3582 62.9674 27.3582H66.3422C67.0843 27.3582 67.686 27.9597 67.686 28.7019C67.686 29.4442 67.0843 30.0457 66.3422 30.0457Z" fill="#FFB14C"/>
<path d="M64.9901 81.9555V74.8174C64.9901 74.6392 64.9194 74.4683 64.7934 74.3423C64.6674 74.2163 64.4965 74.1455 64.3183 74.1455H21.6836C21.5054 74.1455 21.3345 74.2163 21.2085 74.3423C21.0825 74.4683 21.0117 74.6392 21.0117 74.8174V81.9555H64.99H64.9901Z" fill="#FFAE85"/>
<path d="M64.3183 74.1455H21.6836C21.5054 74.1455 21.3345 74.2163 21.2085 74.3423C21.0825 74.4683 21.0117 74.6392 21.0117 74.8174V76.9002H61.8088C61.987 76.9002 62.1579 76.971 62.2839 77.097C62.4099 77.223 62.4807 77.3939 62.4807 77.5721V81.9557H64.9901V74.8175C64.9901 74.6394 64.9194 74.4685 64.7934 74.3425C64.6674 74.2165 64.4965 74.1455 64.3183 74.1455Z" fill="#EA9E7D"/>
<path d="M42.9989 13.2373C42.5222 13.2376 42.0459 13.2598 41.5713 13.3037C49.4421 14.0259 55.6272 20.6558 55.6272 28.7024C55.6272 31.9677 54.6188 35.0904 52.7111 37.7327C52.0272 38.6784 51.3294 39.4576 50.6545 40.2111C49.3496 41.668 48.2047 42.951 47.6215 44.9805H49.2014C49.6316 44.9805 50.0374 45.0832 50.3997 45.2611C50.9552 43.066 52.1456 41.7344 53.51 40.2111C54.1847 39.4576 54.8826 38.6784 55.5666 37.7327C57.4742 35.0905 58.4827 31.9678 58.4827 28.7024C58.4827 20.1749 51.5367 13.2373 42.9989 13.2373Z" fill="#FDC259"/>
</svg>
