<svg width="516" height="333" viewBox="0 0 516 333" fill="none" xmlns="http://www.w3.org/2000/svg">
<g clip-path="url(#clip0_14_505)">
<path d="M383.978 88.9265C379.472 88.9265 375.809 85.2583 375.809 80.7516C375.809 76.2448 379.474 72.5767 383.978 72.5767C388.482 72.5767 392.147 76.2448 392.147 80.7516C392.147 85.2583 388.482 88.9265 383.978 88.9265ZM383.978 74.5569C380.566 74.5569 377.79 77.3355 377.79 80.7494C377.79 84.1634 380.566 86.942 383.978 86.942C387.39 86.942 390.166 84.1634 390.166 80.7494C390.166 77.3355 387.39 74.5569 383.978 74.5569Z" fill="#1B77E3"/>
<path d="M144.679 61.3181C140.173 61.3181 136.51 57.6499 136.51 53.1432C136.51 48.6364 140.175 44.9683 144.679 44.9683C149.183 44.9683 152.848 48.6364 152.848 53.1432C152.848 57.6499 149.183 61.3181 144.679 61.3181ZM144.679 46.9484C141.265 46.9484 138.491 49.7271 138.491 53.141C138.491 56.555 141.267 59.3336 144.679 59.3336C148.091 59.3336 150.867 56.555 150.867 53.141C150.867 49.7271 148.091 46.9484 144.679 46.9484Z" fill="#1B77E3"/>
<path d="M69.5702 189.876C65.0644 189.876 61.4009 186.208 61.4009 181.701C61.4009 177.194 65.0665 173.526 69.5702 173.526C74.0739 173.526 77.7395 177.194 77.7395 181.701C77.7395 186.208 74.0739 189.876 69.5702 189.876ZM69.5702 175.508C66.1564 175.508 63.3818 178.287 63.3818 181.701C63.3818 185.115 66.1585 187.893 69.5702 187.893C72.9818 187.893 75.7585 185.115 75.7585 181.701C75.7585 178.287 72.9818 175.508 69.5702 175.508Z" fill="#1B77E3"/>
<path d="M266.247 61.3181C261.741 61.3181 258.078 57.6499 258.078 53.1432C258.078 48.6364 261.743 44.9683 266.247 44.9683C270.751 44.9683 274.416 48.6364 274.416 53.1432C274.416 57.6499 270.751 61.3181 266.247 61.3181ZM266.247 46.9484C262.835 46.9484 260.059 49.7271 260.059 53.141C260.059 56.555 262.835 59.3336 266.247 59.3336C269.659 59.3336 272.435 56.555 272.435 53.141C272.435 49.7271 269.659 46.9484 266.247 46.9484Z" fill="#1B77E3"/>
<path d="M478.844 287.682L476.873 287.487C478.45 271.533 478.869 255.768 478.056 243.093C477.07 227.711 474.287 217.084 470.008 212.359C468.268 210.438 466.336 209.504 464.103 209.504C462.005 209.504 460.179 210.326 458.52 212.018C452.42 218.234 449.32 235.835 449.79 261.582L447.809 261.618C447.589 249.588 448.143 239.245 449.453 230.877C450.992 221.048 453.567 214.235 457.106 210.628C459.129 208.568 461.483 207.521 464.101 207.521C466.886 207.521 469.366 208.701 471.474 211.029C481.407 221.997 481.792 257.818 478.841 287.684L478.844 287.682Z" fill="#1B77E3"/>
<path d="M465.093 222.107H463.112V318.747H465.093V222.107Z" fill="#1B77E3"/>
<path d="M457.229 229.517L455.828 230.919L463.318 238.414L464.719 237.012L457.229 229.517Z" fill="#1B77E3"/>
<path d="M457.227 245.027L455.827 246.428L463.317 253.923L464.717 252.522L457.227 245.027Z" fill="#1B77E3"/>
<path d="M457.226 260.543L455.825 261.944L463.315 269.44L464.716 268.038L457.226 260.543Z" fill="#1B77E3"/>
<path d="M457.226 276.058L455.826 277.46L463.316 284.955L464.716 283.554L457.226 276.058Z" fill="#1B77E3"/>
<path d="M460.191 294.536L458.791 295.938L463.317 300.468L464.718 299.066L460.191 294.536Z" fill="#1B77E3"/>
<path d="M470.98 236.526L463.49 244.021L464.89 245.423L472.381 237.928L470.98 236.526Z" fill="#1B77E3"/>
<path d="M470.99 252.075L463.499 259.569L464.899 260.971L472.39 253.477L470.99 252.075Z" fill="#1B77E3"/>
<path d="M470.981 267.558L463.491 275.053L464.891 276.455L472.382 268.96L470.981 267.558Z" fill="#1B77E3"/>
<path d="M470.979 283.072L463.489 290.567L464.89 291.969L472.38 284.473L470.979 283.072Z" fill="#1B77E3"/>
<path d="M470.98 298.583L463.49 306.079L464.891 307.48L472.381 299.985L470.98 298.583Z" fill="#1B77E3"/>
<path d="M492.13 319.213L490.384 318.277C496.052 307.679 500.536 297.676 503.349 289.351C506.638 279.618 507.609 272.19 506.158 267.868C505.508 265.932 504.407 264.629 502.792 263.886C501.129 263.119 499.366 263.155 497.404 263.994C486.469 268.672 473.55 296.584 465.81 319.067L463.938 318.421C472.187 294.459 485.108 267.099 496.625 262.171C499.095 261.114 501.449 261.084 503.62 262.084C505.728 263.054 507.214 264.786 508.035 267.234C509.647 272.038 508.701 279.692 505.224 289.984C502.378 298.413 497.849 308.52 492.13 319.211V319.213Z" fill="#1B77E3"/>
<path d="M497.554 272.985L476.698 318.359L478.498 319.187L499.353 273.813L497.554 272.985Z" fill="#1B77E3"/>
<path d="M490.727 276.578L488.869 277.266L491.959 285.624L493.817 284.936L490.727 276.578Z" fill="#1B77E3"/>
<path d="M485.279 288.426L483.421 289.114L486.511 297.472L488.369 296.784L485.279 288.426Z" fill="#1B77E3"/>
<path d="M479.833 300.27L477.975 300.958L481.064 309.316L482.922 308.629L479.833 300.27Z" fill="#1B77E3"/>
<path d="M474.387 312.121L472.529 312.809L474.855 319.102L476.713 318.414L474.387 312.121Z" fill="#1B77E3"/>
<path d="M498.578 286.606L490.226 289.699L490.913 291.558L499.265 288.465L498.578 286.606Z" fill="#1B77E3"/>
<path d="M493.131 298.46L484.779 301.554L485.466 303.413L493.818 300.319L493.131 298.46Z" fill="#1B77E3"/>
<path d="M487.667 310.405L479.314 313.497L480.002 315.356L488.354 312.264L487.667 310.405Z" fill="#1B77E3"/>
<path d="M441.813 319.172C435.612 306.169 430.014 291.557 426.456 279.088C421.889 263.072 420.935 251.803 423.618 245.592C424.748 242.978 426.53 241.265 428.916 240.502C431.36 239.721 433.864 240.117 436.359 241.684C444.124 246.557 450.59 262.204 454.647 274.473C460.01 290.691 463.544 307.901 465.062 318.598L463.1 318.878C461.593 308.265 458.086 291.191 452.765 275.095C447.093 257.945 441.057 246.97 435.307 243.362C433.301 242.104 431.409 241.786 429.519 242.39C427.677 242.978 426.342 244.283 425.436 246.377C422.975 252.077 423.986 263.199 428.361 278.543C431.836 290.732 437.534 305.601 443.599 318.319L441.811 319.172H441.813Z" fill="#1B77E3"/>
<path d="M433.713 252.279L431.826 252.883L452.968 319.055L454.855 318.451L433.713 252.279Z" fill="#1B77E3"/>
<path d="M429.15 260.319L428.243 262.081L436.334 266.254L437.241 264.492L429.15 260.319Z" fill="#1B77E3"/>
<path d="M433.205 273.019L432.297 274.781L440.388 278.955L441.295 277.193L433.205 273.019Z" fill="#1B77E3"/>
<path d="M437.265 285.718L436.357 287.479L444.448 291.653L445.355 289.891L437.265 285.718Z" fill="#1B77E3"/>
<path d="M441.324 298.422L440.416 300.184L448.507 304.358L449.415 302.596L441.324 298.422Z" fill="#1B77E3"/>
<path d="M445.383 311.122L444.476 312.884L452.567 317.058L453.474 315.296L445.383 311.122Z" fill="#1B77E3"/>
<path d="M442.051 262.514L437.88 270.611L439.641 271.519L443.811 263.423L442.051 262.514Z" fill="#1B77E3"/>
<path d="M446.109 275.217L441.938 283.313L443.699 284.222L447.87 276.125L446.109 275.217Z" fill="#1B77E3"/>
<path d="M450.165 287.913L445.994 296.01L447.755 296.918L451.926 288.822L450.165 287.913Z" fill="#1B77E3"/>
<path d="M454.226 300.62L450.055 308.716L451.816 309.625L455.987 301.528L454.226 300.62Z" fill="#1B77E3"/>
<path d="M458.279 313.307L455.643 318.424L457.404 319.332L460.04 314.216L458.279 313.307Z" fill="#1B77E3"/>
<path d="M73.7075 318.467L71.807 317.906C73.7985 311.165 76.1879 294.909 76.6938 278.059C77.2715 258.85 75.2948 245.198 71.1298 239.622C69.7393 237.76 68.1647 236.854 66.3171 236.854C64.4694 236.854 62.8948 237.76 61.5044 239.622C57.3393 245.2 55.3626 258.85 55.9404 278.059C56.4462 294.909 58.8356 311.165 60.8271 317.906L58.9266 318.467C56.8504 311.434 54.4758 295.317 53.9594 278.118C53.6885 269.149 53.9742 261.307 54.8039 254.811C55.7795 247.183 57.498 241.672 59.9171 238.434C61.6821 236.068 63.8366 234.87 66.3171 234.87C68.7975 234.87 70.9499 236.068 72.7171 238.434C75.134 241.672 76.8546 247.181 77.8303 254.811C78.6599 261.307 78.9435 269.147 78.6747 278.118C78.1583 295.317 75.7837 311.436 73.7075 318.467Z" fill="#1B77E3"/>
<path d="M67.3076 246.014H65.3267V318.186H67.3076V246.014Z" fill="#1B77E3"/>
<path d="M71.2698 251.379L65.6758 256.977L67.0765 258.378L72.6705 252.78L71.2698 251.379Z" fill="#1B77E3"/>
<path d="M71.2751 262.954L65.6812 268.552L67.0819 269.953L72.6759 264.356L71.2751 262.954Z" fill="#1B77E3"/>
<path d="M71.2747 274.542L65.6807 280.14L67.0814 281.541L72.6754 275.944L71.2747 274.542Z" fill="#1B77E3"/>
<path d="M71.2771 286.127L65.6831 291.725L67.0838 293.127L72.6778 287.529L71.2771 286.127Z" fill="#1B77E3"/>
<path d="M71.2761 297.715L65.6821 303.313L67.0829 304.715L72.6769 299.117L71.2761 297.715Z" fill="#1B77E3"/>
<path d="M71.2756 309.303L65.6816 314.901L67.0824 316.303L72.6764 310.705L71.2756 309.303Z" fill="#1B77E3"/>
<path d="M61.3597 256.608L59.959 258.01L65.553 263.608L66.9537 262.206L61.3597 256.608Z" fill="#1B77E3"/>
<path d="M61.3607 268.192L59.96 269.593L65.554 275.191L66.9547 273.789L61.3607 268.192Z" fill="#1B77E3"/>
<path d="M61.3597 279.779L59.959 281.181L65.553 286.779L66.9537 285.377L61.3597 279.779Z" fill="#1B77E3"/>
<path d="M61.3607 291.367L59.96 292.769L65.554 298.366L66.9547 296.965L61.3607 291.367Z" fill="#1B77E3"/>
<path d="M61.3617 302.953L59.9609 304.354L65.5549 309.952L66.9557 308.551L61.3617 302.953Z" fill="#1B77E3"/>
<path d="M88.5204 318.654L86.7363 317.792C90.6008 309.786 96.6199 294.784 100.859 278.845C105.272 262.251 106.245 249.94 103.598 244.182C102.692 242.214 101.411 241.035 99.6781 240.575C98.1606 240.175 96.6791 240.423 95.1469 241.34C89.2908 244.841 83.4368 257.715 78.6686 277.593L76.7427 277.129C78.9712 267.838 81.4601 259.987 84.1395 253.793C87.3056 246.471 90.6686 241.708 94.1331 239.637C96.1183 238.451 98.1543 238.121 100.186 238.659C102.495 239.268 104.247 240.848 105.399 243.354C109.039 251.27 105.981 267.3 102.774 279.355C98.4992 295.427 92.4252 310.572 88.5225 318.656L88.5204 318.654Z" fill="#1B77E3"/>
<path d="M96.2835 249.582L80.7827 308.249L82.6979 308.755L98.1986 250.088L96.2835 249.582Z" fill="#1B77E3"/>
<path d="M100.828 256.521L93.7275 260.656L94.724 262.37L101.825 258.234L100.828 256.521Z" fill="#1B77E3"/>
<path d="M97.757 268.156L90.6562 272.292L91.6527 274.005L98.7535 269.869L97.757 268.156Z" fill="#1B77E3"/>
<path d="M94.6808 279.795L87.5801 283.93L88.5765 285.643L95.6773 281.508L94.6808 279.795Z" fill="#1B77E3"/>
<path d="M91.6095 291.43L84.5088 295.565L85.5052 297.279L92.606 293.143L91.6095 291.43Z" fill="#1B77E3"/>
<path d="M88.5378 303.065L81.437 307.2L82.4335 308.913L89.5342 304.778L88.5378 303.065Z" fill="#1B77E3"/>
<path d="M89.4007 259.17L87.6885 260.167L91.82 267.273L93.5322 266.276L89.4007 259.17Z" fill="#1B77E3"/>
<path d="M86.327 270.805L84.6147 271.802L88.7462 278.908L90.4585 277.911L86.327 270.805Z" fill="#1B77E3"/>
<path d="M83.2533 282.44L81.541 283.437L85.6725 290.543L87.3848 289.547L83.2533 282.44Z" fill="#1B77E3"/>
<path d="M80.1795 294.076L78.4673 295.073L82.5988 302.179L84.311 301.182L80.1795 294.076Z" fill="#1B77E3"/>
<path d="M53.9871 318.953C41.5808 308.74 30.1375 297.852 21.765 288.299C11.2486 276.297 5.74809 266.722 5.4137 259.841C5.26132 256.709 6.18195 254.123 8.1502 252.156C9.97665 250.328 12.3386 249.402 15.1724 249.402C15.1872 249.402 15.1999 249.402 15.2147 249.402C26.5205 249.438 43.4348 264.191 55.6337 276.557L54.2242 277.951C37.3544 260.847 23.4962 251.412 15.2084 251.385H15.1703C12.8507 251.385 11.0116 252.096 9.54914 253.558C7.97242 255.135 7.26555 257.16 7.39042 259.746C7.69729 266.078 13.183 275.501 23.2528 286.994C31.5554 296.472 42.9184 307.277 55.2443 317.423L53.985 318.955L53.9871 318.953Z" fill="#1B77E3"/>
<path d="M19.1566 261.766L17.7559 263.167L56.155 301.593L57.5558 300.191L19.1566 261.766Z" fill="#1B77E3"/>
<path d="M30.5332 262.838H28.5522V273.438H30.5332V262.838Z" fill="#1B77E3"/>
<path d="M41.4961 273.809H39.5151V284.408H41.4961V273.809Z" fill="#1B77E3"/>
<path d="M52.459 284.779H50.478V295.379H52.459V284.779Z" fill="#1B77E3"/>
<path d="M34.3767 277.529H23.7842V279.512H34.3767V277.529Z" fill="#1B77E3"/>
<path d="M45.3396 288.5H34.7471V290.482H45.3396V288.5Z" fill="#1B77E3"/>
<path d="M56.3025 299.473H45.71V301.455H56.3025V299.473Z" fill="#1B77E3"/>
<path d="M9.60631 315.31H510.818C515.334 315.31 519 318.978 519 323.497H1.42432C1.42432 318.978 5.08992 315.31 9.60631 315.31Z" fill="#355389"/>
<path d="M153.263 77.1216L152.196 85.6713L144.453 84.4832L144.395 84.263L144.12 83.1956L143.832 82.0858L143.828 82.0731L142.783 78.0407L153.263 77.1216Z" fill="#FAE0B2"/>
<path d="M153.858 73.9852C153.682 78.8626 150.622 83.3694 145.748 83.1957C140.874 83.022 137.105 83.0432 136.209 73.3519C135.761 68.4936 140.478 64.6645 145.35 64.8403C150.224 65.0161 154.032 69.112 153.856 73.9873L153.858 73.9852Z" fill="#FAE0B2"/>
<path d="M145.022 68.6755C143.109 69.0101 138.076 71.6489 136.277 71.5685C134.478 71.488 132.677 65.45 133.013 63.4402C133.348 61.4303 136.182 61.011 136.182 61.011C135.75 59.8377 137.56 58.0608 142.389 58.5395C146.616 58.9588 148.048 61.6209 148.048 61.6209C152.601 59.9627 156.031 63.9845 155.13 71.9751C154.588 76.7741 152.343 79.3622 152.343 79.3622L151.301 74.9443C151.301 74.9443 152.889 74.6859 152.529 72.9896C152.169 71.2932 150.933 72.2695 150.933 72.2695C150.933 72.2695 150.812 70.0055 150.139 69.2198C149.42 68.3811 147.659 68.2138 145.024 68.6734L145.022 68.6755Z" fill="#13375B"/>
<path d="M144.656 85.4762L144.12 83.1953C144.12 83.1953 149.017 82.5578 151.754 80.082C151.754 80.082 151.718 84.8853 144.653 85.4762H144.656Z" fill="#FE875E"/>
<path d="M150.137 69.22C150.137 69.22 151.132 72.1087 150.631 75.2918C150.129 78.475 147.953 80.6521 145.359 79.7732C142.764 78.8943 141.282 78.3394 139.708 79.3645C138.135 80.3895 137.287 78.6825 137.287 78.6825C137.287 78.6825 138.493 83.7675 145.022 83.2147C151.553 82.6619 153.263 77.721 153.263 77.721L152.137 75.6688C152.137 75.6688 151.217 74.6628 151.217 71.5644C151.217 68.466 150.137 69.22 150.137 69.22Z" fill="#13375B"/>
<path d="M117.577 110.738C118.55 111.111 119.587 111.433 120.694 111.687C121.242 111.819 121.828 111.92 122.419 112.009L123.342 112.107C123.646 112.143 123.985 112.143 124.307 112.157C125.619 112.187 127.069 112.06 128.622 111.6C129.016 111.471 129.403 111.342 129.792 111.183C130.186 111.005 130.578 110.817 130.965 110.618C131.348 110.393 131.727 110.15 132.099 109.898C132.465 109.639 132.81 109.339 133.158 109.044L133.403 108.826L133.555 108.678L133.858 108.381L134.463 107.784L134.766 107.483C134.861 107.384 134.948 107.284 135.039 107.187L135.577 106.59L136.108 105.986L136.592 105.387L137.077 104.783C137.24 104.582 137.399 104.381 137.543 104.179L138.427 102.966C138.715 102.561 138.98 102.157 139.253 101.748C139.53 101.339 139.788 100.933 140.042 100.524C140.292 100.113 140.556 99.7044 140.793 99.2936C141.126 98.7344 141.799 97.3748 142.54 95.8203C144.279 92.1755 142.408 85.0256 139.731 85.5275C136.54 86.1269 131.564 86.5505 130.004 89.848C128.546 92.9294 124.895 100.793 121.977 101.358C119.265 101.884 111.206 101.964 111.147 101.958L111.517 108.921C111.517 108.921 115.532 110.067 117.579 110.745L117.577 110.738Z" fill="#F47458"/>
<path d="M164.321 113.826L164.935 102.839C165.43 94.0243 164.963 84.8031 150.812 84.8116C150.796 84.8074 150.774 84.8031 150.757 84.801C149.82 84.6464 149.128 84.5829 148.802 84.5554C148.662 84.5448 148.592 84.5405 148.592 84.5405C130.351 84.5405 130.842 91.324 130.309 100.895L129.731 111.189L128.87 126.55L163.498 128.492L164.319 113.824L164.321 113.826Z" fill="#F8C558"/>
<path d="M148.802 84.5576C149.128 84.5851 149.82 84.6487 150.757 84.8033C150.118 84.6847 149.464 84.6021 148.802 84.5576Z" fill="#587CF8"/>
<path d="M113.447 101.518C113.119 100.948 112.385 100.751 111.815 101.081L109.595 102.365C109.026 102.693 108.829 103.428 109.159 103.998C109.487 104.567 110.222 104.764 110.791 104.434L113.011 103.15C113.58 102.822 113.777 102.087 113.447 101.518Z" fill="#FE875E"/>
<path d="M119.663 96.4175L121.644 117.325L119.335 117.535L117.523 96.6123L118.592 96.5149L119.663 96.4175Z" fill="#466EB6"/>
<path d="M110.006 92.3135L112.308 113.723L119.335 117.535L117.523 96.6127L110.006 92.3135Z" fill="#86B1F2"/>
<path d="M138.51 94.2764L137.661 116.114L121.644 117.325L119.663 96.4175L138.51 94.2764Z" fill="#86B1F2"/>
<path d="M113.381 91.3263C113.381 91.3263 117.034 92.8872 118.583 95.7315L113.381 92.9063V91.3242V91.3263Z" fill="#F7CC7F"/>
<path d="M110.831 92.7858L112.088 92.3071C112.088 92.3071 116.04 92.9997 118.586 95.7338C118.586 95.7338 121.242 94.0988 127.938 93.3936C134.634 92.6883 136.516 93.3936 136.516 93.3936L137.737 94.372L120.617 96.4708L117.523 96.6127L110.831 92.7858Z" fill="#FAE0B2"/>
<path d="M120.13 95.7086C120.632 95.4587 121.163 95.2787 121.699 95.1199C122.234 94.9589 122.782 94.8403 123.332 94.7365C123.883 94.6412 124.437 94.5629 124.994 94.5184C125.271 94.493 125.55 94.4824 125.83 94.4633C126.109 94.4591 126.389 94.4527 126.668 94.457L125.013 94.6857C124.463 94.7683 123.917 94.853 123.371 94.9525C122.825 95.05 122.283 95.1622 121.741 95.2829C121.47 95.3443 121.201 95.4079 120.932 95.482C120.662 95.5477 120.397 95.626 120.13 95.7086Z" fill="#E5BD83"/>
<path d="M125.155 95.0816C125.866 94.838 126.6 94.675 127.339 94.5352C128.078 94.3954 128.822 94.3001 129.57 94.2302C130.317 94.173 131.068 94.1243 131.817 94.1328C132.192 94.1286 132.566 94.1455 132.941 94.154C133.316 94.1752 133.688 94.2006 134.063 94.2345C133.314 94.2556 132.566 94.262 131.821 94.3001C131.076 94.3298 130.331 94.3848 129.589 94.4462C128.846 94.5098 128.105 94.5987 127.366 94.6983C126.996 94.747 126.628 94.8063 126.26 94.8698C125.891 94.9291 125.523 95.0011 125.157 95.0795L125.155 95.0816Z" fill="#E5BD83"/>
<path d="M118.118 95.4901L116.361 94.4736C116.069 94.3041 115.773 94.1411 115.479 93.9759C115.331 93.8954 115.182 93.8128 115.032 93.7344C114.884 93.6497 114.732 93.5777 114.583 93.4951C114.903 93.6074 115.216 93.7429 115.521 93.8912C115.828 94.0373 116.126 94.1982 116.421 94.3677C116.715 94.5392 117.005 94.7129 117.286 94.9014C117.57 95.0877 117.849 95.2805 118.116 95.4923L118.118 95.4901Z" fill="#E5BD83"/>
<path d="M116.351 94.7723L115.5 94.3593C115.216 94.2217 114.935 94.0819 114.649 93.9485C114.365 93.8108 114.08 93.6795 113.794 93.5482C113.65 93.4847 113.508 93.4169 113.362 93.3576C113.218 93.2919 113.072 93.2348 112.926 93.1733C113.229 93.2623 113.525 93.3724 113.817 93.491C114.109 93.6096 114.397 93.743 114.683 93.8743C114.966 94.0141 115.25 94.1539 115.527 94.3022C115.805 94.4525 116.08 94.605 116.348 94.7723H116.351Z" fill="#E5BD83"/>
<path d="M131.317 114.647L133.714 114.953C135.342 115.161 136.83 114.009 137.038 112.38L137.159 111.424C137.367 109.795 136.216 108.306 134.588 108.098L132.19 107.792C130.563 107.584 129.075 108.736 128.867 110.365L128.745 111.321C128.537 112.95 129.689 114.439 131.317 114.647Z" fill="#FAE0B2"/>
<path d="M135.087 109.176C135.557 108.718 136.74 109.411 136.281 108.938L133.322 105.647C132.865 105.177 132.105 105.166 131.633 105.624C131.163 106.081 131.153 106.842 131.61 107.314L133.398 109.152C133.856 109.622 134.615 109.633 135.087 109.176Z" fill="#FAE0B2"/>
<path d="M133.145 109.129C133.227 108.477 132.764 107.875 132.112 107.793L129.568 107.469C128.916 107.386 128.315 107.85 128.233 108.502C128.15 109.154 128.614 109.756 129.265 109.838L131.809 110.162C132.461 110.245 133.062 109.781 133.145 109.129Z" fill="#FAE0B2"/>
<path d="M131.35 110.397C131.432 109.745 130.969 109.144 130.317 109.061L127.773 108.737C127.121 108.654 126.52 109.118 126.438 109.771C126.355 110.423 126.819 111.024 127.471 111.107L130.014 111.431C130.666 111.514 131.267 111.05 131.35 110.397Z" fill="#FAE0B2"/>
<path d="M131.769 111.956C131.851 111.304 131.388 110.702 130.736 110.62L128.192 110.296C127.54 110.213 126.939 110.677 126.857 111.329C126.774 111.981 127.238 112.583 127.889 112.666L130.433 112.99C131.085 113.072 131.686 112.608 131.769 111.956Z" fill="#FAE0B2"/>
<path d="M133.034 113.617C133.117 112.964 132.654 112.363 132.002 112.28L129.458 111.956C128.806 111.874 128.205 112.338 128.122 112.99C128.04 113.642 128.503 114.244 129.155 114.326L131.699 114.65C132.351 114.733 132.952 114.269 133.034 113.617Z" fill="#FAE0B2"/>
<path d="M128.26 108.68L128.216 108.924L132.04 109.614L132.084 109.37L128.26 108.68Z" fill="#FE875E"/>
<path d="M127.011 110.813L126.967 111.057L130.71 111.732L130.754 111.488L127.011 110.813Z" fill="#FE875E"/>
<path d="M128.305 112.6L128.261 112.844L131.479 113.424L131.523 113.18L128.305 112.6Z" fill="#FE875E"/>
<path d="M157.877 87.0437C161.913 87.1135 165.035 90.6038 164.669 94.6255C164.512 96.341 164.355 97.851 164.237 98.4906C164.158 98.9587 164.053 99.4352 163.96 99.9054C163.862 100.378 163.763 100.848 163.644 101.326C163.528 101.805 163.422 102.277 163.293 102.756L162.884 104.2C162.821 104.44 162.743 104.683 162.658 104.929L162.412 105.662L162.167 106.392L161.877 107.144L161.579 107.892C161.528 108.017 161.481 108.137 161.426 108.265L161.248 108.652L160.889 109.423L160.707 109.806L160.616 109.997L160.461 110.285C160.239 110.681 160.021 111.083 159.765 111.454C159.502 111.818 159.231 112.18 158.95 112.523C158.658 112.845 158.355 113.159 158.048 113.462C157.739 113.748 157.42 114.004 157.096 114.26C155.799 115.23 154.484 115.855 153.242 116.283C152.935 116.38 152.618 116.499 152.319 116.571L151.42 116.802C150.838 116.922 150.252 117.032 149.691 117.098C148.565 117.244 147.481 117.303 146.438 117.293C144.347 117.282 142.383 117.028 140.478 116.679C139.526 116.488 138.59 116.283 137.668 116.029C137.206 115.899 136.747 115.77 136.286 115.626L135.596 115.4L134.863 115.145L136.08 108.423C136.137 108.411 136.252 108.406 136.345 108.398L136.643 108.379L137.253 108.334C137.659 108.309 138.07 108.277 138.476 108.241C139.291 108.167 140.099 108.097 140.895 107.989C142.482 107.801 144.025 107.525 145.416 107.163C146.114 106.987 146.76 106.769 147.342 106.541C147.481 106.479 147.636 106.43 147.763 106.363C147.892 106.299 148.023 106.238 148.152 106.178L148.495 105.988C148.616 105.929 148.692 105.854 148.791 105.795C149.155 105.537 149.342 104.666 149.342 104.666L149.464 104.217L149.528 103.995C149.547 103.917 149.564 103.828 149.581 103.745L149.687 103.243L149.801 102.745L149.896 102.21C149.957 101.847 150.032 101.509 150.084 101.132C150.207 100.392 150.539 96.7773 150.838 93.3803C151.157 89.746 154.228 86.9801 157.873 87.0415L157.877 87.0437Z" fill="#F47458"/>
<path d="M113.82 103.237C113.771 102.583 113.198 102.085 112.541 102.134L109.985 102.322C109.331 102.371 108.834 102.945 108.882 103.601C108.931 104.256 109.504 104.753 110.161 104.705L112.717 104.516C113.371 104.468 113.868 103.894 113.82 103.237Z" fill="#FAE0B2"/>
<path d="M114.818 105.226C114.77 104.571 114.196 104.074 113.54 104.122L110.247 104.364C109.593 104.413 109.096 104.987 109.144 105.643C109.193 106.297 109.767 106.795 110.423 106.746L113.716 106.505C114.37 106.456 114.867 105.882 114.818 105.226Z" fill="#FAE0B2"/>
<path d="M114.319 107.106C114.271 106.452 113.697 105.954 113.041 106.003L110.484 106.191C109.83 106.24 109.333 106.814 109.382 107.47C109.43 108.125 110.004 108.623 110.66 108.574L113.217 108.385C113.871 108.337 114.368 107.763 114.319 107.106Z" fill="#FAE0B2"/>
<path d="M113.909 108.93C113.86 108.271 113.289 107.778 112.63 107.827L111.498 107.909C110.84 107.958 110.347 108.53 110.395 109.188C110.444 109.847 111.016 110.34 111.674 110.292L112.806 110.209C113.464 110.16 113.957 109.589 113.909 108.93Z" fill="#FAE0B2"/>
<path d="M113.524 104.001L109.59 104.489L109.621 104.735L113.555 104.247L113.524 104.001Z" fill="#FE875E"/>
<path d="M114.035 106.306L109.778 106.657L109.799 106.904L114.055 106.553L114.035 106.306Z" fill="#FE875E"/>
<path d="M113.63 108.15L110.64 108.455L110.665 108.702L113.655 108.396L113.63 108.15Z" fill="#FE875E"/>
<path d="M118.864 144.827L113.17 171.652H127.856L135.378 146.375C135.378 146.375 130.726 141.775 125.992 139.765C121.257 137.756 120.066 141.849 118.861 144.827H118.864Z" fill="#3C8F7C"/>
<path d="M163.259 134.644C161.879 142.622 156.226 149.545 145.703 148.33C132.51 146.803 122.055 140.79 122.055 140.79L106.641 160.294L94.9204 151.985C94.9204 151.985 99.9617 144.321 104.884 133.393C109.809 122.462 113.83 119.557 129.143 121.649C138.853 122.977 150.061 125.374 156.963 126.95H156.965C160.946 127.859 163.494 128.494 163.494 128.494C163.682 130.536 163.608 132.624 163.259 134.644Z" fill="#50BFA5"/>
<path d="M95.861 150.512L95.7202 150.716L95.9239 150.857L96.0647 150.653L95.861 150.512Z" fill="#11442F"/>
<path d="M107.079 158.572L106.681 158.297L106.823 158.093L107.221 158.369L107.079 158.572ZM106.283 158.021L105.886 157.746L106.025 157.543L106.423 157.818L106.283 158.021ZM105.486 157.471L105.088 157.195L105.23 156.992L105.627 157.267L105.486 157.471ZM104.69 156.918L104.292 156.643L104.432 156.439L104.83 156.715L104.69 156.918ZM103.892 156.367L103.494 156.092L103.634 155.889L104.032 156.164L103.892 156.367ZM103.096 155.814L102.698 155.539L102.838 155.336L103.236 155.611L103.096 155.814ZM102.298 155.264L101.9 154.988L102.042 154.785L102.44 155.06L102.298 155.264ZM101.503 154.711L101.105 154.436L101.244 154.232L101.642 154.508L101.503 154.711ZM100.705 154.16L100.307 153.885L100.446 153.682L100.844 153.957L100.703 154.16H100.705ZM99.9089 153.61L99.511 153.334L99.6528 153.131L100.051 153.406L99.9089 153.61ZM99.111 153.057L98.7131 152.782L98.8528 152.578L99.2507 152.854L99.111 153.057ZM98.3153 152.506L97.9174 152.231L98.0592 152.028L98.4571 152.303L98.3153 152.506ZM97.5174 151.954L97.1195 151.678L97.2592 151.475L97.6571 151.75L97.5174 151.954ZM96.7216 151.403L96.3237 151.128L96.4634 150.924L96.8613 151.2L96.7216 151.403Z" fill="#11442F"/>
<path d="M107.617 158.639L107.476 158.843L107.68 158.984L107.821 158.78L107.617 158.639Z" fill="#11442F"/>
<path d="M107.594 177.684C107.594 177.684 109.645 178.694 108.946 180.826L104.415 180.805C104.519 179.962 105.008 179.213 105.75 178.779C106.472 178.355 107.069 178.006 107.596 177.686L107.594 177.684Z" fill="#F8A492"/>
<path d="M127.841 174.845L127.827 178.043C123.674 177.971 124.148 174.286 124.148 174.286C125.81 174.189 126.804 174.051 126.98 174.026C126.999 174.024 127.01 174.021 127.01 174.021H127.027C127.479 174.024 127.843 174.392 127.841 174.845Z" fill="#F8A492"/>
<path d="M112.487 174.64C112.825 174.428 113.189 174.199 113.589 173.952C113.589 173.952 113.985 174.009 114.69 174.083C115.86 174.206 117.884 174.369 120.326 174.382C120.531 174.382 120.734 174.382 120.929 174.382C122.184 174.377 123.27 174.339 124.161 174.286C124.161 174.286 123.687 177.971 127.839 178.043L127.824 180.924L108.942 180.83C109.64 178.698 107.589 177.688 107.589 177.688C108.694 177.025 109.513 176.51 110.628 175.809C111.158 175.474 111.754 175.097 112.482 174.644L112.487 174.64Z" fill="#F47458"/>
<path d="M127.829 180.92V181.023C127.824 181.595 127.361 182.059 126.787 182.057L105.202 181.951C104.978 181.951 104.775 181.858 104.627 181.707C104.481 181.557 104.39 181.354 104.392 181.129C104.392 181.021 104.4 180.911 104.413 180.805L108.944 180.826L127.827 180.92H127.829Z" fill="#B75742"/>
<path d="M127.037 171.671L127.027 174.017C127.027 174.017 127.016 174.017 126.997 174.022C126.677 174.055 123.892 174.394 121.037 174.42C120.842 174.424 120.536 174.382 120.33 174.38C117.886 174.367 115.865 174.204 114.694 174.081C114.017 174.007 113.638 173.95 113.638 173.95L113.649 171.603L126.021 171.664L127.039 171.669L127.037 171.671Z" fill="#FAE0B2"/>
<path d="M114.332 176.675C114.3 176.675 114.267 176.662 114.243 176.637L112.398 174.725C112.349 174.676 112.351 174.598 112.4 174.549C112.449 174.502 112.527 174.502 112.576 174.551L114.421 176.463C114.47 176.512 114.468 176.59 114.419 176.639C114.396 176.662 114.364 176.673 114.332 176.673V176.675Z" fill="#F8A492"/>
<path d="M113.403 177.302C113.371 177.302 113.338 177.289 113.314 177.264L111.467 175.352C111.418 175.303 111.42 175.225 111.469 175.176C111.517 175.129 111.596 175.129 111.644 175.178L113.492 177.09C113.541 177.139 113.539 177.217 113.49 177.266C113.467 177.289 113.435 177.3 113.403 177.3V177.302Z" fill="#F8A492"/>
<path d="M112.472 177.832C112.44 177.832 112.406 177.819 112.383 177.794L110.546 175.892C110.546 175.892 110.531 175.875 110.529 175.871C110.487 175.815 110.5 175.739 110.553 175.697C110.608 175.655 110.686 175.665 110.726 175.72L110.735 175.731L112.563 177.622C112.612 177.671 112.61 177.749 112.561 177.798C112.538 177.821 112.506 177.832 112.474 177.832H112.472Z" fill="#F8A492"/>
<path d="M86.8593 153.79C86.8593 153.79 87.9641 155.791 86.1736 157.142L82.4678 154.533C83.0329 153.902 83.8625 153.565 84.7217 153.633C85.5556 153.699 86.2455 153.752 86.8614 153.79H86.8593Z" fill="#F8A492"/>
<path d="M105.113 163.043L103.274 165.658C99.9069 163.225 102.4 160.472 102.4 160.472C103.82 161.342 104.713 161.797 104.872 161.876C104.889 161.884 104.899 161.889 104.899 161.889L104.914 161.899C105.285 162.16 105.374 162.67 105.113 163.043Z" fill="#F8A492"/>
<path d="M92.6135 154.088C93.0114 154.107 93.441 154.129 93.9109 154.154C93.9109 154.154 94.203 154.427 94.7384 154.891C95.6294 155.66 97.1955 156.952 99.1934 158.358C99.3606 158.477 99.5278 158.593 99.6908 158.701C100.724 159.417 101.636 160.003 102.398 160.472C102.398 160.472 99.9045 163.225 103.272 165.658L101.617 168.013L86.1733 157.14C87.9638 155.789 86.8591 153.788 86.8591 153.788C88.1458 153.874 89.1109 153.921 90.4273 153.985C91.0516 154.012 91.7564 154.044 92.6135 154.088Z" fill="#F47458"/>
<path d="M101.617 168.015L101.558 168.1C101.227 168.568 100.582 168.682 100.114 168.354L82.4613 155.924C82.2772 155.795 82.1629 155.602 82.1269 155.395C82.093 155.189 82.1354 154.969 82.2645 154.785C82.328 154.696 82.3957 154.611 82.4676 154.531L86.1735 157.14L101.617 168.013V168.015Z" fill="#B75742"/>
<path d="M106.249 159.972L104.899 161.89C104.899 161.89 104.891 161.884 104.872 161.878C104.59 161.723 102.05 160.315 99.6907 158.703C99.5277 158.595 99.3626 158.479 99.1933 158.36C97.1954 156.954 95.6272 155.662 94.7383 154.893C94.224 154.444 93.9468 154.181 93.9468 154.181L95.297 152.263L105.418 159.387L106.249 159.974V159.972Z" fill="#FAE0B2"/>
<path d="M93.0344 156.838C92.9751 156.838 92.9222 156.795 92.9117 156.734L92.4884 154.11C92.4778 154.042 92.5222 153.979 92.59 153.968C92.6556 153.955 92.7212 154.002 92.7318 154.07L93.155 156.694C93.1656 156.761 93.1212 156.825 93.0534 156.835C93.0471 156.835 93.0407 156.835 93.0344 156.835V156.838Z" fill="#FAE0B2"/>
<path d="M91.9149 156.821C91.8557 156.821 91.8028 156.778 91.7922 156.717L91.3668 154.091C91.3562 154.023 91.4007 153.959 91.4684 153.949C91.534 153.938 91.5996 153.983 91.6102 154.05L92.0356 156.677C92.0462 156.744 92.0017 156.808 91.934 156.819C91.9276 156.819 91.9213 156.819 91.9149 156.819V156.821Z" fill="#FAE0B2"/>
<path d="M90.8483 156.721C90.7891 156.721 90.7362 156.679 90.7256 156.617L90.3044 154.006C90.3044 154.006 90.3044 153.983 90.3023 153.978C90.3002 153.911 90.3531 153.851 90.4208 153.849H90.4251C90.4907 153.849 90.5457 153.902 90.5499 153.968V153.98L90.9711 156.577C90.9817 156.645 90.9372 156.708 90.8695 156.719C90.8632 156.719 90.8568 156.719 90.8505 156.719L90.8483 156.721Z" fill="#FAE0B2"/>
<path d="M163.261 134.644H163.259C155.09 135.165 156.965 126.95 156.965 126.95H156.967C160.948 127.859 163.496 128.494 163.496 128.494C163.684 130.536 163.61 132.624 163.261 134.644Z" fill="#11442F"/>
<path d="M127.888 170.108H127.393V169.86H127.888V170.108ZM126.897 170.108H126.402V169.86H126.897V170.108ZM125.907 170.108H125.412V169.86H125.907V170.108ZM124.916 170.108H124.421V169.86H124.916V170.108ZM123.926 170.108H123.431V169.86H123.926V170.108ZM122.935 170.108H122.44V169.86H122.935V170.108ZM121.945 170.108H121.45V169.86H121.945V170.108ZM120.954 170.108H120.459V169.86H120.954V170.108ZM119.964 170.108H119.469V169.86H119.964V170.108ZM118.973 170.108H118.478V169.86H118.973V170.108ZM117.983 170.108H117.488V169.86H117.983V170.108ZM116.993 170.108H116.497V169.86H116.993V170.108ZM116.002 170.108H115.507V169.86H116.002V170.108ZM115.012 170.108H114.516V169.86H115.012V170.108ZM114.021 170.108H113.526V169.86H114.021V170.108Z" fill="#11442F"/>
<path d="M97.4244 151.725L97.2085 151.602L97.454 151.168L97.6699 151.288L97.4244 151.723V151.725ZM97.9133 150.859L97.6974 150.738L97.9408 150.304L98.1566 150.424L97.9133 150.856V150.859ZM98.3979 149.992L98.182 149.872L98.4233 149.437L98.6392 149.558L98.3979 149.992ZM98.8804 149.124L98.6646 149.003L98.9058 148.569L99.1217 148.69L98.8804 149.124ZM99.363 148.258L99.1471 148.137L99.3884 147.703L99.6043 147.824L99.363 148.258ZM99.8434 147.39L99.6275 147.269L99.8667 146.835L100.083 146.955L99.8434 147.39ZM100.324 146.521L100.108 146.403L100.347 145.968L100.563 146.087L100.324 146.521ZM100.802 145.651L100.584 145.532L100.823 145.098L101.041 145.217L100.802 145.651ZM101.278 144.782L101.06 144.664L101.297 144.23L101.515 144.348L101.278 144.782ZM101.755 143.912L101.537 143.793L101.774 143.357L101.992 143.476L101.755 143.912ZM102.226 143.039L102.008 142.921L102.246 142.485L102.464 142.603L102.226 143.039ZM102.701 142.169L102.483 142.05L102.717 141.614L102.935 141.733L102.701 142.169ZM103.17 141.294L102.952 141.176L103.187 140.739L103.405 140.856L103.17 141.292V141.294ZM103.64 140.422L103.422 140.305L103.655 139.869L103.873 139.986L103.64 140.422ZM104.106 139.547L103.888 139.431L104.121 138.992L104.339 139.109L104.106 139.547ZM104.571 138.672L104.353 138.556L104.586 138.118L104.804 138.234L104.571 138.672ZM105.037 137.794L104.817 137.677L105.048 137.239L105.268 137.353L105.037 137.791V137.794ZM105.498 136.915L105.278 136.8L105.507 136.36L105.727 136.474L105.498 136.915ZM105.953 136.036L105.733 135.921L105.962 135.481L106.182 135.595L105.953 136.036ZM106.408 135.155L106.188 135.04L106.417 134.602L106.637 134.716L106.408 135.155ZM106.866 134.28L106.646 134.164L106.878 133.725L107.096 133.842L106.866 134.278V134.28ZM107.331 133.407L107.113 133.289C107.192 133.143 107.272 132.999 107.35 132.853L107.568 132.971C107.488 133.115 107.41 133.261 107.331 133.405V133.407ZM107.807 132.541L107.592 132.421C107.672 132.277 107.755 132.133 107.837 131.989L108.051 132.111C107.968 132.255 107.888 132.397 107.807 132.541ZM108.301 131.684L108.087 131.559C108.171 131.415 108.256 131.273 108.343 131.131L108.555 131.26C108.47 131.402 108.385 131.542 108.301 131.686V131.684ZM108.815 130.836L108.605 130.705C108.694 130.565 108.783 130.423 108.872 130.286L109.079 130.419C108.99 130.557 108.902 130.697 108.815 130.836ZM109.35 130.006L109.145 129.869C109.238 129.731 109.331 129.593 109.426 129.456L109.63 129.597C109.537 129.733 109.443 129.869 109.35 130.006ZM109.915 129.195L109.714 129.049C109.812 128.913 109.911 128.78 110.011 128.649L110.207 128.797C110.108 128.928 110.011 129.062 109.913 129.195H109.915ZM156.751 128.615L156.554 128.57L156.607 128.329L156.806 128.373L156.751 128.615ZM156.068 128.464L155.583 128.359L155.636 128.117L156.123 128.223L156.07 128.464H156.068ZM110.51 128.407L110.315 128.253C110.419 128.121 110.523 127.992 110.629 127.865L110.819 128.022C110.715 128.149 110.612 128.276 110.508 128.405L110.51 128.407ZM155.096 128.253L154.612 128.149L154.664 127.907L155.149 128.013L155.096 128.255V128.253ZM154.127 128.043L153.642 127.939L153.693 127.698L154.178 127.802L154.125 128.043H154.127ZM153.155 127.835L152.671 127.732L152.722 127.49L153.206 127.594L153.155 127.835ZM111.141 127.647L110.955 127.484C111.065 127.359 111.175 127.234 111.287 127.111L111.469 127.278C111.359 127.399 111.249 127.522 111.141 127.645V127.647ZM152.186 127.63L151.701 127.528L151.752 127.287L152.237 127.389L152.186 127.63ZM151.215 127.425L150.73 127.323L150.781 127.081L151.266 127.183L151.215 127.425ZM150.245 127.223L149.761 127.124L149.812 126.882L150.296 126.982L150.245 127.223ZM149.274 127.024L148.789 126.925L148.838 126.681L149.325 126.781L149.274 127.022V127.024ZM111.807 126.923L111.63 126.749C111.746 126.63 111.862 126.512 111.983 126.397L112.154 126.575C112.036 126.69 111.922 126.804 111.807 126.923ZM148.303 126.825L147.816 126.726L147.864 126.482L148.351 126.582L148.303 126.825ZM147.331 126.628L146.844 126.531L146.893 126.287L147.38 126.385L147.331 126.628ZM146.36 126.433L145.873 126.336L145.922 126.092L146.408 126.19L146.36 126.433ZM112.512 126.241L112.345 126.056C112.468 125.944 112.593 125.834 112.72 125.728L112.88 125.917C112.756 126.023 112.633 126.131 112.512 126.241ZM145.388 126.239L144.902 126.143L144.95 125.9L145.437 125.995L145.388 126.239ZM144.415 126.048L143.928 125.953L143.975 125.709L144.461 125.804L144.415 126.048ZM143.441 125.859L142.954 125.766L143.001 125.523L143.488 125.616L143.441 125.859ZM142.47 125.671L141.983 125.578L142.03 125.334L142.516 125.427L142.47 125.671ZM113.259 125.605L113.105 125.41C113.234 125.307 113.367 125.205 113.501 125.106L113.649 125.305C113.517 125.402 113.386 125.502 113.259 125.603V125.605ZM141.496 125.487L141.009 125.396L141.054 125.152L141.541 125.243L141.494 125.487H141.496ZM140.523 125.302L140.036 125.211L140.08 124.968L140.567 125.059L140.523 125.302ZM139.547 125.122L139.06 125.034L139.105 124.79L139.591 124.879L139.547 125.122ZM114.047 125.021L113.907 124.817C114.044 124.724 114.182 124.631 114.324 124.542L114.457 124.752C114.32 124.839 114.182 124.93 114.049 125.021H114.047ZM138.573 124.945L138.087 124.856L138.131 124.612L138.618 124.701L138.573 124.945ZM137.598 124.769L137.107 124.682L137.151 124.438L137.64 124.525L137.598 124.769ZM136.62 124.595L136.131 124.51L136.173 124.267L136.662 124.352L136.62 124.595ZM114.876 124.498L114.751 124.284C114.895 124.199 115.039 124.119 115.187 124.04L115.304 124.258C115.16 124.335 115.016 124.415 114.876 124.498ZM135.642 124.426L135.156 124.341L135.198 124.097L135.687 124.182L135.644 124.426H135.642ZM134.669 124.258L134.182 124.176L134.222 123.932L134.709 124.015L134.669 124.258ZM133.693 124.095L133.204 124.015L133.244 123.771L133.733 123.852L133.693 124.095ZM115.74 124.036L115.632 123.814C115.78 123.742 115.932 123.672 116.085 123.604L116.184 123.831C116.034 123.896 115.886 123.964 115.74 124.036ZM132.715 123.936L132.226 123.858L132.265 123.612L132.753 123.691L132.713 123.934L132.715 123.936ZM131.738 123.78L131.249 123.703L131.287 123.458L131.778 123.534L131.74 123.78H131.738ZM116.637 123.644L116.546 123.413C116.701 123.352 116.855 123.295 117.014 123.24L117.094 123.475C116.94 123.528 116.785 123.585 116.635 123.644H116.637ZM130.758 123.629L130.269 123.555L130.305 123.31L130.796 123.384L130.758 123.629ZM129.778 123.483L129.287 123.411L129.323 123.166L129.814 123.238L129.778 123.483ZM128.798 123.341L128.307 123.274L128.341 123.028L128.832 123.096L128.798 123.341ZM117.562 123.32L117.488 123.083C117.644 123.034 117.805 122.988 117.968 122.943L118.032 123.183C117.873 123.225 117.716 123.271 117.562 123.318V123.32ZM127.816 123.208L127.325 123.142L127.357 122.897L127.848 122.962L127.814 123.208H127.816ZM126.834 123.079L126.343 123.017L126.372 122.772L126.866 122.833L126.834 123.079ZM118.51 123.064L118.453 122.822C118.614 122.784 118.777 122.75 118.942 122.719L118.988 122.962C118.825 122.994 118.667 123.028 118.508 123.064H118.51ZM125.852 122.96L125.359 122.903L125.386 122.657L125.879 122.714L125.852 122.96ZM119.471 122.875L119.431 122.632C119.594 122.606 119.759 122.581 119.924 122.56L119.956 122.806C119.793 122.827 119.63 122.85 119.471 122.875ZM124.868 122.848C124.703 122.831 124.538 122.814 124.375 122.797L124.4 122.551C124.563 122.568 124.728 122.585 124.893 122.602L124.868 122.848ZM123.884 122.75C123.718 122.736 123.556 122.723 123.393 122.712L123.409 122.465C123.572 122.475 123.74 122.488 123.907 122.503L123.886 122.75H123.884ZM120.444 122.75L120.421 122.503C120.584 122.488 120.751 122.473 120.919 122.462L120.935 122.71C120.77 122.721 120.607 122.736 120.447 122.75H120.444ZM122.902 122.687C122.736 122.681 122.571 122.676 122.411 122.672L122.415 122.424C122.58 122.426 122.745 122.431 122.912 122.439L122.902 122.687ZM121.426 122.685L121.416 122.437C121.581 122.431 121.746 122.426 121.915 122.424V122.672C121.752 122.672 121.589 122.678 121.426 122.685Z" fill="#11442F"/>
<path d="M403.515 189.844H398.907V222.74H403.515V189.844Z" fill="#FEC65E"/>
<path d="M416.787 189.844H417.335V222.74H412.728V189.844H416.787Z" fill="#FEC65E"/>
<path d="M412.729 189.844H403.515V222.74H412.729V189.844Z" fill="#F7F07F"/>
<path d="M416.801 186.089C417.733 186.089 418.48 186.836 418.48 187.768V188.164C418.48 189.096 417.718 189.844 416.787 189.844H412.729L408.078 189.829L399.352 189.814C398.437 189.799 397.673 189.052 397.688 188.12V187.724C397.688 186.824 398.406 186.076 399.32 186.044C399.367 186.059 399.396 186.059 399.443 186.059L408.078 186.074L416.804 186.089H416.801Z" fill="#DDDDDD"/>
<path d="M417 182.349C417.855 182.379 418.571 183.128 418.571 184.014V184.427C418.571 185.342 417.809 186.106 416.892 186.091H416.801L408.075 186.076L399.364 186.047H399.318C398.463 186 397.762 185.267 397.777 184.382V183.986C397.777 183.101 398.448 182.383 399.318 182.307C399.364 182.321 399.409 182.321 399.455 182.321L416.907 182.351H416.998L417 182.349Z" fill="#EFEFEF"/>
<path d="M418.585 180.684C418.57 181.569 417.853 182.302 416.998 182.349C416.968 182.334 416.937 182.334 416.907 182.334L399.455 182.287C399.409 182.287 399.364 182.287 399.318 182.302C398.448 182.241 397.777 181.508 397.777 180.623V180.227C397.777 179.312 398.539 178.562 399.455 178.562L416.907 178.577L416.968 178.592C417.868 178.638 418.57 179.371 418.585 180.271V180.684Z" fill="#DDDDDD"/>
<path d="M417.472 171.556V178.594H416.969L416.907 178.579L399.455 178.564L398.907 178.549L398.922 171.512C398.937 169.038 400.935 167.039 403.392 167.054H413.017C415.489 167.069 417.487 169.068 417.472 171.556Z" fill="#F47458"/>
<path d="M454.42 191.324L450.439 213.276C450.333 213.932 449.707 214.36 449.051 214.237C448.441 214.132 448.014 213.566 448.075 212.939L450.043 194.177C450.257 192.102 449.296 190.056 447.557 188.895L446.702 188.33L447.815 182.163L452.452 185.949C454.039 187.248 454.786 189.308 454.42 191.322V191.324Z" fill="#13375B"/>
<path d="M428.12 185.57L446.585 188.919L439.351 235.38L419.745 231.809L428.12 185.57Z" fill="#86B1F2"/>
<path d="M446.702 188.332L446.585 188.919L428.12 185.57L429.464 178.226L447.921 181.585L447.815 182.165L446.702 188.332Z" fill="#355389"/>
<path d="M445.724 168.502C448.149 169.525 449.643 172.137 449.142 174.854L447.921 181.586L429.461 178.227L430.683 171.495C431.171 168.748 433.536 166.823 436.204 166.747L445.724 168.502Z" fill="#86B1F2"/>
<path d="M436.204 166.747L437.546 159.358C437.942 157.189 440.001 155.755 442.168 156.151L443.861 156.456C446.028 156.852 447.461 158.913 447.065 161.082L445.724 168.5L436.204 166.745V166.747Z" fill="#355389"/>
<path d="M383.799 142.824L365.092 145.102L375.48 230.503L394.187 228.224L383.799 142.824Z" fill="#FFDC9F"/>
<path d="M375.936 147.37L365.446 148.649L365.585 149.787L376.074 148.507L375.936 147.37Z" fill="#13375B"/>
<path d="M371.748 151.979L365.935 152.688L366.074 153.826L371.887 153.117L371.748 151.979Z" fill="#13375B"/>
<path d="M372.211 155.775L366.398 156.484L366.536 157.622L372.35 156.913L372.211 155.775Z" fill="#13375B"/>
<path d="M372.681 159.55L366.869 160.252L367.006 161.388L372.818 160.685L372.681 159.55Z" fill="#13375B"/>
<path d="M373.133 163.378L367.32 164.087L367.458 165.224L373.271 164.515L373.133 163.378Z" fill="#13375B"/>
<path d="M378.273 166.597L367.784 167.877L367.922 169.014L378.412 167.735L378.273 166.597Z" fill="#13375B"/>
<path d="M374.06 170.966L368.247 171.675L368.385 172.812L374.198 172.103L374.06 170.966Z" fill="#13375B"/>
<path d="M374.518 174.775L368.705 175.484L368.844 176.621L374.657 175.912L374.518 174.775Z" fill="#13375B"/>
<path d="M374.984 178.566L369.171 179.275L369.31 180.413L375.123 179.704L374.984 178.566Z" fill="#13375B"/>
<path d="M375.435 182.399L369.623 183.101L369.76 184.236L375.572 183.534L375.435 182.399Z" fill="#13375B"/>
<path d="M380.581 185.601L370.091 186.88L370.23 188.018L380.719 186.738L380.581 185.601Z" fill="#13375B"/>
<path d="M376.367 189.961L370.554 190.67L370.692 191.808L376.505 191.099L376.367 189.961Z" fill="#13375B"/>
<path d="M376.83 193.764L371.017 194.473L371.155 195.61L376.968 194.901L376.83 193.764Z" fill="#13375B"/>
<path d="M377.29 197.566L371.477 198.275L371.615 199.412L377.428 198.703L377.29 197.566Z" fill="#13375B"/>
<path d="M377.752 201.367L371.939 202.076L372.078 203.213L377.891 202.504L377.752 201.367Z" fill="#13375B"/>
<path d="M382.892 204.588L372.403 205.867L372.541 207.005L383.031 205.725L382.892 204.588Z" fill="#13375B"/>
<path d="M378.676 208.954L372.863 209.664L373.002 210.801L378.815 210.092L378.676 208.954Z" fill="#13375B"/>
<path d="M379.135 212.763L373.322 213.472L373.46 214.609L379.273 213.9L379.135 212.763Z" fill="#13375B"/>
<path d="M379.599 216.563L373.786 217.272L373.925 218.41L379.738 217.701L379.599 216.563Z" fill="#13375B"/>
<path d="M380.064 220.351L374.25 221.06L374.389 222.197L380.202 221.488L380.064 220.351Z" fill="#13375B"/>
<path d="M385.202 223.583L374.712 224.862L374.851 226L385.34 224.72L385.202 223.583Z" fill="#13375B"/>
<path d="M444.604 222.038V292.869C444.604 305.051 434.735 314.929 422.562 314.929H391.853C381.387 314.929 372.632 307.633 370.388 297.846H370.374C370.008 296.243 369.809 294.578 369.809 292.869V222.038H444.604Z" fill="#F8A492"/>
<path d="M444.604 222.038V292.869C444.604 305.051 434.736 314.929 422.562 314.929H391.853C381.388 314.929 372.632 307.633 370.389 297.846C401.921 311.936 433.026 301.571 439.021 271.589C444.024 246.554 444.558 227.624 444.604 222.038Z" fill="#F48C7F"/>
<path d="M338.124 155.196H133.655C133.655 155.196 137.225 170.006 137.225 186.104C137.225 202.202 133.655 217.012 133.655 217.012H338.124C345.377 217.012 351.256 211.129 351.256 203.871V168.354C351.256 161.084 345.377 155.198 338.124 155.198V155.196Z" fill="#FAE0B2"/>
<path d="M130.897 146.79C128.573 146.79 126.696 148.682 126.696 150.994C126.696 152.157 127.157 153.207 127.928 153.964C128.683 154.734 129.733 155.196 130.895 155.196H338.122C345.375 155.196 351.254 161.079 351.254 168.352V203.869C351.254 211.126 345.375 217.01 338.122 217.01H130.895C128.571 217.01 126.694 218.886 126.694 221.214C126.694 222.376 127.155 223.414 127.926 224.183C128.681 224.939 129.731 225.416 130.893 225.416H338.12C350.02 225.416 359.654 215.762 359.654 203.866V168.335C359.654 156.439 350.022 146.786 338.12 146.786H130.893L130.897 146.79Z" fill="#184655"/>
<path d="M324.638 167.16C312.53 166.617 300.422 166.255 288.314 166.071C276.207 165.847 264.099 165.787 251.991 165.76C239.883 165.785 227.775 165.844 215.667 166.067C203.559 166.249 191.451 166.615 179.343 167.16C191.451 167.704 203.559 168.07 215.667 168.252C227.775 168.475 239.883 168.534 251.991 168.56C264.099 168.532 276.207 168.473 288.314 168.248C300.422 168.064 312.53 167.7 324.638 167.16Z" fill="#E5BD83"/>
<path d="M332.211 186.104C327.635 185.524 323.062 185.221 318.486 185.015C313.91 184.791 309.337 184.732 304.761 184.704C300.186 184.73 295.612 184.789 291.036 185.011C286.461 185.217 281.887 185.522 277.312 186.104C281.887 186.686 286.461 186.991 291.036 187.197C295.612 187.419 300.186 187.478 304.761 187.504C309.337 187.476 313.91 187.417 318.486 187.193C323.062 186.987 327.635 186.684 332.211 186.104Z" fill="#E5BD83"/>
<path d="M297.189 205.522C292.613 204.942 288.04 204.639 283.464 204.434C278.888 204.209 274.315 204.15 269.739 204.123C265.164 204.148 260.59 204.207 256.014 204.43C251.439 204.635 246.865 204.94 242.29 205.522C246.865 206.105 251.439 206.41 256.014 206.615C260.59 206.838 265.164 206.897 269.739 206.922C274.315 206.895 278.888 206.836 283.464 206.611C288.04 206.406 292.613 206.101 297.189 205.522Z" fill="#E5BD83"/>
<path d="M268.304 194.156C257.733 193.614 247.159 193.252 236.588 193.068C226.017 192.843 215.443 192.784 204.872 192.756C194.3 192.782 183.727 192.841 173.155 193.063C162.584 193.246 152.01 193.612 141.439 194.156C152.01 194.701 162.584 195.067 173.155 195.249C183.727 195.471 194.3 195.531 204.872 195.556C215.443 195.529 226.017 195.469 236.588 195.245C247.159 195.061 257.733 194.696 268.304 194.156Z" fill="#E5BD83"/>
<path d="M289.616 223.518C295.809 211.817 295.809 197.805 289.616 186.104H324.638C330.831 197.805 330.831 211.817 324.638 223.518C320.486 220.333 315.876 216.978 310.808 213.545C304.202 216.978 297.14 220.335 289.616 223.518Z" fill="#50BFA5"/>
<path d="M284.501 273.453L280.181 273.844C290.932 274.611 299.021 283.94 298.255 294.701L297.832 300.663C297.191 309.64 290.568 316.767 282.137 318.414L351.586 312.836C363.163 311.714 371.595 301.364 370.403 289.794L370.073 286.59C368.896 275.174 358.795 266.83 347.37 267.853H347.356L284.503 273.453H284.501Z" fill="#50BFA5"/>
<path d="M117.284 270.136L280.181 273.844L284.501 273.453L347.354 267.853H347.368L348.124 267.785L117.284 270.136Z" fill="#355389"/>
<path d="M121.968 276.704L279.83 280.842C283.392 281.136 286.613 282.905 288.801 285.8C290.689 288.32 291.468 291.503 291.239 294.659L290.837 300.159C290.38 306.569 285 311.686 278.588 311.788C278.224 311.794 277.845 311.771 277.481 311.75L277.314 311.739L121.756 308.209L117.89 308.115C116.069 308.075 114.58 309.57 114.609 311.39L114.618 311.964C114.645 313.688 116.025 315.079 117.748 315.123L276.975 318.734C278.742 318.859 280.475 318.749 282.137 318.415C290.569 316.767 297.191 309.64 297.832 300.663L298.255 294.701C299.021 283.942 290.935 274.611 280.181 273.844L117.284 270.136C115.464 270.096 113.974 271.576 114.004 273.41C114.031 275.134 115.399 276.528 117.121 276.57L121.968 276.704Z" fill="#3C8F7C"/>
<path d="M121.754 308.206L277.311 311.737L277.478 311.747C277.842 311.769 278.221 311.792 278.585 311.785C284.998 311.684 290.376 306.567 290.835 300.156L291.237 294.656C291.468 291.501 290.689 288.318 288.799 285.797C286.611 282.904 283.39 281.134 279.828 280.839L121.966 276.701C122.027 276.981 124.025 286.38 124.12 292.416C124.215 298.426 121.754 308.204 121.754 308.204V308.206Z" fill="#FAE0B2"/>
<path d="M277.559 289.969C273.002 289.209 268.437 288.724 263.866 288.339C259.296 287.934 254.721 287.693 250.143 287.485C245.563 287.329 240.983 287.208 236.395 287.248C231.809 287.271 227.218 287.396 222.617 287.797C227.172 288.561 231.739 289.046 236.31 289.432C240.88 289.836 245.455 290.075 250.033 290.281C254.613 290.433 259.193 290.556 263.781 290.514C268.367 290.488 272.958 290.368 277.559 289.969Z" fill="#E5BD83"/>
<path d="M239.904 302.781C235.35 302.02 230.782 301.535 226.211 301.148C221.642 300.743 217.066 300.502 212.488 300.294C207.908 300.138 203.328 300.017 198.74 300.057C194.154 300.08 189.563 300.205 184.962 300.606C189.517 301.37 194.084 301.855 198.655 302.241C203.225 302.645 207.8 302.884 212.378 303.09C216.958 303.242 221.538 303.365 226.126 303.323C230.713 303.297 235.303 303.177 239.904 302.779V302.781Z" fill="#E5BD83"/>
<path d="M233.694 326.562C227.371 318.088 226.962 297.113 233.015 288.441C244.687 288.254 255.06 289.489 266.731 289.303C260.679 297.975 262.387 317.527 268.712 326.003C261.339 323.735 254.156 320.7 247.432 317.22C242.484 320.886 237.995 324.109 233.694 326.562Z" fill="#184655"/>
<path d="M199.563 294.584C193.292 293.824 187.015 293.341 180.734 292.954C174.452 292.549 168.169 292.31 161.883 292.1C155.595 291.943 149.307 291.823 143.013 291.865C136.721 291.89 130.425 292.013 124.12 292.416C130.391 293.18 136.668 293.665 142.95 294.051C149.231 294.453 155.515 294.694 161.803 294.9C168.09 295.052 174.378 295.173 180.672 295.131C186.964 295.105 193.261 294.982 199.563 294.584Z" fill="#E5BD83"/>
<path d="M290.776 236.447C290.776 236.447 284.742 250.472 291 267.69L314.759 266.387L374.346 263.136V263.121C374.346 263.121 372.541 256.327 372.541 248.369C372.541 241.056 374.346 233.601 374.346 233.601V233.586L315.612 235.589L290.774 236.445L290.776 236.447Z" fill="#FAE0B2"/>
<path d="M375.595 263.066L374.348 263.136L314.761 266.387L291.003 267.69C284.744 250.472 290.778 236.447 290.778 236.447L315.616 235.592L374.351 233.588L375.764 233.546C377.654 233.476 379.138 231.934 379.138 230.043C379.138 228.152 377.57 226.555 375.665 226.555H375.51L287.29 229.818C287.29 229.818 275.642 249.182 287.29 274.247L375.929 270.072C377.834 269.975 379.318 268.363 379.261 266.444C379.191 264.553 377.623 263.069 375.747 263.069H375.593L375.595 263.066Z" fill="#86B1F2"/>
<path d="M375.51 226.555L133.756 223.501L135.085 223.556L287.29 229.819L375.51 226.555Z" fill="#355389"/>
<path d="M284.34 229.698L135.085 223.556C127.651 223.262 121.449 229.202 121.407 236.655L121.31 255.26C121.267 262.378 126.867 268.234 133.966 268.501L287.29 274.245C275.642 249.18 287.29 229.816 287.29 229.816L284.34 229.696V229.698Z" fill="#355389"/>
<path d="M291.218 248.462C295.826 248.786 300.416 248.835 305.003 248.786C309.591 248.754 314.169 248.559 318.744 248.335C323.318 248.055 327.889 247.742 332.452 247.265C337.015 246.806 341.574 246.247 346.116 245.41C341.508 245.082 336.916 245.031 332.329 245.082C327.743 245.114 323.163 245.309 318.588 245.537C314.014 245.819 309.443 246.132 304.88 246.611C300.317 247.071 295.758 247.628 291.216 248.462H291.218Z" fill="#E5BD83"/>
<path d="M339.904 255.807C345.005 256.137 350.069 255.946 355.125 255.633C360.177 255.267 365.223 254.773 370.23 253.754C365.13 253.42 360.065 253.613 355.009 253.928C349.957 254.299 344.914 254.792 339.904 255.807Z" fill="#E5BD83"/>
<path d="M331.733 275.905C336.386 269.047 335.915 252.761 330.871 246.185C321.726 246.452 312.92 247.579 303.775 247.845C308.82 254.421 308.954 269.844 304.298 276.703C309.991 274.668 315.508 272.038 320.649 269.077C324.653 271.771 328.281 274.136 331.735 275.905H331.733Z" fill="#F47458"/>
<path d="M367.593 151.06L358.393 175.733C358.393 175.733 335.982 161.507 320.795 155.836C303.654 149.436 279.36 146.225 279.36 146.225L288.56 121.552L297.76 96.8791C297.76 96.8791 321.29 92.635 341.54 100.196C360.323 107.208 376.793 126.387 376.793 126.387L367.593 151.06Z" fill="#355389"/>
<path d="M415.218 148.08L368.249 151.305L367.593 151.06L376.793 126.387C376.793 126.387 360.323 107.208 341.54 100.195C321.288 92.6347 297.76 96.8788 297.76 96.8788L288.56 121.552L287.912 121.31L254.535 88.0876L347.849 83.2759L415.218 148.08Z" fill="#13375B"/>
<path d="M346.822 76.5392L256.937 81.639L254.533 88.0879L344.283 83.4604C346.556 83.3439 348.776 84.172 350.418 85.7498L415.216 148.078L417.62 141.629L353.03 78.8562C351.375 77.2487 349.123 76.4079 346.822 76.5392Z" fill="#355389"/>
<path d="M260.691 131.438C260.691 131.438 256.048 136.407 255.322 141.347C254.596 146.288 255.392 151.24 255.392 151.24L256.501 151.655L257.28 146.176L257.034 153.718L259.053 153.726L260.577 143.22L260.338 152.345C260.338 152.345 262.499 152.036 262.744 151.382C262.988 150.727 263.259 142.453 263.259 142.453L263.337 152.348C263.337 152.348 264.378 153.481 267.731 144.495C271.081 135.506 264.035 130.458 264.035 130.458L260.691 131.442V131.438Z" fill="#FEC65E"/>
<path d="M311.965 78.5174L305.502 78.888C304.549 78.4009 303.362 77.8693 302.01 77.3631C295.885 75.0758 286.257 73.4091 277.965 80.4467C277.383 80.9444 276.81 81.4802 276.24 82.0605C274.621 83.7146 273.269 85.4237 272.13 87.1794C266.52 95.8223 266.209 105.509 265.889 115.667C265.709 121.194 265.527 126.91 264.431 132.48C264.211 133.598 263.125 134.327 262.012 134.098C261.898 134.077 261.788 134.047 261.682 134.009C260.755 133.662 260.181 132.69 260.38 131.684C261.411 126.44 261.593 120.902 261.766 115.537C262.067 106.079 262.376 96.3687 267.195 87.4293C268.414 85.1632 269.925 82.9415 271.802 80.8004C272.272 80.2498 272.767 79.7182 273.286 79.1845C289.013 63.038 310.243 76.8019 310.463 76.9501C311.028 77.325 311.512 77.9032 311.965 78.5174Z" fill="#FEC65E"/>
<path d="M266.842 132.829C267.801 130.656 266.818 128.117 264.646 127.157C262.474 126.198 259.936 127.182 258.978 129.355C258.019 131.528 259.002 134.068 261.174 135.027C263.346 135.987 265.883 135.003 266.842 132.829Z" fill="#F7F07F"/>
<path d="M62.019 182.503C77.4074 188.298 96.0698 175.26 96.0698 175.26C95.3862 178.746 86.8253 187.023 86.8253 187.023C89.2105 188.698 96.4084 188.906 96.4084 188.906C83.6634 195.454 65.3016 188.946 65.3016 188.946L62.019 182.503Z" fill="#355389"/>
<path d="M60.8232 181.15C60.8232 181.15 60.982 162.143 71.8603 152.813C71.8603 152.813 69.3312 159.559 69.9788 162.403C69.9788 162.403 80.8719 157.604 84.3576 158.288C84.3576 158.288 65.238 170.646 64.7788 187.093L60.8254 181.152L60.8232 181.15Z" fill="#13375B"/>
<path d="M7.76506 141.686L0 149.223C17.7333 163.739 30.9566 179.672 40.7428 194.715L42.1057 193.819L7.76506 141.688V141.686Z" fill="#F7CC7F"/>
<path d="M36.7214 121.139C36.7214 121.139 12.4781 114.55 4.9458 137.41L7.76484 141.686L42.1055 193.817L79.3308 250.319C76.0356 245.41 77.3414 238.754 82.2472 235.456C87.6631 231.815 94.7657 232.658 99.1932 237.119C90.8737 226.769 52.7298 177.264 36.7214 121.137V121.139Z" fill="#FAE0B2"/>
<path d="M91.2147 252.655L82.2475 235.458C77.3417 238.755 76.0359 245.412 79.3311 250.321C81.966 254.248 87.2909 255.294 91.2147 252.657V252.655Z" fill="#E5BD83"/>
<path d="M79.331 250.321L42.1056 193.819L40.7427 194.715C62.2876 227.827 67.2484 256.636 67.2484 256.636C73.6802 266.218 86.6727 268.772 96.26 262.338C103.928 257.183 105.97 246.782 100.819 239.107C100.819 239.107 100.81 239.092 100.779 239.062C100.632 238.889 100.108 238.258 99.2611 237.203C99.242 237.175 99.223 237.148 99.1933 237.118C94.7658 232.66 87.6632 231.815 82.2474 235.456L91.2145 252.653C87.2907 255.289 81.9659 254.243 79.331 250.317V250.321Z" fill="#F7CC7F"/>
<path d="M41.877 196.483C41.877 196.483 45.1235 184.14 60.7171 178.638L67.3901 190.507C51.7965 196.009 48.7637 208.148 48.7637 208.148L41.877 196.483Z" fill="#13375B"/>
<path d="M240.232 141.936L245.136 146.852L194.169 146.485L198.715 141.936H240.232Z" fill="#FE875E"/>
<path d="M240.23 106.581H198.715V141.936H240.23V106.581Z" fill="#F7CC7F"/>
<path d="M240.232 106.581H198.715L206.546 102.614H232.391L240.232 106.581Z" fill="#FE875E"/>
<path d="M232.391 99.7295H206.545V102.614H232.391V99.7295Z" fill="#F7CC7F"/>
<path d="M229.83 95.7627L232.391 99.6235L206.545 99.7294L209.212 95.7627H229.83Z" fill="#FE875E"/>
<path d="M233.987 64.7915C232.603 65.6979 229.832 67.9725 229.832 71.7825V95.7629H209.214V71.7825C209.214 67.9725 206.452 65.6979 205.068 64.7915C209.354 67.1529 214.285 68.4956 219.528 68.4956C224.77 68.4956 229.701 67.1529 233.987 64.7915Z" fill="#FEC65E"/>
<path d="M192.975 38.4413V41.1776H189.917C180.344 41.1776 172.582 33.4114 172.582 23.8303V13.1436C172.582 11.0003 173.453 9.05615 174.855 7.65201C176.258 6.24788 178.201 5.37744 180.342 5.37744C187.32 5.37744 192.973 11.0342 192.973 18.0083V38.4413H192.975ZM189.492 37.6831V18.0083C189.492 12.9615 185.388 8.86342 180.344 8.86342C177.985 8.86342 176.067 10.7801 176.067 13.1436V23.8303C176.067 31.3274 182.052 37.4544 189.492 37.681V37.6831Z" fill="#FEC65E"/>
<path d="M266.461 13.1455V23.8322C266.461 33.4112 258.7 41.1795 249.125 41.1795H246.067V18.0102C246.067 11.0362 251.72 5.37939 258.698 5.37939C260.841 5.37939 262.782 6.25195 264.185 7.65396C265.589 9.05598 266.458 11.0002 266.458 13.1455H266.461ZM262.975 23.8322V13.1455C262.975 10.7841 261.057 8.86537 258.698 8.86537C253.654 8.86537 249.55 12.9613 249.55 18.0102V37.6851C256.998 37.4585 262.975 31.3315 262.975 23.8343V23.8322Z" fill="#FEC65E"/>
<path d="M249.553 0V38.4411C249.553 49.4772 243.612 59.1261 234.753 64.3466C234.753 64.3466 234.744 64.3466 234.736 64.3551C234.675 64.3805 234.423 64.5118 234.057 64.7469C234.031 64.7638 234.012 64.7723 233.987 64.7914C229.701 67.1528 224.77 68.4955 219.527 68.4955C214.285 68.4955 209.354 67.1528 205.068 64.7914C205.043 64.7744 205.024 64.7659 204.998 64.7469C204.632 64.5118 204.38 64.3805 204.319 64.3551C204.311 64.3466 204.302 64.3466 204.302 64.3466C195.434 59.1261 189.494 49.4751 189.494 38.4411V0H249.555H249.553Z" fill="#FEC65E"/>
<g style="mix-blend-mode:multiply">
<path d="M249.553 35.9399V38.4411C249.553 49.4772 243.612 59.1262 234.753 64.3466C234.753 64.3466 234.744 64.3467 234.736 64.3551C234.675 64.3805 234.423 64.5118 234.057 64.7469C234.031 64.7639 234.012 64.7723 233.987 64.7914C229.701 67.1528 224.77 68.4955 219.527 68.4955C214.285 68.4955 209.354 67.1528 205.068 64.7914C205.043 64.7745 205.024 64.766 204.998 64.7469C204.632 64.5118 204.38 64.3805 204.319 64.3551C204.311 64.3467 204.302 64.3466 204.302 64.3466C195.434 59.1262 189.494 49.4751 189.494 38.4411V35.9399C189.494 46.9761 195.434 56.625 204.302 61.8455C204.302 61.8455 204.311 61.8455 204.319 61.8539C204.38 61.8794 204.632 62.0107 204.998 62.2457C205.024 62.2627 205.043 62.2712 205.068 62.2902C209.354 64.6516 214.285 65.9943 219.527 65.9943C224.77 65.9943 229.701 64.6516 233.987 62.2902C234.012 62.2733 234.031 62.2648 234.057 62.2457C234.423 62.0107 234.675 61.8794 234.736 61.8539C234.744 61.8455 234.753 61.8455 234.753 61.8455C243.612 56.625 249.553 46.9739 249.553 35.9399Z" fill="#FEC65E"/>
</g>
<path d="M197.2 145.005L228.201 331.168C228.378 332.24 229.307 333.002 230.359 333.002C230.478 333.002 230.601 332.992 230.721 332.973C231.915 332.773 232.721 331.643 232.522 330.45L230.831 320.295H281.244L283.055 331.17C283.233 332.242 284.162 333.004 285.214 333.004C285.333 333.004 285.455 332.994 285.576 332.975C286.77 332.776 287.576 331.645 287.377 330.452L256.376 144.289C256.177 143.095 255.049 142.283 253.856 142.487C252.662 142.686 251.856 143.815 252.054 145.009L254.275 158.341H203.862L201.521 144.289C201.322 143.095 200.194 142.283 199.001 142.487C197.807 142.686 197.001 143.815 197.2 145.009V145.005ZM208.967 188.982H259.379L263.022 210.857H212.609L208.967 188.982ZM213.339 215.246H263.752L267.394 237.121H216.982L213.339 215.246ZM217.712 241.507H268.124L271.767 263.382H221.352L217.71 241.507H217.712ZM276.141 289.646H225.729L222.086 267.768H272.501L276.143 289.646H276.141ZM255.007 162.721L258.649 184.596H208.234L204.592 162.721H255.005H255.007ZM230.101 315.907L226.459 294.032H276.871L280.514 315.907H230.099H230.101Z" fill="#171C51"/>
<path d="M401.858 64.6304L437.678 98.4016C435.544 100.6 433.828 103.169 432.619 105.967L399.388 74.6203L401.858 64.6304Z" fill="#F7CC7F"/>
<path d="M443.333 94.0579C441.223 95.2418 439.326 96.7115 437.68 98.4016L401.86 64.6304L402.438 62.2647L403.803 56.7329L443.333 94.0579Z" fill="#FE875E"/>
<path d="M473.661 43.8076L481.1 50.9405L469.731 95.2184C467.212 93.4945 464.395 92.2386 461.407 91.5249L473.661 43.8076Z" fill="#F7CC7F"/>
<path d="M473.66 43.8077L461.407 91.525C459.119 90.9765 456.731 90.7477 454.314 90.8748L467.735 38.691L467.851 38.2314L472.01 42.2215L473.658 43.8077H473.66Z" fill="#FE875E"/>
<path d="M460.607 31.2847L453.836 58.768L426.592 66.6633L406.192 47.0542L460.607 31.2847Z" fill="#FE875E"/>
<path d="M467.853 38.2312L467.737 38.6908L454.317 90.8746C452.429 90.9741 450.531 91.2876 448.639 91.8361C446.749 92.3846 444.975 93.1322 443.333 94.0577L403.803 56.7327L406.194 47.0521L426.594 66.6633L447.045 86.3254L453.839 58.768L460.609 31.2847L467.856 38.2312H467.853Z" fill="#F7CC7F"/>
<path d="M469.73 95.2202C467.212 93.4963 464.395 92.2404 461.407 91.5267C459.119 90.9782 456.731 90.7495 454.314 90.8765C452.427 90.9761 450.528 91.2895 448.636 91.838C446.746 92.3866 444.973 93.1342 443.33 94.0597C441.22 95.2435 439.324 96.7133 437.677 98.4034C435.544 100.602 433.828 103.171 432.619 105.968C430.387 111.121 429.872 117.053 431.555 122.871C435.402 136.167 449.286 143.821 462.566 139.973C475.853 136.122 483.502 122.229 479.654 108.933C477.972 103.122 474.369 98.3843 469.73 95.2224V95.2202Z" fill="#FEC65E"/>
<path d="M468.357 97.2324C466.084 95.6758 463.542 94.5427 460.842 93.8968C458.776 93.4012 456.621 93.1958 454.442 93.3101C452.738 93.3991 451.024 93.6829 449.316 94.1785C447.61 94.6719 446.008 95.3496 444.526 96.1841C442.621 97.2536 440.909 98.5794 439.424 100.104C437.498 102.089 435.948 104.408 434.856 106.934C432.842 111.585 432.376 116.941 433.896 122.191C437.369 134.193 449.902 141.102 461.889 137.628C473.883 134.153 480.787 121.611 477.314 109.609C475.796 104.363 472.543 100.085 468.355 97.2324H468.357Z" fill="#F7F07F"/>
<path d="M454.444 100.411L455.815 100.013C455.866 100.312 455.925 100.606 455.995 100.901C456.063 101.195 456.167 101.58 456.304 102.063L456.541 102.881L463.316 126.289L465.576 125.635L466.433 128.594L453.932 132.217L453.075 129.259L455.335 128.604L449.786 109.429L447.191 111.536L446.279 108.385C448.317 106.786 450.148 105.068 451.771 103.234C453.394 101.398 454.285 100.458 454.446 100.411H454.444Z" fill="#FEC65E"/>
</g>
<defs>
<clipPath id="clip0_14_505">
<rect width="519" height="333" fill="white"/>
</clipPath>
</defs>
</svg>
