<svg width="84" height="84" viewBox="0 0 84 84" fill="none" xmlns="http://www.w3.org/2000/svg">
<g clip-path="url(#clip0_19_1127)">
<path d="M76.6749 30.1406H73.2612L70.5842 33.6519V67.3571H13.3983C13.2006 67.9014 13.0908 68.2021 13.0908 68.2021V76.7375L14.1613 78.4839L15.5944 79.0426H33.2569C34.4951 79.0426 35.6233 79.7095 36.2653 80.7682C37.4405 82.7056 39.5689 84.0004 42.0003 84.0004C44.4317 84.0004 46.5601 82.7056 47.7351 80.7682C48.3772 79.7095 49.5053 79.0426 50.7435 79.0426H76.6749C78.191 79.0426 79.4198 77.8136 79.4198 76.2976V32.8857C79.42 31.3696 78.191 30.1406 76.6749 30.1406Z" fill="#CE7BBC"/>
<path d="M13.7316 76.2975V67.3569H12.3017V32.0444L10.7391 30.1406H7.3255C5.80939 30.1406 4.58057 31.3696 4.58057 32.8856V76.2975C4.58057 77.8134 5.80956 79.0424 7.3255 79.0424H16.4767C14.9606 79.0424 13.7316 77.8134 13.7316 76.2975Z" fill="#C464B0"/>
<path d="M71.7743 24.896C67.4226 23.4341 62.9957 22.7586 58.6429 22.8115L55.373 24.9712L46.3056 38.1244L40.1616 51.5626V70.6242L42.0001 74.1127C50.9578 69.7314 61.3285 68.8569 71.3017 72.0735C72.269 72.3856 73.2612 71.6749 73.2612 70.6585V26.9557C73.2612 26.0207 72.6606 25.1938 71.7743 24.896Z" fill="#C9F0FE"/>
<path d="M37.6946 47.4572V40.6407L35.0133 36.925V30.7976L28.3686 24.0884L25.3573 22.8114C23.1756 22.7854 20.9957 22.9417 18.84 23.2784L16.4766 24.849V69.955L18.4294 70.6774C26.572 69.3182 34.749 70.566 42.0001 74.1126V52.2975L37.6946 47.4572Z" fill="#9BE8FD"/>
<path d="M18.115 69.753V24.9181C18.115 24.2796 18.3892 23.6913 18.8398 23.2783C16.5933 23.6295 14.3807 24.1706 12.2257 24.8958C11.3394 25.1936 10.7388 26.0205 10.7388 26.9555V70.6583C10.7388 71.6746 11.731 72.3852 12.6983 72.0733C14.5719 71.4684 16.4873 71.0018 18.4292 70.6773C18.2247 70.4126 18.1141 70.0874 18.115 69.753Z" fill="#62DDFC"/>
<path d="M36.4271 65.1315C36.2992 65.1313 36.1719 65.1119 36.0498 65.0739C30.2041 63.2533 23.9141 62.8928 17.8595 64.0318C17.5291 64.0939 17.1875 64.0222 16.91 63.8325C16.6324 63.6428 16.4416 63.3506 16.3794 63.0202C16.3173 62.6898 16.3889 62.3483 16.5786 62.0707C16.7683 61.7931 17.0605 61.6023 17.3909 61.5401C23.8511 60.3249 30.5638 60.71 36.8036 62.6533C37.0929 62.7436 37.3403 62.9345 37.5009 63.1915C37.6616 63.4484 37.7249 63.7544 37.6794 64.0541C37.6338 64.3537 37.4825 64.6271 37.2528 64.8247C37.0231 65.0224 36.7302 65.1312 36.4271 65.1315ZM36.4271 59.0512C36.2992 59.051 36.1719 59.0316 36.0498 58.9936C30.2041 57.173 23.9141 56.8124 17.8595 57.9514C17.6959 57.9823 17.5278 57.9805 17.3649 57.9464C17.202 57.9122 17.0474 57.8463 16.9099 57.7524C16.7725 57.6584 16.6549 57.5383 16.5639 57.399C16.4729 57.2596 16.4102 57.1036 16.3795 56.94C16.3487 56.7764 16.3504 56.6083 16.3846 56.4454C16.4188 56.2825 16.4847 56.1279 16.5786 55.9904C16.6726 55.853 16.7926 55.7354 16.932 55.6443C17.0714 55.5533 17.2273 55.4906 17.3909 55.4598C23.8511 54.2448 30.5638 54.6298 36.8036 56.573C37.0929 56.6633 37.3403 56.8542 37.5009 57.1112C37.6616 57.3681 37.7249 57.6741 37.6794 57.9737C37.6338 58.2733 37.4825 58.5467 37.2528 58.7444C37.0231 58.942 36.7302 59.0509 36.4271 59.0512ZM17.6239 51.8928C17.3082 51.8925 17.0039 51.7743 16.7706 51.5615C16.5374 51.3487 16.392 51.0565 16.3628 50.7421C16.3337 50.4277 16.4229 50.1137 16.6131 49.8616C16.8032 49.6095 17.0806 49.4375 17.3909 49.3792C21.6313 48.5817 25.9319 48.4635 30.1739 49.0286C30.5045 49.0759 30.8031 49.2519 31.0048 49.5182C31.2064 49.7846 31.2948 50.1197 31.2507 50.4508C31.2066 50.7819 31.0336 51.0823 30.7693 51.2865C30.505 51.4908 30.1707 51.5825 29.8392 51.5417C25.8649 51.0123 21.8344 51.123 17.8597 51.8708C17.7819 51.8854 17.703 51.8928 17.6239 51.8928ZM17.6239 45.8125C17.3082 45.8122 17.0039 45.694 16.7706 45.4812C16.5374 45.2684 16.392 44.9761 16.3628 44.6617C16.3337 44.3473 16.4229 44.0334 16.6131 43.7813C16.8032 43.5292 17.0806 43.3572 17.3909 43.2989C19.915 42.8242 22.4862 42.5944 25.0361 42.598C25.3698 42.6024 25.6884 42.7382 25.9226 42.9759C26.1568 43.2137 26.2878 43.5342 26.2872 43.868C26.2866 44.2017 26.1544 44.5218 25.9192 44.7586C25.6841 44.9955 25.3651 45.1301 25.0313 45.1332C24.981 45.1324 24.9331 45.1329 24.884 45.1329C22.5273 45.1343 20.1757 45.3544 17.8597 45.7905C17.7804 45.8052 17.7015 45.8125 17.6239 45.8125ZM17.6239 39.7318C17.3082 39.7315 17.0039 39.6134 16.7706 39.4005C16.5374 39.1877 16.392 38.8955 16.3628 38.5811C16.3337 38.2667 16.4229 37.9527 16.6131 37.7007C16.8032 37.4486 17.0806 37.2765 17.3909 37.2182C19.9141 36.7436 22.4836 36.5047 25.0361 36.5173C25.2026 36.518 25.3673 36.5514 25.5208 36.6157C25.6744 36.6799 25.8138 36.7738 25.9311 36.892C26.0483 37.0102 26.1412 37.1503 26.2043 37.3043C26.2674 37.4584 26.2995 37.6233 26.2989 37.7898C26.2976 38.1252 26.1635 38.4463 25.9259 38.683C25.6884 38.9197 25.3667 39.0526 25.0313 39.0526C24.9828 39.0547 24.9347 39.0524 24.8865 39.0523C22.5427 39.0523 20.1795 39.2734 17.8598 39.7098C17.782 39.7245 17.7031 39.7318 17.6239 39.7318ZM17.6239 33.6513C17.3082 33.651 17.0039 33.5329 16.7706 33.3201C16.5374 33.1072 16.392 32.815 16.3628 32.5006C16.3337 32.1862 16.4229 31.8722 16.6131 31.6202C16.8032 31.3681 17.0806 31.1961 17.3909 31.1377C19.9141 30.6631 22.4897 30.4265 25.0359 30.4368C25.2024 30.4375 25.3671 30.4709 25.5207 30.5352C25.6742 30.5995 25.8136 30.6934 25.9309 30.8115C26.0481 30.9297 26.141 31.0698 26.2041 31.2238C26.2672 31.3779 26.2994 31.5428 26.2987 31.7093C26.2961 32.4094 25.7325 32.978 25.0262 32.9721C22.622 32.9644 20.2224 33.1844 17.8597 33.6293C17.7819 33.644 17.703 33.6513 17.6239 33.6513ZM47.5729 65.1315C47.2699 65.131 46.9771 65.0221 46.7475 64.8244C46.5179 64.6267 46.3666 64.3534 46.3212 64.0538C46.2757 63.7543 46.3389 63.4483 46.4995 63.1914C46.6601 62.9345 46.9073 62.7435 47.1965 62.6531C53.4361 60.7098 60.1489 60.3253 66.6092 61.54C66.7728 61.5707 66.9288 61.6334 67.0681 61.7245C67.2075 61.8155 67.3276 61.9331 67.4215 62.0706C67.5154 62.208 67.5814 62.3626 67.6155 62.5256C67.6497 62.6885 67.6514 62.8565 67.6206 63.0202C67.4914 63.7081 66.8282 64.1615 66.1406 64.0316C60.0859 62.8922 53.7961 63.253 47.9504 65.0737C47.8282 65.112 47.7009 65.1314 47.5729 65.1315ZM47.5729 59.0512C47.2699 59.0507 46.9771 58.9418 46.7475 58.7441C46.5179 58.5464 46.3666 58.273 46.3212 57.9735C46.2757 57.674 46.3389 57.368 46.4995 57.1111C46.6601 56.8542 46.9073 56.6632 47.1965 56.5728C53.4361 54.6295 60.1489 54.2449 66.6092 55.4597C66.9396 55.5218 67.2318 55.7126 67.4215 55.9902C67.6112 56.2678 67.6829 56.6093 67.6207 56.9398C67.5586 57.2702 67.3677 57.5624 67.0902 57.7521C66.8126 57.9418 66.471 58.0134 66.1406 57.9513C60.0859 56.812 53.7961 57.1725 47.9504 58.9934C47.8282 59.0316 47.7009 59.051 47.5729 59.0512ZM66.3761 51.8928C66.297 51.8928 66.218 51.8854 66.1403 51.8708C62.1656 51.123 58.135 51.0121 54.1608 51.5417C53.4666 51.6349 52.8294 51.1466 52.7369 50.4525C52.6925 50.1192 52.7824 49.782 52.9866 49.515C53.1909 49.2479 53.4929 49.073 53.8261 49.0286C58.0679 48.4635 62.3688 48.5815 66.609 49.3792C66.9193 49.4375 67.1967 49.6095 67.3869 49.8616C67.577 50.1137 67.6663 50.4277 67.6371 50.7421C67.608 51.0565 67.4626 51.3487 67.2293 51.5615C66.9961 51.7743 66.6918 51.8925 66.3761 51.8928ZM66.3761 45.8125C66.297 45.8125 66.218 45.8051 66.1403 45.7905C63.7737 45.3454 61.3631 45.1234 58.9737 45.1332H58.9688C58.6351 45.1301 58.316 44.9955 58.0809 44.7586C57.8458 44.5218 57.7136 44.2017 57.7129 43.868C57.7123 43.5342 57.8433 43.2137 58.0776 42.9759C58.3118 42.7382 58.6303 42.6024 58.9641 42.598C61.5165 42.5873 64.0853 42.8241 66.6092 43.2989C66.9195 43.3572 67.1969 43.5292 67.3871 43.7813C67.5772 44.0334 67.6665 44.3474 67.6373 44.6618C67.6081 44.9762 67.4627 45.2685 67.2294 45.4813C66.9961 45.6941 66.6918 45.8122 66.3761 45.8125ZM66.3761 39.7318C66.297 39.7318 66.218 39.7245 66.1403 39.7098C63.7773 39.2667 61.3779 39.0466 58.9737 39.0526H58.9688C58.6335 39.0526 58.3118 38.9197 58.0742 38.683C57.8366 38.4463 57.7025 38.1252 57.7013 37.7898C57.7006 37.6233 57.7328 37.4584 57.7959 37.3043C57.859 37.1503 57.9518 37.0102 58.0691 36.892C58.1864 36.7738 58.3257 36.6799 58.4793 36.6157C58.6329 36.5514 58.7976 36.518 58.9641 36.5173C61.5287 36.5101 64.0884 36.7448 66.609 37.2182C66.9193 37.2765 67.1967 37.4486 67.3869 37.7007C67.577 37.9527 67.6663 38.2667 67.6371 38.5811C67.608 38.8955 67.4626 39.1877 67.2293 39.4005C66.9961 39.6134 66.6918 39.7315 66.3761 39.7318ZM66.3761 33.6513C66.297 33.6513 66.218 33.644 66.1403 33.6293C63.7745 33.1842 61.3638 32.9621 58.9737 32.9721H58.9688C58.6335 32.9721 58.3118 32.8392 58.0742 32.6025C57.8366 32.3659 57.7025 32.0447 57.7013 31.7093C57.7006 31.5428 57.7328 31.3779 57.7959 31.2238C57.859 31.0698 57.9518 30.9297 58.0691 30.8115C58.1864 30.6934 58.3257 30.5995 58.4793 30.5352C58.6329 30.4709 58.7976 30.4375 58.9641 30.4368C61.5288 30.4294 64.0884 30.6641 66.609 31.1377C66.9193 31.1961 67.1967 31.3681 67.3869 31.6202C67.577 31.8722 67.6663 32.1862 67.6371 32.5006C67.608 32.815 67.4626 33.1072 67.2293 33.3201C66.9961 33.5329 66.6918 33.651 66.3761 33.6513Z" fill="#62DDFC"/>
<path d="M48.1332 40.0039H41.2104V46.2504L41.7059 47.0192L41.4006 47.4968V47.8912H47.0161L48.4367 47.0192V40.6405L48.1332 40.0039Z" fill="#00C2FB"/>
<path d="M41.7059 40.6405L42.1753 40.0039H35.964L35.4946 40.6405V47.0192L36.3583 47.8912H42.5697L41.7059 47.0192V40.6405Z" fill="#00ABF2"/>
<path d="M41.7062 47.0195L41.4009 47.4971V49.6586L43.5558 52.0974H45.0716C47.0185 51.5121 48.437 49.7067 48.437 47.5693V47.0197L41.7062 47.0195Z" fill="#00ABF2"/>
<path d="M41.706 47.5691V47.0195H35.4946V47.5691C35.4946 50.1807 37.6117 52.2977 40.2232 52.2977H43.7083C44.1822 52.2977 44.6396 52.2272 45.0714 52.0974C43.1247 51.5121 41.706 49.7065 41.706 47.5691Z" fill="#0092D1"/>
<path d="M46.2186 0.513672H42.0002L36.9154 4.70777C36.9154 4.70777 31.712 10.3979 32.0493 10.5669C32.3868 10.7359 31.3726 16.7078 31.3726 16.7078L32.123 21.9256L36.1049 28.2573L38.5839 31.6939V40.1991L38.8973 40.0601L40.0848 40.6575H43.8467L45.0065 40.0601L46.382 40.6575H48.1688C50.0621 40.6575 51.5969 39.1227 51.5969 37.2294V34.6401C51.5969 33.1329 52.2349 31.6854 53.3797 30.7048C57.1026 27.5159 59.4669 22.7865 59.4834 17.504C59.5085 9.48477 53.9713 2.4332 46.2186 0.513672Z" fill="#FFE02F"/>
<path d="M38.9924 30.636C35.3153 27.4481 32.9838 22.7494 32.9675 17.5045C32.9423 9.34776 38.6074 2.41251 46.2185 0.514144C44.7868 0.159605 43.2794 -0.0200436 41.7175 0.0017767C32.2024 0.134175 24.4873 7.9885 24.5167 17.5045C24.5331 22.7869 26.8974 27.5164 30.6203 30.7053C31.765 31.6857 32.4032 33.1332 32.4032 34.6406V37.2299C32.4032 39.1231 33.938 40.6579 35.8313 40.6579H37.5496L38.8973 40.0606L38.9922 40.1085V30.636H38.9924Z" fill="#FBC700"/>
<path d="M48.9184 17.6367C48.5823 17.6367 48.2599 17.7703 48.0221 18.008C47.7844 18.2457 47.6509 18.5681 47.6509 18.9043V24.8146C47.6509 25.1898 47.5227 25.5585 47.2903 25.853L44.9384 28.8294C44.233 29.7249 43.8487 30.8312 43.8471 31.9712V40.6573H46.3824V31.9712C46.3832 31.4015 46.5753 30.8486 46.9277 30.4009L49.2795 27.4245C49.8655 26.6806 50.1848 25.7615 50.1861 24.8145V18.9041C50.1861 18.7376 50.1533 18.5728 50.0896 18.419C50.0259 18.2653 49.9325 18.1255 49.8148 18.0079C49.6971 17.8902 49.5573 17.7968 49.4035 17.7331C49.2497 17.6695 49.0849 17.6367 48.9184 17.6367ZM40.085 40.6575V31.9714C40.085 30.836 39.6973 29.7204 38.9936 28.8296L36.6418 25.8531C36.4087 25.5572 36.2817 25.1915 36.2812 24.8148V18.9044C36.2812 18.738 36.2484 18.5731 36.1847 18.4194C36.121 18.2656 36.0276 18.1258 35.9099 18.0081C35.7922 17.8904 35.6525 17.7971 35.4987 17.7334C35.3449 17.6697 35.1801 17.6369 35.0136 17.6369C34.8472 17.6369 34.6824 17.6697 34.5286 17.7334C34.3748 17.7971 34.2351 17.8904 34.1173 18.0081C33.9996 18.1258 33.9063 18.2656 33.8426 18.4194C33.7789 18.5731 33.7461 18.738 33.7461 18.9044V24.8148C33.7475 25.7618 34.0667 26.6809 34.6527 27.4249L37.0045 30.4013C37.3571 30.8488 37.5491 31.4018 37.5499 31.9715V40.6576L40.085 40.6575Z" fill="#FFF1AF"/>
<path d="M50.6832 22.7714H33.3169C32.9807 22.7714 32.6583 22.6379 32.4206 22.4002C32.1829 22.1625 32.0493 21.84 32.0493 21.5039C32.0493 21.1677 32.1829 20.8453 32.4206 20.6076C32.6583 20.3699 32.9807 20.2363 33.3169 20.2363H50.6832C51.0194 20.2363 51.3418 20.3699 51.5795 20.6076C51.8172 20.8453 51.9508 21.1677 51.9508 21.5039C51.9508 21.84 51.8172 22.1625 51.5795 22.4002C51.3418 22.6379 51.0194 22.7714 50.6832 22.7714Z" fill="#FFF1AF"/>
</g>
<defs>
<clipPath id="clip0_19_1127">
<rect width="84" height="84" fill="white"/>
</clipPath>
</defs>
</svg>
