<svg width="94" height="94" viewBox="0 0 94 94" fill="none" xmlns="http://www.w3.org/2000/svg">
<path d="M21.9937 39.0075V86.6088C21.9918 87.4545 22.1571 88.2922 22.4798 89.0739C22.8026 89.8555 23.2766 90.5658 23.8746 91.1637C24.4726 91.7617 25.1828 92.2357 25.9645 92.5585C26.7461 92.8813 27.5839 93.0465 28.4296 93.0447H74.8484C75.6941 93.0465 76.5318 92.8813 77.3135 92.5585C78.0951 92.2357 78.8054 91.7617 79.4034 91.1637C80.0013 90.5658 80.4753 89.8555 80.7981 89.0739C81.1209 88.2922 81.2861 87.4545 81.2843 86.6088V36.0654L21.9937 39.0075Z" fill="#BBCDFB"/>
<path d="M21.9937 39.0075V86.6088C21.9937 86.7948 22.0034 86.9787 22.0186 87.1605H66.4405C67.2862 87.1623 68.1239 86.9971 68.9055 86.6743C69.6872 86.3515 70.3974 85.8775 70.9954 85.2795C71.5934 84.6815 72.0674 83.9713 72.3902 83.1896C72.713 82.408 72.8782 81.5703 72.8764 80.7246V53.1741L81.2843 44.7662V36.0654L21.9937 39.0075Z" fill="#9EBBFB"/>
<path d="M3.60207 25.3412V75.4572C3.60024 76.3015 3.76519 77.1379 4.08745 77.9183C4.40971 78.6987 4.88294 79.4077 5.47996 80.0048C6.07699 80.6018 6.78605 81.075 7.56646 81.3973C8.34686 81.7195 9.18322 81.8845 10.0275 81.8827H60.8284C61.6727 81.8845 62.509 81.7195 63.2894 81.3973C64.0698 81.075 64.7789 80.6018 65.3759 80.0048C65.973 79.4077 66.4462 78.6987 66.7685 77.9183C67.0907 77.1379 67.2557 76.3015 67.2538 75.4572V7.52754C67.2557 6.68322 67.0907 5.84686 66.7685 5.06646C66.4462 4.28606 65.973 3.57699 65.3759 2.97996C64.7789 2.38294 64.0698 1.90971 63.2894 1.58745C62.509 1.26519 61.6727 1.10024 60.8284 1.10207H27.8412L3.60207 25.3412Z" fill="#D9DEFB"/>
<path d="M27.8412 1.10205L3.60205 25.3412H21.4157C22.2601 25.3431 23.0964 25.1781 23.8768 24.8558C24.6572 24.5336 25.3663 24.0604 25.9633 23.4633C26.5603 22.8663 27.0336 22.1572 27.3558 21.3768C27.6781 20.5964 27.8431 19.7601 27.8412 18.9157V1.10205Z" fill="#2196F3"/>
<path d="M81.0801 15.4434C80.7056 15.0675 80.2607 14.7692 79.7706 14.5656C79.2807 14.3621 78.7553 14.2573 78.2247 14.2573C77.6941 14.2573 77.1687 14.3621 76.6787 14.5656C76.1887 14.7692 75.7437 15.0675 75.3693 15.4434L39.3062 51.5051L53.1549 65.3539L89.2174 29.2922C89.5935 28.9177 89.892 28.4726 90.0956 27.9825C90.2993 27.4924 90.4041 26.9668 90.4041 26.4361C90.4041 25.9053 90.2993 25.3798 90.0956 24.8897C89.892 24.3995 89.5935 23.9545 89.2174 23.58L81.0801 15.4434Z" fill="#2196F3"/>
<path d="M86.4477 20.8105C86.8237 21.185 87.1221 21.63 87.3257 22.1201C87.5293 22.6102 87.6341 23.1356 87.6341 23.6663C87.6341 24.1969 87.5293 24.7224 87.3257 25.2125C87.1221 25.7025 86.8237 26.1476 86.4477 26.522L50.3853 62.5845L53.1546 65.3538L89.2171 29.292C89.5932 28.9176 89.8917 28.4725 90.0953 27.9824C90.299 27.4922 90.4038 26.9667 90.4038 26.436C90.4038 25.9052 90.299 25.3797 90.0953 24.8896C89.8917 24.3994 89.5932 23.9543 89.2171 23.5799L86.4477 20.8105Z" fill="#2979FF"/>
<path d="M70.1346 20.6772L64.5161 26.2957L78.3649 40.1438L83.9834 34.526L70.1346 20.6772Z" fill="#FFC45C"/>
<path d="M81.2137 31.7568L75.5952 37.3746L78.3639 40.1447L83.983 34.5262L81.2137 31.7568Z" fill="#FFA14E"/>
<path d="M81.0799 15.4434C80.7055 15.0675 80.2605 14.7692 79.7705 14.5656C79.2805 14.3621 78.7551 14.2573 78.2245 14.2573C77.6939 14.2573 77.1686 14.3621 76.6786 14.5656C76.1886 14.7692 75.7436 15.0675 75.3691 15.4434L68.9229 21.889L82.7716 35.7377L89.2172 29.2915C89.5932 28.917 89.8914 28.472 90.095 27.982C90.2985 27.492 90.4033 26.9667 90.4033 26.4361C90.4033 25.9055 90.2985 25.3801 90.095 24.8901C89.8914 24.4001 89.5932 23.9551 89.2172 23.5807L81.0799 15.4434Z" fill="#FF7EBD"/>
<path d="M45.8022 52.0437H42.137C41.6969 52.0448 41.2615 51.9535 40.8589 51.7756C40.4563 51.5978 40.0955 51.3374 39.8 51.0112L36.7996 54.0123C35.8372 54.9748 35.5242 55.7575 35.4854 56.9683L35.5263 66.4747C35.5263 67.3331 35.7608 67.9784 36.2271 68.4329C36.6816 68.8999 37.3276 69.1337 38.186 69.1337L47.6917 69.1753C48.9025 69.1358 49.6852 68.8235 50.6477 67.8604L53.6488 64.86C53.3228 64.5644 53.0625 64.2036 52.8847 63.801C52.707 63.3985 52.6158 62.963 52.617 62.523V58.8585L48.9518 58.8578C48.5378 58.859 48.1277 58.7783 47.745 58.6205C47.3623 58.4628 47.0145 58.2309 46.7216 57.9384C46.4291 57.6456 46.1974 57.2979 46.0396 56.9153C45.8818 56.5327 45.8011 56.1228 45.8022 55.7089V52.0437Z" fill="#FFB7BD"/>
<path d="M43.0327 52.0435V52.9386C43.0327 54.81 43.671 56.0681 45.8228 56.0681C45.8092 55.9487 45.8023 55.8287 45.802 55.7086V52.0435H43.0327ZM49.8467 58.8575C49.8467 58.8575 49.5622 60.8948 50.8792 62.0904L47.8788 65.0908C46.9157 66.0539 46.133 66.3662 44.9221 66.4057L35.5254 66.3648V66.4744C35.5254 67.3328 35.7613 67.9781 36.2269 68.4326C36.6814 68.8996 37.3274 69.1334 38.1858 69.1334L47.6915 69.1751C48.9023 69.1355 49.685 68.8232 50.6475 67.8601L53.6486 64.8597C53.3226 64.5641 53.0623 64.2033 52.8845 63.8007C52.7068 63.3982 52.6156 62.9627 52.6167 62.5227V58.8582L49.8467 58.8575Z" fill="#FFA2BD"/>
<path d="M35.4941 59.0396L35.5261 66.4746C35.5261 67.333 35.7606 67.9783 36.2269 68.4328C36.6821 68.8998 37.3274 69.1337 38.1858 69.1337L45.6202 69.1663L35.4941 59.0396Z" fill="#455A64"/>
<path d="M86.5846 20.8438C86.9612 21.2187 87.2601 21.6644 87.464 22.1552C87.6679 22.646 87.7729 23.1722 87.7729 23.7036C87.7729 24.2351 87.6679 24.7613 87.464 25.2521C87.2601 25.7429 86.9612 26.1886 86.5846 26.5635L80.1279 33.0195L82.9021 35.793L89.3581 29.337C89.7348 28.962 90.0336 28.5163 90.2376 28.0254C90.4415 27.5346 90.5465 27.0083 90.5465 26.4768C90.5465 25.9453 90.4415 25.419 90.2376 24.9282C90.0336 24.4373 89.7348 23.9916 89.3581 23.6166L86.5846 20.8438Z" fill="#E95AAD"/>
<path d="M35.582 66.4697V66.5787C35.582 67.4384 35.818 68.0844 36.2843 68.5403C36.7401 69.0073 37.3869 69.2432 38.2459 69.2432L45.6928 69.2745L42.9193 66.501L35.582 66.4697Z" fill="#453E64"/>
<path d="M15.6598 33.7476H19.6989C20.3021 33.7462 20.8996 33.864 21.4571 34.0942C22.0146 34.3244 22.5212 34.6624 22.9477 35.0889C23.3742 35.5154 23.7122 36.022 23.9424 36.5795C24.1726 37.137 24.2904 37.7345 24.289 38.3377V42.3762C24.2904 42.9793 24.1726 43.5768 23.9424 44.1344C23.7122 44.6919 23.3742 45.1984 22.9477 45.6249C22.5212 46.0514 22.0146 46.3895 21.4571 46.6197C20.8996 46.8499 20.3021 46.9677 19.6989 46.9663H15.6604C15.0573 46.9677 14.4599 46.8499 13.9024 46.6197C13.3449 46.3896 12.8384 46.0516 12.4119 45.6252C11.9854 45.1987 11.6474 44.6923 11.4171 44.1348C11.1869 43.5774 11.069 42.98 11.0703 42.3769V38.3377C11.069 37.7346 11.1867 37.1371 11.4169 36.5797C11.647 36.0222 11.985 35.5157 12.4114 35.0892C12.8379 34.6627 13.3443 34.3246 13.9018 34.0944C14.4592 33.8641 15.0566 33.7463 15.6598 33.7476ZM15.6598 55.8724H19.6989C20.3021 55.8711 20.8996 55.9889 21.4571 56.219C22.0146 56.4492 22.5212 56.7873 22.9477 57.2138C23.3742 57.6403 23.7122 58.1469 23.9424 58.7044C24.1726 59.2619 24.2904 59.8594 24.289 60.4626V64.501C24.2904 65.1042 24.1726 65.7017 23.9424 66.2592C23.7122 66.8167 23.3742 67.3233 22.9477 67.7498C22.5212 68.1763 22.0146 68.5144 21.4571 68.7445C20.8996 68.9747 20.3021 69.0925 19.6989 69.0912H15.6604C15.0573 69.0925 14.4599 68.9748 13.9024 68.7446C13.3449 68.5145 12.8384 68.1765 12.4119 67.75C11.9854 67.3236 11.6474 66.8171 11.4171 66.2597C11.1869 65.7023 11.069 65.1048 11.0703 64.5017V60.4626C11.069 59.8595 11.1867 59.262 11.4169 58.7045C11.647 58.1471 11.985 57.6405 12.4114 57.214C12.8379 56.7875 13.3443 56.4495 13.9018 56.2192C14.4592 55.989 15.0566 55.8712 15.6598 55.8724Z" fill="#5BB774"/>
<path d="M30.1496 8.53516V9.26999H31.6172V8.53516H30.1496ZM33.8203 8.53516V9.26999H35.2893V8.53516H33.8203ZM37.4917 8.53516V9.26999H38.9607V8.53516H37.4917ZM41.1645 8.53516V9.26999H42.6328V8.53516H41.1645ZM44.8359 8.53516V9.26999H46.3049V8.53516H44.8359ZM48.5073 8.53516V9.26999H49.9763V8.53516H48.5073ZM52.1801 8.53516V9.26999H53.6484V8.53516H52.1801ZM55.8515 8.53516V9.26999H57.3205V8.53516H55.8515ZM59.5229 8.53516V9.26999H60.9919V8.53516H59.5229ZM63.1957 8.53516V9.26999H64.664V8.53516H63.1957ZM6.60986 74.8792V75.6141H8.07815V74.8792H6.60986ZM10.2813 74.8792V75.6141H11.7509V74.8792H10.2813ZM13.9527 74.8792V75.6141H15.4223V74.8792H13.9527ZM17.6255 74.8792V75.6141H19.0937V74.8792H17.6255ZM21.2969 74.8792V75.6141H22.7665V74.8792H21.2969ZM24.9683 74.8792V75.6141H26.4379V74.8792H24.9683ZM28.6411 74.8792V75.6141H30.1093V74.8792H28.6411ZM32.3125 74.8792V75.6141H33.7821V74.8792H32.3125ZM35.9839 74.8792V75.6141H37.4535V74.8792H35.9839ZM39.6567 74.8792V75.6141H41.1249V74.8792H39.6567ZM43.3281 74.8792V75.6141H44.7977V74.8792H43.3281ZM46.9995 74.8792V75.6141H48.4691V74.8792H46.9995ZM50.6723 74.8792V75.6141H52.1405V74.8792H50.6723ZM54.3437 74.8792V75.6141H55.8133V74.8792H54.3437ZM58.0151 74.8792V75.6141H59.4847V74.8792H58.0151ZM61.6878 74.8792V75.6141H63.1561V74.8792H61.6878Z" fill="#8DA2E9"/>
<path d="M19.7955 60.4676C19.6124 60.4774 19.4391 60.5534 19.3077 60.6813L17.0678 62.9198L16.1067 61.9587C15.9672 61.8294 15.783 61.7591 15.5928 61.7627C15.4025 61.7663 15.2211 61.8434 15.0865 61.978C14.952 62.1125 14.8748 62.294 14.8712 62.4842C14.8676 62.6745 14.9379 62.8587 15.0673 62.9982L16.5481 64.4804C16.6164 64.5488 16.6975 64.603 16.7868 64.64C16.8761 64.6771 16.9718 64.6961 17.0685 64.6961C17.1651 64.6961 17.2609 64.6771 17.3502 64.64C17.4395 64.603 17.5206 64.5488 17.5889 64.4804L20.3471 61.7207C20.4848 61.5828 20.5622 61.3959 20.5622 61.201C20.5622 61.0061 20.4848 60.8192 20.3471 60.6813C20.2759 60.6082 20.1898 60.5512 20.0946 60.5143C19.9994 60.4775 19.8974 60.4615 19.7955 60.4676Z" fill="#D9DEFB"/>
<path d="M30.6301 42.8774C30.435 42.8774 30.2479 42.9549 30.11 43.0929C29.972 43.2308 29.8945 43.4179 29.8945 43.613C29.8945 43.808 29.972 43.9951 30.11 44.1331C30.2479 44.271 30.435 44.3485 30.6301 44.3485H36.549C36.7441 44.3485 36.9312 44.271 37.0691 44.1331C37.207 43.9951 37.2845 43.808 37.2845 43.613C37.2845 43.4179 37.207 43.2308 37.0691 43.0929C36.9312 42.9549 36.7441 42.8774 36.549 42.8774H30.6301Z" fill="#455A64"/>
<path d="M19.8406 38.3073C19.6512 38.3031 19.4583 38.3698 19.3077 38.5203L17.0678 40.7595L16.1067 39.7992C15.9672 39.6698 15.783 39.5995 15.5928 39.6031C15.4025 39.6067 15.2211 39.6839 15.0865 39.8184C14.952 39.953 14.8748 40.1344 14.8712 40.3247C14.8676 40.5149 14.9379 40.6991 15.0673 40.8386L16.5481 42.3208C16.6165 42.3891 16.6977 42.4433 16.787 42.4802C16.8764 42.5171 16.9721 42.536 17.0688 42.5359C17.1654 42.5357 17.2611 42.5166 17.3504 42.4794C17.4396 42.4423 17.5207 42.3879 17.5889 42.3194L20.3471 39.5612C20.4155 39.4929 20.4698 39.4117 20.5068 39.3224C20.5438 39.2331 20.5629 39.1374 20.5629 39.0408C20.5629 38.9441 20.5438 38.8484 20.5068 38.7591C20.4698 38.6698 20.4155 38.5886 20.3471 38.5203C20.2117 38.3872 20.0305 38.311 19.8406 38.3073Z" fill="#D9DEFB"/>
<path d="M30.6301 35.9099C30.435 35.9099 30.2479 35.9874 30.11 36.1254C29.972 36.2633 29.8945 36.4504 29.8945 36.6455C29.8945 36.8405 29.972 37.0276 30.11 37.1656C30.2479 37.3035 30.435 37.381 30.6301 37.381H40.9393C41.1343 37.381 41.3214 37.3035 41.4594 37.1656C41.5973 37.0276 41.6748 36.8405 41.6748 36.6455C41.6748 36.4504 41.5973 36.2633 41.4594 36.1254C41.3214 35.9874 41.1343 35.9099 40.9393 35.9099H30.6301ZM35.3451 23.8889C35.2485 23.8889 35.1528 23.9079 35.0636 23.9449C34.9744 23.9818 34.8933 24.036 34.825 24.1043C34.7567 24.1726 34.7025 24.2537 34.6655 24.3429C34.6286 24.4322 34.6096 24.5278 34.6096 24.6244C34.6096 24.721 34.6286 24.8167 34.6655 24.9059C34.7025 24.9951 34.7567 25.0762 34.825 25.1445C34.8933 25.2128 34.9744 25.267 35.0636 25.304C35.1528 25.3409 35.2485 25.3599 35.3451 25.3599H58.6912C58.7878 25.3599 58.8835 25.3409 58.9727 25.304C59.0619 25.267 59.143 25.2128 59.2113 25.1445C59.2796 25.0762 59.3338 24.9951 59.3708 24.9059C59.4077 24.8167 59.4267 24.721 59.4267 24.6244C59.4267 24.5278 59.4077 24.4322 59.3708 24.3429C59.3338 24.2537 59.2796 24.1726 59.2113 24.1043C59.143 24.036 59.0619 23.9818 58.9727 23.9449C58.8835 23.9079 58.7878 23.8889 58.6912 23.8889H35.3451ZM35.3451 17.2976C35.154 17.3034 34.9727 17.3835 34.8396 17.5207C34.7066 17.6579 34.6321 17.8416 34.6321 18.0328C34.6321 18.2239 34.7066 18.4076 34.8396 18.5448C34.9727 18.682 35.154 18.7621 35.3451 18.7679H45.0964C45.2915 18.7679 45.4786 18.6904 45.6165 18.5525C45.7544 18.4146 45.8319 18.2275 45.8319 18.0324C45.8319 17.8373 45.7544 17.6502 45.6165 17.5123C45.4786 17.3744 45.2915 17.2969 45.0964 17.2969L35.3451 17.2976Z" fill="#455A64"/>
</svg>
