<svg width="90" height="90" viewBox="0 0 90 90" fill="none" xmlns="http://www.w3.org/2000/svg">
<path d="M68.3592 11.25H21.6409C19.3831 11.2525 17.2185 12.1505 15.622 13.747C14.0255 15.3435 13.1275 17.5081 13.125 19.7659V31.0686C13.125 31.3149 13.1735 31.5587 13.2677 31.7862C13.362 32.0136 13.5001 32.2203 13.6742 32.3944C13.8483 32.5685 14.055 32.7066 14.2825 32.8008C14.51 32.8951 14.7538 32.9435 15.0001 32.9435H75C75.2462 32.9435 75.4901 32.8951 75.7175 32.8008C75.945 32.7066 76.1517 32.5685 76.3259 32.3944C76.5 32.2203 76.6381 32.0136 76.7323 31.7862C76.8266 31.5587 76.8751 31.3149 76.8751 31.0686V19.7659C76.8726 17.5081 75.9745 15.3435 74.378 13.747C72.7815 12.1505 70.617 11.2525 68.3592 11.25Z" fill="url(#paint0_linear_19_1079)"/>
<path d="M81.4011 23.4629C80.62 22.0229 79.4646 20.8205 78.0569 19.9827C76.6491 19.145 75.0412 18.7029 73.403 18.7031H16.879C15.6841 18.7026 14.5009 18.9376 13.3969 19.3946C12.2929 19.8516 11.2897 20.5217 10.4448 21.3666C9.59994 22.2115 8.92982 23.2146 8.47279 24.3186C8.01576 25.4226 7.78077 26.6058 7.78125 27.8007V38.0607C7.78125 38.558 7.9788 39.0349 8.33044 39.3866C8.68208 39.7382 9.15901 39.9357 9.65631 39.9357H80.625C81.1223 39.9357 81.5992 39.7382 81.9509 39.3866C82.3025 39.0349 82.5001 38.558 82.5001 38.0607V27.8007C82.5 26.2859 82.1223 24.795 81.4011 23.4629Z" fill="url(#paint1_linear_19_1079)"/>
<path d="M13.233 26.25H76.7667C79.2818 26.25 81.6939 27.2491 83.4724 29.0276C85.2508 30.806 86.2499 33.2181 86.2499 35.7332V71.1421C86.2499 73.6571 85.2508 76.0692 83.4724 77.8476C81.694 79.626 79.282 80.6251 76.7669 80.6251H13.233C10.718 80.6251 8.30594 79.626 6.52752 77.8476C4.7491 76.0692 3.75 73.6571 3.75 71.1421V35.7332C3.75 33.2182 4.7491 30.8061 6.52752 29.0277C8.30594 27.2493 10.718 26.2502 13.233 26.2502V26.25Z" fill="url(#paint2_linear_19_1079)"/>
<path d="M57.9629 48.5658L41.0879 38.8229C40.2328 38.3292 39.2628 38.0693 38.2754 38.0693C37.288 38.0693 36.318 38.3293 35.4629 38.823C34.6078 39.3167 33.8977 40.0267 33.404 40.8819C32.9103 41.737 32.6504 42.707 32.6504 43.6944V63.1801C32.6467 64.1689 32.9043 65.1412 33.3971 65.9985C33.8899 66.8558 34.6005 67.5676 35.4568 68.0621C36.3132 68.5565 37.285 68.8159 38.2738 68.814C39.2626 68.8122 40.2334 68.5491 41.0879 68.0515L57.9629 58.3085C58.818 57.8148 59.5281 57.1047 60.0218 56.2496C60.5154 55.3945 60.7753 54.4245 60.7753 53.4371C60.7753 52.4498 60.5154 51.4798 60.0218 50.6247C59.5281 49.7696 58.818 49.0595 57.9629 48.5658Z" fill="url(#paint3_linear_19_1079)"/>
<defs>
<linearGradient id="paint0_linear_19_1079" x1="45.0001" y1="10.8608" x2="45.0001" y2="19.3359" gradientUnits="userSpaceOnUse">
<stop stop-color="#2B50D2"/>
<stop offset="1" stop-color="#182EA5"/>
</linearGradient>
<linearGradient id="paint1_linear_19_1079" x1="45.1407" y1="11.1997" x2="45.1407" y2="25.6658" gradientUnits="userSpaceOnUse">
<stop stop-color="#4793EB"/>
<stop offset="1" stop-color="#2367EC"/>
</linearGradient>
<linearGradient id="paint2_linear_19_1079" x1="45.0001" y1="26.3421" x2="45.0001" y2="81.7506" gradientUnits="userSpaceOnUse">
<stop stop-color="#4793EB"/>
<stop offset="1" stop-color="#2367EC"/>
</linearGradient>
<linearGradient id="paint3_linear_19_1079" x1="46.7129" y1="39.9021" x2="46.7129" y2="64.3367" gradientUnits="userSpaceOnUse">
<stop stop-color="white"/>
<stop offset="1" stop-color="#EDF1F2"/>
</linearGradient>
</defs>
</svg>
