<svg width="100" height="100" viewBox="0 0 100 100" fill="none" xmlns="http://www.w3.org/2000/svg">
<path d="M59.1408 85.1156C59.0008 84.8893 58.8053 84.7025 58.5729 84.5728C58.3405 84.4432 58.0788 84.3751 57.8126 84.375H42.1876C41.9214 84.3751 41.6596 84.4433 41.4271 84.573C41.1946 84.7028 40.9991 84.8897 40.8592 85.1162C40.7193 85.3427 40.6395 85.6012 40.6276 85.8672C40.6156 86.1332 40.6718 86.3978 40.7908 86.6359L43.9158 92.8859C44.0454 93.1454 44.2448 93.3637 44.4915 93.5163C44.7382 93.6689 45.0225 93.7498 45.3126 93.75H54.6876C54.9777 93.7498 55.2621 93.6689 55.5088 93.5163C55.7555 93.3637 55.9548 93.1454 56.0845 92.8859L59.2095 86.6359C59.3287 86.3978 59.3851 86.1331 59.3733 85.8671C59.3615 85.601 59.282 85.3424 59.1423 85.1156H59.1408Z" fill="#BDBDBD"/>
<path d="M42.7845 90.625H57.2158L59.2095 86.6359C59.3285 86.3978 59.3847 86.1332 59.3727 85.8672C59.3608 85.6012 59.281 85.3427 59.1411 85.1162C59.0011 84.8897 58.8056 84.7028 58.5732 84.573C58.3407 84.4433 58.0789 84.3751 57.8126 84.375H42.1876C41.9214 84.3751 41.6596 84.4433 41.4271 84.573C41.1946 84.7028 40.9991 84.8897 40.8592 85.1162C40.7193 85.3427 40.6395 85.6012 40.6276 85.8672C40.6156 86.1332 40.6718 86.3978 40.7908 86.6359L42.7845 90.625Z" fill="#9E9E9E"/>
<path d="M73.4375 42.187C73.4431 48.1696 71.1496 53.9257 67.0313 58.2651C64.227 61.1779 62.276 64.8044 61.3907 68.7495C61.0909 70.0988 60.9389 71.4767 60.9375 72.8589V73.437C60.9363 73.851 60.7713 74.2478 60.4785 74.5405C60.1858 74.8333 59.7891 74.9983 59.375 74.9995H40.625C40.211 74.9983 39.8143 74.8333 39.5215 74.5405C39.2288 74.2478 39.0638 73.851 39.0625 73.437V72.8589C39.0638 71.4782 38.9224 70.1011 38.6407 68.7495C37.7903 64.8401 35.8636 61.2464 33.0782 58.3745C28.8243 53.9572 26.4727 48.0477 26.5283 41.9154C26.584 35.7832 29.0425 29.9173 33.3757 25.5779C37.709 21.2385 43.5714 18.7717 49.7036 18.7073C55.8357 18.643 61.7486 20.9863 66.1719 25.2339C68.4786 27.4121 70.3137 30.0406 71.5634 32.9567C72.8132 35.8728 73.451 39.0144 73.4375 42.187Z" fill="#FDD835"/>
<path d="M45.3127 75.0002C44.8983 75.0002 44.5009 74.8356 44.2078 74.5426C43.9148 74.2495 43.7502 73.8521 43.7502 73.4377V58.2861L37.7627 49.3049C37.5327 48.9601 37.4491 48.5381 37.5303 48.1317C37.6114 47.7252 37.8507 47.3677 38.1955 47.1377C38.5403 46.9077 38.9623 46.8241 39.3687 46.9053C39.7752 46.9864 40.1327 47.2257 40.3627 47.5705L46.6127 56.9455C46.7839 57.2023 46.8753 57.5041 46.8752 57.8127V73.4377C46.8752 73.8521 46.7106 74.2495 46.4176 74.5426C46.1245 74.8356 45.7271 75.0002 45.3127 75.0002ZM54.6877 75.0002C54.2733 75.0002 53.8759 74.8356 53.5828 74.5426C53.2898 74.2495 53.1252 73.8521 53.1252 73.4377V57.8127C53.1251 57.5041 53.2165 57.2023 53.3877 56.9455L59.6377 47.5705C59.8677 47.2257 60.2252 46.9864 60.6317 46.9053C61.0381 46.8241 61.4601 46.9077 61.8049 47.1377C62.1497 47.3677 62.389 47.7252 62.4701 48.1317C62.5513 48.5381 62.4677 48.9601 62.2377 49.3049L56.2502 58.2861V73.4377C56.2502 73.8521 56.0856 74.2495 55.7926 74.5426C55.4995 74.8356 55.1021 75.0002 54.6877 75.0002Z" fill="#F5F5F5"/>
<path d="M60.9375 71.875H39.0625C38.1996 71.875 37.5 72.5746 37.5 73.4375V85.9375C37.5 86.8004 38.1996 87.5 39.0625 87.5H60.9375C61.8004 87.5 62.5 86.8004 62.5 85.9375V73.4375C62.5 72.5746 61.8004 71.875 60.9375 71.875Z" fill="#E0E0E0"/>
<path d="M37.5 75H62.5V78.125H37.5V75ZM56.25 82.8125C56.2488 83.2265 56.0837 83.6232 55.791 83.916C55.4982 84.2087 55.1015 84.3738 54.6875 84.375H37.5V81.25H54.6875C55.1015 81.2512 55.4982 81.4163 55.791 81.709C56.0837 82.0018 56.2488 82.3985 56.25 82.8125Z" fill="#BDBDBD"/>
<path d="M50 15.625C49.5856 15.625 49.1882 15.4604 48.8951 15.1674C48.6021 14.8743 48.4375 14.4769 48.4375 14.0625V7.8125C48.4375 7.3981 48.6021 7.00067 48.8951 6.70765C49.1882 6.41462 49.5856 6.25 50 6.25C50.4144 6.25 50.8118 6.41462 51.1049 6.70765C51.3979 7.00067 51.5625 7.3981 51.5625 7.8125V14.0625C51.5625 14.4769 51.3979 14.8743 51.1049 15.1674C50.8118 15.4604 50.4144 15.625 50 15.625ZM30.1125 23.8625C29.9073 23.8627 29.7041 23.8224 29.5145 23.7438C29.3249 23.6652 29.1527 23.55 29.0078 23.4047L22.3781 16.775C22.2289 16.6309 22.1099 16.4585 22.028 16.2678C21.9461 16.0772 21.903 15.8722 21.9012 15.6647C21.8994 15.4572 21.9389 15.2515 22.0175 15.0594C22.096 14.8674 22.212 14.693 22.3588 14.5463C22.5055 14.3995 22.6799 14.2835 22.8719 14.205C23.064 14.1264 23.2697 14.0869 23.4772 14.0887C23.6847 14.0905 23.8897 14.1336 24.0803 14.2155C24.271 14.2974 24.4434 14.4164 24.5875 14.5656L31.2172 21.1953C31.4356 21.4138 31.5844 21.6922 31.6447 21.9953C31.7049 22.2983 31.674 22.6124 31.5557 22.8979C31.4375 23.1834 31.2373 23.4274 30.9804 23.5991C30.7235 23.7708 30.4215 23.8624 30.1125 23.8625ZM23.4844 70.2656C23.1756 70.2656 22.8737 70.174 22.6169 70.0025C22.3601 69.831 22.1599 69.5873 22.0415 69.302C21.9232 69.0168 21.892 68.7029 21.9519 68.4C22.0118 68.0971 22.1601 67.8187 22.3781 67.6L29.0078 60.9703C29.1519 60.8211 29.3244 60.702 29.515 60.6202C29.7056 60.5383 29.9107 60.4952 30.1181 60.4934C30.3256 60.4916 30.5313 60.5311 30.7234 60.6097C30.9154 60.6882 31.0898 60.8042 31.2366 60.9509C31.3833 61.0977 31.4993 61.2721 31.5778 61.4641C31.6564 61.6562 31.6959 61.8619 31.6941 62.0694C31.6923 62.2768 31.6492 62.4819 31.5673 62.6725C31.4855 62.8631 31.3664 63.0356 31.2172 63.1797L24.5875 69.8094C24.4426 69.9547 24.2704 70.0699 24.0808 70.1485C23.8913 70.2271 23.688 70.2674 23.4828 70.2672L23.4844 70.2656ZM69.8875 23.8625C69.5785 23.8624 69.2765 23.7708 69.0196 23.5991C68.7627 23.4274 68.5625 23.1834 68.4443 22.8979C68.326 22.6124 68.2951 22.2983 68.3553 21.9953C68.4156 21.6922 68.5644 21.4138 68.7828 21.1953L75.4125 14.5656C75.5566 14.4164 75.729 14.2974 75.9197 14.2155C76.1103 14.1336 76.3153 14.0905 76.5228 14.0887C76.7303 14.0869 76.936 14.1264 77.1281 14.205C77.3201 14.2835 77.4945 14.3995 77.6412 14.5463C77.7879 14.693 77.904 14.8674 77.9825 15.0594C78.0611 15.2515 78.1006 15.4572 78.0988 15.6647C78.097 15.8722 78.0539 16.0772 77.972 16.2678C77.8901 16.4585 77.7711 16.6309 77.6219 16.775L70.9922 23.4047C70.8473 23.55 70.6751 23.6652 70.4855 23.7438C70.2959 23.8224 70.0927 23.8627 69.8875 23.8625ZM76.5156 70.2656C76.3108 70.2658 76.1079 70.2256 75.9186 70.1474C75.7293 70.0691 75.5573 69.9542 75.4125 69.8094L68.7828 63.1797C68.6336 63.0356 68.5145 62.8631 68.4327 62.6725C68.3508 62.4819 68.3077 62.2768 68.3059 62.0694C68.3041 61.8619 68.3436 61.6562 68.4222 61.4641C68.5007 61.2721 68.6167 61.0977 68.7634 60.9509C68.9102 60.8042 69.0846 60.6882 69.2766 60.6097C69.4687 60.5311 69.6744 60.4916 69.8819 60.4934C70.0893 60.4952 70.2944 60.5383 70.485 60.6202C70.6756 60.702 70.8481 60.8211 70.9922 60.9703L77.6219 67.6C77.8403 67.8185 77.9891 68.0969 78.0494 68.3999C78.1096 68.703 78.0787 69.0171 77.9604 69.3026C77.8422 69.5881 77.642 69.8321 77.3851 70.0038C77.1282 70.1754 76.8262 70.2671 76.5172 70.2672L76.5156 70.2656ZM21.875 43.75H15.625C15.2106 43.75 14.8132 43.5854 14.5201 43.2924C14.2271 42.9993 14.0625 42.6019 14.0625 42.1875C14.0625 41.7731 14.2271 41.3757 14.5201 41.0826C14.8132 40.7896 15.2106 40.625 15.625 40.625H21.875C22.2894 40.625 22.6868 40.7896 22.9799 41.0826C23.2729 41.3757 23.4375 41.7731 23.4375 42.1875C23.4375 42.6019 23.2729 42.9993 22.9799 43.2924C22.6868 43.5854 22.2894 43.75 21.875 43.75ZM84.375 43.75H78.125C77.7106 43.75 77.3132 43.5854 77.0201 43.2924C76.7271 42.9993 76.5625 42.6019 76.5625 42.1875C76.5625 41.7731 76.7271 41.3757 77.0201 41.0826C77.3132 40.7896 77.7106 40.625 78.125 40.625H84.375C84.7894 40.625 85.1868 40.7896 85.4799 41.0826C85.7729 41.3757 85.9375 41.7731 85.9375 42.1875C85.9375 42.6019 85.7729 42.9993 85.4799 43.2924C85.1868 43.5854 84.7894 43.75 84.375 43.75Z" fill="#FDD835"/>
</svg>
