<svg width="56" height="56" viewBox="0 0 56 56" fill="none" xmlns="http://www.w3.org/2000/svg">
<path d="M2.24023 8.06412V47.7121C2.24023 51.5201 5.37623 54.6561 9.18423 54.6561H38.9762C42.7842 54.6561 45.9202 51.5201 45.9202 47.7121V38.0801L44.3522 39.6481C42.7842 41.2161 40.5442 42.3361 38.3042 43.0081L33.6002 43.9041C31.5842 44.3521 29.3442 43.6801 28.2242 42.1121C27.1042 40.7681 26.6562 39.2001 27.1042 37.4081L28.2242 32.4801C28.6722 30.2401 29.7922 28.2241 31.5842 26.4321L42.7842 15.2321C43.6802 14.3361 45.0242 13.4401 46.1442 12.9921V8.06412C46.1442 4.25612 43.0082 1.12012 39.2002 1.12012H9.18423C5.37623 1.12012 2.24023 4.25612 2.24023 8.06412ZM13.2162 8.96012H34.7202C36.0642 8.96012 36.9602 9.85612 36.9602 11.2001C36.9602 12.5441 36.0642 13.4401 34.7202 13.4401H13.2162C11.8722 13.4401 10.9762 12.5441 10.9762 11.2001C10.9762 10.0801 12.0962 8.96012 13.2162 8.96012ZM13.2162 18.1441H25.7602C27.1042 18.1441 28.0002 19.0401 28.0002 20.3841C28.0002 21.7281 27.1042 22.6241 25.7602 22.6241H13.2162C11.8722 22.6241 10.9762 21.7281 10.9762 20.3841C10.9762 19.0401 12.0962 18.1441 13.2162 18.1441Z" fill="white"/>
<path d="M52.4163 18.592C50.6243 16.8 47.4883 16.8 45.6963 18.592L34.4963 29.792C33.3763 30.912 32.7043 32.032 32.4803 33.6L31.3603 38.304C31.1363 38.976 31.8083 39.648 32.4803 39.424L37.4083 38.304C38.7523 38.08 40.0963 37.184 41.2163 36.288L52.4163 25.088C54.2083 23.296 54.2083 20.384 52.4163 18.592Z" fill="white"/>
</svg>
