<svg width="96" height="96" viewBox="0 0 96 96" fill="none" xmlns="http://www.w3.org/2000/svg">
<path d="M8 82H88C88.5304 82 89.0391 82.2107 89.4142 82.5858C89.7893 82.9609 90 83.4696 90 84V88C90 89.5913 89.3679 91.1174 88.2426 92.2426C87.1174 93.3679 85.5913 94 84 94H12C10.4087 94 8.88258 93.3679 7.75736 92.2426C6.63214 91.1174 6 89.5913 6 88V84C6 83.4696 6.21071 82.9609 6.58579 82.5858C6.96086 82.2107 7.46957 82 8 82Z" fill="#4795EA"/>
<path d="M58 86H38C36.9391 86 35.9217 85.5786 35.1716 84.8284C34.4214 84.0783 34 83.0609 34 82H62C62 83.0609 61.5786 84.0783 60.8284 84.8284C60.0783 85.5786 59.0609 86 58 86Z" fill="url(#paint0_linear_1066_3667)"/>
<path d="M78 26H18C14.6863 26 12 28.6863 12 32V76C12 79.3137 14.6863 82 18 82H78C81.3137 82 84 79.3137 84 76V32C84 28.6863 81.3137 26 78 26Z" fill="url(#paint1_linear_1066_3667)"/>
<path d="M76 32H20C18.8954 32 18 32.8954 18 34V74C18 75.1046 18.8954 76 20 76H76C77.1046 76 78 75.1046 78 74V34C78 32.8954 77.1046 32 76 32Z" fill="#F0F7FC"/>
<path d="M64 30L48 38L32 30L34 14H62L64 30Z" fill="url(#paint2_linear_1066_3667)"/>
<path d="M78 14L48 26L20 14L48 2L78 14Z" fill="url(#paint3_linear_1066_3667)"/>
<path d="M55.02 53.7197L45.02 59.7197C44.7164 59.8997 44.3705 59.9961 44.0175 59.9992C43.6645 60.0023 43.3169 59.9119 43.0102 59.7372C42.7035 59.5625 42.4484 59.3097 42.271 59.0045C42.0936 58.6994 42.0001 58.3527 42 57.9997V45.9997C42.0001 45.6466 42.0936 45.2999 42.271 44.9948C42.4484 44.6896 42.7035 44.4368 43.0102 44.2621C43.3169 44.0874 43.6645 43.997 44.0175 44.0001C44.3705 44.0032 44.7164 44.0996 45.02 44.2797L55.02 50.2797C55.3184 50.4567 55.5657 50.7084 55.7374 51.01C55.9091 51.3116 55.9994 51.6526 55.9994 51.9997C55.9994 52.3467 55.9091 52.6877 55.7374 52.9893C55.5657 53.2909 55.3184 53.5426 55.02 53.7197Z" fill="#FFB369"/>
<path d="M72 70H24C23.4696 70 22.9609 69.7893 22.5858 69.4142C22.2107 69.0391 22 68.5304 22 68C22 67.4696 22.2107 66.9609 22.5858 66.5858C22.9609 66.2107 23.4696 66 24 66H72C72.5304 66 73.0391 66.2107 73.4142 66.5858C73.7893 66.9609 74 67.4696 74 68C74 68.5304 73.7893 69.0391 73.4142 69.4142C73.0391 69.7893 72.5304 70 72 70Z" fill="#B4CDE1"/>
<path d="M34 72C36.2091 72 38 70.2091 38 68C38 65.7909 36.2091 64 34 64C31.7909 64 30 65.7909 30 68C30 70.2091 31.7909 72 34 72Z" fill="#FFB369"/>
<defs>
<linearGradient id="paint0_linear_1066_3667" x1="34" y1="84" x2="62" y2="84" gradientUnits="userSpaceOnUse">
<stop stop-color="#D3E6F5"/>
<stop offset="1" stop-color="#F0F7FC"/>
</linearGradient>
<linearGradient id="paint1_linear_1066_3667" x1="48" y1="82" x2="48" y2="26" gradientUnits="userSpaceOnUse">
<stop stop-color="#54A5FF"/>
<stop offset="1" stop-color="#8AD3FE"/>
</linearGradient>
<linearGradient id="paint2_linear_1066_3667" x1="48" y1="14" x2="48" y2="38" gradientUnits="userSpaceOnUse">
<stop stop-color="#FE9661"/>
<stop offset="1" stop-color="#FFB369"/>
</linearGradient>
<linearGradient id="paint3_linear_1066_3667" x1="48" y1="14" x2="48" y2="38" gradientUnits="userSpaceOnUse">
<stop stop-color="#FE9661"/>
<stop offset="1" stop-color="#FFB369"/>
</linearGradient>
</defs>
</svg>
