<svg width="88" height="88" viewBox="0 0 88 88" fill="none" xmlns="http://www.w3.org/2000/svg">
<path d="M12.8906 72.3594H2.57812C1.15431 72.3594 0 73.5137 0 74.9375C0 76.3613 1.15431 77.5156 2.57812 77.5156H12.8906C14.3144 77.5156 15.4688 76.3613 15.4688 74.9375C15.4688 73.5137 14.3144 72.3594 12.8906 72.3594ZM85.4219 72.3594H23.2031C21.7793 72.3594 20.625 73.5137 20.625 74.9375C20.625 76.3613 21.7793 77.5156 23.2031 77.5156H85.4219C86.8457 77.5156 88 76.3613 88 74.9375C88 73.5137 86.8457 72.3594 85.4219 72.3594ZM85.4219 5.32812H2.57812C1.15431 5.32812 0 6.48244 0 7.90625V59.4688C0 60.8926 1.15431 62.0469 2.57812 62.0469H85.4219C86.8457 62.0469 88 60.8926 88 59.4688V7.90625C88 6.48244 86.8457 5.32812 85.4219 5.32812Z" fill="url(#paint0_linear_1066_3650)"/>
<path d="M55.4654 31.3815L34.8404 21.069C34.4474 20.8725 34.0106 20.7797 33.5716 20.7995C33.1326 20.8192 32.7059 20.9509 32.332 21.1819C31.9582 21.413 31.6497 21.7358 31.4357 22.1196C31.2217 22.5035 31.1094 22.9356 31.1094 23.3751V44.0001C31.1094 44.4395 31.2217 44.8717 31.4357 45.2556C31.6497 45.6394 31.9582 45.9622 32.332 46.1932C32.7059 46.4243 33.1326 46.5559 33.5716 46.5757C34.0106 46.5954 34.4474 46.5027 34.8404 46.3061L55.4654 35.9936C55.8937 35.7795 56.2538 35.4503 56.5055 35.043C56.7573 34.6357 56.8906 34.1664 56.8906 33.6876C56.8906 33.2088 56.7573 32.7394 56.5055 32.3321C56.2538 31.9248 55.8937 31.5957 55.4654 31.3815ZM18.0469 67.2032C13.7821 67.2032 10.3125 70.6728 10.3125 74.9376C10.3125 79.2023 13.7821 82.672 18.0469 82.672C22.3116 82.672 25.7812 79.2023 25.7812 74.9376C25.7812 70.6728 22.3116 67.2032 18.0469 67.2032Z" fill="url(#paint1_linear_1066_3650)"/>
<defs>
<linearGradient id="paint0_linear_1066_3650" x1="44" y1="77.5156" x2="44" y2="5.32812" gradientUnits="userSpaceOnUse">
<stop stop-color="#FD3A84"/>
<stop offset="1" stop-color="#FFA68D"/>
</linearGradient>
<linearGradient id="paint1_linear_1066_3650" x1="33.6016" y1="82.672" x2="33.6016" y2="20.797" gradientUnits="userSpaceOnUse">
<stop stop-color="#FFC2CC"/>
<stop offset="1" stop-color="#FFF2F4"/>
</linearGradient>
</defs>
</svg>
