<svg width="86" height="86" viewBox="0 0 86 86" fill="none" xmlns="http://www.w3.org/2000/svg">
<path d="M18.4245 54.7461L24.7955 43.7038C24.9097 43.5089 24.9618 43.3141 24.9618 43.084V41.06C26.1601 41.7269 27.5091 42.0761 28.8805 42.0745H31.0473V46.3594C31.0473 46.5878 30.9953 46.7827 30.881 46.9792L24.4058 58.1961C23.5727 59.639 20.8583 60.6283 19.6876 59.4626C18.0432 58.5119 17.4721 56.3888 18.4245 54.7461ZM40.1697 28.1734L45.7127 22.6304C46.6936 21.6495 46.6936 20.0454 45.7127 19.0645C44.7317 18.0835 43.1327 18.0835 42.1517 19.0645L39.3433 21.8729C38.9385 22.2777 38.3388 22.3533 37.8433 22.0728L37.0102 21.5873V27.4058L38.6714 28.3682C39.1652 28.6538 39.7649 28.5732 40.1697 28.1734ZM28.8805 12.4465C32.3188 12.4465 35.1038 9.66156 35.1038 6.22324C35.1038 2.78492 32.3172 0 28.8805 0C25.4439 0 22.6573 2.78492 22.6573 6.22324C22.6573 9.66156 25.4422 12.4465 28.8805 12.4465ZM17.9626 67.6024V85.1333C17.9626 85.6086 18.3522 86 18.8293 86H36.2224V66.697H18.8629C18.3674 66.697 17.9626 67.1018 17.9626 67.6024ZM38.9939 56.508V86H57.2538V55.6027H39.8976C39.3987 55.6027 38.9939 56.0125 38.9939 56.508ZM80.1547 44.5134H60.929C60.4334 44.5134 60.0286 44.9182 60.0286 45.4137V86H80.1933C80.6686 86 81.06 85.6103 81.06 85.1333V45.4137C81.06 44.9182 80.6552 44.5134 80.1547 44.5134ZM38.2465 48.6992C36.3467 48.6992 34.7947 47.1421 34.7947 45.2424V40.5426C34.7947 39.8573 34.237 39.2996 33.5517 39.2996H28.8805C25.9377 39.2996 23.529 36.891 23.529 33.9482V25.3112C23.529 24.8258 23.267 24.4059 22.8286 24.1925C22.3852 23.9826 21.8947 24.0397 21.5151 24.3404L20.4435 25.197L15.5438 31.1296C15.8294 31.2775 16.0964 31.4673 16.3198 31.6957C16.8859 32.2618 17.2336 33.0378 17.2336 33.8995V36.9464H17.7425L11.9476 41.018L6.15771 36.9464H6.66162V33.8995C6.66162 33.0378 7.01436 32.2618 7.57537 31.6957C8.14143 31.1347 8.92248 30.782 9.77912 30.782H11.2354C10.8021 29.9203 10.8928 28.8386 11.5445 28.0491L17.6535 20.6602C21.2346 16.3282 26.062 14.4705 31.4891 16.8842C33.2024 17.6468 34.232 19.57 34.232 21.5638V30.7148C34.232 31.4001 34.7897 31.9577 35.475 31.9577H40.4603C41.1406 31.9577 41.6982 32.5154 41.6982 33.2007V45.2424C41.6982 47.1421 40.1462 48.6992 38.2465 48.6992ZM14.4638 33.9011C14.4638 33.8054 14.4251 33.7197 14.363 33.6576C14.2958 33.5954 14.2101 33.5568 14.1194 33.5568H9.78248C9.68674 33.5568 9.60611 33.5954 9.53893 33.6576C9.47678 33.7197 9.43814 33.8054 9.43814 33.9011V36.9481H14.4621V33.9011H14.4638ZM18.962 47.2899V39.476L12.7488 43.8482C12.5105 44.014 12.2265 44.1014 11.9362 44.098C11.646 44.0947 11.364 44.0009 11.1296 43.8298L4.93994 39.4777V47.2916C4.93994 47.9299 5.464 48.4539 6.10229 48.4539H17.8013C18.4379 48.4523 18.962 47.9282 18.962 47.2899Z" fill="url(#paint0_linear_1066_3647)"/>
<defs>
<linearGradient id="paint0_linear_1066_3647" x1="4.94045" y1="43" x2="81.0595" y2="43" gradientUnits="userSpaceOnUse">
<stop stop-color="#4D62FF"/>
<stop offset="0.193" stop-color="#466AFF"/>
<stop offset="0.492" stop-color="#3480FF"/>
<stop offset="0.858" stop-color="#17A3FF"/>
<stop offset="1" stop-color="#0AB3FF"/>
</linearGradient>
</defs>
</svg>
