<svg width="94" height="94" viewBox="0 0 94 94" fill="none" xmlns="http://www.w3.org/2000/svg">
<path d="M21.9937 39.0066V86.6078C21.9918 87.4535 22.1571 88.2912 22.4798 89.0729C22.8026 89.8546 23.2766 90.5648 23.8746 91.1628C24.4726 91.7608 25.1828 92.2348 25.9645 92.5575C26.7461 92.8803 27.5839 93.0455 28.4296 93.0437H74.8484C75.6941 93.0455 76.5318 92.8803 77.3135 92.5575C78.0951 92.2348 78.8054 91.7608 79.4034 91.1628C80.0013 90.5648 80.4753 89.8546 80.7981 89.0729C81.1209 88.2912 81.2861 87.4535 81.2843 86.6078V36.0645L21.9937 39.0066Z" fill="#BBCDFB"/>
<path d="M21.9937 39.0066V86.6078C21.9937 86.7938 22.0034 86.9777 22.0186 87.1595H66.4405C67.2862 87.1613 68.1239 86.9961 68.9055 86.6733C69.6872 86.3505 70.3974 85.8765 70.9954 85.2785C71.5934 84.6805 72.0674 83.9703 72.3902 83.1887C72.713 82.407 72.8782 81.5693 72.8764 80.7236V53.1732L81.2843 44.7652V36.0645L21.9937 39.0066Z" fill="#9EBBFB"/>
<path d="M3.60207 25.3407V75.4567C3.60024 76.301 3.76519 77.1374 4.08745 77.9178C4.40971 78.6982 4.88294 79.4072 5.47996 80.0043C6.07699 80.6013 6.78605 81.0745 7.56646 81.3968C8.34686 81.719 9.18322 81.884 10.0275 81.8822H60.8284C61.6727 81.884 62.509 81.719 63.2894 81.3968C64.0698 81.0745 64.7789 80.6013 65.3759 80.0043C65.973 79.4072 66.4462 78.6982 66.7685 77.9178C67.0907 77.1374 67.2557 76.301 67.2538 75.4567V7.52705C67.2557 6.68273 67.0907 5.84637 66.7685 5.06597C66.4462 4.28557 65.973 3.5765 65.3759 2.97948C64.7789 2.38245 64.0698 1.90922 63.2894 1.58696C62.509 1.2647 61.6727 1.09975 60.8284 1.10158H27.8412L3.60207 25.3407Z" fill="#D9DEFB"/>
<path d="M27.8412 1.10156L3.60205 25.3407H21.4157C22.2601 25.3426 23.0964 25.1776 23.8768 24.8554C24.6572 24.5331 25.3663 24.0599 25.9633 23.4628C26.5603 22.8658 27.0336 22.1567 27.3558 21.3763C27.6781 20.5959 27.8431 19.7596 27.8412 18.9153V1.10156Z" fill="#2196F3"/>
<path d="M81.0801 15.4439C80.7056 15.0679 80.2607 14.7697 79.7706 14.5661C79.2807 14.3626 78.7553 14.2578 78.2247 14.2578C77.6941 14.2578 77.1687 14.3626 76.6787 14.5661C76.1887 14.7697 75.7437 15.0679 75.3693 15.4439L39.3062 51.5056L53.1549 65.3544L89.2174 29.2926C89.5935 28.9182 89.892 28.4731 90.0956 27.983C90.2993 27.4928 90.4041 26.9673 90.4041 26.4366C90.4041 25.9058 90.2993 25.3803 90.0956 24.8902C89.892 24.4 89.5935 23.955 89.2174 23.5805L81.0801 15.4439Z" fill="#2196F3"/>
<path d="M86.4477 20.8105C86.8237 21.185 87.1221 21.63 87.3257 22.1201C87.5293 22.6102 87.6341 23.1356 87.6341 23.6663C87.6341 24.1969 87.5293 24.7224 87.3257 25.2125C87.1221 25.7025 86.8237 26.1476 86.4477 26.522L50.3853 62.5845L53.1546 65.3538L89.2171 29.292C89.5932 28.9176 89.8917 28.4725 90.0953 27.9824C90.299 27.4922 90.4038 26.9667 90.4038 26.436C90.4038 25.9052 90.299 25.3797 90.0953 24.8896C89.8917 24.3994 89.5932 23.9543 89.2171 23.5799L86.4477 20.8105Z" fill="#2979FF"/>
<path d="M70.1346 20.6777L64.5161 26.2962L78.3649 40.1443L83.9834 34.5265L70.1346 20.6777Z" fill="#FFC45C"/>
<path d="M81.2137 31.7578L75.5952 37.3756L78.3639 40.1456L83.983 34.5272L81.2137 31.7578Z" fill="#FFA14E"/>
<path d="M81.0799 15.4439C80.7055 15.0679 80.2605 14.7697 79.7705 14.5661C79.2805 14.3626 78.7551 14.2578 78.2245 14.2578C77.6939 14.2578 77.1686 14.3626 76.6786 14.5661C76.1886 14.7697 75.7436 15.0679 75.3691 15.4439L68.9229 21.8895L82.7716 35.7382L89.2172 29.2919C89.5932 28.9175 89.8914 28.4725 90.095 27.9825C90.2985 27.4925 90.4033 26.9672 90.4033 26.4366C90.4033 25.906 90.2985 25.3806 90.095 24.8906C89.8914 24.4006 89.5932 23.9556 89.2172 23.5812L81.0799 15.4439Z" fill="#FF7EBD"/>
<path d="M45.8022 52.0442H42.137C41.6969 52.0453 41.2615 51.954 40.8589 51.7761C40.4563 51.5983 40.0955 51.3378 39.8 51.0117L36.7996 54.0128C35.8372 54.9753 35.5242 55.758 35.4854 56.9688L35.5263 66.4752C35.5263 67.3335 35.7608 67.9789 36.2271 68.4334C36.6816 68.9004 37.3276 69.1342 38.186 69.1342L47.6917 69.1758C48.9025 69.1363 49.6852 68.824 50.6477 67.8609L53.6488 64.8605C53.3228 64.5649 53.0625 64.2041 52.8847 63.8015C52.707 63.3989 52.6158 62.9635 52.617 62.5234V58.859L48.9518 58.8583C48.5378 58.8594 48.1277 58.7788 47.745 58.621C47.3623 58.4633 47.0145 58.2314 46.7216 57.9389C46.4291 57.6461 46.1974 57.2984 46.0396 56.9158C45.8818 56.5332 45.8011 56.1232 45.8022 55.7094V52.0442Z" fill="#FFB7BD"/>
<path d="M43.0327 52.0449V52.94C43.0327 54.8115 43.671 56.0695 45.8228 56.0695C45.8092 55.9502 45.8023 55.8302 45.802 55.7101V52.0449H43.0327ZM49.8467 58.859C49.8467 58.859 49.5622 60.8963 50.8792 62.0918L47.8788 65.0922C46.9157 66.0554 46.133 66.3676 44.9221 66.4072L35.5254 66.3662V66.4759C35.5254 67.3342 35.7613 67.9796 36.2269 68.4341C36.6814 68.901 37.3274 69.1349 38.1858 69.1349L47.6915 69.1765C48.9023 69.137 49.685 68.8247 50.6475 67.8616L53.6486 64.8612C53.3226 64.5656 53.0623 64.2048 52.8845 63.8022C52.7068 63.3996 52.6156 62.9642 52.6167 62.5241V58.8597L49.8467 58.859Z" fill="#FFA2BD"/>
<path d="M35.4941 59.0391L35.5261 66.4742C35.5261 67.3325 35.7606 67.9778 36.2269 68.4323C36.6821 68.8993 37.3274 69.1332 38.1858 69.1332L45.6202 69.1658L35.4941 59.0391Z" fill="#455A64"/>
<path d="M86.5846 20.8438C86.9612 21.2187 87.2601 21.6644 87.464 22.1552C87.6679 22.646 87.7729 23.1722 87.7729 23.7036C87.7729 24.2351 87.6679 24.7613 87.464 25.2521C87.2601 25.7429 86.9612 26.1886 86.5846 26.5635L80.1279 33.0195L82.9021 35.793L89.3581 29.337C89.7348 28.962 90.0336 28.5163 90.2376 28.0254C90.4415 27.5346 90.5465 27.0083 90.5465 26.4768C90.5465 25.9453 90.4415 25.419 90.2376 24.9282C90.0336 24.4373 89.7348 23.9916 89.3581 23.6166L86.5846 20.8438Z" fill="#E95AAD"/>
<path d="M35.582 66.4707V66.5796C35.582 67.4394 35.818 68.0854 36.2843 68.5413C36.7401 69.0083 37.3869 69.2442 38.2459 69.2442L45.6928 69.2754L42.9193 66.5019L35.582 66.4707Z" fill="#453E64"/>
<path d="M15.6598 33.7481H19.6989C20.3021 33.7467 20.8996 33.8645 21.4571 34.0947C22.0146 34.3249 22.5212 34.6629 22.9477 35.0894C23.3742 35.5159 23.7122 36.0225 23.9424 36.58C24.1726 37.1375 24.2904 37.735 24.289 38.3382V42.3767C24.2904 42.9798 24.1726 43.5773 23.9424 44.1348C23.7122 44.6924 23.3742 45.1989 22.9477 45.6254C22.5212 46.0519 22.0146 46.39 21.4571 46.6202C20.8996 46.8504 20.3021 46.9681 19.6989 46.9668H15.6604C15.0573 46.9681 14.4599 46.8504 13.9024 46.6202C13.3449 46.3901 12.8384 46.0521 12.4119 45.6257C11.9854 45.1992 11.6474 44.6928 11.4171 44.1353C11.1869 43.5779 11.069 42.9805 11.0703 42.3773V38.3382C11.069 37.7351 11.1867 37.1376 11.4169 36.5802C11.647 36.0227 11.985 35.5162 12.4114 35.0897C12.8379 34.6632 13.3443 34.3251 13.9018 34.0949C14.4592 33.8646 15.0566 33.7468 15.6598 33.7481ZM15.6598 55.8729H19.6989C20.3021 55.8716 20.8996 55.9893 21.4571 56.2195C22.0146 56.4497 22.5212 56.7878 22.9477 57.2143C23.3742 57.6408 23.7122 58.1473 23.9424 58.7049C24.1726 59.2624 24.2904 59.8599 24.289 60.4631V64.5015C24.2904 65.1047 24.1726 65.7022 23.9424 66.2597C23.7122 66.8172 23.3742 67.3238 22.9477 67.7503C22.5212 68.1768 22.0146 68.5148 21.4571 68.745C20.8996 68.9752 20.3021 69.093 19.6989 69.0916H15.6604C15.0573 69.093 14.4599 68.9753 13.9024 68.7451C13.3449 68.515 12.8384 68.177 12.4119 67.7505C11.9854 67.3241 11.6474 66.8176 11.4171 66.2602C11.1869 65.7027 11.069 65.1053 11.0703 64.5022V60.4631C11.069 59.8599 11.1867 59.2625 11.4169 58.705C11.647 58.1476 11.985 57.641 12.4114 57.2145C12.8379 56.788 13.3443 56.45 13.9018 56.2197C14.4592 55.9895 15.0566 55.8716 15.6598 55.8729Z" fill="#5BB774"/>
<path d="M30.1496 8.53516V9.26999H31.6172V8.53516H30.1496ZM33.8203 8.53516V9.26999H35.2893V8.53516H33.8203ZM37.4917 8.53516V9.26999H38.9607V8.53516H37.4917ZM41.1645 8.53516V9.26999H42.6328V8.53516H41.1645ZM44.8359 8.53516V9.26999H46.3049V8.53516H44.8359ZM48.5073 8.53516V9.26999H49.9763V8.53516H48.5073ZM52.1801 8.53516V9.26999H53.6484V8.53516H52.1801ZM55.8515 8.53516V9.26999H57.3205V8.53516H55.8515ZM59.5229 8.53516V9.26999H60.9919V8.53516H59.5229ZM63.1957 8.53516V9.26999H64.664V8.53516H63.1957ZM6.60986 74.8792V75.6141H8.07815V74.8792H6.60986ZM10.2813 74.8792V75.6141H11.7509V74.8792H10.2813ZM13.9527 74.8792V75.6141H15.4223V74.8792H13.9527ZM17.6255 74.8792V75.6141H19.0937V74.8792H17.6255ZM21.2969 74.8792V75.6141H22.7665V74.8792H21.2969ZM24.9683 74.8792V75.6141H26.4379V74.8792H24.9683ZM28.6411 74.8792V75.6141H30.1093V74.8792H28.6411ZM32.3125 74.8792V75.6141H33.7821V74.8792H32.3125ZM35.9839 74.8792V75.6141H37.4535V74.8792H35.9839ZM39.6567 74.8792V75.6141H41.1249V74.8792H39.6567ZM43.3281 74.8792V75.6141H44.7977V74.8792H43.3281ZM46.9995 74.8792V75.6141H48.4691V74.8792H46.9995ZM50.6723 74.8792V75.6141H52.1405V74.8792H50.6723ZM54.3437 74.8792V75.6141H55.8133V74.8792H54.3437ZM58.0151 74.8792V75.6141H59.4847V74.8792H58.0151ZM61.6878 74.8792V75.6141H63.1561V74.8792H61.6878Z" fill="#8DA2E9"/>
<path d="M19.7955 60.468C19.6124 60.4779 19.4391 60.5538 19.3077 60.6818L17.0678 62.9203L16.1067 61.9592C15.9672 61.8299 15.783 61.7596 15.5928 61.7632C15.4025 61.7668 15.2211 61.8439 15.0865 61.9785C14.952 62.113 14.8748 62.2945 14.8712 62.4847C14.8676 62.6749 14.9379 62.8592 15.0673 62.9987L16.5481 64.4809C16.6164 64.5492 16.6975 64.6035 16.7868 64.6405C16.8761 64.6775 16.9718 64.6966 17.0685 64.6966C17.1651 64.6966 17.2609 64.6775 17.3502 64.6405C17.4395 64.6035 17.5206 64.5492 17.5889 64.4809L20.3471 61.7212C20.4848 61.5833 20.5622 61.3964 20.5622 61.2015C20.5622 61.0066 20.4848 60.8197 20.3471 60.6818C20.2759 60.6086 20.1898 60.5517 20.0946 60.5148C19.9994 60.478 19.8974 60.462 19.7955 60.468Z" fill="#D9DEFB"/>
<path d="M30.6301 42.877C30.435 42.877 30.2479 42.9544 30.11 43.0924C29.972 43.2303 29.8945 43.4174 29.8945 43.6125C29.8945 43.8076 29.972 43.9946 30.11 44.1326C30.2479 44.2705 30.435 44.348 30.6301 44.348H36.549C36.7441 44.348 36.9312 44.2705 37.0691 44.1326C37.207 43.9946 37.2845 43.8076 37.2845 43.6125C37.2845 43.4174 37.207 43.2303 37.0691 43.0924C36.9312 42.9544 36.7441 42.877 36.549 42.877H30.6301Z" fill="#455A64"/>
<path d="M19.8406 38.3068C19.6512 38.3027 19.4583 38.3693 19.3077 38.5198L17.0678 40.7591L16.1067 39.7987C15.9672 39.6693 15.783 39.5991 15.5928 39.6026C15.4025 39.6062 15.2211 39.6834 15.0865 39.8179C14.952 39.9525 14.8748 40.1339 14.8712 40.3242C14.8676 40.5144 14.9379 40.6986 15.0673 40.8382L16.5481 42.3203C16.6165 42.3886 16.6977 42.4428 16.787 42.4797C16.8764 42.5166 16.9721 42.5355 17.0688 42.5354C17.1654 42.5353 17.2611 42.5161 17.3504 42.4789C17.4396 42.4418 17.5207 42.3874 17.5889 42.3189L20.3471 39.5607C20.4155 39.4924 20.4698 39.4113 20.5068 39.322C20.5438 39.2327 20.5629 39.1369 20.5629 39.0403C20.5629 38.9436 20.5438 38.8479 20.5068 38.7586C20.4698 38.6693 20.4155 38.5882 20.3471 38.5198C20.2117 38.3867 20.0305 38.3105 19.8406 38.3068Z" fill="#D9DEFB"/>
<path d="M30.6301 35.9099C30.435 35.9099 30.2479 35.9874 30.11 36.1254C29.972 36.2633 29.8945 36.4504 29.8945 36.6455C29.8945 36.8405 29.972 37.0276 30.11 37.1656C30.2479 37.3035 30.435 37.381 30.6301 37.381H40.9393C41.1343 37.381 41.3214 37.3035 41.4594 37.1656C41.5973 37.0276 41.6748 36.8405 41.6748 36.6455C41.6748 36.4504 41.5973 36.2633 41.4594 36.1254C41.3214 35.9874 41.1343 35.9099 40.9393 35.9099H30.6301ZM35.3451 23.8889C35.2485 23.8889 35.1528 23.9079 35.0636 23.9449C34.9744 23.9818 34.8933 24.036 34.825 24.1043C34.7567 24.1726 34.7025 24.2537 34.6655 24.3429C34.6286 24.4322 34.6096 24.5278 34.6096 24.6244C34.6096 24.721 34.6286 24.8167 34.6655 24.9059C34.7025 24.9951 34.7567 25.0762 34.825 25.1445C34.8933 25.2128 34.9744 25.267 35.0636 25.304C35.1528 25.3409 35.2485 25.3599 35.3451 25.3599H58.6912C58.7878 25.3599 58.8835 25.3409 58.9727 25.304C59.0619 25.267 59.143 25.2128 59.2113 25.1445C59.2796 25.0762 59.3338 24.9951 59.3708 24.9059C59.4077 24.8167 59.4267 24.721 59.4267 24.6244C59.4267 24.5278 59.4077 24.4322 59.3708 24.3429C59.3338 24.2537 59.2796 24.1726 59.2113 24.1043C59.143 24.036 59.0619 23.9818 58.9727 23.9449C58.8835 23.9079 58.7878 23.8889 58.6912 23.8889H35.3451ZM35.3451 17.2976C35.154 17.3034 34.9727 17.3835 34.8396 17.5207C34.7066 17.6579 34.6321 17.8416 34.6321 18.0328C34.6321 18.2239 34.7066 18.4076 34.8396 18.5448C34.9727 18.682 35.154 18.7621 35.3451 18.7679H45.0964C45.2915 18.7679 45.4786 18.6904 45.6165 18.5525C45.7544 18.4146 45.8319 18.2275 45.8319 18.0324C45.8319 17.8373 45.7544 17.6502 45.6165 17.5123C45.4786 17.3744 45.2915 17.2969 45.0964 17.2969L35.3451 17.2976Z" fill="#455A64"/>
</svg>
