<svg width="90" height="90" viewBox="0 0 90 90" fill="none" xmlns="http://www.w3.org/2000/svg">
<g clip-path="url(#clip0_1029_3978)">
<path d="M77.1151 44.1085C75.3769 48.3049 75.2675 53.4927 77.0057 57.6891L78.5015 60.6192H13.9368C13.9368 60.6192 1.91608 53.8651 13.9368 41.8445L77.944 40.5254L77.1151 44.1085Z" fill="#F1F2F2"/>
<path d="M78.5017 60.6199H13.9371C13.9371 60.6199 1.91677 53.8653 13.9371 41.845L77.9447 40.5254L77.1147 44.1093C76.7269 45.0518 76.4218 46.0262 76.2028 47.0215H17.6156C15.3459 47.0215 13.5003 48.8672 13.5003 51.1351C13.5003 53.4048 15.3459 55.2505 17.6156 55.2505H76.2247C76.4212 56.0895 76.6815 56.9068 77.0055 57.6895L78.5017 60.6199Z" fill="#DEE1E1"/>
<path d="M77.5238 63.3613L18.5071 63.2683C11.4367 63.2683 5.36463 58.758 5.36463 51.6876C5.36463 50.1259 5.0927 48.0782 5.60471 46.6945C7.41048 41.8134 12.1065 38.334 17.6154 38.334H78.1609C79.7557 38.334 81.0486 39.6268 81.0486 41.2217C81.0486 42.8165 79.7557 44.1093 78.1609 44.1093H32.3384L27.8634 45.1598L23.9715 44.1093H17.6152C13.7344 44.1093 10.5885 47.2553 10.5885 51.1361C10.5885 55.0168 13.7344 58.1628 17.6152 58.1628H78.1607C79.7555 58.1628 81.0484 59.4556 81.0484 61.0504C81.0484 61.1655 81.0416 61.2789 81.0285 61.3905C80.8604 62.8251 79.0036 63.3613 77.5238 63.3613Z" fill="#B7E546"/>
<path d="M81.0279 61.39C80.9515 62.0337 80.6612 62.633 80.2034 63.0919C79.6792 63.6142 78.9584 63.9382 78.1612 63.9382L48.2493 65.7309L17.6155 63.9382C10.5442 63.9382 4.8125 58.2066 4.8125 51.1352C4.8125 49.2914 5.20201 47.5386 5.90459 45.9551V48.587C5.90459 55.6583 11.6363 61.39 18.7076 61.39H81.0279Z" fill="#ABD641"/>
<path d="M32.3383 52.5278V44.1094H26.338L24.2075 44.3232L24.3355 52.1638C24.3355 52.223 24.35 52.2814 24.3777 52.3338C24.4053 52.3861 24.4454 52.431 24.4943 52.4644C24.5433 52.4978 24.5996 52.5187 24.6585 52.5254C24.7174 52.5321 24.777 52.5243 24.8322 52.5027L26.3378 52.1346L28.0222 51.4752C28.1076 51.4417 28.2024 51.4417 28.2876 51.4752L31.8416 52.8669C31.8968 52.8885 31.9564 52.8963 32.0153 52.8896C32.0742 52.8829 32.1306 52.862 32.1796 52.8285C32.2285 52.7951 32.2686 52.7503 32.2962 52.6978C32.3239 52.6454 32.3384 52.5871 32.3383 52.5278Z" fill="#EF5227"/>
<path d="M26.3379 44.1094V52.1344L24.4686 52.8662C24.2301 52.959 23.9717 52.7842 23.9717 52.5276V44.1094H26.3379Z" fill="#D83724"/>
<path d="M68.8161 30.983V35.0874L68.6341 36.9076C68.6341 37.612 68.0626 38.1817 67.36 38.1817L18.851 37.9997C18.1466 37.9997 17.5769 37.43 17.5769 36.7256L17.2129 30.983L42.115 29.793L68.8161 30.983Z" fill="#FDCD08"/>
<path d="M83.7616 31.2715C83.3996 31.2715 83.0523 31.1277 82.7963 30.8717C82.5403 30.6157 82.3965 30.2685 82.3965 29.9064V15.746C82.3965 14.9921 83.0075 14.3809 83.7616 14.3809C84.5157 14.3809 85.1267 14.9921 85.1267 15.746V29.9062C85.1267 30.0855 85.0915 30.2631 85.0229 30.4287C84.9543 30.5944 84.8537 30.7449 84.7269 30.8716C84.6002 30.9984 84.4497 31.099 84.2841 31.1676C84.1184 31.2362 83.9409 31.2715 83.7616 31.2715Z" fill="#77777F"/>
<path d="M81.3217 34.4084C80.1823 37.2171 79.0358 39.9883 77.8962 42.7971C77.2151 44.476 78.4386 46.3159 80.2363 46.3159L82.3434 46.4979H87.4687C89.2665 46.4979 90.49 44.6581 89.8089 42.979L87.4327 37.1213L85.9382 34.4082L81.3217 34.4084Z" fill="#FDCD08"/>
<path d="M83.1566 38.1581C84.6542 38.2944 86.225 37.9013 87.4327 37.123L86.155 33.9297L84.0434 34.5609L84.0436 34.5604L81.291 34.1931C80.9433 35.0504 80.4379 36.2677 80.0902 37.125L80.0904 37.1252L77.7149 42.9804C77.0342 44.6604 78.2573 46.4988 80.0538 46.4988H82.966C81.1696 46.4988 79.9464 44.6604 80.6271 42.9804C81.2189 41.5228 81.8101 40.0654 82.4014 38.6079C82.5239 38.3053 82.8317 38.1284 83.1566 38.1581Z" fill="#FAAB18"/>
<path d="M87.9633 31.2119C87.9633 29.3519 86.7769 27.7714 85.1264 27.1995C84.6984 27.0512 84.0765 27.3151 83.5989 27.3151C81.2784 27.3151 79.8501 28.8697 79.8501 31.2121C79.8501 33.5544 81.5862 34.9598 83.9067 34.9598C84.3845 34.9598 84.6984 35.3726 85.1264 35.2244C86.7769 34.6524 87.9633 33.0719 87.9633 31.2119Z" fill="#FDCD08"/>
<path d="M85.1266 35.2232C84.6988 35.3724 84.2383 35.4525 83.7615 35.4525C81.4408 35.4525 79.5605 33.5523 79.5605 31.2097C79.5605 28.869 81.4408 26.9688 83.7615 26.9688C84.2383 26.9688 84.6988 27.0488 85.1266 27.1981C83.4757 27.7696 82.2908 29.3513 82.2908 31.2097C82.2908 33.0699 83.4757 34.6516 85.1266 35.2232Z" fill="#FAAB18"/>
<path d="M84.098 17.2049L72.0924 21.361L68.8163 21.025L45.513 30.5623C43.8943 31.1227 42.1343 31.1227 40.5156 30.5623L17.2129 21.3969L13.9366 21.3612L1.93028 17.2049C0.559699 16.7304 0.559699 14.7921 1.93028 14.3177L40.9708 0.802723C42.2945 0.344405 43.7338 0.344405 45.0574 0.802723L84.098 14.3177C85.4684 14.7921 85.4684 16.7304 84.098 17.2049Z" fill="#868491"/>
<path d="M72.0923 20.1283V21.3605L45.5126 30.5614C43.8937 31.122 42.1333 31.122 40.5144 30.5614L13.9365 21.3605V20.1283C13.9365 17.5309 15.7913 15.3139 18.3486 14.8534C26.4738 13.3973 34.7719 12.6602 43.0135 12.6602C51.2552 12.6602 59.5551 13.3973 67.6803 14.8534C68.918 15.0773 70.041 15.7289 70.8455 16.6918C71.6464 17.6474 72.0923 18.8705 72.0923 20.1283Z" fill="#77777F"/>
<path d="M68.8159 20.1293V30.9829H17.7587L17.5767 20.4934C17.5767 19.485 18.2993 18.6222 19.2912 18.4439C19.8113 18.3507 19.9678 17.8965 20.4887 17.8093C27.9323 16.5641 35.4663 15.938 43.0133 15.9375C51.0748 15.9375 59.1363 16.6528 67.1013 18.0798C67.5964 18.169 68.0259 18.4293 68.3299 18.7933C68.6357 19.1574 68.8159 19.6251 68.8159 20.1293Z" fill="#868491"/>
<path d="M68.8161 35.0874V37.0896C68.8161 37.794 68.2446 38.3637 67.542 38.3637H18.487C18.1491 38.3637 17.825 38.2295 17.5861 37.9905C17.3471 37.7516 17.2129 37.4275 17.2129 37.0896V30.983L18.851 29.793L20.4892 30.983V34.1774C20.4892 34.4187 20.5851 34.6502 20.7557 34.8209C20.9264 34.9916 21.1579 35.0874 21.3993 35.0874H68.8161Z" fill="#FAAB18"/>
<path d="M20.4892 17.8105V30.983H17.2129V20.1294C17.2129 19.1211 17.9355 18.2583 18.9275 18.0799C19.448 17.9871 19.9686 17.8961 20.4892 17.8105Z" fill="#77777F"/>
<path d="M81.9244 83.2518C81.0637 81.1739 80.6208 78.9469 80.6208 76.6979C80.6208 74.4489 81.0637 72.2219 81.9244 70.1441L82.4783 67.6836H8.04993C8.04993 67.6836 -0.328437 76.7922 8.59433 85.7148L82.963 86.2725L81.9244 83.2518Z" fill="#F1F2F2"/>
<path d="M82.9629 86.271L8.59493 85.7141C-0.329297 76.7917 8.0507 67.6836 8.0507 67.6836L82.8362 67.8217L81.9254 70.1426C81.5911 70.9482 81.3191 71.7782 81.1118 72.6253H12.8031C10.5334 72.6253 8.68776 74.471 8.68776 76.7389C8.68776 79.0086 10.5334 80.8542 12.8031 80.8542H81.1336C81.3387 81.6715 81.6033 82.4727 81.9254 83.2514L82.9629 86.271Z" fill="#DEE1E1"/>
<path d="M81.7088 88.9044L14.4172 88.7806C7.34683 88.7806 1.12627 84.7907 1.12627 77.7203C1.12627 75.4764 0.57749 72.3865 1.59168 70.5527C3.77314 66.6084 7.97588 63.9375 12.8022 63.9375H82.9734C84.5682 63.9375 85.8611 65.2304 85.8611 66.8252C85.8611 68.42 84.5682 69.7129 82.9734 69.7129H65.5873L61.0444 70.7185L57.2206 69.7129H12.8024C8.92163 69.7129 5.77567 72.8588 5.77567 76.7396C5.77567 80.6203 8.92163 83.7663 12.8024 83.7663H82.9734C84.5682 83.7663 85.8611 85.0591 85.8611 86.654C85.8611 86.8322 85.8449 87.0063 85.8141 87.1756C85.5686 88.5214 83.1256 88.9044 81.7088 88.9044Z" fill="#EF5227"/>
<path d="M85.8149 87.1766C85.7075 87.7663 85.4218 88.2905 85.0159 88.6964C84.748 88.965 84.4296 89.1781 84.0792 89.3233C83.7287 89.4686 83.353 89.5432 82.9736 89.5428H12.803C5.73167 89.5428 0 83.8111 0 76.7398C0 74.2098 0.733523 71.8509 2.00217 69.8633V74.3736C2.00217 81.4449 7.73384 87.1766 14.8052 87.1766H85.8149Z" fill="#D83724"/>
<path d="M65.5875 78.1974V69.7109H59.9509L57.4507 69.8631L57.5847 77.8334C57.5847 77.8926 57.5991 77.951 57.6268 78.0034C57.6545 78.0558 57.6946 78.1006 57.7435 78.134C57.7925 78.1674 57.8488 78.1884 57.9077 78.195C57.9666 78.2017 58.0262 78.1939 58.0814 78.1723L59.9507 77.6619L61.2714 77.1448C61.3567 77.1113 61.4516 77.1113 61.5368 77.1448L65.0908 78.5365C65.146 78.5581 65.2056 78.5659 65.2645 78.5592C65.3234 78.5526 65.3798 78.5316 65.4287 78.4982C65.4777 78.4648 65.5177 78.4199 65.5454 78.3675C65.5731 78.3151 65.5875 78.2567 65.5875 78.1974Z" fill="#FDCD08"/>
<path d="M59.9509 69.7109V77.6632L57.7176 78.5369C57.4792 78.6297 57.2207 78.455 57.2207 78.1983V69.7109H59.9509Z" fill="#FAAB18"/>
</g>
<defs>
<clipPath id="clip0_1029_3978">
<rect width="90" height="90" fill="white"/>
</clipPath>
</defs>
</svg>
