<svg width="108" height="108" viewBox="0 0 108 108" fill="none" xmlns="http://www.w3.org/2000/svg">
<path d="M46.4323 108C37.5445 108 30.314 100.769 30.314 91.8815V64.0713C30.314 62.2195 31.8152 60.7183 33.667 60.7183C35.5188 60.7183 37.0201 62.2195 37.0201 64.0713V91.8815C37.0201 97.0714 41.2424 101.294 46.4321 101.294C51.6218 101.294 55.8442 97.0712 55.8442 91.8815V85.1739C55.8442 75.3963 63.7988 67.4417 73.5766 67.4417H89.6984C91.5502 67.4417 93.0514 68.9429 93.0514 70.7947C93.0514 72.6466 91.5502 74.1478 89.6984 74.1478H73.5766C67.4968 74.1478 62.5505 79.0941 62.5505 85.1739V91.8815C62.5507 100.769 55.3202 108 46.4323 108Z" fill="#60B8FF"/>
<path d="M89.8965 67.4517C89.9798 67.7457 90.0224 68.0497 90.0232 68.3553C90.0232 70.2071 88.522 71.7084 86.6702 71.7084H70.5484C64.4686 71.7084 59.5223 76.6547 59.5223 82.7345V89.4421C59.5223 98.33 52.2916 105.56 43.4039 105.56C40.2837 105.56 37.3696 104.667 34.8989 103.125C37.8282 106.13 41.9149 108 46.4324 108C55.3202 108 62.5507 100.769 62.5507 91.8816V85.174C62.5507 79.0941 67.497 74.1479 73.5768 74.1479H89.6986C91.5504 74.1479 93.0517 72.6466 93.0517 70.7948C93.0517 69.0099 91.6557 67.5546 89.8965 67.4517Z" fill="#22A7FF"/>
<path d="M93.1158 84.3776C100.493 84.3776 106.474 78.3968 106.474 71.0191C106.474 63.6414 100.493 57.6606 93.1158 57.6606C85.7381 57.6606 79.7573 63.6414 79.7573 71.0191C79.7573 78.3968 85.7381 84.3776 93.1158 84.3776Z" fill="#AB9FAA"/>
<path d="M100.228 59.7134C100.775 61.1945 101.053 62.761 101.052 64.3397C101.052 71.7174 95.0712 77.6981 87.6934 77.6981C85.1761 77.7011 82.7096 76.9893 80.5811 75.6453C82.463 80.7426 87.3646 84.3775 93.1158 84.3775C100.494 84.3775 106.474 78.3967 106.474 71.019C106.474 66.2562 103.98 62.0786 100.228 59.7134Z" fill="#928392"/>
<path d="M93.1159 77.6985C96.8048 77.6985 99.7952 74.7081 99.7952 71.0192C99.7952 67.3303 96.8048 64.3398 93.1159 64.3398C89.427 64.3398 86.4365 67.3303 86.4365 71.0192C86.4365 74.7081 89.427 77.6985 93.1159 77.6985Z" fill="#D8D1D7"/>
<path d="M95.755 64.8823C96.166 65.7642 96.3786 66.7256 96.3777 67.6985C96.3777 71.3874 93.3872 74.3779 89.6983 74.3779C88.7609 74.3779 87.8689 74.184 87.0591 73.8351C88.1216 76.1162 90.4332 77.6983 93.1157 77.6983C96.8046 77.6983 99.7949 74.7078 99.7949 71.0189C99.7951 68.2677 98.131 65.9056 95.755 64.8823Z" fill="#CAC0C9"/>
<path d="M33.667 65.3281C22.8571 65.3281 13.3388 58.0394 10.5206 47.6028L1.87031 15.5696C1.06769 12.5973 1.68088 9.49084 3.55274 7.04671C5.4246 4.60257 8.26361 3.20068 11.3425 3.20068H19.2222C20.1185 3.20068 20.8448 3.92715 20.8448 4.82321C20.8448 5.71928 20.1185 6.44575 19.2222 6.44575H11.3422C9.28181 6.44575 7.38147 7.384 6.12892 9.01982C4.87617 10.6556 4.46568 12.7348 5.00273 14.724L13.6533 46.7572C16.0902 55.7809 24.32 62.0833 33.667 62.0833C43.0141 62.0833 51.2442 55.7809 53.681 46.7572L62.3313 14.724C62.8684 12.7348 62.4581 10.6556 61.2053 9.01982C59.9526 7.384 58.0525 6.44575 55.992 6.44575H48.1122C47.216 6.44575 46.4897 5.71928 46.4897 4.82321C46.4897 3.92715 47.216 3.20068 48.1122 3.20068H55.992C59.0707 3.20068 61.9099 4.60257 63.7817 7.04692C65.6536 9.49126 66.2668 12.5977 65.464 15.5698L56.8136 47.603C53.9955 58.0392 44.4774 65.3281 33.667 65.3281Z" fill="#928392"/>
<path d="M33.6671 67.0587C22.0767 67.0587 11.8716 59.2437 8.84987 48.0541L7.75891 44.014C7.27607 42.2261 8.33392 40.3854 10.1218 39.9026C11.9102 39.4202 13.7504 40.4778 14.2332 42.2655L15.3242 46.3056C17.5576 54.5762 25.1005 60.3524 33.6671 60.3524C42.2339 60.3524 49.7768 54.5762 52.0102 46.3056L53.1012 42.2655C53.5838 40.4778 55.4245 39.4193 57.2126 39.9026C59.0003 40.3852 60.0583 42.2261 59.5755 44.014L58.4845 48.0541C55.4631 59.2439 45.2577 67.0587 33.6671 67.0587Z" fill="#60B8FF"/>
<path d="M57.7253 40.0908C57.7665 40.4948 57.7338 40.903 57.6287 41.2953L56.5377 45.3354C53.5161 56.525 43.3107 64.34 31.7203 64.34C23.8319 64.34 16.5876 60.7176 11.8105 54.8773C16.4111 62.2935 24.6168 67.0588 33.6673 67.0588C45.2576 67.0588 55.463 59.2437 58.4847 48.0541L59.5757 44.014C60.01 42.4052 59.1947 40.7574 57.7253 40.0908Z" fill="#22A7FF"/>
<path d="M19.3512 9.66136C22.0191 9.66136 24.1819 7.49859 24.1819 4.83068C24.1819 2.16277 22.0191 0 19.3512 0C16.6833 0 14.5205 2.16277 14.5205 4.83068C14.5205 7.49859 16.6833 9.66136 19.3512 9.66136Z" fill="#BBB0BA"/>
<path d="M20.7821 0.21582C21.3077 1.0063 21.5875 1.9347 21.5862 2.88397C21.5862 5.55191 19.4234 7.71465 16.7555 7.71465C16.2575 7.71465 15.777 7.63913 15.3247 7.49907C16.19 8.80224 17.6699 9.6616 19.3513 9.6616C22.0192 9.6616 24.182 7.49886 24.182 4.83092C24.182 2.66122 22.7514 0.825641 20.7821 0.21582Z" fill="#AB9FAA"/>
<path d="M47.4742 9.66136C50.1421 9.66136 52.3049 7.49859 52.3049 4.83068C52.3049 2.16277 50.1421 0 47.4742 0C44.8063 0 42.6436 2.16277 42.6436 4.83068C42.6436 7.49859 44.8063 9.66136 47.4742 9.66136Z" fill="#BBB0BA"/>
<path d="M48.9051 0.21582C49.4307 1.0063 49.7105 1.9347 49.7092 2.88397C49.7092 5.55191 47.5465 7.71465 44.8785 7.71465C44.3805 7.71465 43.9 7.63913 43.4478 7.49907C44.313 8.80224 45.793 9.6616 47.4743 9.6616C50.1423 9.6616 52.305 7.49886 52.305 4.83092C52.3052 2.66122 50.8747 0.825641 48.9051 0.21582Z" fill="#AB9FAA"/>
</svg>
