<svg width="100" height="100" viewBox="0 0 100 100" fill="none" xmlns="http://www.w3.org/2000/svg">
<path fill-rule="evenodd" clip-rule="evenodd" d="M74.7229 46.7785L81.7676 58.9801L79.407 60.3473L72.3623 48.1455L74.7229 46.7783V46.7785ZM81.5783 32.182H95.6678V34.9057H81.5783V32.182ZM72.3623 18.9473L79.4068 6.74551L81.7674 8.10215L74.7229 20.3039L72.3623 18.9473ZM56.2908 20.3092L49.2461 8.10742L51.6066 6.74023L58.6514 18.942L56.2908 20.3092ZM58.6514 48.1404L51.6066 60.3422L49.2461 58.9857L56.2908 46.784L58.6514 48.1404Z" fill="#7986BF"/>
<path fill-rule="evenodd" clip-rule="evenodd" d="M5.09922 67.6308C4.77773 66.9495 5.06934 66.1364 5.75078 65.8152C6.43223 65.4939 7.24512 65.7855 7.5666 66.4667L9.13066 69.7812C9.45215 70.4624 9.16055 71.2755 8.4791 71.5968C7.79766 71.9181 6.98477 71.6265 6.66328 70.9452L5.09922 67.6308ZM2.1668 57.7739C2.09357 57.423 2.16164 57.0574 2.35624 56.7564C2.55084 56.4553 2.85628 56.2431 3.20632 56.1659C3.55635 56.0886 3.92274 56.1524 4.22602 56.3435C4.5293 56.5346 4.74501 56.8375 4.82637 57.1866L5.61699 60.7654C5.65556 60.94 5.65934 61.1205 5.62814 61.2966C5.59694 61.4727 5.53136 61.6409 5.43515 61.7917C5.24084 62.0961 4.93354 62.3109 4.58086 62.3888C4.22818 62.4667 3.859 62.4013 3.55455 62.2069C3.2501 62.0126 3.0353 61.7053 2.95742 61.3527L2.1668 57.7741V57.7739ZM1.49004 47.5157C1.49074 47.3369 1.52667 47.16 1.59576 46.995C1.66485 46.8301 1.76575 46.6803 1.8927 46.5544C2.01966 46.4284 2.17018 46.3287 2.33567 46.2609C2.50117 46.1931 2.67839 46.1586 2.85723 46.1593C3.03606 46.16 3.21301 46.1959 3.37796 46.265C3.54292 46.3341 3.69265 46.435 3.8186 46.562C3.94456 46.6889 4.04428 46.8394 4.11207 47.0049C4.17985 47.1704 4.21438 47.3476 4.21367 47.5265L4.19141 51.1913C4.18596 51.5498 4.03936 51.8917 3.78344 52.1428C3.52751 52.3939 3.1829 52.5339 2.82438 52.5325C2.46585 52.5311 2.12233 52.3884 1.86836 52.1354C1.61439 51.8823 1.47045 51.5393 1.46777 51.1808L1.49004 47.5157ZM3.10098 37.357C3.18313 37.0043 3.40202 36.6987 3.7095 36.5074C4.01697 36.3161 4.38785 36.2548 4.74053 36.3369C5.09321 36.4191 5.39881 36.638 5.5901 36.9455C5.78139 37.2529 5.8427 37.6238 5.76055 37.9765L4.92637 41.5452C4.8857 41.7199 4.81103 41.8848 4.70663 42.0306C4.60223 42.1764 4.47013 42.3002 4.31789 42.3949C4.16564 42.4896 3.99622 42.5535 3.81931 42.5827C3.6424 42.612 3.46146 42.6061 3.28682 42.5654C3.11217 42.5248 2.94725 42.4501 2.80146 42.3457C2.65568 42.2413 2.53188 42.1092 2.43715 41.957C2.34241 41.8047 2.27859 41.6353 2.24933 41.4584C2.22007 41.2815 2.22594 41.1005 2.2666 40.9259L3.10078 37.3571L3.10098 37.357ZM6.92656 27.8093C7.00512 27.648 7.11468 27.5037 7.24899 27.3848C7.3833 27.2658 7.53973 27.1745 7.70934 27.1159C7.87896 27.0574 8.05843 27.0329 8.23753 27.0438C8.41662 27.0546 8.59182 27.1006 8.75312 27.1792C8.91443 27.2578 9.05868 27.3673 9.17764 27.5016C9.29661 27.6359 9.38795 27.7923 9.44646 27.9619C9.50497 28.1315 9.5295 28.311 9.51864 28.49C9.50779 28.6691 9.46177 28.8443 9.3832 29.0056L7.77871 32.3005C7.62007 32.6263 7.33852 32.8757 6.99599 32.9939C6.65346 33.112 6.27802 33.0893 5.95225 32.9307C5.62648 32.772 5.37707 32.4905 5.25888 32.148C5.1407 31.8054 5.16343 31.43 5.32207 31.1042L6.92656 27.8093ZM12.776 19.3495C13.0037 19.071 13.3322 18.8938 13.69 18.8564C14.0478 18.819 14.4059 18.9245 14.6862 19.1499C14.9666 19.3754 15.1465 19.7024 15.1868 20.0599C15.2271 20.4174 15.1245 20.7763 14.9014 21.0585L12.6062 23.9159C12.3785 24.1945 12.05 24.3717 11.6922 24.4091C11.3344 24.4465 10.9763 24.341 10.696 24.1155C10.4156 23.8901 10.2357 23.563 10.1954 23.2055C10.1551 22.8481 10.2577 22.4891 10.4809 22.207L12.776 19.3495ZM20.3504 12.3966C20.6337 12.1714 20.9948 12.0679 21.3543 12.109C21.7139 12.1501 22.0424 12.3323 22.2676 12.6155C22.4928 12.8988 22.5962 13.2599 22.5552 13.6195C22.5141 13.979 22.3319 14.3075 22.0486 14.5327L19.1773 16.8103C19.0371 16.9218 18.8762 17.0046 18.704 17.0539C18.5317 17.1033 18.3514 17.1182 18.1734 17.0979C17.9954 17.0775 17.8231 17.0223 17.6664 16.9354C17.5097 16.8485 17.3717 16.7316 17.2602 16.5913C17.1486 16.4511 17.0659 16.2902 17.0165 16.118C16.9672 15.9457 16.9522 15.7654 16.9726 15.5874C16.9929 15.4094 17.0481 15.2371 17.135 15.0804C17.2219 14.9237 17.3388 14.7856 17.4791 14.6741L20.3504 12.3966ZM29.2836 7.29621C29.6086 7.14623 29.9795 7.13023 30.3162 7.25166C30.6529 7.37309 30.9282 7.62218 31.0826 7.94506C31.2371 8.26793 31.2582 8.63862 31.1414 8.97694C31.0246 9.31526 30.7793 9.59399 30.4586 9.75285L27.1539 11.3372C26.8289 11.4872 26.458 11.5032 26.1213 11.3818C25.7846 11.2603 25.5093 11.0113 25.3549 10.6884C25.2004 10.3655 25.1793 9.99481 25.2961 9.65649C25.4129 9.31818 25.6582 9.03944 25.9789 8.88058L29.2836 7.29621ZM39.1228 4.29972C39.474 4.22458 39.8405 4.291 40.1429 4.48456C40.4454 4.67812 40.6592 4.98318 40.738 5.33349C40.8168 5.68379 40.7542 6.05103 40.5638 6.35545C40.3734 6.65986 40.0706 6.87686 39.7211 6.95929L36.1473 7.7716C35.7962 7.84675 35.4296 7.78032 35.1272 7.58676C34.8248 7.3932 34.6109 7.08814 34.5321 6.73784C34.4533 6.38753 34.5159 6.02029 34.7063 5.71588C34.8967 5.41146 35.1996 5.19447 35.549 5.11203L39.1228 4.29972ZM68.4035 87.6636C68.5644 87.5817 68.74 87.5325 68.92 87.5189C69.1001 87.5053 69.281 87.5276 69.4524 87.5846C69.6237 87.6415 69.7821 87.7318 69.9182 87.8504C70.0544 87.969 70.1656 88.1134 70.2455 88.2753C70.3254 88.4373 70.3724 88.6134 70.3837 88.7936C70.395 88.9738 70.3704 89.1545 70.3113 89.3251C70.2522 89.4957 70.1599 89.6529 70.0396 89.7876C69.9193 89.9222 69.7735 90.0316 69.6105 90.1095L66.3254 91.7343C66.1645 91.8162 65.9889 91.8654 65.8089 91.879C65.6288 91.8926 65.4479 91.8702 65.2765 91.8133C65.1052 91.7564 64.9468 91.6661 64.8107 91.5475C64.6745 91.4289 64.5632 91.2845 64.4833 91.1226C64.4034 90.9606 64.3565 90.7845 64.3452 90.6043C64.3339 90.4241 64.3585 90.2434 64.4176 90.0728C64.4767 89.9022 64.569 89.745 64.6893 89.6103C64.8096 89.4757 64.9554 89.3663 65.1184 89.2884L68.4035 87.6638V87.6636ZM76.3154 82.095C76.5962 81.8706 76.9543 81.7663 77.3117 81.8046C77.6692 81.843 77.9969 82.021 78.2237 82.2999C78.4505 82.5788 78.5579 82.9361 78.5225 83.2938C78.4872 83.6515 78.3119 83.9808 78.035 84.2099L75.1918 86.5224C74.911 86.7468 74.5529 86.8512 74.1955 86.8128C73.8381 86.7744 73.5103 86.5964 73.2835 86.3175C73.0567 86.0386 72.9493 85.6814 72.9847 85.3237C73.02 84.9659 73.1953 84.6367 73.4723 84.4075L76.3154 82.095ZM82.7957 74.912C83.0186 74.629 83.3446 74.4458 83.7023 74.4026C84.06 74.3594 84.4203 74.4597 84.7042 74.6814C84.9881 74.9032 85.1726 75.2285 85.2173 75.586C85.262 75.9435 85.1632 76.3042 84.9426 76.589L82.6826 79.4742C82.4597 79.7572 82.1337 79.9403 81.776 79.9836C81.4183 80.0268 81.0581 79.9265 80.7741 79.7047C80.4902 79.4829 80.3057 79.1577 80.261 78.8002C80.2163 78.4427 80.3151 78.082 80.5357 77.7972L82.7957 74.912ZM87.5223 66.4665C87.6787 66.1427 87.9566 65.8937 88.2957 65.7738C88.6347 65.6538 89.0074 65.6726 89.3326 65.8261C89.6579 65.9795 89.9094 66.2552 90.0324 66.5932C90.1554 66.9311 90.14 67.304 89.9894 67.6306L88.4254 70.945C88.2676 71.2666 87.9896 71.5131 87.6516 71.6315C87.3136 71.7499 86.9425 71.7306 86.6186 71.5778C86.2947 71.425 86.0438 71.1509 85.9202 70.8147C85.7966 70.4785 85.8102 70.1072 85.958 69.781L87.5221 66.4665H87.5223ZM90.2623 57.1865C90.3437 56.8373 90.5594 56.5344 90.8626 56.3433C91.1659 56.1522 91.5323 56.0884 91.8823 56.1657C92.2324 56.243 92.5378 56.4551 92.7324 56.7562C92.927 57.0572 92.9951 57.4228 92.9219 57.7738L92.1312 61.3523C92.0499 61.7014 91.8342 62.0043 91.5309 62.1954C91.2276 62.3865 90.8612 62.4504 90.5112 62.3731C90.1612 62.2958 89.8557 62.0836 89.6611 61.7825C89.4665 61.4815 89.3984 61.1159 89.4717 60.765L90.2623 57.1863V57.1865ZM90.875 47.5263C90.8736 47.1651 91.0157 46.8182 91.2701 46.5618C91.5244 46.3054 91.8703 46.1605 92.2314 46.1591C92.5926 46.1577 92.9396 46.2998 93.196 46.5542C93.4524 46.8086 93.5972 47.1544 93.5986 47.5155L93.6211 51.1804C93.6238 51.3605 93.5908 51.5394 93.5239 51.7067C93.457 51.874 93.3577 52.0263 93.2315 52.1549C93.1053 52.2835 92.9549 52.3858 92.7889 52.4558C92.623 52.5259 92.4447 52.5623 92.2646 52.563C92.0845 52.5637 91.906 52.5286 91.7395 52.4599C91.5729 52.3911 91.4217 52.29 91.2946 52.1624C91.1674 52.0348 91.0669 51.8832 90.9987 51.7164C90.9305 51.5497 90.8961 51.3711 90.8974 51.1909L90.875 47.5261V47.5263Z" fill="#FF8748"/>
<path fill-rule="evenodd" clip-rule="evenodd" d="M65.5072 6.83008C68.7887 6.83008 71.634 10.0059 73.5814 15.14C75.3773 19.8744 76.4881 26.3828 76.4881 33.5424C76.4881 40.702 75.3773 47.2104 73.5814 51.9449C71.634 57.0793 68.7887 60.2549 65.5072 60.2549C62.2258 60.2549 59.3805 57.0791 57.433 51.9449C55.6371 47.2105 54.5264 40.7021 54.5264 33.5424C54.5264 26.3826 55.6371 19.8744 57.433 15.14C59.3805 10.0057 62.2258 6.83008 65.5072 6.83008ZM71.0287 16.1014C69.4969 12.0625 67.5352 9.56445 65.5072 9.56445C63.4793 9.56445 61.5176 12.0625 59.9857 16.1014C58.3021 20.54 57.2607 26.7045 57.2607 33.5426C57.2607 40.3807 58.3021 46.5451 59.9857 50.9838C61.5178 55.0227 63.4793 57.5207 65.5074 57.5207C67.5355 57.5207 69.4971 55.0227 71.0289 50.9838C72.7125 46.5451 73.7539 40.3807 73.7539 33.5426C73.7539 26.7045 72.7125 20.54 71.0289 16.1014H71.0287Z" fill="#FF5471"/>
<path fill-rule="evenodd" clip-rule="evenodd" d="M88.6407 20.1866C90.2815 23.0284 88.954 27.0804 85.4811 31.3341C83.2298 34.0919 80.0499 36.9946 76.205 39.7196C76.3132 38.5593 76.3915 37.3691 76.438 36.155C79.2694 33.9818 81.6276 31.7411 83.3723 29.604C86.1042 26.2579 87.2868 23.3101 86.2727 21.5538C85.2587 19.7976 82.1145 19.3478 77.8509 20.0405C76.9948 20.1796 76.0993 20.3663 75.1716 20.5991C74.9777 19.7106 74.7564 18.8283 74.5079 17.9534C75.5102 17.7019 76.4792 17.5001 77.4069 17.3493C82.827 16.4687 87.0001 17.3448 88.6407 20.1866ZM72.5438 21.3548C69.0534 22.481 65.2317 24.1794 61.3837 26.4011C60.0352 27.1789 58.7151 28.0047 57.4257 28.8769C57.509 27.7087 57.6269 26.5432 57.7792 25.382C58.5162 24.9181 59.2621 24.4683 60.0163 24.0329C64.088 21.6821 68.1557 19.8866 71.8843 18.7009C72.1332 19.5779 72.3531 20.463 72.5434 21.3546L72.5438 21.3548ZM73.2346 41.7034C72.4976 42.1673 71.7517 42.6171 70.9975 43.0527C66.9259 45.4034 62.8581 47.1989 59.1294 48.3847C58.8804 47.5076 58.6606 46.6226 58.4702 45.731C61.9604 44.6048 65.7821 42.9064 69.6302 40.6847C70.9785 39.9069 72.2987 39.0811 73.588 38.2089C73.5046 39.377 73.3867 40.5425 73.2344 41.7036L73.2346 41.7034ZM56.5063 49.1325C55.504 49.3841 54.535 49.5859 53.6073 49.7366C48.187 50.6171 44.0141 49.7409 42.3735 46.8991C40.7327 44.0573 42.0602 40.0052 45.5331 35.7515C47.7844 32.9939 50.9645 30.0909 54.8093 27.3661C54.699 28.552 54.6213 29.7407 54.5762 30.9308C51.7448 33.104 49.3866 35.3446 47.6421 37.4818C44.9104 40.8278 43.7278 43.7757 44.7417 45.532C45.7557 47.2882 48.8999 47.738 53.1635 47.0452C54.0196 46.9062 54.9151 46.7195 55.8428 46.4866C56.0367 47.3752 56.258 48.2575 56.5065 49.1323L56.5063 49.1325Z" fill="#2DCFFC"/>
<path fill-rule="evenodd" clip-rule="evenodd" d="M88.6407 46.8993C87.0001 49.7412 82.827 50.6174 77.4069 49.7368C73.893 49.1659 69.7889 47.8633 65.5069 45.8961C66.5659 45.4096 67.6358 44.8825 68.7104 44.3157C72.0083 45.6813 75.1276 46.603 77.8509 47.0453C82.1145 47.7381 85.2587 47.2883 86.2727 45.5321C87.2868 43.7756 86.1042 40.828 83.3723 37.4819C82.8237 36.81 82.2143 36.1278 81.5489 35.4409C82.2215 34.8287 82.875 34.1958 83.5085 33.5432C84.2274 34.2856 84.8868 35.0239 85.4811 35.752C88.954 40.0057 90.2815 44.0575 88.6407 46.8993ZM79.5805 33.543C80.2575 32.9323 80.914 32.2993 81.5491 31.6452C78.6581 29.009 75.069 26.3838 70.9975 24.0332C70.2433 23.5977 69.4808 23.1767 68.7104 22.7703C67.6286 23.219 66.5603 23.6997 65.5069 24.2116C66.9071 24.8921 68.2824 25.6225 69.6304 26.4014C73.4784 28.6231 76.86 31.0834 79.5805 33.543ZM62.3036 22.7703C63.3568 22.2144 64.4251 21.6874 65.5071 21.1899C61.2251 19.2227 57.1212 17.9201 53.6073 17.3492C48.187 16.4688 44.0141 17.345 42.3735 20.1867C40.7327 23.0285 42.0602 27.0805 45.5329 31.3344C46.1272 32.0623 46.7866 32.8006 47.5055 33.543C48.1389 32.8903 48.7923 32.2575 49.4649 31.6453C48.7995 30.9584 48.1901 30.2762 47.6417 29.6043C44.91 26.2582 43.7274 23.3104 44.7413 21.5539C45.7554 19.7977 48.8995 19.3479 53.1632 20.0407C55.8862 20.483 59.0055 21.4049 62.3032 22.7703H62.3036ZM62.3036 44.3157C63.3854 43.867 64.4537 43.3864 65.5071 42.8744C64.1071 42.1939 62.7318 41.4636 61.3839 40.6848C57.5356 38.4631 54.154 36.0028 51.4335 33.543C50.7565 34.1537 50.1 34.7867 49.4649 35.4409C52.3561 38.077 55.945 40.7022 60.0167 43.053C60.7709 43.4885 61.5333 43.9093 62.3036 44.3157Z" fill="#43F043"/>
<path fill-rule="evenodd" clip-rule="evenodd" d="M80.5873 4.55859C82.1695 4.55859 83.452 5.84121 83.452 7.42324C83.452 9.00527 82.1693 10.2879 80.5873 10.2879C79.0053 10.2879 77.7227 9.00527 77.7227 7.42324C77.7227 5.84121 79.0053 4.55859 80.5873 4.55859Z" fill="#FCDB35"/>
<path fill-rule="evenodd" clip-rule="evenodd" d="M65.5069 38.0068C67.9651 38.0068 69.9702 36.0018 69.9702 33.5436C69.9702 31.0854 67.9651 29.0801 65.5069 29.0801C63.0487 29.0801 61.0435 31.0852 61.0435 33.5436C61.0435 36.002 63.0485 38.0068 65.5069 38.0068Z" fill="#FDC72E"/>
<path fill-rule="evenodd" clip-rule="evenodd" d="M64.3538 37.8559C62.4479 37.3475 61.0438 35.6094 61.0438 33.5432C61.0438 31.477 62.4479 29.7391 64.3538 29.2305C66.2597 29.7389 67.6638 31.477 67.6638 33.5432C67.6638 35.6094 66.2597 37.3473 64.3538 37.8559ZM95.6679 30.6785C97.2501 30.6785 98.5325 31.9611 98.5325 33.5432C98.5325 35.1252 97.2499 36.4078 95.6679 36.4078C94.0858 36.4078 92.8032 35.1252 92.8032 33.5432C92.8032 31.9611 94.0856 30.6785 95.6679 30.6785ZM50.4267 4.55859C52.0087 4.55859 53.2913 5.84121 53.2913 7.42324C53.2913 9.00527 52.0087 10.2879 50.4267 10.2879C48.8446 10.2879 47.562 9.00527 47.562 7.42324C47.562 5.84121 48.8446 4.55859 50.4267 4.55859ZM80.5874 56.7984C82.1696 56.7984 83.452 58.0811 83.452 59.6631C83.452 61.2451 82.1694 62.5277 80.5874 62.5277C79.0054 62.5277 77.7228 61.2451 77.7228 59.6631C77.7228 58.0811 79.0054 56.7984 80.5874 56.7984ZM50.4267 56.7984C52.0087 56.7984 53.2913 58.0811 53.2913 59.6631C53.2913 61.2451 52.0087 62.5277 50.4267 62.5277C48.8446 62.5277 47.562 61.2451 47.562 59.6631C47.562 58.0811 48.8444 56.7984 50.4267 56.7984Z" fill="#FCDB35"/>
<path fill-rule="evenodd" clip-rule="evenodd" d="M4.73814 83.7201L22.6987 61.2426C23.5417 60.1875 23.9485 59.0268 23.9485 57.6764V32.2422H37.5143V57.6764C37.5143 59.0268 37.9211 60.1877 38.7641 61.2426L56.7247 83.7201C58.542 85.9945 58.8737 88.9203 57.6118 91.5439C56.3499 94.1674 53.8571 95.7348 50.9458 95.7348H10.517C7.60552 95.7348 5.11294 94.1676 3.85103 91.5439C2.58911 88.9203 2.92075 85.9945 4.73814 83.7201Z" fill="#2A92FA"/>
<path fill-rule="evenodd" clip-rule="evenodd" d="M4.73814 83.7201L22.6987 61.2426C23.5417 60.1875 23.9485 59.0268 23.9485 57.6764V35.3965H32.1518V57.6764C32.1518 59.0268 32.5586 60.1875 33.4016 61.2426L51.3622 83.7201C53.1795 85.9945 53.5112 88.9203 52.2493 91.5437C50.9874 94.1674 48.4946 95.7346 45.5833 95.7346H10.517C7.60571 95.7346 5.11294 94.1674 3.85103 91.5437C2.58911 88.9201 2.92075 85.9945 4.73814 83.7201Z" fill="#4EB1FC"/>
<path fill-rule="evenodd" clip-rule="evenodd" d="M4.73814 83.7215L16.4374 69.0801H45.0254L56.7247 83.7215C58.542 85.9959 58.8737 88.9217 57.6118 91.5453C56.3499 94.1687 53.8571 95.7361 50.9458 95.7361H10.517C7.60552 95.7361 5.11294 94.1689 3.85103 91.5453C2.58911 88.9217 2.92075 85.9959 4.73814 83.7215Z" fill="#2DCFFC"/>
<path fill-rule="evenodd" clip-rule="evenodd" d="M4.73814 83.7215L16.4374 69.0801H39.6629L51.3622 83.7215C53.1795 85.9959 53.5112 88.9217 52.2493 91.5451C50.9874 94.1687 48.4946 95.7359 45.5833 95.7359H10.517C7.60571 95.7359 5.11294 94.1687 3.85103 91.5451C2.58911 88.9215 2.92075 85.9959 4.73814 83.7215Z" fill="#78EAFF"/>
<path d="M22.3457 29.1191H39.1176C39.4804 29.1193 39.8283 29.2636 40.0848 29.5201C40.3413 29.7766 40.4855 30.1245 40.4857 30.4873V34.0291C40.4855 34.392 40.3413 34.7399 40.0847 34.9965C39.8282 35.253 39.4802 35.3973 39.1174 35.3975H22.3457C21.9829 35.3973 21.635 35.253 21.3785 34.9965C21.122 34.74 20.9777 34.3921 20.9775 34.0293V30.4873C20.9777 30.1245 21.122 29.7766 21.3785 29.5201C21.635 29.2636 21.9829 29.1193 22.3457 29.1191Z" fill="#004CBD"/>
<path d="M22.3457 29.1191H33.9129C34.2757 29.1193 34.6236 29.2636 34.8801 29.5201C35.1366 29.7766 35.2808 30.1245 35.2811 30.4873V34.0291C35.2808 34.392 35.1366 34.7399 34.88 34.9965C34.6235 35.253 34.2755 35.3973 33.9127 35.3975H22.3457C21.9829 35.3973 21.635 35.253 21.3785 34.9965C21.122 34.74 20.9777 34.3921 20.9775 34.0293V30.4873C20.9777 30.1245 21.122 29.7766 21.3785 29.5201C21.635 29.2636 21.9829 29.1193 22.3457 29.1191Z" fill="#1176E8"/>
<path d="M33.7256 80.1543C35.7988 80.1543 37.4795 78.4736 37.4795 76.4004C37.4795 74.3272 35.7988 72.6465 33.7256 72.6465C31.6524 72.6465 29.9717 74.3272 29.9717 76.4004C29.9717 78.4736 31.6524 80.1543 33.7256 80.1543Z" fill="#E3F1FF"/>
<path fill-rule="evenodd" clip-rule="evenodd" d="M32.7699 80.0316C31.1596 79.609 29.9717 78.1436 29.9717 76.4006C29.9717 74.6576 31.1596 73.1922 32.7699 72.7695C34.3803 73.1922 35.5684 74.6576 35.5684 76.4006C35.5684 78.1436 34.3803 79.609 32.7699 80.0316Z" fill="white"/>
<path d="M33.3831 55.4963C33.6386 54.0502 32.6734 52.6708 31.2273 52.4152C29.7812 52.1597 28.4017 53.1249 28.1462 54.571C27.8907 56.0171 28.8559 57.3966 30.302 57.6521C31.7481 57.9076 33.1276 56.9424 33.3831 55.4963Z" fill="#2DCFFC"/>
<path fill-rule="evenodd" clip-rule="evenodd" d="M29.9912 57.5818C28.8928 57.2549 28.0918 56.2377 28.0918 55.033C28.0918 53.8283 28.893 52.8111 29.9912 52.4844C31.0896 52.8113 31.8906 53.8285 31.8906 55.033C31.8906 56.2375 31.0895 57.2549 29.9912 57.5818Z" fill="#78EAFF"/>
<path d="M45.912 89.0672C47.3248 89.0672 48.47 87.9219 48.47 86.5092C48.47 85.0964 47.3248 83.9512 45.912 83.9512C44.4993 83.9512 43.354 85.0964 43.354 86.5092C43.354 87.9219 44.4993 89.0672 45.912 89.0672Z" fill="#E3F1FF"/>
<path fill-rule="evenodd" clip-rule="evenodd" d="M45.1523 88.9521C44.1105 88.6287 43.3538 87.6572 43.3538 86.509C43.3538 85.3607 44.1105 84.3893 45.1523 84.0658C46.1943 84.3893 46.9507 85.3607 46.9507 86.509C46.9507 87.6572 46.1943 88.6287 45.1523 88.9521ZM19.3392 80.3818C19.3392 80.0179 19.4838 79.6689 19.7411 79.4116C19.9984 79.1543 20.3474 79.0098 20.7113 79.0098C21.0752 79.0098 21.4242 79.1543 21.6815 79.4116C21.9388 79.6689 22.0833 80.0179 22.0833 80.3818V81.4734H23.1747C23.5386 81.4734 23.8876 81.618 24.1449 81.8753C24.4022 82.1326 24.5467 82.4815 24.5467 82.8454C24.5467 83.2093 24.4022 83.5582 24.1449 83.8155C23.8876 84.0728 23.5386 84.2174 23.1747 84.2174H22.0833V85.3088C22.0833 85.6727 21.9388 86.0217 21.6815 86.279C21.4242 86.5363 21.0752 86.6809 20.7113 86.6809C20.3474 86.6809 19.9984 86.5363 19.7411 86.279C19.4838 86.0217 19.3392 85.6727 19.3392 85.3088V84.2174H18.2478C17.8868 84.2131 17.542 84.0666 17.2882 83.8098C17.0344 83.553 16.8921 83.2065 16.8921 82.8454C16.8921 82.4843 17.0344 82.1378 17.2882 81.881C17.542 81.6242 17.8868 81.4777 18.2478 81.4734H19.3392V80.3818Z" fill="white"/>
</svg>
