<svg width="51" height="43" viewBox="0 0 51 43" fill="none" xmlns="http://www.w3.org/2000/svg">
<path d="M20.9659 17.0499H29.9782C30.8281 17.0499 31.5492 17.6107 31.7717 18.3698L50.9441 14.215V12.6383C50.9441 10.3317 49.0018 8.44286 46.6261 8.44286L36.7605 8.44286V4.02312C36.7605 1.80593 34.9035 0 32.6199 0L18.3192 0C16.0372 0 14.1786 1.80431 14.1786 4.02312L14.1786 8.44286L4.31798 8.44286C1.94401 8.44286 0 10.3301 0 12.6367L0 14.2313L19.139 18.5112C19.3079 17.6806 20.0641 17.0499 20.9675 17.0499H20.9659ZM17.0996 4.02312C17.0996 3.36804 17.6483 2.83487 18.3225 2.83487L32.6232 2.83487C33.2974 2.83487 33.8462 3.36804 33.8462 4.02312V8.44286L17.0996 8.44286V4.02312Z" fill="white"/>
<path d="M31.8419 21.2593V24.3575C31.8419 25.3523 31.0038 26.1683 29.9782 26.1683L20.9659 26.1683C19.942 26.1683 19.1022 25.3539 19.1022 24.3575V21.4121L0 17.1403L0 37.8215C0 40.1281 1.94234 42.0169 4.31798 42.0169L46.6278 42.0169C49.0018 42.0169 50.9458 40.1297 50.9458 37.8215V17.1191L31.8436 21.2593H31.8419Z" fill="white"/>
</svg>
