<svg width="42" height="48" viewBox="0 0 42 48" fill="none" xmlns="http://www.w3.org/2000/svg">
<path d="M37.3869 33.6202C37.3869 33.6397 37.3766 33.6583 37.3596 33.6681L21.0269 43.2881C21.01 43.298 20.9893 43.298 20.9727 43.2881L6.52951 34.7807L19.0288 22.0289L27.1889 30.354C28.0896 31.273 29.5501 31.273 30.4508 30.354C31.3515 29.4351 31.3515 27.9451 30.4508 27.0262L20.6594 17.0376C19.7587 16.1187 18.2983 16.1187 17.3976 17.0376L4.61307 30.0806V14.38C4.61307 14.3604 4.62345 14.342 4.64037 14.3321L20.9731 4.71194C20.9816 4.70693 20.9907 4.70451 21.0004 4.70451C21.01 4.70451 21.0193 4.70693 21.0277 4.71194L37.3604 14.3321C37.3769 14.342 37.3873 14.3604 37.3873 14.38V33.6202H37.3869ZM39.6662 10.2565L23.3335 0.635966C21.8941 -0.211989 20.1055 -0.211989 18.6662 0.635966L2.33384 10.2565C0.894144 11.1039 0 12.6841 0 14.38L0 33.6202C0 35.3156 0.894144 36.8958 2.33384 37.7441L18.6665 47.3643C19.3863 47.7883 20.1931 48 21 48C21.807 48 22.6139 47.7883 23.3338 47.3643L39.6665 37.7441C41.1059 36.8962 42 35.3161 42 33.6206V14.3804C42 12.6845 41.1059 11.1045 39.6662 10.2569V10.2565Z" fill="white"/>
</svg>
