<svg width="49" height="41" viewBox="0 0 49 41" fill="none" xmlns="http://www.w3.org/2000/svg">
<path d="M48.0928 40.3353C40.8093 40.3353 33.5273 40.3353 26.2453 40.3509C25.8244 40.3509 25.8575 40.1433 25.8575 39.8716C25.8591 32.0438 25.8591 24.216 25.8591 16.3867C25.8591 12.9818 25.8654 9.57524 25.8496 6.1703C25.848 5.77688 25.9616 5.68945 26.3431 5.68945C33.439 5.70038 40.5349 5.69726 47.6309 5.70038C47.7838 5.70038 47.9383 5.72536 48.0912 5.73941L48.0912 40.3368L48.0928 40.3353ZM37.2952 16.2727C39.258 16.2727 41.2176 16.2634 43.1804 16.2805C43.5366 16.2837 43.6312 16.1822 43.617 15.8387C43.5902 15.1768 43.6013 14.5133 43.6139 13.8513C43.6186 13.614 43.5839 13.4907 43.2923 13.4923C39.2911 13.5001 35.2899 13.5001 31.2902 13.4923C31.0285 13.4923 30.9339 13.5703 30.9402 13.8342C30.9544 14.5117 30.9607 15.1908 30.9386 15.8684C30.9276 16.1994 31.049 16.279 31.3675 16.279C33.3444 16.2665 35.3214 16.2727 37.2999 16.2727H37.2952ZM37.2558 18.8534C35.6209 18.8534 33.9876 18.8487 32.3544 18.8565C31.9051 18.8581 31.317 18.666 31.0427 18.9299C30.7432 19.2171 30.9481 19.8073 30.9497 20.2631C30.9497 20.7034 30.7479 21.2701 31.0474 21.5495C31.3202 21.8056 31.8798 21.6229 32.3118 21.6229C35.922 21.6292 39.5323 21.6229 43.1425 21.6338C43.4925 21.6338 43.6407 21.5683 43.6186 21.1827C43.5839 20.5691 43.5855 19.9493 43.6186 19.3342C43.6375 18.9595 43.5398 18.8378 43.1394 18.8424C41.1782 18.8643 39.217 18.8518 37.2574 18.8518L37.2558 18.8534ZM37.2542 26.9825C39.2138 26.9825 41.175 26.9715 43.1346 26.9918C43.5319 26.9965 43.636 26.8763 43.617 26.5001C43.5871 25.885 43.5824 25.2667 43.617 24.6516C43.6375 24.2676 43.4925 24.1817 43.1425 24.202C42.709 24.227 42.2723 24.2082 41.8356 24.2082C38.3672 24.2082 34.8973 24.2145 31.4289 24.2004C31.0427 24.2004 30.9134 24.3019 30.9323 24.6906C30.9639 25.2745 30.9639 25.8615 30.9323 26.4454C30.9103 26.856 31.019 26.9996 31.4652 26.995C33.3933 26.97 35.323 26.984 37.251 26.984L37.2542 26.9825ZM37.3046 32.3326C39.2485 32.3326 41.1924 32.3217 43.1362 32.342C43.5351 32.3467 43.6375 32.2249 43.6186 31.8471C43.5871 31.2476 43.5887 30.645 43.6186 30.0471C43.6375 29.6755 43.5445 29.5412 43.1394 29.5491C41.8482 29.574 40.5586 29.5584 39.2674 29.5584C36.6551 29.5584 34.0428 29.5647 31.4305 29.5506C31.0427 29.5491 30.915 29.6583 30.9339 30.0424C30.9639 30.6419 30.9639 31.2445 30.9339 31.8424C30.915 32.2234 31.0348 32.3436 31.4258 32.3389C33.3838 32.3202 35.3435 32.3311 37.3031 32.3311L37.3046 32.3326Z" fill="white"/>
<path d="M23.0618 38.0425C21.1321 36.1441 19.0669 34.6531 16.7368 33.5307C14.0189 32.2208 11.1606 31.4496 8.13054 31.3403C7.14364 31.3044 7.14364 31.2982 7.14364 30.3427C7.14364 20.4307 7.14364 10.5188 7.14364 0.606814C7.14364 -0.08323 7.06008 -0.0114154 7.77267 0.0166859C13.5964 0.241497 18.564 2.43652 22.7512 6.41911C22.9656 6.62362 23.0665 6.83438 23.0665 7.1435C23.0571 17.2725 23.0602 27.3983 23.0602 37.5273V38.0425H23.0618Z" fill="white"/>
<path d="M21.3533 40.341H20.863C14.1691 40.341 7.47672 40.3363 0.784372 40.3519C0.346098 40.3519 0.257812 40.227 0.259389 39.818C0.270425 28.6274 0.270425 17.4384 0.257812 6.24784C0.257812 5.80602 0.360287 5.67176 0.815902 5.68893C1.82645 5.72484 2.83858 5.71703 3.85071 5.69206C4.23381 5.68269 4.3552 5.79197 4.35205 6.18071C4.3347 8.3851 4.34416 10.5895 4.34416 12.7923C4.34416 19.6975 4.34889 26.6026 4.3347 33.5077C4.3347 33.9417 4.42457 34.0822 4.88964 34.0729C6.99115 34.0307 9.09265 34.0385 11.1579 34.5084C15.0882 35.403 18.4146 37.3498 21.2429 40.1708C21.2729 40.2005 21.2902 40.2411 21.3549 40.3426L21.3533 40.341Z" fill="white"/>
</svg>
