<svg width="43" height="43" viewBox="0 0 43 43" fill="none" xmlns="http://www.w3.org/2000/svg">
<path d="M14.4052 26.0649L16.6504 19.8504L11.3506 17.8719C10.9837 17.7351 10.8799 17.2301 11.1588 16.9393L19.5612 8.19655C20.0504 7.68724 20.841 8.25153 20.5943 8.93397L18.3491 15.1486L23.6494 17.1275C24.0163 17.2644 24.1201 17.7693 23.8412 18.06L15.4388 26.8035C14.9496 27.3128 14.1592 26.7483 14.4057 26.0659L14.4052 26.0649Z" fill="white"/>
<path d="M7.79873 26.0748C2.75926 21.0353 2.75926 12.8376 7.79873 7.79805C12.8372 2.75949 21.0363 2.75849 26.0747 7.79755C31.1142 12.8376 31.1142 21.0363 26.0747 26.0748C21.0363 31.1144 12.8372 31.1134 7.79873 26.0748ZM41.7867 35.9354C41.5774 35.7254 41.3504 35.5447 41.1115 35.3895L30.6284 26.9215C35.4643 20.298 34.8941 10.9312 28.9184 4.95435C22.3111 -1.65154 11.5625 -1.65154 4.95509 4.95486C-1.6517 11.5612 -1.6517 22.311 4.95509 28.9185C10.9314 34.8944 20.2979 35.4645 26.9215 30.6281L35.3887 41.1118C35.544 41.3502 35.7246 41.5778 35.9356 41.7871C37.5508 43.404 40.1715 43.404 41.7879 41.7888C43.4041 40.1719 43.4041 37.5516 41.7874 35.9354H41.7867Z" fill="white"/>
</svg>
