<svg width="94" height="94" viewBox="0 0 94 94" fill="none" xmlns="http://www.w3.org/2000/svg">
<path d="M68.6637 39.0317C68.6637 39.454 68.6453 39.8762 68.627 40.3169C68.2781 46.6692 65.3406 52.3055 60.8426 56.2344C56.3996 60.0899 53.9027 65.7262 53.9027 71.6196V72.152H45.8613V18.1755C45.8613 17.0923 46.7793 16.2294 47.8625 16.3212C56.9688 17.1106 64.5328 23.261 67.4152 31.5962C68.223 33.9278 68.6637 36.4247 68.6637 39.0317Z" fill="#FFA91E"/>
<path d="M62.9356 40.5002C62.1278 40.5002 61.4669 39.8393 61.4669 39.0315C61.4669 37.2873 61.1732 35.5799 60.6224 33.9459C59.0618 29.4479 55.6103 25.9412 51.1122 24.344C50.3411 24.0686 49.9556 23.224 50.2126 22.4529C50.488 21.6818 51.3325 21.2779 52.1036 21.5533C57.4278 23.4627 61.5587 27.6119 63.3946 32.9729C64.0556 34.919 64.4044 36.9385 64.4044 39.0131C64.4044 39.8393 63.7435 40.5002 62.9356 40.5002Z" fill="#F79303"/>
<path d="M33.8545 14.8535C30.2193 14.8535 27.0248 17.1484 25.8131 20.4715C25.6295 20.4531 25.4459 20.4531 25.2807 20.4531C19.7361 20.4531 15.2197 24.9512 15.2197 30.5141C15.2197 31.5973 15.4033 32.6988 15.7521 33.727C11.6947 35.5996 9.06934 39.6387 9.06934 44.2285C9.06934 48.8184 11.6947 52.8391 15.7521 54.7301C15.4033 55.7582 15.2197 56.8598 15.2197 57.943C15.2197 63.4875 19.7361 68.0039 25.2807 68.0039C25.4643 68.0039 25.6295 67.9855 25.8131 67.9855C27.0248 71.327 30.2193 73.6219 33.8545 73.6219C38.5912 73.6219 42.4283 69.7664 42.4283 65.048V23.4273C42.4283 18.6906 38.5912 14.8535 33.8545 14.8535ZM39.4725 65.048C39.4725 68.1508 36.9572 70.666 33.8545 70.666C31.1557 70.666 28.8424 68.7383 28.3283 66.0945C28.2916 65.8742 27.9979 64.0199 29.0994 62.9C29.3748 62.643 29.7053 62.4227 30.0908 62.2758C30.8436 61.982 31.2291 61.1375 30.9537 60.3848C30.66 59.6137 29.7971 59.2465 29.0443 59.5219C28.2732 59.8156 27.5756 60.2562 27.0248 60.8254C25.8314 62.0187 25.3908 63.5977 25.3174 65.0297C21.3518 65.0848 18.1572 61.8719 18.1572 57.9246C18.1572 56.7496 18.451 55.6297 18.9834 54.6016C19.5158 53.7387 20.1951 52.9859 21.0029 52.3801C21.8842 51.7191 22.8572 51.2602 23.9221 50.9848C24.7115 50.7828 25.1889 49.975 24.9869 49.2039C24.785 48.4145 23.9771 47.9371 23.2061 48.1391C21.7557 48.5063 20.4338 49.1672 19.2404 50.0484C18.451 50.6543 17.7533 51.352 17.1658 52.123C14.0447 50.7645 12.0252 47.6984 12.0252 44.2285C12.0252 40.3914 14.4854 37.0684 18.1389 35.9668L18.1572 35.9484C18.7264 35.7832 19.883 35.5445 21.2049 35.9301C22.5635 36.334 23.408 37.1602 23.8119 37.6375C24.1057 37.9863 24.5279 38.1516 24.9318 38.1516C25.2623 38.1516 25.5928 38.0414 25.8682 37.8027C26.4924 37.2887 26.5658 36.3523 26.0518 35.7281C25.0053 34.4797 23.5732 33.5434 22.0127 33.1027C20.7092 32.7355 19.5525 32.7355 18.5795 32.8641C18.3225 32.1113 18.1756 31.3219 18.1756 30.5141C18.1756 26.5852 21.3701 23.409 25.2807 23.409C25.7213 23.409 26.1619 23.4457 26.6209 23.5375H26.6393C27.392 23.666 28.5119 24.0148 29.5768 24.8777C30.201 25.3734 30.715 25.9793 31.1189 26.677C31.3943 27.1543 31.89 27.4113 32.3857 27.4113C32.6428 27.4113 32.8998 27.3562 33.1385 27.2094C33.8361 26.8055 34.0748 25.8875 33.6709 25.1898C33.0834 24.1801 32.3123 23.2988 31.4127 22.5645C30.6232 21.9219 29.7053 21.4445 28.7689 21.0957C29.6686 19.1312 31.633 17.791 33.8729 17.791C36.9756 17.791 39.4908 20.3062 39.4908 23.409V65.048H39.4725Z" fill="#CFD6E5"/>
<path d="M39.4727 23.4273V65.048C39.4727 68.1508 36.9574 70.666 33.8547 70.666C31.1559 70.666 28.8426 68.7383 28.3285 66.0945C28.2918 65.8742 27.998 64.0199 29.0996 62.9C29.375 62.643 29.7055 62.4227 30.091 62.2758C30.8437 61.982 31.2293 61.1375 30.9539 60.3848C30.6602 59.6137 29.7973 59.2465 29.0445 59.5219C28.2734 59.8156 27.5758 60.2562 27.025 60.8254C25.8316 62.0187 25.391 63.5977 25.3176 65.0297C21.352 65.0848 18.1574 61.8719 18.1574 57.9246C18.1574 56.7496 18.4512 55.6297 18.9836 54.6016C19.516 53.7387 20.1953 52.9859 21.0031 52.3801C21.8844 51.7191 22.8574 51.2602 23.9223 50.9848C24.7117 50.7828 25.1891 49.975 24.9871 49.2039C24.7852 48.4145 23.9773 47.9371 23.2063 48.1391C21.7559 48.5063 20.434 49.1672 19.2406 50.0484C18.4512 50.6543 17.7535 51.352 17.166 52.123C14.0449 50.7645 12.0254 47.6984 12.0254 44.2285C12.0254 40.3914 14.4855 37.0684 18.1391 35.9668L18.1574 35.9484C18.7266 35.7832 19.8832 35.5445 21.2051 35.9301C22.5637 36.334 23.4082 37.1602 23.8121 37.6375C24.1059 37.9863 24.5281 38.1516 24.932 38.1516C25.2625 38.1516 25.593 38.0414 25.8684 37.8027C26.4926 37.2887 26.566 36.3523 26.052 35.7281C25.0055 34.4797 23.5734 33.5434 22.0129 33.1027C20.7094 32.7355 19.5527 32.7355 18.5797 32.8641C18.3227 32.1113 18.1758 31.3219 18.1758 30.5141C18.1758 26.5852 21.3703 23.409 25.2809 23.409C25.7215 23.409 26.1621 23.4457 26.6211 23.5375H26.6395C27.3922 23.666 28.5121 24.0148 29.577 24.8777C30.2012 25.3734 30.7152 25.9793 31.1191 26.677C31.3945 27.1543 31.8902 27.4113 32.3859 27.4113C32.643 27.4113 32.9 27.3562 33.1387 27.2094C33.8363 26.8055 34.075 25.8875 33.6711 25.1898C33.0836 24.1801 32.3125 23.2988 31.4129 22.5645C30.6234 21.9219 29.7055 21.4445 28.7691 21.0957C29.6687 19.1313 31.6332 17.791 33.873 17.791C36.9574 17.791 39.4727 20.3246 39.4727 23.4273Z" fill="#D9E0ED"/>
<path d="M65.6346 20.948C65.249 20.948 64.8818 20.8012 64.5881 20.5258C64.0189 19.9566 64.0189 19.0203 64.5881 18.4512L71.4178 11.6215C71.9869 11.0523 72.9232 11.0523 73.4924 11.6215C74.0615 12.1906 74.0615 13.127 73.4924 13.6961L66.6811 20.5074C66.4057 20.8012 66.0201 20.948 65.6346 20.948ZM83.4615 40.7211H73.8412C73.0334 40.7211 72.3725 40.0602 72.3725 39.2523C72.3725 38.4445 73.0334 37.7836 73.8412 37.7836H83.4615C84.2693 37.7836 84.9303 38.4445 84.9303 39.2523C84.9303 40.0602 84.2693 40.7211 83.4615 40.7211ZM72.4459 67.2871C72.0604 67.2871 71.6932 67.1402 71.3994 66.8648L64.5881 60.0535C64.0189 59.4844 64.0189 58.548 64.5881 57.9789C65.1572 57.4098 66.0936 57.4098 66.6627 57.9789L73.474 64.7902C74.0432 65.3594 74.0432 66.2957 73.474 66.8648C73.1986 67.1402 72.8314 67.2871 72.4459 67.2871ZM45.8799 12.7598C45.0721 12.7598 44.4111 12.0988 44.4111 11.291V1.65234C44.4111 0.844531 45.0721 0.183594 45.8799 0.183594C46.6877 0.183594 47.3486 0.844531 47.3486 1.65234V11.2727C47.3486 12.0988 46.6877 12.7598 45.8799 12.7598Z" fill="#F79303"/>
<path d="M59.4842 75.9168C59.4842 76.9633 59.0619 77.8996 58.3826 78.5789C57.7033 79.2582 56.767 79.6805 55.7205 79.6805H28.9158C27.5389 79.6805 26.3455 78.9461 25.6846 77.8445C26.2537 78.1934 26.9146 78.377 27.6307 78.377H54.4354C55.4818 78.377 56.4182 77.9547 57.0975 77.2754C57.7768 76.5961 58.199 75.6598 58.199 74.6133C58.199 73.9156 57.9971 73.2363 57.6666 72.6855C58.7498 73.3465 59.4842 74.5398 59.4842 75.9168ZM59.4842 83.4625C59.4842 84.509 59.0619 85.4453 58.3826 86.1246C57.7033 86.8039 56.767 87.2262 55.7205 87.2262H28.9158C27.5389 87.2262 26.3455 86.4918 25.6846 85.3902C26.2537 85.7391 26.9146 85.9227 27.6123 85.9227H54.417C55.4635 85.9227 56.3998 85.5004 57.0791 84.8211C57.7584 84.1418 58.1807 83.2055 58.1807 82.159C58.1807 81.443 57.9787 80.782 57.6482 80.2129C58.7498 80.8922 59.4842 82.1039 59.4842 83.4625Z" fill="#0082BD"/>
<path d="M58.1807 74.6125C58.1807 75.659 57.7584 76.6137 57.0791 77.2746C56.3998 77.9539 55.4635 78.3762 54.417 78.3762H27.6123C26.9146 78.3762 26.2354 78.1742 25.6662 77.8438C25.3357 77.2746 25.1338 76.6137 25.1338 75.916C25.1338 74.8695 25.5561 73.9148 26.2354 73.2539C26.9146 72.5746 27.8693 72.1523 28.8975 72.1523H55.7021C56.4182 72.1523 57.0791 72.3543 57.6299 72.6848C57.9787 73.2355 58.1807 73.9148 58.1807 74.6125ZM58.1807 82.1766C58.1807 83.223 57.7584 84.1594 57.0791 84.8387C56.3998 85.518 55.4635 85.9402 54.417 85.9402H27.6123C26.9146 85.9402 26.2537 85.7383 25.6846 85.4078C25.3357 84.857 25.1521 84.1777 25.1521 83.4801C25.1521 82.4336 25.5744 81.4789 26.2537 80.818C26.933 80.1387 27.8877 79.7164 28.9158 79.7164H55.7205C56.4365 79.7164 57.0975 79.9184 57.6482 80.2488C57.9787 80.7813 58.1807 81.4605 58.1807 82.1766Z" fill="#48BBED"/>
<path d="M52.6727 87.2441V89.025C52.6727 91.6687 50.5246 93.8168 47.8809 93.8168H36.7367C35.066 93.8168 33.5789 92.9539 32.7344 91.6504C33.4871 92.1645 34.3867 92.4582 35.3781 92.4582H46.5223C49.166 92.4582 51.3141 90.3102 51.3141 87.6664V87.2441H52.6727Z" fill="#0082BD"/>
<path d="M51.3143 87.243V87.6652C51.3143 90.309 49.1662 92.457 46.5225 92.457H35.3783C34.4053 92.457 33.4873 92.1633 32.7346 91.6492C32.2205 90.8965 31.9268 89.9969 31.9268 89.0055V87.2246H51.3143V87.243Z" fill="#48BBED"/>
</svg>
