<svg width="92" height="92" viewBox="0 0 92 92" fill="none" xmlns="http://www.w3.org/2000/svg">
<path d="M9.56148 6.62825C7.88464 7.2674 7.1463 8.00573 6.50751 9.68258C6.36251 10.0623 5.82812 10.0623 5.68311 9.68258C5.0436 8.00573 4.30598 7.2674 2.62878 6.62825C2.24874 6.48324 2.24874 5.94885 2.62878 5.8042C4.30598 5.16469 5.0436 4.42672 5.68311 2.74987C5.82812 2.36983 6.36251 2.36983 6.50751 2.74987C7.1463 4.42672 7.88464 5.16469 9.56148 5.8042C9.94116 5.94867 9.94116 6.48324 9.56148 6.62825Z" fill="#3FC4C1"/>
<path d="M89.6554 4.19984V74.4099C89.6554 75.4371 88.8229 76.2738 87.7918 76.2738H31.522C30.4987 76.2738 29.6577 75.4371 29.6577 74.4099V4.19984C29.6577 3.16879 30.4987 2.33594 31.522 2.33594H87.7918C88.0367 2.33568 88.2791 2.38371 88.5054 2.4773C88.7316 2.57088 88.9372 2.70817 89.1103 2.8813C89.2834 3.05444 89.4206 3.26002 89.5142 3.48627C89.6077 3.71253 89.6557 3.95501 89.6554 4.19984Z" fill="url(#paint0_linear_1066_3654)"/>
<path d="M76.9935 29.8429V88.0739C76.9935 89.1008 76.1565 89.9378 75.13 89.9378H18.8635C17.8329 89.9378 17 89.1008 17 88.0739V17.8639C16.9997 17.6191 17.0477 17.3766 17.1412 17.1503C17.2348 16.9241 17.372 16.7185 17.5451 16.5454C17.7182 16.3722 17.9238 16.2349 18.15 16.1414C18.3762 16.0478 18.6187 15.9997 18.8635 16H62.3454L76.9935 29.8429Z" fill="url(#paint1_linear_1066_3654)"/>
<path d="M77.1586 29.5697H64.3791C63.9906 29.5697 63.6312 29.4525 63.336 29.2504L63.3076 29.2301L63.0444 29.008C62.702 28.6612 62.5104 28.1933 62.5112 27.706V15.7266L77.1586 29.5697Z" fill="white"/>
<path d="M68.1799 65.0469H24.9299C24.6651 65.0419 24.4128 64.9332 24.2274 64.7442C24.0419 64.5552 23.938 64.3009 23.938 64.0361C23.938 63.7713 24.0419 63.5171 24.2274 63.3281C24.4128 63.1391 24.6651 63.0304 24.9299 63.0254H68.1797C68.4445 63.0304 68.6967 63.139 68.8822 63.328C69.0677 63.517 69.1717 63.7712 69.1717 64.036C69.1717 64.3009 69.0678 64.5551 68.8824 64.7441C68.6969 64.9332 68.4447 65.0419 68.1799 65.0469ZM68.1799 70.6603H24.9299C24.6651 70.6553 24.4128 70.5466 24.2274 70.3576C24.0419 70.1686 23.938 69.9144 23.938 69.6496C23.938 69.3848 24.0419 69.1305 24.2274 68.9415C24.4128 68.7525 24.6651 68.6438 24.9299 68.6388H68.1797C68.3125 68.6388 68.4439 68.6649 68.5666 68.7157C68.6892 68.7665 68.8006 68.8409 68.8945 68.9348C68.9884 69.0287 69.0628 69.1401 69.1136 69.2627C69.1644 69.3854 69.1905 69.5168 69.1905 69.6496C69.1905 69.7823 69.1644 69.9137 69.1136 70.0364C69.0628 70.159 68.9884 70.2704 68.8946 70.3643C68.8007 70.4581 68.6893 70.5326 68.5667 70.5834C68.4441 70.6342 68.3126 70.6603 68.1799 70.6603ZM68.1799 76.2737H24.9299C24.6651 76.2688 24.4128 76.1601 24.2274 75.9711C24.0419 75.7821 23.938 75.5278 23.938 75.263C23.938 74.9982 24.0419 74.744 24.2274 74.5549C24.4128 74.3659 24.6651 74.2573 24.9299 74.2523H68.1797C68.738 74.2523 69.1905 74.7047 69.1905 75.263C69.1905 75.8213 68.7382 76.2737 68.1799 76.2737Z" fill="white"/>
<path d="M77.1586 29.5693V42.9487L63.3359 29.25C63.6433 29.4595 64.007 29.5708 64.379 29.5693H77.1586Z" fill="#FFA800"/>
<path d="M89.6554 41.3314V74.4108C89.6554 75.4381 88.8229 76.2747 87.7919 76.2747H77.1587V29.5703L89.6554 41.3314Z" fill="#FF8400"/>
<path d="M28.3145 52.0543L36.942 53.377C37.4505 53.4546 37.8882 53.0172 37.8106 52.5087L36.4875 43.8809L28.3145 52.0543Z" fill="white"/>
<path d="M12.2247 19.6186C9.96762 17.3615 6.30864 17.3615 4.05177 19.6186H4.05141C1.79471 21.8753 1.79471 25.5346 4.05141 27.7915H4.05177L28.3144 52.0541L36.4873 43.8809L12.2247 19.6186Z" fill="#3FC4C1"/>
<path d="M39.8098 52.1998L38.4878 43.5723L38.3867 42.9205L37.9179 42.4521L17.1652 21.6953V24.5577L36.4865 43.8794L37.8084 52.5069C37.8255 52.6151 37.8189 52.7257 37.7892 52.8311C37.7595 52.9365 37.7073 53.0342 37.6363 53.1176C37.5653 53.2009 37.477 53.2679 37.3776 53.314C37.2783 53.36 37.1701 53.384 37.0606 53.3843C37.0201 53.3843 36.9795 53.3805 36.9434 53.3766L28.3155 52.0542L17.165 40.9037V43.7618L26.8843 53.4815L27.3535 53.9503L28.0081 54.0515L36.6356 55.3734C36.7774 55.398 36.9192 55.4058 37.0606 55.4058C37.8692 55.4058 38.6413 55.0541 39.1708 54.4355C39.7005 53.8207 39.9313 53.0041 39.8098 52.1998Z" fill="#FFA800"/>
<defs>
<linearGradient id="paint0_linear_1066_3654" x1="59.6565" y1="2.33594" x2="59.6565" y2="76.2738" gradientUnits="userSpaceOnUse">
<stop stop-color="#CFA703"/>
<stop offset="1" stop-color="#FDD947"/>
</linearGradient>
<linearGradient id="paint1_linear_1066_3654" x1="46.9968" y1="16" x2="46.9968" y2="89.9378" gradientUnits="userSpaceOnUse">
<stop stop-color="#CDA500"/>
<stop offset="1" stop-color="#FFDB4A"/>
</linearGradient>
</defs>
</svg>
