<svg width="28" height="28" viewBox="0 0 28 28" fill="none" xmlns="http://www.w3.org/2000/svg">
<path d="M14 0L14.6789 9.71343L18.3262 0.685208L15.9703 10.133L22.229 2.67376L17.0688 10.9312L25.3262 5.77101L17.867 12.0297L27.3148 9.67376L18.2866 13.3211L28 14L18.2866 14.6789L27.3148 18.3262L17.867 15.9703L25.3262 22.229L17.0688 17.0688L22.229 25.3262L15.9703 17.867L18.3262 27.3148L14.6789 18.2866L14 28L13.3211 18.2866L9.67376 27.3148L12.0297 17.867L5.77101 25.3262L10.9312 17.0688L2.67376 22.229L10.133 15.9703L0.685208 18.3262L9.71343 14.6789L0 14L9.71343 13.3211L0.685208 9.67376L10.133 12.0297L2.67376 5.77101L10.9312 10.9312L5.77101 2.67376L12.0297 10.133L9.67376 0.685208L13.3211 9.71343L14 0Z" fill="#FFD700"/>
</svg>
