<svg width="80" height="80" viewBox="0 0 80 80" fill="none" xmlns="http://www.w3.org/2000/svg">
<circle cx="40" cy="40" r="39.5" fill="white" stroke="#CB97E7"/>
<path d="M47.8489 33.4763L40.0003 69L13.9941 55.7647V24.2354L47.8489 33.4763Z" fill="#CB97E7"/>
<path d="M66.0062 24.2354V55.7647L40 69V37.4706L46.5509 27.8376L66.0062 24.2354Z" fill="#D9B1EE"/>
<path d="M66.0065 24.2353L40.0003 37.4705L13.9941 24.2353L40.0003 11L66.0065 24.2353Z" fill="#E5CAF3"/>
<path d="M40.0006 18.8574L29.4326 24.2354L40.0006 29.6135L43.1699 24.2354L40.0006 18.8574Z" fill="#D9B1EE"/>
<path d="M40 18.8574L50.568 24.2354L40 29.6135V18.8574Z" fill="#CB97E7"/>
<path d="M22.1631 37.5581V50.7568L28.7619 49.5572L31.8316 44.8285V42.4781L22.1631 37.5581Z" fill="#D9B1EE"/>
<path d="M22.1631 50.7565L31.8316 55.6765V44.8281L22.1631 50.7565Z" fill="#E5CAF3"/>
<path d="M57.8375 37.5581V50.7567L51.2385 49.5572L48.1689 44.8285V42.4781L57.8375 37.5581Z" fill="#CB97E7"/>
<path d="M57.8375 50.7565L48.1689 55.6765V44.8281L57.8375 50.7565Z" fill="#E5CAF3"/>
</svg>
