<svg width="293" height="310" viewBox="0 0 293 310" fill="none" xmlns="http://www.w3.org/2000/svg">
<mask id="mask0_441_3252" style="mask-type:alpha" maskUnits="userSpaceOnUse" x="0" y="0" width="294" height="391">
<rect x="0.55957" y="390.943" width="390.944" height="293.283" transform="rotate(-90 0.55957 390.943)" fill="white"/>
</mask>
<g mask="url(#mask0_441_3252)">
<path d="M245.13 146.604C272.126 146.604 294.011 168.483 294.011 195.472L245.13 195.472L245.13 146.604Z" fill="#3699FF"/>
<path d="M196.251 48.8684C196.251 75.8572 174.366 97.7363 147.37 97.7363L147.37 48.8684L196.251 48.8684Z" fill="#D6DA34"/>
<path d="M304.443 195.118C304.443 227.915 277.865 254.502 245.08 254.502L245.08 195.118L304.443 195.118Z" fill="#6ED47C"/>
<path d="M270.077 195.472C270.077 209.246 258.908 220.411 245.131 220.411L245.131 195.472L270.077 195.472Z" fill="#D5E155"/>
<path d="M25.2441 0.732624L25.2441 25.1666C25.2441 38.661 36.1864 49.6006 49.6844 49.6006L49.6844 25.1666C49.6844 11.6722 38.7421 0.732623 25.2441 0.732624Z" fill="#6ED47C"/>
<path d="M220.69 146.604L220.69 122.293C220.69 108.73 231.633 97.7356 245.131 97.7356L245.131 122.046C245.131 135.609 234.188 146.604 220.69 146.604Z" fill="#6ED47C"/>
<path d="M294.011 97.7363L245.131 97.7363C218.135 97.7363 196.25 75.8572 196.25 48.8684L245.131 48.8684C272.126 48.8684 294.011 70.7475 294.011 97.7363Z" fill="#6ED47C"/>
<path d="M244.962 73.3018L220.729 73.3018C207.21 73.3018 196.25 62.3622 196.25 48.8678L220.483 48.8678C234.002 48.8678 244.962 59.8074 244.962 73.3018Z" fill="#2D3652"/>
<path d="M196.081 112.228C187.982 112.228 181.417 105.664 181.417 97.5671C181.417 89.4702 187.982 82.9068 196.081 82.9068C204.18 82.9068 210.745 89.4702 210.745 97.5671C210.745 105.664 204.18 112.228 196.081 112.228Z" fill="#FF743C"/>
<path d="M196.166 104.813C192.117 104.813 188.834 101.532 188.834 97.4833C188.834 93.435 192.117 90.1531 196.166 90.1531C200.215 90.1531 203.498 93.435 203.498 97.4833C203.498 101.532 200.215 104.813 196.166 104.813Z" fill="#FFC700"/>
<path d="M122.761 48.8684C109.263 48.8684 98.3203 59.8079 98.3203 73.3023C98.3203 86.7967 109.263 97.7363 122.761 97.7363C136.258 97.7363 147.201 86.7967 147.201 73.3023L147.201 48.8684L122.761 48.8684Z" fill="#FF743C"/>
<path d="M49.3223 49.4864L66.9899 49.4864C76.7474 49.4864 84.6576 57.3992 84.6576 67.1602L66.9899 67.1602C57.2324 67.1602 49.3223 59.2473 49.3223 49.4864Z" fill="#A04AE3"/>
<path d="M134.559 48.868C127.578 48.868 121.918 54.5263 121.918 61.5065C121.918 68.4862 127.578 74.1445 134.559 74.1445C141.541 74.1445 147.201 68.4862 147.201 61.5065L147.201 48.868L134.559 48.868Z" fill="#FFC700"/>
<path d="M269.571 146.604C256.073 146.604 245.131 135.664 245.131 122.17C245.131 108.675 256.073 97.7356 269.571 97.7356C283.069 97.7356 294.011 108.675 294.011 122.17C294.011 135.664 283.069 146.604 269.571 146.604Z" fill="#FF743C"/>
<path d="M269.318 135.651C261.824 135.651 255.749 129.578 255.749 122.086C255.749 114.595 261.824 108.521 269.318 108.521C276.811 108.521 282.886 114.595 282.886 122.086C282.886 129.578 276.811 135.651 269.318 135.651Z" fill="#2D3652"/>
<path d="M98.3209 49.0359C71.3252 49.0359 49.4404 27.1568 49.4404 0.167969L98.3209 0.167967L98.3209 49.0359Z" fill="#FF743C"/>
<path d="M196.082 0.168169C196.082 27.157 174.197 49.0361 147.201 49.0361L147.201 0.168171L196.082 0.168169Z" fill="#3699FF"/>
<path d="M147.201 49.0359C120.205 49.0359 98.3203 27.1568 98.3203 0.167969L147.201 0.167967L147.201 49.0359Z" fill="#6ED47C"/>
<path d="M147.201 25.1075C133.423 25.1075 122.255 13.9419 122.255 0.167969L147.201 0.167968L147.201 25.1075Z" fill="#D5E155"/>
<path d="M269.647 48.868C283.145 48.868 294.087 37.9284 294.087 24.434C294.087 10.9396 283.145 4.78306e-07 269.647 1.06831e-06C256.149 1.65832e-06 245.207 10.9396 245.207 24.434L245.207 48.868L269.647 48.868Z" fill="#FFC700"/>
<path d="M257.848 48.8673C264.829 48.8673 270.489 43.209 270.489 36.2288C270.489 29.2491 264.829 23.5908 257.848 23.5908C250.866 23.5908 245.206 29.2492 245.206 36.2288L245.206 48.8673L257.848 48.8673Z" fill="#FF743C"/>
<path d="M196.081 24.6019C196.081 11.1076 207.023 0.167968 220.521 0.167968C234.019 0.167967 244.962 11.1075 244.962 24.6019C244.962 38.0963 234.019 49.0359 220.521 49.0359C207.023 49.0359 196.081 38.0963 196.081 24.6019Z" fill="#FF743C"/>
<path d="M207.037 24.3492C207.037 16.8576 213.112 10.7842 220.606 10.7842C228.099 10.7842 234.174 16.8576 234.174 24.3492C234.174 31.8408 228.099 37.9143 220.606 37.9143C213.112 37.9143 207.037 31.8408 207.037 24.3492Z" fill="#2D3652"/>
<path d="M209.744 217.033L209.744 181.686C209.744 162.164 225.564 146.338 245.079 146.338L245.079 181.686C245.079 201.207 229.259 217.033 209.744 217.033Z" fill="#A04AE3"/>
<path d="M227.412 181.687L227.412 164.102C227.412 154.292 235.322 146.339 245.08 146.339L245.08 163.923C245.08 173.734 237.17 181.687 227.412 181.687Z" fill="#6ED47C"/>
</g>
</svg>
