<svg width="343" height="142" viewBox="0 0 343 142" fill="none" xmlns="http://www.w3.org/2000/svg">
<path d="M25.1962 53V34.8H29.6162V49.1H37.7282V53H25.1962ZM46.6681 53.26C45.1428 53.26 43.8168 52.9567 42.6901 52.35C41.5635 51.726 40.6881 50.8853 40.0641 49.828C39.4401 48.7533 39.1281 47.5313 39.1281 46.162C39.1281 45.1047 39.3015 44.134 39.6481 43.25C39.9948 42.366 40.4801 41.6033 41.1041 40.962C41.7281 40.3033 42.4648 39.8007 43.3141 39.454C44.1808 39.09 45.1255 38.908 46.1481 38.908C47.1188 38.908 48.0028 39.0813 48.8001 39.428C49.6148 39.7747 50.3168 40.26 50.9061 40.884C51.4955 41.508 51.9461 42.2447 52.2581 43.094C52.5701 43.9433 52.7088 44.8707 52.6741 45.876L52.6481 46.994H41.6501L41.0521 44.654H49.2681L48.8261 45.148V44.628C48.7915 44.1947 48.6528 43.8133 48.4101 43.484C48.1848 43.1373 47.8815 42.8687 47.5001 42.678C47.1188 42.4873 46.6855 42.392 46.2001 42.392C45.5241 42.392 44.9435 42.5307 44.4581 42.808C43.9901 43.068 43.6348 43.458 43.3921 43.978C43.1495 44.4807 43.0281 45.1047 43.0281 45.85C43.0281 46.6127 43.1841 47.28 43.4961 47.852C43.8255 48.4067 44.2935 48.84 44.9001 49.152C45.5241 49.464 46.2608 49.62 47.1101 49.62C47.6995 49.62 48.2195 49.5333 48.6701 49.36C49.1381 49.1867 49.6408 48.892 50.1781 48.476L52.1281 51.232C51.5908 51.7 51.0188 52.0813 50.4121 52.376C49.8055 52.6707 49.1815 52.8873 48.5401 53.026C47.9161 53.182 47.2921 53.26 46.6681 53.26ZM60.4205 53.234C59.2592 53.234 58.2192 52.9307 57.3005 52.324C56.3992 51.7 55.6798 50.8507 55.1425 49.776C54.6052 48.684 54.3365 47.4533 54.3365 46.084C54.3365 44.68 54.6052 43.4407 55.1425 42.366C55.6798 41.2913 56.4165 40.4507 57.3525 39.844C58.2885 39.22 59.3545 38.908 60.5505 38.908C61.2092 38.908 61.8072 39.0033 62.3445 39.194C62.8992 39.3847 63.3845 39.6533 63.8005 40C64.2165 40.3293 64.5718 40.7193 64.8665 41.17C65.1612 41.6033 65.3778 42.0713 65.5165 42.574L64.6585 42.47V39.194H68.7925V53H64.5805V49.672L65.5165 49.646C65.3778 50.1313 65.1525 50.5907 64.8405 51.024C64.5285 51.4573 64.1472 51.8387 63.6965 52.168C63.2458 52.4973 62.7432 52.7573 62.1885 52.948C61.6338 53.1387 61.0445 53.234 60.4205 53.234ZM61.5645 49.724C62.2058 49.724 62.7605 49.5767 63.2285 49.282C63.6965 48.9873 64.0605 48.5713 64.3205 48.034C64.5805 47.4793 64.7105 46.8293 64.7105 46.084C64.7105 45.3387 64.5805 44.6973 64.3205 44.16C64.0605 43.6053 63.6965 43.1807 63.2285 42.886C62.7605 42.574 62.2058 42.418 61.5645 42.418C60.9405 42.418 60.3945 42.574 59.9265 42.886C59.4758 43.1807 59.1205 43.6053 58.8605 44.16C58.6005 44.6973 58.4705 45.3387 58.4705 46.084C58.4705 46.8293 58.6005 47.4793 58.8605 48.034C59.1205 48.5713 59.4758 48.9873 59.9265 49.282C60.3945 49.5767 60.9405 49.724 61.5645 49.724ZM72.4632 53V39.194H76.4152L76.5972 43.692L75.8172 42.834C76.0252 42.0887 76.3632 41.4213 76.8312 40.832C77.3165 40.2427 77.8799 39.7747 78.5212 39.428C79.1625 39.0813 79.8472 38.908 80.5752 38.908C80.8872 38.908 81.1732 38.934 81.4332 38.986C81.7105 39.038 81.9619 39.0987 82.1872 39.168L81.0432 43.77C80.8525 43.6487 80.5925 43.5533 80.2632 43.484C79.9512 43.3973 79.6219 43.354 79.2752 43.354C78.8939 43.354 78.5385 43.4233 78.2092 43.562C77.8799 43.6833 77.6025 43.8653 77.3772 44.108C77.1519 44.3507 76.9699 44.6367 76.8312 44.966C76.7099 45.2953 76.6492 45.668 76.6492 46.084V53H72.4632ZM84.2952 53V39.194H88.2472L88.3772 42.002L87.5452 42.314C87.7359 41.69 88.0739 41.1267 88.5592 40.624C89.0619 40.104 89.6599 39.688 90.3532 39.376C91.0466 39.064 91.7746 38.908 92.5372 38.908C93.5772 38.908 94.4526 39.1247 95.1632 39.558C95.8739 39.974 96.4112 40.6067 96.7752 41.456C97.1392 42.288 97.3212 43.3107 97.3212 44.524V53H93.1352V44.862C93.1352 44.3073 93.0572 43.848 92.9012 43.484C92.7452 43.12 92.5026 42.8513 92.1732 42.678C91.8612 42.4873 91.4712 42.4007 91.0032 42.418C90.6392 42.418 90.3012 42.4787 89.9892 42.6C89.6772 42.704 89.4086 42.8687 89.1832 43.094C88.9579 43.302 88.7759 43.5447 88.6372 43.822C88.5159 44.0993 88.4552 44.4027 88.4552 44.732V53H86.4012C85.9159 53 85.4999 53 85.1532 53C84.8066 53 84.5206 53 84.2952 53ZM101.033 53V39.194H105.193V53H101.033ZM103.113 36.464C102.333 36.464 101.718 36.282 101.267 35.918C100.834 35.5367 100.617 34.9993 100.617 34.306C100.617 33.682 100.842 33.1707 101.293 32.772C101.744 32.3733 102.35 32.174 103.113 32.174C103.893 32.174 104.5 32.3647 104.933 32.746C105.366 33.11 105.583 33.63 105.583 34.306C105.583 34.9473 105.358 35.4673 104.907 35.866C104.474 36.2647 103.876 36.464 103.113 36.464ZM109.102 53V39.194H113.054L113.184 42.002L112.352 42.314C112.543 41.69 112.881 41.1267 113.366 40.624C113.869 40.104 114.467 39.688 115.16 39.376C115.853 39.064 116.581 38.908 117.344 38.908C118.384 38.908 119.259 39.1247 119.97 39.558C120.681 39.974 121.218 40.6067 121.582 41.456C121.946 42.288 122.128 43.3107 122.128 44.524V53H117.942V44.862C117.942 44.3073 117.864 43.848 117.708 43.484C117.552 43.12 117.309 42.8513 116.98 42.678C116.668 42.4873 116.278 42.4007 115.81 42.418C115.446 42.418 115.108 42.4787 114.796 42.6C114.484 42.704 114.215 42.8687 113.99 43.094C113.765 43.302 113.583 43.5447 113.444 43.822C113.323 44.0993 113.262 44.4027 113.262 44.732V53H111.208C110.723 53 110.307 53 109.96 53C109.613 53 109.327 53 109.102 53ZM131.924 58.98C130.797 58.98 129.67 58.8153 128.544 58.486C127.434 58.1567 126.533 57.732 125.84 57.212L127.296 54.3C127.66 54.5427 128.058 54.7507 128.492 54.924C128.942 55.1147 129.41 55.262 129.896 55.366C130.381 55.47 130.875 55.522 131.378 55.522C132.262 55.522 132.981 55.392 133.536 55.132C134.09 54.872 134.506 54.4733 134.784 53.936C135.061 53.416 135.2 52.7573 135.2 51.96V49.646L136.006 49.776C135.884 50.348 135.581 50.868 135.096 51.336C134.628 51.804 134.047 52.1853 133.354 52.48C132.66 52.7573 131.924 52.896 131.144 52.896C129.896 52.896 128.778 52.61 127.79 52.038C126.819 51.4487 126.048 50.6427 125.476 49.62C124.921 48.58 124.644 47.384 124.644 46.032C124.644 44.6453 124.921 43.4233 125.476 42.366C126.03 41.2913 126.793 40.4507 127.764 39.844C128.734 39.22 129.826 38.908 131.04 38.908C131.56 38.908 132.054 38.9687 132.522 39.09C133.007 39.2113 133.449 39.376 133.848 39.584C134.264 39.7747 134.628 40.0087 134.94 40.286C135.269 40.546 135.529 40.832 135.72 41.144C135.928 41.456 136.066 41.7767 136.136 42.106L135.278 42.314L135.434 39.194H139.386V51.882C139.386 53.0087 139.212 54.0053 138.866 54.872C138.536 55.756 138.042 56.5013 137.384 57.108C136.742 57.732 135.962 58.2 135.044 58.512C134.125 58.824 133.085 58.98 131.924 58.98ZM132.028 49.672C132.704 49.672 133.284 49.5247 133.77 49.23C134.272 48.918 134.654 48.4933 134.914 47.956C135.191 47.4187 135.33 46.786 135.33 46.058C135.33 45.33 135.191 44.6973 134.914 44.16C134.654 43.6053 134.272 43.1807 133.77 42.886C133.284 42.574 132.704 42.418 132.028 42.418C131.369 42.418 130.797 42.574 130.312 42.886C129.826 43.1807 129.445 43.6053 129.168 44.16C128.908 44.6973 128.778 45.33 128.778 46.058C128.778 46.786 128.908 47.4187 129.168 47.956C129.445 48.4933 129.826 48.918 130.312 49.23C130.797 49.5247 131.369 49.672 132.028 49.672ZM35.3054 86V68.71H39.4654V86H35.3054ZM32.8614 75.834V72.194H42.1434V75.834H32.8614ZM44.5208 86V66.76H48.6028V75.002L47.7708 75.314C47.9615 74.69 48.2995 74.1267 48.7848 73.624C49.2875 73.104 49.8855 72.688 50.5788 72.376C51.2721 72.064 52.0001 71.908 52.7628 71.908C53.8028 71.908 54.6781 72.1247 55.3888 72.558C56.0995 72.974 56.6368 73.6067 57.0008 74.456C57.3648 75.288 57.5468 76.3107 57.5468 77.524V86H53.3608V77.862C53.3608 77.3073 53.2828 76.848 53.1268 76.484C52.9708 76.12 52.7281 75.8513 52.3988 75.678C52.0868 75.4873 51.6968 75.4007 51.2288 75.418C50.8648 75.418 50.5268 75.4787 50.2148 75.6C49.9028 75.704 49.6341 75.8687 49.4088 76.094C49.1835 76.302 49.0015 76.5447 48.8628 76.822C48.7415 77.0993 48.6808 77.4027 48.6808 77.732V86H46.6268C46.1415 86 45.7255 86 45.3788 86C45.0321 86 44.7461 86 44.5208 86ZM66.1207 86.234C64.9594 86.234 63.9194 85.9307 63.0007 85.324C62.0994 84.7 61.38 83.8507 60.8427 82.776C60.3054 81.684 60.0367 80.4533 60.0367 79.084C60.0367 77.68 60.3054 76.4407 60.8427 75.366C61.38 74.2913 62.1167 73.4507 63.0527 72.844C63.9887 72.22 65.0547 71.908 66.2507 71.908C66.9094 71.908 67.5074 72.0033 68.0447 72.194C68.5994 72.3847 69.0847 72.6533 69.5007 73C69.9167 73.3293 70.272 73.7193 70.5667 74.17C70.8614 74.6033 71.078 75.0713 71.2167 75.574L70.3587 75.47V72.194H74.4927V86H70.2807V82.672L71.2167 82.646C71.078 83.1313 70.8527 83.5907 70.5407 84.024C70.2287 84.4573 69.8474 84.8387 69.3967 85.168C68.946 85.4973 68.4434 85.7573 67.8887 85.948C67.334 86.1387 66.7447 86.234 66.1207 86.234ZM67.2647 82.724C67.906 82.724 68.4607 82.5767 68.9287 82.282C69.3967 81.9873 69.7607 81.5713 70.0207 81.034C70.2807 80.4793 70.4107 79.8293 70.4107 79.084C70.4107 78.3387 70.2807 77.6973 70.0207 77.16C69.7607 76.6053 69.3967 76.1807 68.9287 75.886C68.4607 75.574 67.906 75.418 67.2647 75.418C66.6407 75.418 66.0947 75.574 65.6267 75.886C65.176 76.1807 64.8207 76.6053 64.5607 77.16C64.3007 77.6973 64.1707 78.3387 64.1707 79.084C64.1707 79.8293 64.3007 80.4793 64.5607 81.034C64.8207 81.5713 65.176 81.9873 65.6267 82.282C66.0947 82.5767 66.6407 82.724 67.2647 82.724ZM79.3074 86V68.71H83.4674V86H79.3074ZM76.8634 75.834V72.194H86.1454V75.834H76.8634ZM97.2929 86V67.8H109.981V71.57H101.583V82.23H110.241V86H97.2929ZM99.3729 78.538V74.95H108.811V78.538H99.3729ZM113.583 86V72.194H117.535L117.665 74.69L117.119 74.716C117.327 74.2653 117.587 73.8667 117.899 73.52C118.228 73.1733 118.592 72.8873 118.991 72.662C119.407 72.4193 119.831 72.2373 120.265 72.116C120.715 71.9947 121.166 71.934 121.617 71.934C122.293 71.934 122.908 72.038 123.463 72.246C124.017 72.454 124.503 72.792 124.919 73.26C125.335 73.7107 125.664 74.326 125.907 75.106L125.257 75.054L125.465 74.638C125.69 74.222 125.976 73.8493 126.323 73.52C126.687 73.1733 127.085 72.8873 127.519 72.662C127.952 72.4193 128.403 72.2373 128.871 72.116C129.339 71.9947 129.789 71.934 130.223 71.934C131.315 71.934 132.225 72.1507 132.953 72.584C133.681 73 134.227 73.6327 134.591 74.482C134.972 75.3313 135.163 76.3627 135.163 77.576V86H130.977V77.914C130.977 77.3593 130.899 76.9 130.743 76.536C130.587 76.172 130.353 75.9033 130.041 75.73C129.746 75.5393 129.373 75.444 128.923 75.444C128.559 75.444 128.221 75.5047 127.909 75.626C127.614 75.7473 127.354 75.912 127.129 76.12C126.921 76.328 126.756 76.5707 126.635 76.848C126.513 77.1253 126.453 77.4373 126.453 77.784V86H122.267V77.888C122.267 77.368 122.189 76.926 122.033 76.562C121.877 76.198 121.643 75.9207 121.331 75.73C121.019 75.5393 120.655 75.444 120.239 75.444C119.875 75.444 119.537 75.5047 119.225 75.626C118.93 75.7473 118.67 75.912 118.445 76.12C118.237 76.328 118.072 76.5707 117.951 76.848C117.829 77.1253 117.769 77.4287 117.769 77.758V86H113.583ZM138.618 91.72V72.194H142.57L142.726 75.288L141.946 75.054C142.068 74.482 142.362 73.962 142.83 73.494C143.298 73.026 143.888 72.6533 144.598 72.376C145.326 72.0813 146.089 71.934 146.886 71.934C148.065 71.934 149.114 72.246 150.032 72.87C150.951 73.4767 151.67 74.3173 152.19 75.392C152.728 76.4493 152.996 77.68 152.996 79.084C152.996 80.4707 152.728 81.7013 152.19 82.776C151.67 83.8507 150.942 84.7 150.006 85.324C149.088 85.9307 148.03 86.234 146.834 86.234C146.054 86.234 145.309 86.0867 144.598 85.792C143.888 85.4973 143.29 85.0987 142.804 84.596C142.319 84.0933 141.998 83.5473 141.842 82.958L142.804 82.594V91.72H138.618ZM145.82 82.724C146.444 82.724 146.99 82.5767 147.458 82.282C147.926 81.97 148.29 81.5453 148.55 81.008C148.81 80.4707 148.94 79.8293 148.94 79.084C148.94 78.356 148.81 77.7233 148.55 77.186C148.29 76.6313 147.926 76.2067 147.458 75.912C147.008 75.6 146.462 75.444 145.82 75.444C145.179 75.444 144.624 75.5913 144.156 75.886C143.688 76.1807 143.324 76.6053 143.064 77.16C142.804 77.7147 142.674 78.356 142.674 79.084C142.674 79.8293 142.804 80.4707 143.064 81.008C143.324 81.5453 143.688 81.97 144.156 82.282C144.624 82.5767 145.179 82.724 145.82 82.724ZM162.257 86.26C160.818 86.26 159.536 85.948 158.409 85.324C157.3 84.7 156.416 83.8507 155.757 82.776C155.116 81.7013 154.795 80.4707 154.795 79.084C154.795 77.6973 155.116 76.4667 155.757 75.392C156.416 74.3173 157.3 73.468 158.409 72.844C159.536 72.22 160.818 71.908 162.257 71.908C163.696 71.908 164.97 72.22 166.079 72.844C167.206 73.468 168.09 74.3173 168.731 75.392C169.372 76.4667 169.693 77.6973 169.693 79.084C169.693 80.4707 169.372 81.7013 168.731 82.776C168.09 83.8507 167.206 84.7 166.079 85.324C164.97 85.948 163.696 86.26 162.257 86.26ZM162.257 82.672C162.881 82.672 163.436 82.516 163.921 82.204C164.406 81.892 164.788 81.4673 165.065 80.93C165.342 80.3927 165.472 79.7773 165.455 79.084C165.472 78.3907 165.342 77.7753 165.065 77.238C164.788 76.6833 164.406 76.25 163.921 75.938C163.436 75.626 162.881 75.47 162.257 75.47C161.633 75.47 161.07 75.626 160.567 75.938C160.082 76.25 159.7 76.6833 159.423 77.238C159.146 77.7753 159.016 78.3907 159.033 79.084C159.016 79.7773 159.146 80.3927 159.423 80.93C159.7 81.4673 160.082 81.892 160.567 82.204C161.07 82.516 161.633 82.672 162.257 82.672ZM174.922 86L170.372 72.194H174.766L177.314 81.164L176.768 81.06L179.628 74.092H182.072L185.088 81.086L184.49 81.138L187.038 72.194H191.432L186.726 86H183.658L180.668 78.59L180.98 78.642L177.99 86H174.922ZM199.786 86.26C198.261 86.26 196.935 85.9567 195.808 85.35C194.682 84.726 193.806 83.8853 193.182 82.828C192.558 81.7533 192.246 80.5313 192.246 79.162C192.246 78.1047 192.42 77.134 192.766 76.25C193.113 75.366 193.598 74.6033 194.222 73.962C194.846 73.3033 195.583 72.8007 196.432 72.454C197.299 72.09 198.244 71.908 199.266 71.908C200.237 71.908 201.121 72.0813 201.918 72.428C202.733 72.7747 203.435 73.26 204.024 73.884C204.614 74.508 205.064 75.2447 205.376 76.094C205.688 76.9433 205.827 77.8707 205.792 78.876L205.766 79.994H194.768L194.17 77.654H202.386L201.944 78.148V77.628C201.91 77.1947 201.771 76.8133 201.528 76.484C201.303 76.1373 201 75.8687 200.618 75.678C200.237 75.4873 199.804 75.392 199.318 75.392C198.642 75.392 198.062 75.5307 197.576 75.808C197.108 76.068 196.753 76.458 196.51 76.978C196.268 77.4807 196.146 78.1047 196.146 78.85C196.146 79.6127 196.302 80.28 196.614 80.852C196.944 81.4067 197.412 81.84 198.018 82.152C198.642 82.464 199.379 82.62 200.228 82.62C200.818 82.62 201.338 82.5333 201.788 82.36C202.256 82.1867 202.759 81.892 203.296 81.476L205.246 84.232C204.709 84.7 204.137 85.0813 203.53 85.376C202.924 85.6707 202.3 85.8873 201.658 86.026C201.034 86.182 200.41 86.26 199.786 86.26ZM208.443 86V72.194H212.395L212.577 76.692L211.797 75.834C212.005 75.0887 212.343 74.4213 212.811 73.832C213.296 73.2427 213.859 72.7747 214.501 72.428C215.142 72.0813 215.827 71.908 216.555 71.908C216.867 71.908 217.153 71.934 217.413 71.986C217.69 72.038 217.941 72.0987 218.167 72.168L217.023 76.77C216.832 76.6487 216.572 76.5533 216.243 76.484C215.931 76.3973 215.601 76.354 215.255 76.354C214.873 76.354 214.518 76.4233 214.189 76.562C213.859 76.6833 213.582 76.8653 213.357 77.108C213.131 77.3507 212.949 77.6367 212.811 77.966C212.689 78.2953 212.629 78.668 212.629 79.084V86H208.443ZM229.045 86V67.8H241.733V71.57H233.335V82.23H241.993V86H229.045ZM231.125 78.538V74.95H240.563V78.538H231.125ZM249.218 86L243.446 72.194H248.048L251.48 82.516L250.466 82.62L254.002 72.194H258.552L252.494 86H249.218ZM266.919 86.26C265.394 86.26 264.068 85.9567 262.941 85.35C261.814 84.726 260.939 83.8853 260.315 82.828C259.691 81.7533 259.379 80.5313 259.379 79.162C259.379 78.1047 259.552 77.134 259.899 76.25C260.246 75.366 260.731 74.6033 261.355 73.962C261.979 73.3033 262.716 72.8007 263.565 72.454C264.432 72.09 265.376 71.908 266.399 71.908C267.37 71.908 268.254 72.0813 269.051 72.428C269.866 72.7747 270.568 73.26 271.157 73.884C271.746 74.508 272.197 75.2447 272.509 76.094C272.821 76.9433 272.96 77.8707 272.925 78.876L272.899 79.994H261.901L261.303 77.654H269.519L269.077 78.148V77.628C269.042 77.1947 268.904 76.8133 268.661 76.484C268.436 76.1373 268.132 75.8687 267.751 75.678C267.37 75.4873 266.936 75.392 266.451 75.392C265.775 75.392 265.194 75.5307 264.709 75.808C264.241 76.068 263.886 76.458 263.643 76.978C263.4 77.4807 263.279 78.1047 263.279 78.85C263.279 79.6127 263.435 80.28 263.747 80.852C264.076 81.4067 264.544 81.84 265.151 82.152C265.775 82.464 266.512 82.62 267.361 82.62C267.95 82.62 268.47 82.5333 268.921 82.36C269.389 82.1867 269.892 81.892 270.429 81.476L272.379 84.232C271.842 84.7 271.27 85.0813 270.663 85.376C270.056 85.6707 269.432 85.8873 268.791 86.026C268.167 86.182 267.543 86.26 266.919 86.26ZM275.575 86V72.194H279.527L279.709 76.692L278.929 75.834C279.137 75.0887 279.475 74.4213 279.943 73.832C280.429 73.2427 280.992 72.7747 281.633 72.428C282.275 72.0813 282.959 71.908 283.687 71.908C283.999 71.908 284.285 71.934 284.545 71.986C284.823 72.038 285.074 72.0987 285.299 72.168L284.155 76.77C283.965 76.6487 283.705 76.5533 283.375 76.484C283.063 76.3973 282.734 76.354 282.387 76.354C282.006 76.354 281.651 76.4233 281.321 76.562C280.992 76.6833 280.715 76.8653 280.489 77.108C280.264 77.3507 280.082 77.6367 279.943 77.966C279.822 78.2953 279.761 78.668 279.761 79.084V86H275.575ZM289.15 91.98L292.296 84.57L292.348 86.702L285.692 72.194H290.398L293.31 79.136C293.466 79.4827 293.613 79.8553 293.752 80.254C293.89 80.6527 293.994 81.034 294.064 81.398L293.492 81.736C293.596 81.476 293.708 81.1553 293.83 80.774C293.968 80.3753 294.116 79.9507 294.272 79.5L296.82 72.194H301.552L295.676 86L293.284 91.98H289.15ZM65.723 119.26C64.3537 119.26 63.0883 119.035 61.927 118.584C60.783 118.116 59.7863 117.466 58.937 116.634C58.0877 115.785 57.429 114.788 56.961 113.644C56.5103 112.483 56.285 111.209 56.285 109.822C56.285 108.47 56.5277 107.222 57.013 106.078C57.4983 104.934 58.1657 103.946 59.015 103.114C59.8817 102.265 60.8957 101.606 62.057 101.138C63.2357 100.67 64.5183 100.436 65.905 100.436C66.7717 100.436 67.621 100.549 68.453 100.774C69.285 100.999 70.0563 101.337 70.767 101.788C71.495 102.221 72.119 102.741 72.639 103.348L69.935 106.442C69.571 106.061 69.181 105.731 68.765 105.454C68.3663 105.159 67.9243 104.934 67.439 104.778C66.9537 104.622 66.4337 104.544 65.879 104.544C65.1857 104.544 64.527 104.674 63.903 104.934C63.2963 105.177 62.759 105.532 62.291 106C61.8403 106.451 61.485 107.005 61.225 107.664C60.965 108.323 60.835 109.059 60.835 109.874C60.835 110.671 60.965 111.399 61.225 112.058C61.485 112.699 61.849 113.254 62.317 113.722C62.785 114.19 63.3483 114.545 64.007 114.788C64.683 115.031 65.4283 115.152 66.243 115.152C66.7977 115.152 67.3263 115.074 67.829 114.918C68.3317 114.762 68.791 114.554 69.207 114.294C69.6403 114.017 70.0217 113.705 70.351 113.358L72.483 116.738C72.0497 117.223 71.469 117.657 70.741 118.038C70.0303 118.419 69.233 118.723 68.349 118.948C67.4823 119.156 66.607 119.26 65.723 119.26ZM81.5657 119.26C80.1271 119.26 78.8444 118.948 77.7177 118.324C76.6084 117.7 75.7244 116.851 75.0657 115.776C74.4244 114.701 74.1037 113.471 74.1037 112.084C74.1037 110.697 74.4244 109.467 75.0657 108.392C75.7244 107.317 76.6084 106.468 77.7177 105.844C78.8444 105.22 80.1271 104.908 81.5657 104.908C83.0044 104.908 84.2784 105.22 85.3877 105.844C86.5144 106.468 87.3984 107.317 88.0397 108.392C88.6811 109.467 89.0017 110.697 89.0017 112.084C89.0017 113.471 88.6811 114.701 88.0397 115.776C87.3984 116.851 86.5144 117.7 85.3877 118.324C84.2784 118.948 83.0044 119.26 81.5657 119.26ZM81.5657 115.672C82.1897 115.672 82.7444 115.516 83.2297 115.204C83.7151 114.892 84.0964 114.467 84.3737 113.93C84.6511 113.393 84.7811 112.777 84.7637 112.084C84.7811 111.391 84.6511 110.775 84.3737 110.238C84.0964 109.683 83.7151 109.25 83.2297 108.938C82.7444 108.626 82.1897 108.47 81.5657 108.47C80.9417 108.47 80.3784 108.626 79.8757 108.938C79.3904 109.25 79.0091 109.683 78.7317 110.238C78.4544 110.775 78.3244 111.391 78.3417 112.084C78.3244 112.777 78.4544 113.393 78.7317 113.93C79.0091 114.467 79.3904 114.892 79.8757 115.204C80.3784 115.516 80.9417 115.672 81.5657 115.672ZM91.722 119V105.194H95.674L95.856 109.692L95.076 108.834C95.284 108.089 95.622 107.421 96.09 106.832C96.5753 106.243 97.1386 105.775 97.78 105.428C98.4213 105.081 99.106 104.908 99.834 104.908C100.146 104.908 100.432 104.934 100.692 104.986C100.969 105.038 101.221 105.099 101.446 105.168L100.302 109.77C100.111 109.649 99.8513 109.553 99.522 109.484C99.21 109.397 98.8806 109.354 98.534 109.354C98.1526 109.354 97.7973 109.423 97.468 109.562C97.1386 109.683 96.8613 109.865 96.636 110.108C96.4106 110.351 96.2286 110.637 96.09 110.966C95.9686 111.295 95.908 111.668 95.908 112.084V119H91.722ZM103.554 119V105.194H107.506L107.636 108.002L106.804 108.314C106.995 107.69 107.333 107.127 107.818 106.624C108.321 106.104 108.919 105.688 109.612 105.376C110.305 105.064 111.033 104.908 111.796 104.908C112.836 104.908 113.711 105.125 114.422 105.558C115.133 105.974 115.67 106.607 116.034 107.456C116.398 108.288 116.58 109.311 116.58 110.524V119H112.394V110.862C112.394 110.307 112.316 109.848 112.16 109.484C112.004 109.12 111.761 108.851 111.432 108.678C111.12 108.487 110.73 108.401 110.262 108.418C109.898 108.418 109.56 108.479 109.248 108.6C108.936 108.704 108.667 108.869 108.442 109.094C108.217 109.302 108.035 109.545 107.896 109.822C107.775 110.099 107.714 110.403 107.714 110.732V119H105.66C105.175 119 104.759 119 104.412 119C104.065 119 103.779 119 103.554 119ZM126.636 119.26C125.111 119.26 123.785 118.957 122.658 118.35C121.531 117.726 120.656 116.885 120.032 115.828C119.408 114.753 119.096 113.531 119.096 112.162C119.096 111.105 119.269 110.134 119.616 109.25C119.963 108.366 120.448 107.603 121.072 106.962C121.696 106.303 122.433 105.801 123.282 105.454C124.149 105.09 125.093 104.908 126.116 104.908C127.087 104.908 127.971 105.081 128.768 105.428C129.583 105.775 130.285 106.26 130.874 106.884C131.463 107.508 131.914 108.245 132.226 109.094C132.538 109.943 132.677 110.871 132.642 111.876L132.616 112.994H121.618L121.02 110.654H129.236L128.794 111.148V110.628C128.759 110.195 128.621 109.813 128.378 109.484C128.153 109.137 127.849 108.869 127.468 108.678C127.087 108.487 126.653 108.392 126.168 108.392C125.492 108.392 124.911 108.531 124.426 108.808C123.958 109.068 123.603 109.458 123.36 109.978C123.117 110.481 122.996 111.105 122.996 111.85C122.996 112.613 123.152 113.28 123.464 113.852C123.793 114.407 124.261 114.84 124.868 115.152C125.492 115.464 126.229 115.62 127.078 115.62C127.667 115.62 128.187 115.533 128.638 115.36C129.106 115.187 129.609 114.892 130.146 114.476L132.096 117.232C131.559 117.7 130.987 118.081 130.38 118.376C129.773 118.671 129.149 118.887 128.508 119.026C127.884 119.182 127.26 119.26 126.636 119.26ZM135.292 119V105.194H139.244L139.426 109.692L138.646 108.834C138.854 108.089 139.192 107.421 139.66 106.832C140.146 106.243 140.709 105.775 141.35 105.428C141.992 105.081 142.676 104.908 143.404 104.908C143.716 104.908 144.002 104.934 144.262 104.986C144.54 105.038 144.791 105.099 145.016 105.168L143.872 109.77C143.682 109.649 143.422 109.553 143.092 109.484C142.78 109.397 142.451 109.354 142.104 109.354C141.723 109.354 141.368 109.423 141.038 109.562C140.709 109.683 140.432 109.865 140.206 110.108C139.981 110.351 139.799 110.637 139.66 110.966C139.539 111.295 139.478 111.668 139.478 112.084V119H135.292ZM161.952 119.26C160.514 119.26 159.231 118.948 158.104 118.324C156.995 117.7 156.111 116.851 155.452 115.776C154.811 114.701 154.49 113.471 154.49 112.084C154.49 110.697 154.811 109.467 155.452 108.392C156.111 107.317 156.995 106.468 158.104 105.844C159.231 105.22 160.514 104.908 161.952 104.908C163.391 104.908 164.665 105.22 165.774 105.844C166.901 106.468 167.785 107.317 168.426 108.392C169.068 109.467 169.388 110.697 169.388 112.084C169.388 113.471 169.068 114.701 168.426 115.776C167.785 116.851 166.901 117.7 165.774 118.324C164.665 118.948 163.391 119.26 161.952 119.26ZM161.952 115.672C162.576 115.672 163.131 115.516 163.616 115.204C164.102 114.892 164.483 114.467 164.76 113.93C165.038 113.393 165.168 112.777 165.15 112.084C165.168 111.391 165.038 110.775 164.76 110.238C164.483 109.683 164.102 109.25 163.616 108.938C163.131 108.626 162.576 108.47 161.952 108.47C161.328 108.47 160.765 108.626 160.262 108.938C159.777 109.25 159.396 109.683 159.118 110.238C158.841 110.775 158.711 111.391 158.728 112.084C158.711 112.777 158.841 113.393 159.118 113.93C159.396 114.467 159.777 114.892 160.262 115.204C160.765 115.516 161.328 115.672 161.952 115.672ZM172.459 119V104.518C172.459 103.617 172.65 102.802 173.031 102.074C173.43 101.346 173.976 100.774 174.669 100.358C175.38 99.9247 176.203 99.708 177.139 99.708C177.798 99.708 178.404 99.8033 178.959 99.994C179.514 100.185 180.008 100.453 180.441 100.8L179.245 103.842C179.02 103.721 178.803 103.625 178.595 103.556C178.387 103.487 178.196 103.452 178.023 103.452C177.711 103.452 177.451 103.504 177.243 103.608C177.035 103.712 176.879 103.877 176.775 104.102C176.688 104.31 176.645 104.57 176.645 104.882V119H174.565C174.097 119 173.681 119 173.317 119C172.97 119 172.684 119 172.459 119ZM170.457 109.016V105.584H179.479V109.016H170.457Z" fill="#141219"/>
<path d="M156.812 38.258L156.162 42.054H162.116L161.518 45.408H155.564L154.836 49.49H161.57L160.946 53H149.766L152.99 34.748H164.17L163.546 38.258H156.812ZM173.687 45.824L177.405 53H172.413L170.333 48.996L167.291 53H162.481L168.565 45.59L164.899 38.492H169.891L171.971 42.522L175.013 38.492H179.823L173.687 45.824ZM185.748 40.546C186.303 39.87 186.996 39.324 187.828 38.908C188.677 38.492 189.613 38.284 190.636 38.284C192.196 38.284 193.453 38.7953 194.406 39.818C195.377 40.8407 195.862 42.2273 195.862 43.978C195.862 44.5153 195.81 45.096 195.706 45.72C195.446 47.2107 194.935 48.528 194.172 49.672C193.409 50.7987 192.491 51.674 191.416 52.298C190.341 52.9047 189.206 53.208 188.01 53.208C187.005 53.208 186.155 53 185.462 52.584C184.769 52.168 184.257 51.6307 183.928 50.972L182.342 59.916H177.896L181.666 38.492H186.112L185.748 40.546ZM191.208 45.72C191.26 45.4253 191.286 45.1567 191.286 44.914C191.286 44.0473 191.035 43.3713 190.532 42.886C190.047 42.4007 189.423 42.158 188.66 42.158C187.776 42.158 186.97 42.4787 186.242 43.12C185.514 43.7613 185.046 44.6367 184.838 45.746C184.786 46.058 184.76 46.344 184.76 46.604C184.76 47.4533 185.003 48.1207 185.488 48.606C185.973 49.0913 186.597 49.334 187.36 49.334C188.244 49.334 189.05 49.0133 189.778 48.372C190.523 47.7133 191 46.8293 191.208 45.72ZM205.813 38.284C207.685 38.284 209.167 38.7953 210.259 39.818C211.368 40.8233 211.923 42.2013 211.923 43.952C211.923 44.524 211.879 45.0353 211.793 45.486C211.723 45.8847 211.619 46.3093 211.481 46.76H201.419C201.401 46.864 201.393 47.0287 201.393 47.254C201.393 48.0167 201.601 48.5973 202.017 48.996C202.433 49.3947 202.987 49.594 203.681 49.594C204.79 49.594 205.639 49.126 206.229 48.19H210.961C210.337 49.6633 209.323 50.868 207.919 51.804C206.515 52.74 204.937 53.208 203.187 53.208C201.315 53.208 199.815 52.688 198.689 51.648C197.579 50.608 197.025 49.1953 197.025 47.41C197.025 46.8727 197.077 46.318 197.181 45.746C197.441 44.238 197.978 42.9207 198.793 41.794C199.607 40.6673 200.621 39.8007 201.835 39.194C203.048 38.5873 204.374 38.284 205.813 38.284ZM207.425 44.498C207.459 44.2553 207.477 44.0907 207.477 44.004C207.477 43.3107 207.26 42.782 206.827 42.418C206.393 42.0367 205.821 41.846 205.111 41.846C204.348 41.846 203.672 42.08 203.083 42.548C202.511 42.9987 202.095 43.6487 201.835 44.498H207.425ZM219.312 41.118C219.988 40.2513 220.759 39.5753 221.626 39.09C222.51 38.5873 223.429 38.336 224.382 38.336L223.55 43.042H222.328C221.219 43.042 220.343 43.2847 219.702 43.77C219.061 44.238 218.636 45.07 218.428 46.266L217.232 53H212.786L215.334 38.492H219.78L219.312 41.118ZM228.977 36.984C228.284 36.984 227.729 36.802 227.313 36.438C226.914 36.0567 226.715 35.58 226.715 35.008C226.715 34.228 227.018 33.5607 227.625 33.006C228.232 32.4513 228.968 32.174 229.835 32.174C230.528 32.174 231.074 32.3647 231.473 32.746C231.872 33.11 232.071 33.5867 232.071 34.176C232.071 34.9387 231.768 35.5973 231.161 36.152C230.554 36.7067 229.826 36.984 228.977 36.984ZM230.901 38.492L228.353 53H223.907L226.455 38.492H230.901ZM240.623 38.284C242.495 38.284 243.977 38.7953 245.069 39.818C246.178 40.8233 246.733 42.2013 246.733 43.952C246.733 44.524 246.69 45.0353 246.603 45.486C246.534 45.8847 246.43 46.3093 246.291 46.76H236.229C236.212 46.864 236.203 47.0287 236.203 47.254C236.203 48.0167 236.411 48.5973 236.827 48.996C237.243 49.3947 237.798 49.594 238.491 49.594C239.6 49.594 240.45 49.126 241.039 48.19H245.771C245.147 49.6633 244.133 50.868 242.729 51.804C241.325 52.74 239.748 53.208 237.997 53.208C236.125 53.208 234.626 52.688 233.499 51.648C232.39 50.608 231.835 49.1953 231.835 47.41C231.835 46.8727 231.887 46.318 231.991 45.746C232.251 44.238 232.788 42.9207 233.603 41.794C234.418 40.6673 235.432 39.8007 236.645 39.194C237.858 38.5873 239.184 38.284 240.623 38.284ZM242.235 44.498C242.27 44.2553 242.287 44.0907 242.287 44.004C242.287 43.3107 242.07 42.782 241.637 42.418C241.204 42.0367 240.632 41.846 239.921 41.846C239.158 41.846 238.482 42.08 237.893 42.548C237.321 42.9987 236.905 43.6487 236.645 44.498H242.235ZM259.011 38.336C260.467 38.336 261.611 38.7433 262.443 39.558C263.275 40.3727 263.691 41.508 263.691 42.964C263.691 43.4493 263.639 43.9693 263.535 44.524L262.027 53H257.607L259.011 45.122C259.063 44.8273 259.089 44.5673 259.089 44.342C259.089 43.614 258.881 43.0507 258.465 42.652C258.066 42.2533 257.503 42.054 256.775 42.054C255.908 42.054 255.18 42.3227 254.591 42.86C254.001 43.3973 253.62 44.1513 253.447 45.122V44.992L252.043 53H247.597L250.145 38.492H254.591L254.253 40.442C254.825 39.8007 255.518 39.2893 256.333 38.908C257.165 38.5267 258.057 38.336 259.011 38.336ZM265.532 45.746C265.792 44.238 266.329 42.9207 267.144 41.794C267.959 40.6673 268.964 39.8007 270.16 39.194C271.373 38.5873 272.691 38.284 274.112 38.284C275.932 38.284 277.371 38.7607 278.428 39.714C279.485 40.6673 280.049 42.0107 280.118 43.744H275.386C275.195 42.6347 274.519 42.08 273.358 42.08C272.543 42.08 271.841 42.4007 271.252 43.042C270.663 43.666 270.264 44.5673 270.056 45.746C269.987 46.11 269.952 46.4913 269.952 46.89C269.952 47.7047 270.143 48.3287 270.524 48.762C270.905 49.1953 271.425 49.412 272.084 49.412C273.228 49.412 274.086 48.8573 274.658 47.748H279.416C278.74 49.4467 277.7 50.7813 276.296 51.752C274.892 52.7227 273.289 53.208 271.486 53.208C269.614 53.208 268.123 52.6967 267.014 51.674C265.922 50.634 265.376 49.2213 265.376 47.436C265.376 46.8987 265.428 46.3353 265.532 45.746ZM289.906 38.284C291.778 38.284 293.26 38.7953 294.352 39.818C295.462 40.8233 296.016 42.2013 296.016 43.952C296.016 44.524 295.973 45.0353 295.886 45.486C295.817 45.8847 295.713 46.3093 295.574 46.76H285.512C285.495 46.864 285.486 47.0287 285.486 47.254C285.486 48.0167 285.694 48.5973 286.11 48.996C286.526 49.3947 287.081 49.594 287.774 49.594C288.884 49.594 289.733 49.126 290.322 48.19H295.054C294.43 49.6633 293.416 50.868 292.012 51.804C290.608 52.74 289.031 53.208 287.28 53.208C285.408 53.208 283.909 52.688 282.782 51.648C281.673 50.608 281.118 49.1953 281.118 47.41C281.118 46.8727 281.17 46.318 281.274 45.746C281.534 44.238 282.072 42.9207 282.886 41.794C283.701 40.6673 284.715 39.8007 285.928 39.194C287.142 38.5873 288.468 38.284 289.906 38.284ZM291.518 44.498C291.553 44.2553 291.57 44.0907 291.57 44.004C291.57 43.3107 291.354 42.782 290.92 42.418C290.487 42.0367 289.915 41.846 289.204 41.846C288.442 41.846 287.766 42.08 287.176 42.548C286.604 42.9987 286.188 43.6487 285.928 44.498H291.518ZM302.912 53.208C301.768 53.208 300.736 53.026 299.818 52.662C298.916 52.298 298.206 51.7953 297.686 51.154C297.166 50.4953 296.906 49.7413 296.906 48.892C296.906 48.7707 296.923 48.554 296.958 48.242H301.248C301.213 48.7793 301.369 49.2127 301.716 49.542C302.08 49.854 302.591 50.01 303.25 50.01C303.804 50.01 304.264 49.906 304.628 49.698C304.992 49.49 305.174 49.1953 305.174 48.814C305.174 48.45 304.974 48.164 304.576 47.956C304.194 47.7307 303.553 47.462 302.652 47.15C301.716 46.838 300.927 46.5347 300.286 46.24C299.662 45.928 299.124 45.486 298.674 44.914C298.223 44.342 297.998 43.6227 297.998 42.756C297.998 41.9067 298.249 41.144 298.752 40.468C299.254 39.7747 299.956 39.2373 300.858 38.856C301.776 38.4747 302.834 38.284 304.03 38.284C305.226 38.284 306.266 38.4833 307.15 38.882C308.034 39.2633 308.718 39.8007 309.204 40.494C309.689 41.1873 309.932 41.9673 309.932 42.834L309.906 43.224H305.876C305.91 42.704 305.754 42.288 305.408 41.976C305.061 41.664 304.567 41.508 303.926 41.508C303.423 41.508 303.007 41.612 302.678 41.82C302.366 42.028 302.21 42.314 302.21 42.678C302.21 43.0593 302.418 43.38 302.834 43.64C303.267 43.8827 303.934 44.16 304.836 44.472C305.772 44.784 306.543 45.096 307.15 45.408C307.774 45.7027 308.302 46.1273 308.736 46.682C309.186 47.2193 309.412 47.8953 309.412 48.71C309.412 49.646 309.126 50.452 308.554 51.128C307.999 51.804 307.228 52.324 306.24 52.688C305.269 53.0347 304.16 53.208 302.912 53.208Z" fill="url(#paint0_linear_467_2928)"/>
<path d="M190.578 119V100.8H198.612C199.86 100.8 200.917 100.982 201.784 101.346C202.651 101.693 203.301 102.204 203.734 102.88C204.185 103.539 204.41 104.336 204.41 105.272C204.41 106.312 204.15 107.187 203.63 107.898C203.127 108.609 202.391 109.085 201.42 109.328L201.368 108.834C202.183 109.007 202.885 109.311 203.474 109.744C204.081 110.177 204.549 110.715 204.878 111.356C205.207 111.98 205.372 112.691 205.372 113.488C205.372 114.407 205.216 115.213 204.904 115.906C204.592 116.582 204.141 117.154 203.552 117.622C202.963 118.09 202.269 118.437 201.472 118.662C200.692 118.887 199.825 119 198.872 119H190.578ZM194.738 115.308H198.716C199.201 115.308 199.609 115.23 199.938 115.074C200.285 114.918 200.553 114.693 200.744 114.398C200.935 114.086 201.03 113.713 201.03 113.28C201.03 112.881 200.926 112.543 200.718 112.266C200.527 111.989 200.25 111.781 199.886 111.642C199.522 111.486 199.089 111.408 198.586 111.408H194.738V115.308ZM194.738 108.106H197.988C198.439 108.106 198.82 108.037 199.132 107.898C199.461 107.742 199.704 107.534 199.86 107.274C200.033 106.997 200.12 106.667 200.12 106.286C200.12 105.731 199.929 105.298 199.548 104.986C199.167 104.657 198.595 104.492 197.832 104.492H194.738V108.106ZM208.29 119V99.76H212.372V108.002L211.54 108.314C211.731 107.69 212.069 107.127 212.554 106.624C213.057 106.104 213.655 105.688 214.348 105.376C215.042 105.064 215.77 104.908 216.532 104.908C217.572 104.908 218.448 105.125 219.158 105.558C219.869 105.974 220.406 106.607 220.77 107.456C221.134 108.288 221.316 109.311 221.316 110.524V119H217.13V110.862C217.13 110.307 217.052 109.848 216.896 109.484C216.74 109.12 216.498 108.851 216.168 108.678C215.856 108.487 215.466 108.401 214.998 108.418C214.634 108.418 214.296 108.479 213.984 108.6C213.672 108.704 213.404 108.869 213.178 109.094C212.953 109.302 212.771 109.545 212.632 109.822C212.511 110.099 212.45 110.403 212.45 110.732V119H210.396C209.911 119 209.495 119 209.148 119C208.802 119 208.516 119 208.29 119ZM229.89 119.234C228.729 119.234 227.689 118.931 226.77 118.324C225.869 117.7 225.15 116.851 224.612 115.776C224.075 114.684 223.806 113.453 223.806 112.084C223.806 110.68 224.075 109.441 224.612 108.366C225.15 107.291 225.886 106.451 226.822 105.844C227.758 105.22 228.824 104.908 230.02 104.908C230.679 104.908 231.277 105.003 231.814 105.194C232.369 105.385 232.854 105.653 233.27 106C233.686 106.329 234.042 106.719 234.336 107.17C234.631 107.603 234.848 108.071 234.986 108.574L234.128 108.47V105.194H238.262V119H234.05V115.672L234.986 115.646C234.848 116.131 234.622 116.591 234.31 117.024C233.998 117.457 233.617 117.839 233.166 118.168C232.716 118.497 232.213 118.757 231.658 118.948C231.104 119.139 230.514 119.234 229.89 119.234ZM231.034 115.724C231.676 115.724 232.23 115.577 232.698 115.282C233.166 114.987 233.53 114.571 233.79 114.034C234.05 113.479 234.18 112.829 234.18 112.084C234.18 111.339 234.05 110.697 233.79 110.16C233.53 109.605 233.166 109.181 232.698 108.886C232.23 108.574 231.676 108.418 231.034 108.418C230.41 108.418 229.864 108.574 229.396 108.886C228.946 109.181 228.59 109.605 228.33 110.16C228.07 110.697 227.94 111.339 227.94 112.084C227.94 112.829 228.07 113.479 228.33 114.034C228.59 114.571 228.946 114.987 229.396 115.282C229.864 115.577 230.41 115.724 231.034 115.724ZM241.933 119V105.194H245.885L246.067 109.692L245.287 108.834C245.495 108.089 245.833 107.421 246.301 106.832C246.786 106.243 247.35 105.775 247.991 105.428C248.632 105.081 249.317 104.908 250.045 104.908C250.357 104.908 250.643 104.934 250.903 104.986C251.18 105.038 251.432 105.099 251.657 105.168L250.513 109.77C250.322 109.649 250.062 109.553 249.733 109.484C249.421 109.397 249.092 109.354 248.745 109.354C248.364 109.354 248.008 109.423 247.679 109.562C247.35 109.683 247.072 109.865 246.847 110.108C246.622 110.351 246.44 110.637 246.301 110.966C246.18 111.295 246.119 111.668 246.119 112.084V119H241.933ZM258.277 119.234C257.116 119.234 256.076 118.931 255.157 118.324C254.256 117.7 253.536 116.851 252.999 115.776C252.462 114.684 252.193 113.453 252.193 112.084C252.193 110.68 252.462 109.441 252.999 108.366C253.536 107.291 254.273 106.451 255.209 105.844C256.145 105.22 257.211 104.908 258.407 104.908C259.066 104.908 259.664 105.003 260.201 105.194C260.756 105.385 261.241 105.653 261.657 106C262.073 106.329 262.428 106.719 262.723 107.17C263.018 107.603 263.234 108.071 263.373 108.574L262.515 108.47V105.194H266.649V119H262.437V115.672L263.373 115.646C263.234 116.131 263.009 116.591 262.697 117.024C262.385 117.457 262.004 117.839 261.553 118.168C261.102 118.497 260.6 118.757 260.045 118.948C259.49 119.139 258.901 119.234 258.277 119.234ZM259.421 115.724C260.062 115.724 260.617 115.577 261.085 115.282C261.553 114.987 261.917 114.571 262.177 114.034C262.437 113.479 262.567 112.829 262.567 112.084C262.567 111.339 262.437 110.697 262.177 110.16C261.917 109.605 261.553 109.181 261.085 108.886C260.617 108.574 260.062 108.418 259.421 108.418C258.797 108.418 258.251 108.574 257.783 108.886C257.332 109.181 256.977 109.605 256.717 110.16C256.457 110.697 256.327 111.339 256.327 112.084C256.327 112.829 256.457 113.479 256.717 114.034C256.977 114.571 257.332 114.987 257.783 115.282C258.251 115.577 258.797 115.724 259.421 115.724ZM271.464 119V101.71H275.624V119H271.464ZM269.02 108.834V105.194H278.302V108.834H269.02Z" fill="url(#paint1_linear_467_2928)"/>
<circle cx="330" cy="24" r="12.75" fill="white" stroke="#FB2B3A" stroke-width="0.5"/>
<g clip-path="url(#clip0_467_2928)">
<path d="M338 30.2918L332.398 28.1104L330 24.6797L328.731 22.2521L330 14.0283L338 30.2918Z" fill="#FD8087"/>
<path d="M330 14.0283V24.6797L327.438 27.9415L322 30.2918L330 14.0283Z" fill="#FE646F"/>
<path d="M338 30.2917H322L330 24.6797L338 30.2917Z" fill="#FB2B3A"/>
</g>
<circle cx="311" cy="112" r="10.75" fill="white" stroke="#CB97E7" stroke-width="0.5"/>
<g clip-path="url(#clip1_467_2928)">
<path d="M313.165 110.201L311 120L303.826 116.349V107.651L313.165 110.201Z" fill="#CB97E7"/>
<path d="M318.174 107.651V116.349L311 120V111.302L312.807 108.645L318.174 107.651Z" fill="#D9B1EE"/>
<path d="M318.174 107.651L311 111.302L303.826 107.651L311 104L318.174 107.651Z" fill="#E5CAF3"/>
<path d="M311 106.167L308.085 107.651L311 109.135L311.875 107.651L311 106.167Z" fill="#D9B1EE"/>
<path d="M311 106.167L313.915 107.651L311 109.135V106.167Z" fill="#CB97E7"/>
<path d="M306.08 111.326V114.967L307.9 114.636L308.747 113.332V112.683L306.08 111.326Z" fill="#D9B1EE"/>
<path d="M306.08 114.967L308.747 116.325V113.332L306.08 114.967Z" fill="#E5CAF3"/>
<path d="M315.921 111.326V114.967L314.101 114.636L313.254 113.332V112.683L315.921 111.326Z" fill="#CB97E7"/>
<path d="M315.921 114.967L313.254 116.325V113.332L315.921 114.967Z" fill="#E5CAF3"/>
</g>
<path d="M241 2L241.436 8.24435L243.781 2.44049L242.267 8.51409L246.29 3.71885L242.973 9.02717L248.281 5.70993L243.486 9.73337L249.56 8.21885L243.756 10.5635L250 11L243.756 11.4365L249.56 13.7812L243.486 12.2666L248.281 16.2901L242.973 12.9728L246.29 18.2812L242.267 13.4859L243.781 19.5595L241.436 13.7557L241 20L240.564 13.7557L238.219 19.5595L239.733 13.4859L235.71 18.2812L239.027 12.9728L233.719 16.2901L238.514 12.2666L232.44 13.7812L238.244 11.4365L232 11L238.244 10.5635L232.44 8.21885L238.514 9.73337L233.719 5.70993L239.027 9.02717L235.71 3.71885L239.733 8.51409L238.219 2.44049L240.564 8.24435L241 2Z" fill="#FFD700"/>
<circle cx="15" cy="15" r="14.75" fill="white" stroke="#3EC3A4" stroke-width="0.5"/>
<g clip-path="url(#clip2_467_2928)">
<path d="M22.3719 17.8614L21.2164 23.0913L17.3877 21.1428V16.501L22.3719 17.8614Z" fill="#3EC3A4"/>
<path d="M25.0445 16.501V21.1428L21.2158 23.0913V18.4495L22.1803 17.0313L25.0445 16.501Z" fill="#6FD7A3"/>
<path d="M25.0451 16.5008L21.2164 18.4493L17.3877 16.5008L21.2164 14.5522L25.0451 16.5008Z" fill="#9BE69D"/>
<path d="M10.9393 17.8614L9.78376 23.0913L5.95508 21.1428V16.501L10.9393 17.8614Z" fill="#3EC3A4"/>
<path d="M13.6129 16.501V21.1428L9.78418 23.0913V18.4495L10.7486 17.0313L13.6129 16.501Z" fill="#6FD7A3"/>
<path d="M13.6125 16.5008L9.78376 18.4493L5.95508 16.5008L9.78376 14.5522L13.6125 16.5008Z" fill="#9BE69D"/>
<path d="M16.6551 20.7702L15.4996 26L11.6709 24.0515V19.4097L16.6551 20.7702Z" fill="#3EC3A4"/>
<path d="M19.3287 19.4097V24.0515L15.5 26V21.3582L16.4644 19.94L19.3287 19.4097Z" fill="#6FD7A3"/>
<path d="M19.3283 19.4094L15.4996 21.358L11.6709 19.4094L15.4996 17.4609L19.3283 19.4094Z" fill="#9BE69D"/>
<path d="M16.6551 8.30918L15.4996 13.539L11.6709 11.5906V6.94873L16.6551 8.30918Z" fill="#3EC3A4"/>
<path d="M19.3287 6.94873V11.5906L15.5 13.539V8.89726L16.4644 7.47906L19.3287 6.94873Z" fill="#6FD7A3"/>
<path d="M19.3283 6.94853L15.4996 8.89706L11.6709 6.94853L15.4996 5L19.3283 6.94853Z" fill="#9BE69D"/>
<path d="M22.3719 11.2179L21.2164 16.4477L17.3877 14.4992V9.85742L22.3719 11.2179Z" fill="#3EC3A4"/>
<path d="M25.0445 9.85742V14.4992L21.2158 16.4477V11.8059L22.1803 10.3878L25.0445 9.85742Z" fill="#6FD7A3"/>
<path d="M25.0451 9.85771L21.2164 11.8062L17.3877 9.85771L21.2164 7.90918L25.0451 9.85771Z" fill="#9BE69D"/>
<path d="M10.9393 11.2179L9.78376 16.4477L5.95508 14.4992V9.85742L10.9393 11.2179Z" fill="#3EC3A4"/>
<path d="M13.6129 9.85742V14.4992L9.78418 16.4477V11.8059L10.7486 10.3878L13.6129 9.85742Z" fill="#6FD7A3"/>
<path d="M13.6125 9.85722L9.78376 11.8057L5.95508 9.85722L9.78376 7.90869L13.6125 9.85722Z" fill="#9BE69D"/>
<path d="M16.6551 14.1266L15.4996 19.3564L11.6709 17.4079V12.7661L16.6551 14.1266Z" fill="#3EC3A4"/>
<path d="M19.3287 12.7666V17.4084L15.5 19.3569V14.7151L16.4644 13.2969L19.3287 12.7666Z" fill="#6FD7A3"/>
<path d="M19.3283 12.7664L15.4996 14.7149L11.6709 12.7664L15.4996 10.8179L19.3283 12.7664Z" fill="#9BE69D"/>
</g>
<path d="M9 67C10.3715 70.7063 13.2937 73.6285 17 75C13.2937 76.3715 10.3715 79.2937 9 83C7.62854 79.2937 4.70633 76.3715 1 75C4.70633 73.6285 7.62854 70.7063 9 67Z" fill="#FFD700"/>
<g clip-path="url(#clip3_467_2928)">
<path d="M41 129L37.1963 131.764L38.6492 136.236H43.3509L44.8038 131.764L41 129Z" fill="#E5CAF3"/>
<path d="M44.5271 137.854L41.0005 139L37.4736 137.854L37.6337 136.023L39.0974 135.619H42.9033L44.3594 136.142L44.5271 137.854Z" fill="#CB97E7"/>
<path d="M41.0003 127L41.9596 128.381L41.0003 129.762L37.9211 131.999L36.4511 132.57L35.2939 131.146L37.4735 128.146L41.0003 127ZM46.7067 131.146V134.854L44.5269 137.854L42.9032 135.619L44.0795 131.999L44.805 130.934L46.7067 131.146Z" fill="#D9B1EE"/>
<path d="M39.0972 135.619L37.4735 137.854L35.2939 134.854V131.146L37.9211 132L39.0972 135.619Z" fill="#BD80E1"/>
<path d="M46.7064 131.146L44.0792 131.999L41 129.762V127L44.5266 128.146L46.7064 131.146Z" fill="#CB97E7"/>
</g>
<circle cx="39" cy="131" r="8.75" fill="white" stroke="#CB97E7" stroke-width="0.5"/>
<g clip-path="url(#clip4_467_2928)">
<path d="M39 127L35.1963 129.764L36.6492 134.236H41.3509L42.8038 129.764L39 127Z" fill="#E5CAF3"/>
<path d="M42.5271 135.854L39.0005 137L35.4736 135.854L35.6337 134.023L37.0974 133.619H40.9033L42.3594 134.142L42.5271 135.854Z" fill="#CB97E7"/>
<path d="M39.0003 125L39.9596 126.381L39.0003 127.762L35.9211 129.999L34.4511 130.57L33.2939 129.146L35.4735 126.146L39.0003 125ZM44.7067 129.146V132.854L42.5269 135.854L40.9032 133.619L42.0795 129.999L42.805 128.934L44.7067 129.146Z" fill="#D9B1EE"/>
<path d="M37.0972 133.619L35.4735 135.854L33.2939 132.854V129.146L35.9211 130L37.0972 133.619Z" fill="#BD80E1"/>
<path d="M44.7064 129.146L42.0792 129.999L39 127.762V125L42.5266 126.146L44.7064 129.146Z" fill="#CB97E7"/>
</g>
<defs>
<linearGradient id="paint0_linear_467_2928" x1="7" y1="75" x2="327" y2="75" gradientUnits="userSpaceOnUse">
<stop stop-color="#0169B6"/>
<stop offset="1" stop-color="#68BA4C"/>
</linearGradient>
<linearGradient id="paint1_linear_467_2928" x1="7" y1="75" x2="327" y2="75" gradientUnits="userSpaceOnUse">
<stop offset="0.625" stop-color="#FF8A14"/>
<stop offset="0.855769" stop-color="#46B000"/>
</linearGradient>
<clipPath id="clip0_467_2928">
<rect width="16" height="17" fill="white" transform="translate(322 14)"/>
</clipPath>
<clipPath id="clip1_467_2928">
<rect width="16" height="16" fill="white" transform="translate(303 104)"/>
</clipPath>
<clipPath id="clip2_467_2928">
<rect width="21" height="21" fill="white" transform="translate(5 5)"/>
</clipPath>
<clipPath id="clip3_467_2928">
<rect width="12" height="12" fill="white" transform="translate(35 127)"/>
</clipPath>
<clipPath id="clip4_467_2928">
<rect width="12" height="12" fill="white" transform="translate(33 125)"/>
</clipPath>
</defs>
</svg>
