<svg width="1440" height="512" viewBox="0 0 1440 512" fill="none" xmlns="http://www.w3.org/2000/svg">
<path d="M370.944 174V129.2H381.824V164.4H401.792V174H370.944Z" fill="#141219"/>
<path d="M423.798 174.64C420.044 174.64 416.78 173.893 414.006 172.4C411.233 170.864 409.078 168.795 407.542 166.192C406.006 163.547 405.238 160.539 405.238 157.168C405.238 154.565 405.665 152.176 406.518 150C407.372 147.824 408.566 145.947 410.102 144.368C411.638 142.747 413.452 141.509 415.542 140.656C417.676 139.76 420.001 139.312 422.518 139.312C424.908 139.312 427.084 139.739 429.046 140.592C431.052 141.445 432.78 142.64 434.23 144.176C435.681 145.712 436.79 147.525 437.558 149.616C438.326 151.707 438.668 153.989 438.582 156.464L438.518 159.216H411.446L409.974 153.456H430.198L429.11 154.672V153.392C429.025 152.325 428.684 151.387 428.086 150.576C427.532 149.723 426.785 149.061 425.846 148.592C424.908 148.123 423.841 147.888 422.646 147.888C420.982 147.888 419.553 148.229 418.358 148.912C417.206 149.552 416.332 150.512 415.734 151.792C415.137 153.029 414.838 154.565 414.838 156.4C414.838 158.277 415.222 159.92 415.99 161.328C416.801 162.693 417.953 163.76 419.446 164.528C420.982 165.296 422.796 165.68 424.886 165.68C426.337 165.68 427.617 165.467 428.726 165.04C429.878 164.613 431.116 163.888 432.438 162.864L437.238 169.648C435.916 170.8 434.508 171.739 433.014 172.464C431.521 173.189 429.985 173.723 428.406 174.064C426.87 174.448 425.334 174.64 423.798 174.64Z" fill="#141219"/>
<path d="M457.65 174.576C454.792 174.576 452.232 173.829 449.97 172.336C447.752 170.8 445.981 168.709 444.658 166.064C443.336 163.376 442.674 160.347 442.674 156.976C442.674 153.52 443.336 150.469 444.658 147.824C445.981 145.179 447.794 143.109 450.098 141.616C452.402 140.08 455.026 139.312 457.97 139.312C459.592 139.312 461.064 139.547 462.386 140.016C463.752 140.485 464.946 141.147 465.97 142C466.994 142.811 467.869 143.771 468.594 144.88C469.32 145.947 469.853 147.099 470.194 148.336L468.082 148.08V140.016H478.258V174H467.89V165.808L470.194 165.744C469.853 166.939 469.298 168.069 468.53 169.136C467.762 170.203 466.824 171.141 465.714 171.952C464.605 172.763 463.368 173.403 462.002 173.872C460.637 174.341 459.186 174.576 457.65 174.576ZM460.466 165.936C462.045 165.936 463.41 165.573 464.562 164.848C465.714 164.123 466.61 163.099 467.25 161.776C467.89 160.411 468.21 158.811 468.21 156.976C468.21 155.141 467.89 153.563 467.25 152.24C466.61 150.875 465.714 149.829 464.562 149.104C463.41 148.336 462.045 147.952 460.466 147.952C458.93 147.952 457.586 148.336 456.434 149.104C455.325 149.829 454.45 150.875 453.81 152.24C453.17 153.563 452.85 155.141 452.85 156.976C452.85 158.811 453.17 160.411 453.81 161.776C454.45 163.099 455.325 164.123 456.434 164.848C457.586 165.573 458.93 165.936 460.466 165.936Z" fill="#141219"/>
<path d="M487.294 174V140.016H497.022L497.47 151.088L495.55 148.976C496.062 147.141 496.894 145.499 498.046 144.048C499.241 142.597 500.627 141.445 502.206 140.592C503.785 139.739 505.47 139.312 507.262 139.312C508.03 139.312 508.734 139.376 509.374 139.504C510.057 139.632 510.675 139.781 511.23 139.952L508.414 151.28C507.944 150.981 507.305 150.747 506.494 150.576C505.726 150.363 504.915 150.256 504.062 150.256C503.123 150.256 502.249 150.427 501.438 150.768C500.627 151.067 499.944 151.515 499.39 152.112C498.835 152.709 498.387 153.413 498.046 154.224C497.747 155.035 497.598 155.952 497.598 156.976V174H487.294Z" fill="#141219"/>
<path d="M516.419 174V140.016H526.147L526.467 146.928L524.419 147.696C524.888 146.16 525.72 144.773 526.915 143.536C528.152 142.256 529.624 141.232 531.331 140.464C533.038 139.696 534.829 139.312 536.707 139.312C539.267 139.312 541.422 139.845 543.171 140.912C544.92 141.936 546.243 143.493 547.139 145.584C548.035 147.632 548.483 150.149 548.483 153.136V174H538.179V153.968C538.179 152.603 537.987 151.472 537.603 150.576C537.219 149.68 536.622 149.019 535.811 148.592C535.043 148.123 534.083 147.909 532.931 147.952C532.035 147.952 531.203 148.101 530.435 148.4C529.667 148.656 529.006 149.061 528.451 149.616C527.896 150.128 527.448 150.725 527.107 151.408C526.808 152.091 526.659 152.837 526.659 153.648V174H521.603C520.408 174 519.384 174 518.531 174C517.678 174 516.974 174 516.419 174Z" fill="#141219"/>
<path d="M557.62 174V140.016H567.86V174H557.62ZM562.74 133.296C560.82 133.296 559.305 132.848 558.196 131.952C557.129 131.013 556.596 129.691 556.596 127.984C556.596 126.448 557.151 125.189 558.26 124.208C559.369 123.227 560.863 122.736 562.74 122.736C564.66 122.736 566.153 123.205 567.22 124.144C568.287 125.04 568.82 126.32 568.82 127.984C568.82 129.563 568.265 130.843 567.156 131.824C566.089 132.805 564.617 133.296 562.74 133.296Z" fill="#141219"/>
<path d="M577.481 174V140.016H587.209L587.529 146.928L585.481 147.696C585.951 146.16 586.783 144.773 587.977 143.536C589.215 142.256 590.687 141.232 592.393 140.464C594.1 139.696 595.892 139.312 597.769 139.312C600.329 139.312 602.484 139.845 604.233 140.912C605.983 141.936 607.305 143.493 608.201 145.584C609.097 147.632 609.545 150.149 609.545 153.136V174H599.241V153.968C599.241 152.603 599.049 151.472 598.665 150.576C598.281 149.68 597.684 149.019 596.873 148.592C596.105 148.123 595.145 147.909 593.993 147.952C593.097 147.952 592.265 148.101 591.497 148.4C590.729 148.656 590.068 149.061 589.513 149.616C588.959 150.128 588.511 150.725 588.169 151.408C587.871 152.091 587.721 152.837 587.721 153.648V174H582.665C581.471 174 580.447 174 579.593 174C578.74 174 578.036 174 577.481 174Z" fill="#141219"/>
<path d="M633.658 188.72C630.885 188.72 628.112 188.315 625.338 187.504C622.608 186.693 620.389 185.648 618.682 184.368L622.266 177.2C623.162 177.797 624.144 178.309 625.21 178.736C626.32 179.205 627.472 179.568 628.666 179.824C629.861 180.08 631.077 180.208 632.314 180.208C634.49 180.208 636.261 179.888 637.626 179.248C638.992 178.608 640.016 177.627 640.698 176.304C641.381 175.024 641.722 173.403 641.722 171.44V165.744L643.706 166.064C643.408 167.472 642.661 168.752 641.466 169.904C640.314 171.056 638.885 171.995 637.178 172.72C635.472 173.403 633.658 173.744 631.738 173.744C628.666 173.744 625.914 173.04 623.482 171.632C621.093 170.181 619.194 168.197 617.786 165.68C616.421 163.12 615.738 160.176 615.738 156.848C615.738 153.435 616.421 150.427 617.786 147.824C619.152 145.179 621.029 143.109 623.418 141.616C625.808 140.08 628.496 139.312 631.482 139.312C632.762 139.312 633.978 139.461 635.13 139.76C636.325 140.059 637.413 140.464 638.394 140.976C639.418 141.445 640.314 142.021 641.082 142.704C641.893 143.344 642.533 144.048 643.002 144.816C643.514 145.584 643.856 146.373 644.026 147.184L641.914 147.696L642.298 140.016H652.026V171.248C652.026 174.021 651.6 176.475 650.746 178.608C649.936 180.784 648.72 182.619 647.098 184.112C645.52 185.648 643.6 186.8 641.338 187.568C639.077 188.336 636.517 188.72 633.658 188.72ZM633.914 165.808C635.578 165.808 637.008 165.445 638.202 164.72C639.44 163.952 640.378 162.907 641.018 161.584C641.701 160.261 642.042 158.704 642.042 156.912C642.042 155.12 641.701 153.563 641.018 152.24C640.378 150.875 639.44 149.829 638.202 149.104C637.008 148.336 635.578 147.952 633.914 147.952C632.293 147.952 630.885 148.336 629.69 149.104C628.496 149.829 627.557 150.875 626.874 152.24C626.234 153.563 625.914 155.12 625.914 156.912C625.914 158.704 626.234 160.261 626.874 161.584C627.557 162.907 628.496 163.952 629.69 164.72C630.885 165.445 632.293 165.808 633.914 165.808Z" fill="#141219"/>
<path d="M694.923 137.712L693.323 147.056H707.979L706.507 155.312H691.851L690.059 165.36H706.635L705.099 174H677.579L685.515 129.072H713.035L711.499 137.712H694.923Z" fill="url(#paint0_linear_577_2865)"/>
<path d="M736.46 156.336L745.612 174H733.324L728.204 164.144L720.716 174H708.876L723.852 155.76L714.828 138.288H727.116L732.236 148.208L739.724 138.288H751.564L736.46 156.336Z" fill="url(#paint1_linear_577_2865)"/>
<path d="M766.149 143.344C767.514 141.68 769.221 140.336 771.269 139.312C773.359 138.288 775.664 137.776 778.181 137.776C782.021 137.776 785.114 139.035 787.461 141.552C789.85 144.069 791.045 147.483 791.045 151.792C791.045 153.115 790.917 154.544 790.661 156.08C790.021 159.749 788.762 162.992 786.885 165.808C785.007 168.581 782.746 170.736 780.101 172.272C777.455 173.765 774.661 174.512 771.717 174.512C769.242 174.512 767.151 174 765.445 172.976C763.738 171.952 762.479 170.629 761.669 169.008L757.765 191.024H746.821L756.101 138.288H767.045L766.149 143.344ZM779.589 156.08C779.717 155.355 779.781 154.693 779.781 154.096C779.781 151.963 779.162 150.299 777.925 149.104C776.73 147.909 775.194 147.312 773.317 147.312C771.141 147.312 769.157 148.101 767.365 149.68C765.573 151.259 764.421 153.413 763.909 156.144C763.781 156.912 763.717 157.616 763.717 158.256C763.717 160.347 764.314 161.989 765.509 163.184C766.704 164.379 768.239 164.976 770.117 164.976C772.293 164.976 774.277 164.187 776.069 162.608C777.904 160.987 779.077 158.811 779.589 156.08Z" fill="url(#paint2_linear_577_2865)"/>
<path d="M815.538 137.776C820.146 137.776 823.794 139.035 826.482 141.552C829.213 144.027 830.578 147.419 830.578 151.728C830.578 153.136 830.472 154.395 830.258 155.504C830.088 156.485 829.832 157.531 829.49 158.64H804.722C804.68 158.896 804.658 159.301 804.658 159.856C804.658 161.733 805.17 163.163 806.194 164.144C807.218 165.125 808.584 165.616 810.29 165.616C813.021 165.616 815.112 164.464 816.562 162.16H828.21C826.674 165.787 824.178 168.752 820.722 171.056C817.266 173.36 813.384 174.512 809.074 174.512C804.466 174.512 800.776 173.232 798.002 170.672C795.272 168.112 793.906 164.635 793.906 160.24C793.906 158.917 794.034 157.552 794.29 156.144C794.93 152.432 796.253 149.189 798.258 146.416C800.264 143.643 802.76 141.509 805.746 140.016C808.733 138.523 811.997 137.776 815.538 137.776ZM819.506 153.072C819.592 152.475 819.634 152.069 819.634 151.856C819.634 150.149 819.101 148.848 818.034 147.952C816.968 147.013 815.56 146.544 813.81 146.544C811.933 146.544 810.269 147.12 808.818 148.272C807.41 149.381 806.386 150.981 805.746 153.072H819.506Z" fill="url(#paint3_linear_577_2865)"/>
<path d="M848.768 144.752C850.432 142.619 852.331 140.955 854.464 139.76C856.64 138.523 858.901 137.904 861.248 137.904L859.2 149.488H856.192C853.461 149.488 851.307 150.085 849.728 151.28C848.149 152.432 847.104 154.48 846.592 157.424L843.648 174H832.704L838.976 138.288H849.92L848.768 144.752Z" fill="url(#paint4_linear_577_2865)"/>
<path d="M872.559 134.576C870.852 134.576 869.487 134.128 868.463 133.232C867.481 132.293 866.991 131.12 866.991 129.712C866.991 127.792 867.738 126.149 869.231 124.784C870.724 123.419 872.538 122.736 874.671 122.736C876.378 122.736 877.722 123.205 878.703 124.144C879.684 125.04 880.175 126.213 880.175 127.664C880.175 129.541 879.428 131.163 877.935 132.528C876.442 133.893 874.65 134.576 872.559 134.576ZM877.295 138.288L871.023 174H860.079L866.351 138.288H877.295Z" fill="url(#paint5_linear_577_2865)"/>
<path d="M901.226 137.776C905.834 137.776 909.482 139.035 912.17 141.552C914.901 144.027 916.266 147.419 916.266 151.728C916.266 153.136 916.159 154.395 915.946 155.504C915.775 156.485 915.519 157.531 915.178 158.64H890.41C890.367 158.896 890.346 159.301 890.346 159.856C890.346 161.733 890.858 163.163 891.882 164.144C892.906 165.125 894.271 165.616 895.978 165.616C898.709 165.616 900.799 164.464 902.25 162.16H913.898C912.362 165.787 909.866 168.752 906.41 171.056C902.954 173.36 899.071 174.512 894.762 174.512C890.154 174.512 886.463 173.232 883.69 170.672C880.959 168.112 879.594 164.635 879.594 160.24C879.594 158.917 879.722 157.552 879.978 156.144C880.618 152.432 881.941 149.189 883.946 146.416C885.951 143.643 888.447 141.509 891.434 140.016C894.421 138.523 897.684 137.776 901.226 137.776ZM905.194 153.072C905.279 152.475 905.322 152.069 905.322 151.856C905.322 150.149 904.789 148.848 903.722 147.952C902.655 147.013 901.247 146.544 899.498 146.544C897.621 146.544 895.957 147.12 894.506 148.272C893.098 149.381 892.074 150.981 891.434 153.072H905.194Z" fill="url(#paint6_linear_577_2865)"/>
<path d="M946.487 137.904C950.071 137.904 952.887 138.907 954.935 140.912C956.983 142.917 958.007 145.712 958.007 149.296C958.007 150.491 957.879 151.771 957.623 153.136L953.911 174H943.031L946.487 154.608C946.615 153.883 946.679 153.243 946.679 152.688C946.679 150.896 946.167 149.509 945.143 148.528C944.162 147.547 942.775 147.056 940.983 147.056C938.85 147.056 937.058 147.717 935.607 149.04C934.157 150.363 933.218 152.219 932.791 154.608V154.288L929.335 174H918.391L924.663 138.288H935.607L934.775 143.088C936.183 141.509 937.89 140.251 939.895 139.312C941.943 138.373 944.141 137.904 946.487 137.904Z" fill="url(#paint7_linear_577_2865)"/>
<path d="M962.54 156.144C963.18 152.432 964.503 149.189 966.508 146.416C968.514 143.643 970.988 141.509 973.932 140.016C976.919 138.523 980.162 137.776 983.66 137.776C988.14 137.776 991.682 138.949 994.284 141.296C996.887 143.643 998.274 146.949 998.444 151.216H986.796C986.327 148.485 984.663 147.12 981.804 147.12C979.799 147.12 978.071 147.909 976.62 149.488C975.17 151.024 974.188 153.243 973.676 156.144C973.506 157.04 973.42 157.979 973.42 158.96C973.42 160.965 973.89 162.501 974.828 163.568C975.767 164.635 977.047 165.168 978.668 165.168C981.484 165.168 983.596 163.803 985.004 161.072H996.716C995.052 165.253 992.492 168.539 989.036 170.928C985.58 173.317 981.634 174.512 977.196 174.512C972.588 174.512 968.919 173.253 966.188 170.736C963.5 168.176 962.156 164.699 962.156 160.304C962.156 158.981 962.284 157.595 962.54 156.144Z" fill="url(#paint8_linear_577_2865)"/>
<path d="M1022.54 137.776C1027.15 137.776 1030.79 139.035 1033.48 141.552C1036.21 144.027 1037.58 147.419 1037.58 151.728C1037.58 153.136 1037.47 154.395 1037.26 155.504C1037.09 156.485 1036.83 157.531 1036.49 158.64H1011.72C1011.68 158.896 1011.66 159.301 1011.66 159.856C1011.66 161.733 1012.17 163.163 1013.19 164.144C1014.22 165.125 1015.58 165.616 1017.29 165.616C1020.02 165.616 1022.11 164.464 1023.56 162.16H1035.21C1033.67 165.787 1031.18 168.752 1027.72 171.056C1024.27 173.36 1020.38 174.512 1016.07 174.512C1011.47 174.512 1007.78 173.232 1005 170.672C1002.27 168.112 1000.91 164.635 1000.91 160.24C1000.91 158.917 1001.03 157.552 1001.29 156.144C1001.93 152.432 1003.25 149.189 1005.26 146.416C1007.26 143.643 1009.76 141.509 1012.75 140.016C1015.73 138.523 1019 137.776 1022.54 137.776ZM1026.51 153.072C1026.59 152.475 1026.63 152.069 1026.63 151.856C1026.63 150.149 1026.1 148.848 1025.03 147.952C1023.97 147.013 1022.56 146.544 1020.81 146.544C1018.93 146.544 1017.27 147.12 1015.82 148.272C1014.41 149.381 1013.39 150.981 1012.75 153.072H1026.51Z" fill="url(#paint9_linear_577_2865)"/>
<path d="M1054.55 174.512C1051.74 174.512 1049.2 174.064 1046.94 173.168C1044.72 172.272 1042.97 171.035 1041.69 169.456C1040.41 167.835 1039.77 165.979 1039.77 163.888C1039.77 163.589 1039.81 163.056 1039.9 162.288H1050.46C1050.37 163.611 1050.75 164.677 1051.61 165.488C1052.5 166.256 1053.76 166.64 1055.38 166.64C1056.75 166.64 1057.88 166.384 1058.78 165.872C1059.67 165.36 1060.12 164.635 1060.12 163.696C1060.12 162.8 1059.63 162.096 1058.65 161.584C1057.71 161.029 1056.13 160.368 1053.91 159.6C1051.61 158.832 1049.67 158.085 1048.09 157.36C1046.55 156.592 1045.23 155.504 1044.12 154.096C1043.01 152.688 1042.46 150.917 1042.46 148.784C1042.46 146.693 1043.07 144.816 1044.31 143.152C1045.55 141.445 1047.28 140.123 1049.5 139.184C1051.76 138.245 1054.36 137.776 1057.3 137.776C1060.25 137.776 1062.81 138.267 1064.98 139.248C1067.16 140.187 1068.85 141.509 1070.04 143.216C1071.23 144.923 1071.83 146.843 1071.83 148.976L1071.77 149.936H1061.85C1061.93 148.656 1061.55 147.632 1060.7 146.864C1059.84 146.096 1058.63 145.712 1057.05 145.712C1055.81 145.712 1054.79 145.968 1053.98 146.48C1053.21 146.992 1052.82 147.696 1052.82 148.592C1052.82 149.531 1053.34 150.32 1054.36 150.96C1055.43 151.557 1057.07 152.24 1059.29 153.008C1061.59 153.776 1063.49 154.544 1064.98 155.312C1066.52 156.037 1067.82 157.083 1068.89 158.448C1070 159.771 1070.55 161.435 1070.55 163.44C1070.55 165.744 1069.85 167.728 1068.44 169.392C1067.07 171.056 1065.18 172.336 1062.74 173.232C1060.35 174.085 1057.62 174.512 1054.55 174.512Z" fill="url(#paint10_linear_577_2865)"/>
<path d="M395.829 254V211.44H406.069V254H395.829ZM389.813 228.976V220.016H412.661V228.976H389.813Z" fill="#141219"/>
<path d="M418.513 254V206.64H428.561V226.928L426.513 227.696C426.982 226.16 427.814 224.773 429.009 223.536C430.246 222.256 431.718 221.232 433.425 220.464C435.131 219.696 436.923 219.312 438.801 219.312C441.361 219.312 443.515 219.845 445.265 220.912C447.014 221.936 448.337 223.493 449.233 225.584C450.129 227.632 450.577 230.149 450.577 233.136V254H440.273V233.968C440.273 232.603 440.081 231.472 439.697 230.576C439.313 229.68 438.715 229.019 437.905 228.592C437.137 228.123 436.177 227.909 435.025 227.952C434.129 227.952 433.297 228.101 432.529 228.4C431.761 228.656 431.099 229.061 430.545 229.616C429.99 230.128 429.542 230.725 429.201 231.408C428.902 232.091 428.753 232.837 428.753 233.648V254H423.697C422.502 254 421.478 254 420.625 254C419.771 254 419.067 254 418.513 254Z" fill="#141219"/>
<path d="M471.682 254.576C468.823 254.576 466.263 253.829 464.002 252.336C461.783 250.8 460.012 248.709 458.69 246.064C457.367 243.376 456.706 240.347 456.706 236.976C456.706 233.52 457.367 230.469 458.69 227.824C460.012 225.179 461.826 223.109 464.13 221.616C466.434 220.08 469.058 219.312 472.002 219.312C473.623 219.312 475.095 219.547 476.418 220.016C477.783 220.485 478.978 221.147 480.002 222C481.026 222.811 481.9 223.771 482.626 224.88C483.351 225.947 483.884 227.099 484.226 228.336L482.114 228.08V220.016H492.29V254H481.922V245.808L484.226 245.744C483.884 246.939 483.33 248.069 482.562 249.136C481.794 250.203 480.855 251.141 479.746 251.952C478.636 252.763 477.399 253.403 476.034 253.872C474.668 254.341 473.218 254.576 471.682 254.576ZM474.498 245.936C476.076 245.936 477.442 245.573 478.594 244.848C479.746 244.123 480.642 243.099 481.282 241.776C481.922 240.411 482.242 238.811 482.242 236.976C482.242 235.141 481.922 233.563 481.282 232.24C480.642 230.875 479.746 229.829 478.594 229.104C477.442 228.336 476.076 227.952 474.498 227.952C472.962 227.952 471.618 228.336 470.466 229.104C469.356 229.829 468.482 230.875 467.842 232.24C467.202 233.563 466.882 235.141 466.882 236.976C466.882 238.811 467.202 240.411 467.842 241.776C468.482 243.099 469.356 244.123 470.466 244.848C471.618 245.573 472.962 245.936 474.498 245.936Z" fill="#141219"/>
<path d="M504.141 254V211.44H514.381V254H504.141ZM498.125 228.976V220.016H520.973V228.976H498.125Z" fill="#141219"/>
<path d="M548.413 254V209.2H579.645V218.48H558.973V244.72H580.285V254H548.413ZM553.533 235.632V226.8H576.765V235.632H553.533Z" fill="#141219"/>
<path d="M588.511 254V220.016H598.239L598.559 226.16L597.215 226.224C597.727 225.115 598.367 224.133 599.135 223.28C599.946 222.427 600.842 221.723 601.823 221.168C602.847 220.571 603.892 220.123 604.959 219.824C606.068 219.525 607.178 219.376 608.287 219.376C609.951 219.376 611.466 219.632 612.831 220.144C614.196 220.656 615.391 221.488 616.415 222.64C617.439 223.749 618.25 225.264 618.847 227.184L617.247 227.056L617.759 226.032C618.314 225.008 619.018 224.091 619.871 223.28C620.767 222.427 621.748 221.723 622.815 221.168C623.882 220.571 624.991 220.123 626.143 219.824C627.295 219.525 628.404 219.376 629.471 219.376C632.159 219.376 634.399 219.909 636.191 220.976C637.983 222 639.327 223.557 640.223 225.648C641.162 227.739 641.631 230.277 641.631 233.264V254H631.327V234.096C631.327 232.731 631.135 231.6 630.751 230.704C630.367 229.808 629.791 229.147 629.023 228.72C628.298 228.251 627.38 228.016 626.271 228.016C625.375 228.016 624.543 228.165 623.775 228.464C623.05 228.763 622.41 229.168 621.855 229.68C621.343 230.192 620.938 230.789 620.639 231.472C620.34 232.155 620.191 232.923 620.191 233.776V254H609.887V234.032C609.887 232.752 609.695 231.664 609.311 230.768C608.927 229.872 608.351 229.189 607.583 228.72C606.815 228.251 605.919 228.016 604.895 228.016C603.999 228.016 603.167 228.165 602.399 228.464C601.674 228.763 601.034 229.168 600.479 229.68C599.967 230.192 599.562 230.789 599.263 231.472C598.964 232.155 598.815 232.901 598.815 233.712V254H588.511Z" fill="#141219"/>
<path d="M650.138 268.08V220.016H659.866L660.25 227.632L658.33 227.056C658.628 225.648 659.354 224.368 660.506 223.216C661.658 222.064 663.108 221.147 664.858 220.464C666.65 219.739 668.527 219.376 670.49 219.376C673.391 219.376 675.972 220.144 678.234 221.68C680.495 223.173 682.266 225.243 683.546 227.888C684.868 230.491 685.53 233.52 685.53 236.976C685.53 240.389 684.868 243.419 683.546 246.064C682.266 248.709 680.474 250.8 678.17 252.336C675.908 253.829 673.306 254.576 670.362 254.576C668.442 254.576 666.607 254.213 664.858 253.488C663.108 252.763 661.636 251.781 660.442 250.544C659.247 249.307 658.458 247.963 658.074 246.512L660.442 245.616V268.08H650.138ZM667.866 245.936C669.402 245.936 670.746 245.573 671.898 244.848C673.05 244.08 673.946 243.035 674.586 241.712C675.226 240.389 675.546 238.811 675.546 236.976C675.546 235.184 675.226 233.627 674.586 232.304C673.946 230.939 673.05 229.893 671.898 229.168C670.788 228.4 669.444 228.016 667.866 228.016C666.287 228.016 664.922 228.379 663.77 229.104C662.618 229.829 661.722 230.875 661.082 232.24C660.442 233.605 660.122 235.184 660.122 236.976C660.122 238.811 660.442 240.389 661.082 241.712C661.722 243.035 662.618 244.08 663.77 244.848C664.922 245.573 666.287 245.936 667.866 245.936Z" fill="#141219"/>
<path d="M708.325 254.64C704.784 254.64 701.626 253.872 698.853 252.336C696.122 250.8 693.946 248.709 692.325 246.064C690.746 243.419 689.957 240.389 689.957 236.976C689.957 233.563 690.746 230.533 692.325 227.888C693.946 225.243 696.122 223.152 698.853 221.616C701.626 220.08 704.784 219.312 708.325 219.312C711.866 219.312 715.002 220.08 717.733 221.616C720.506 223.152 722.682 225.243 724.261 227.888C725.84 230.533 726.629 233.563 726.629 236.976C726.629 240.389 725.84 243.419 724.261 246.064C722.682 248.709 720.506 250.8 717.733 252.336C715.002 253.872 711.866 254.64 708.325 254.64ZM708.325 245.808C709.861 245.808 711.226 245.424 712.421 244.656C713.616 243.888 714.554 242.843 715.237 241.52C715.92 240.197 716.24 238.683 716.197 236.976C716.24 235.269 715.92 233.755 715.237 232.432C714.554 231.067 713.616 230 712.421 229.232C711.226 228.464 709.861 228.08 708.325 228.08C706.789 228.08 705.402 228.464 704.165 229.232C702.97 230 702.032 231.067 701.349 232.432C700.666 233.755 700.346 235.269 700.389 236.976C700.346 238.683 700.666 240.197 701.349 241.52C702.032 242.843 702.97 243.888 704.165 244.656C705.402 245.424 706.789 245.808 708.325 245.808Z" fill="#141219"/>
<path d="M739.499 254L728.299 220.016H739.115L745.387 242.096L744.043 241.84L751.083 224.688H757.099L764.523 241.904L763.051 242.032L769.323 220.016H780.139L768.555 254H761.003L753.643 235.76L754.411 235.888L747.051 254H739.499Z" fill="#141219"/>
<path d="M800.705 254.64C796.95 254.64 793.686 253.893 790.913 252.4C788.139 250.864 785.985 248.795 784.449 246.192C782.913 243.547 782.145 240.539 782.145 237.168C782.145 234.565 782.571 232.176 783.425 230C784.278 227.824 785.473 225.947 787.009 224.368C788.545 222.747 790.358 221.509 792.449 220.656C794.582 219.76 796.907 219.312 799.425 219.312C801.814 219.312 803.99 219.739 805.953 220.592C807.958 221.445 809.686 222.64 811.137 224.176C812.587 225.712 813.697 227.525 814.465 229.616C815.233 231.707 815.574 233.989 815.489 236.464L815.425 239.216H788.353L786.881 233.456H807.105L806.017 234.672V233.392C805.931 232.325 805.59 231.387 804.993 230.576C804.438 229.723 803.691 229.061 802.753 228.592C801.814 228.123 800.747 227.888 799.553 227.888C797.889 227.888 796.459 228.229 795.265 228.912C794.113 229.552 793.238 230.512 792.641 231.792C792.043 233.029 791.745 234.565 791.745 236.4C791.745 238.277 792.129 239.92 792.897 241.328C793.707 242.693 794.859 243.76 796.353 244.528C797.889 245.296 799.702 245.68 801.793 245.68C803.243 245.68 804.523 245.467 805.633 245.04C806.785 244.613 808.022 243.888 809.345 242.864L814.145 249.648C812.822 250.8 811.414 251.739 809.921 252.464C808.427 253.189 806.891 253.723 805.313 254.064C803.777 254.448 802.241 254.64 800.705 254.64Z" fill="#141219"/>
<path d="M822.013 254V220.016H831.741L832.189 231.088L830.269 228.976C830.781 227.141 831.613 225.499 832.765 224.048C833.959 222.597 835.346 221.445 836.925 220.592C838.503 219.739 840.189 219.312 841.981 219.312C842.749 219.312 843.453 219.376 844.093 219.504C844.775 219.632 845.394 219.781 845.949 219.952L843.133 231.28C842.663 230.981 842.023 230.747 841.213 230.576C840.445 230.363 839.634 230.256 838.781 230.256C837.842 230.256 836.967 230.427 836.157 230.768C835.346 231.067 834.663 231.515 834.109 232.112C833.554 232.709 833.106 233.413 832.765 234.224C832.466 235.035 832.317 235.952 832.317 236.976V254H822.013Z" fill="#141219"/>
<path d="M872.726 254V209.2H903.958V218.48H883.286V244.72H904.598V254H872.726ZM877.846 235.632V226.8H901.078V235.632H877.846Z" fill="#141219"/>
<path d="M922.382 254L908.174 220.016H919.502L927.95 245.424L925.454 245.68L934.158 220.016H945.358L930.446 254H922.382Z" fill="#141219"/>
<path d="M965.955 254.64C962.2 254.64 958.936 253.893 956.163 252.4C953.389 250.864 951.235 248.795 949.699 246.192C948.163 243.547 947.395 240.539 947.395 237.168C947.395 234.565 947.821 232.176 948.675 230C949.528 227.824 950.723 225.947 952.259 224.368C953.795 222.747 955.608 221.509 957.699 220.656C959.832 219.76 962.157 219.312 964.675 219.312C967.064 219.312 969.24 219.739 971.203 220.592C973.208 221.445 974.936 222.64 976.387 224.176C977.837 225.712 978.947 227.525 979.715 229.616C980.483 231.707 980.824 233.989 980.739 236.464L980.675 239.216H953.603L952.131 233.456H972.355L971.267 234.672V233.392C971.181 232.325 970.84 231.387 970.243 230.576C969.688 229.723 968.941 229.061 968.003 228.592C967.064 228.123 965.997 227.888 964.803 227.888C963.139 227.888 961.709 228.229 960.515 228.912C959.363 229.552 958.488 230.512 957.891 231.792C957.293 233.029 956.995 234.565 956.995 236.4C956.995 238.277 957.379 239.92 958.147 241.328C958.957 242.693 960.109 243.76 961.603 244.528C963.139 245.296 964.952 245.68 967.043 245.68C968.493 245.68 969.773 245.467 970.883 245.04C972.035 244.613 973.272 243.888 974.595 242.864L979.395 249.648C978.072 250.8 976.664 251.739 975.171 252.464C973.677 253.189 972.141 253.723 970.563 254.064C969.027 254.448 967.491 254.64 965.955 254.64Z" fill="#141219"/>
<path d="M987.263 254V220.016H996.991L997.439 231.088L995.519 228.976C996.031 227.141 996.863 225.499 998.015 224.048C999.209 222.597 1000.6 221.445 1002.17 220.592C1003.75 219.739 1005.44 219.312 1007.23 219.312C1008 219.312 1008.7 219.376 1009.34 219.504C1010.03 219.632 1010.64 219.781 1011.2 219.952L1008.38 231.28C1007.91 230.981 1007.27 230.747 1006.46 230.576C1005.69 230.363 1004.88 230.256 1004.03 230.256C1003.09 230.256 1002.22 230.427 1001.41 230.768C1000.6 231.067 999.913 231.515 999.359 232.112C998.804 232.709 998.356 233.413 998.015 234.224C997.716 235.035 997.567 235.952 997.567 236.976V254H987.263Z" fill="#141219"/>
<path d="M1020.68 268.72L1028.42 250.48L1028.55 255.728L1012.16 220.016H1023.75L1030.92 237.104C1031.3 237.957 1031.66 238.875 1032 239.856C1032.34 240.837 1032.6 241.776 1032.77 242.672L1031.36 243.504C1031.62 242.864 1031.9 242.075 1032.2 241.136C1032.54 240.155 1032.9 239.109 1033.28 238L1039.56 220.016H1051.2L1036.74 254L1030.85 268.72H1020.68Z" fill="#141219"/>
<path d="M470.703 334.64C467.332 334.64 464.217 334.085 461.359 332.976C458.543 331.824 456.089 330.224 453.999 328.176C451.908 326.085 450.287 323.632 449.135 320.816C448.025 317.957 447.471 314.821 447.471 311.408C447.471 308.08 448.068 305.008 449.263 302.192C450.457 299.376 452.1 296.944 454.191 294.896C456.324 292.805 458.82 291.184 461.679 290.032C464.58 288.88 467.737 288.304 471.151 288.304C473.284 288.304 475.375 288.581 477.423 289.136C479.471 289.691 481.369 290.523 483.119 291.632C484.911 292.699 486.447 293.979 487.727 295.472L481.071 303.088C480.175 302.149 479.215 301.339 478.191 300.656C477.209 299.931 476.121 299.376 474.927 298.992C473.732 298.608 472.452 298.416 471.087 298.416C469.38 298.416 467.759 298.736 466.223 299.376C464.729 299.973 463.407 300.848 462.255 302C461.145 303.109 460.271 304.475 459.631 306.096C458.991 307.717 458.671 309.531 458.671 311.536C458.671 313.499 458.991 315.291 459.631 316.912C460.271 318.491 461.167 319.856 462.319 321.008C463.471 322.16 464.857 323.035 466.479 323.632C468.143 324.229 469.977 324.528 471.983 324.528C473.348 324.528 474.649 324.336 475.887 323.952C477.124 323.568 478.255 323.056 479.279 322.416C480.345 321.733 481.284 320.965 482.095 320.112L487.343 328.432C486.276 329.627 484.847 330.693 483.055 331.632C481.305 332.571 479.343 333.317 477.167 333.872C475.033 334.384 472.879 334.64 470.703 334.64Z" fill="#141219"/>
<path d="M509.7 334.64C506.159 334.64 503.001 333.872 500.228 332.336C497.497 330.8 495.321 328.709 493.7 326.064C492.121 323.419 491.332 320.389 491.332 316.976C491.332 313.563 492.121 310.533 493.7 307.888C495.321 305.243 497.497 303.152 500.228 301.616C503.001 300.08 506.159 299.312 509.7 299.312C513.241 299.312 516.377 300.08 519.108 301.616C521.881 303.152 524.057 305.243 525.636 307.888C527.215 310.533 528.004 313.563 528.004 316.976C528.004 320.389 527.215 323.419 525.636 326.064C524.057 328.709 521.881 330.8 519.108 332.336C516.377 333.872 513.241 334.64 509.7 334.64ZM509.7 325.808C511.236 325.808 512.601 325.424 513.796 324.656C514.991 323.888 515.929 322.843 516.612 321.52C517.295 320.197 517.615 318.683 517.572 316.976C517.615 315.269 517.295 313.755 516.612 312.432C515.929 311.067 514.991 310 513.796 309.232C512.601 308.464 511.236 308.08 509.7 308.08C508.164 308.08 506.777 308.464 505.54 309.232C504.345 310 503.407 311.067 502.724 312.432C502.041 313.755 501.721 315.269 501.764 316.976C501.721 318.683 502.041 320.197 502.724 321.52C503.407 322.843 504.345 323.888 505.54 324.656C506.777 325.424 508.164 325.808 509.7 325.808Z" fill="#141219"/>
<path d="M534.7 334V300.016H544.428L544.876 311.088L542.956 308.976C543.468 307.141 544.3 305.499 545.452 304.048C546.647 302.597 548.033 301.445 549.612 300.592C551.191 299.739 552.876 299.312 554.668 299.312C555.436 299.312 556.14 299.376 556.78 299.504C557.463 299.632 558.081 299.781 558.636 299.952L555.82 311.28C555.351 310.981 554.711 310.747 553.9 310.576C553.132 310.363 552.321 310.256 551.468 310.256C550.529 310.256 549.655 310.427 548.844 310.768C548.033 311.067 547.351 311.515 546.796 312.112C546.241 312.709 545.793 313.413 545.452 314.224C545.153 315.035 545.004 315.952 545.004 316.976V334H534.7Z" fill="#141219"/>
<path d="M563.825 334V300.016H573.553L573.873 306.928L571.825 307.696C572.294 306.16 573.126 304.773 574.321 303.536C575.558 302.256 577.03 301.232 578.737 300.464C580.444 299.696 582.236 299.312 584.113 299.312C586.673 299.312 588.828 299.845 590.577 300.912C592.326 301.936 593.649 303.493 594.545 305.584C595.441 307.632 595.889 310.149 595.889 313.136V334H585.585V313.968C585.585 312.603 585.393 311.472 585.009 310.576C584.625 309.68 584.028 309.019 583.217 308.592C582.449 308.123 581.489 307.909 580.337 307.952C579.441 307.952 578.609 308.101 577.841 308.4C577.073 308.656 576.412 309.061 575.857 309.616C575.302 310.128 574.854 310.725 574.513 311.408C574.214 312.091 574.065 312.837 574.065 313.648V334H569.009C567.814 334 566.79 334 565.937 334C565.084 334 564.38 334 563.825 334Z" fill="#141219"/>
<path d="M620.642 334.64C616.887 334.64 613.623 333.893 610.85 332.4C608.077 330.864 605.922 328.795 604.386 326.192C602.85 323.547 602.082 320.539 602.082 317.168C602.082 314.565 602.509 312.176 603.362 310C604.215 307.824 605.41 305.947 606.946 304.368C608.482 302.747 610.295 301.509 612.386 300.656C614.519 299.76 616.845 299.312 619.362 299.312C621.751 299.312 623.927 299.739 625.89 300.592C627.895 301.445 629.623 302.64 631.074 304.176C632.525 305.712 633.634 307.525 634.402 309.616C635.17 311.707 635.511 313.989 635.426 316.464L635.362 319.216H608.29L606.818 313.456H627.042L625.954 314.672V313.392C625.869 312.325 625.527 311.387 624.93 310.576C624.375 309.723 623.629 309.061 622.69 308.592C621.751 308.123 620.685 307.888 619.49 307.888C617.826 307.888 616.397 308.229 615.202 308.912C614.05 309.552 613.175 310.512 612.578 311.792C611.981 313.029 611.682 314.565 611.682 316.4C611.682 318.277 612.066 319.92 612.834 321.328C613.645 322.693 614.797 323.76 616.29 324.528C617.826 325.296 619.639 325.68 621.73 325.68C623.181 325.68 624.461 325.467 625.57 325.04C626.722 324.613 627.959 323.888 629.282 322.864L634.082 329.648C632.759 330.8 631.351 331.739 629.858 332.464C628.365 333.189 626.829 333.723 625.25 334.064C623.714 334.448 622.178 334.64 620.642 334.64Z" fill="#141219"/>
<path d="M641.95 334V300.016H651.678L652.126 311.088L650.206 308.976C650.718 307.141 651.55 305.499 652.702 304.048C653.897 302.597 655.283 301.445 656.862 300.592C658.441 299.739 660.126 299.312 661.918 299.312C662.686 299.312 663.39 299.376 664.03 299.504C664.713 299.632 665.331 299.781 665.886 299.952L663.07 311.28C662.601 310.981 661.961 310.747 661.15 310.576C660.382 310.363 659.571 310.256 658.718 310.256C657.779 310.256 656.905 310.427 656.094 310.768C655.283 311.067 654.601 311.515 654.046 312.112C653.491 312.709 653.043 313.413 652.702 314.224C652.403 315.035 652.254 315.952 652.254 316.976V334H641.95Z" fill="#141219"/>
<path d="M707.575 334.64C704.034 334.64 700.876 333.872 698.103 332.336C695.372 330.8 693.196 328.709 691.575 326.064C689.996 323.419 689.207 320.389 689.207 316.976C689.207 313.563 689.996 310.533 691.575 307.888C693.196 305.243 695.372 303.152 698.103 301.616C700.876 300.08 704.034 299.312 707.575 299.312C711.116 299.312 714.252 300.08 716.983 301.616C719.756 303.152 721.932 305.243 723.511 307.888C725.09 310.533 725.879 313.563 725.879 316.976C725.879 320.389 725.09 323.419 723.511 326.064C721.932 328.709 719.756 330.8 716.983 332.336C714.252 333.872 711.116 334.64 707.575 334.64ZM707.575 325.808C709.111 325.808 710.476 325.424 711.671 324.656C712.866 323.888 713.804 322.843 714.487 321.52C715.17 320.197 715.49 318.683 715.447 316.976C715.49 315.269 715.17 313.755 714.487 312.432C713.804 311.067 712.866 310 711.671 309.232C710.476 308.464 709.111 308.08 707.575 308.08C706.039 308.08 704.652 308.464 703.415 309.232C702.22 310 701.282 311.067 700.599 312.432C699.916 313.755 699.596 315.269 699.639 316.976C699.596 318.683 699.916 320.197 700.599 321.52C701.282 322.843 702.22 323.888 703.415 324.656C704.652 325.424 706.039 325.808 707.575 325.808Z" fill="#141219"/>
<path d="M733.437 334V298.352C733.437 296.133 733.906 294.128 734.845 292.336C735.826 290.544 737.17 289.136 738.877 288.112C740.626 287.045 742.653 286.512 744.957 286.512C746.578 286.512 748.072 286.747 749.437 287.216C750.802 287.685 752.018 288.347 753.085 289.2L750.141 296.688C749.586 296.389 749.053 296.155 748.541 295.984C748.029 295.813 747.56 295.728 747.133 295.728C746.365 295.728 745.725 295.856 745.213 296.112C744.701 296.368 744.317 296.773 744.061 297.328C743.848 297.84 743.741 298.48 743.741 299.248V334H738.621C737.469 334 736.445 334 735.549 334C734.696 334 733.992 334 733.437 334ZM728.509 309.424V300.976H750.717V309.424H728.509Z" fill="#141219"/>
<path d="M778.038 334V289.2H797.814C800.886 289.2 803.489 289.648 805.622 290.544C807.755 291.397 809.355 292.656 810.422 294.32C811.531 295.941 812.086 297.904 812.086 300.208C812.086 302.768 811.446 304.923 810.166 306.672C808.929 308.421 807.115 309.595 804.726 310.192L804.598 308.976C806.603 309.403 808.331 310.149 809.782 311.216C811.275 312.283 812.427 313.605 813.238 315.184C814.049 316.72 814.454 318.469 814.454 320.432C814.454 322.693 814.07 324.677 813.302 326.384C812.534 328.048 811.425 329.456 809.974 330.608C808.523 331.76 806.817 332.613 804.854 333.168C802.934 333.723 800.801 334 798.454 334H778.038ZM788.278 324.912H798.07C799.265 324.912 800.267 324.72 801.078 324.336C801.931 323.952 802.593 323.397 803.062 322.672C803.531 321.904 803.766 320.987 803.766 319.92C803.766 318.939 803.51 318.107 802.998 317.424C802.529 316.741 801.846 316.229 800.95 315.888C800.054 315.504 798.987 315.312 797.75 315.312H788.278V324.912ZM788.278 307.184H796.278C797.387 307.184 798.326 307.013 799.094 306.672C799.905 306.288 800.502 305.776 800.886 305.136C801.313 304.453 801.526 303.643 801.526 302.704C801.526 301.339 801.057 300.272 800.118 299.504C799.179 298.693 797.771 298.288 795.894 298.288H788.278V307.184Z" fill="url(#paint11_linear_577_2865)"/>
<path d="M821.638 334V286.64H831.686V306.928L829.638 307.696C830.107 306.16 830.939 304.773 832.134 303.536C833.371 302.256 834.843 301.232 836.55 300.464C838.256 299.696 840.048 299.312 841.926 299.312C844.486 299.312 846.64 299.845 848.39 300.912C850.139 301.936 851.462 303.493 852.358 305.584C853.254 307.632 853.702 310.149 853.702 313.136V334H843.398V313.968C843.398 312.603 843.206 311.472 842.822 310.576C842.438 309.68 841.84 309.019 841.03 308.592C840.262 308.123 839.302 307.909 838.15 307.952C837.254 307.952 836.422 308.101 835.654 308.4C834.886 308.656 834.224 309.061 833.67 309.616C833.115 310.128 832.667 310.725 832.326 311.408C832.027 312.091 831.878 312.837 831.878 313.648V334H826.822C825.627 334 824.603 334 823.75 334C822.896 334 822.192 334 821.638 334Z" fill="url(#paint12_linear_577_2865)"/>
<path d="M874.807 334.576C871.948 334.576 869.388 333.829 867.127 332.336C864.908 330.8 863.137 328.709 861.815 326.064C860.492 323.376 859.831 320.347 859.831 316.976C859.831 313.52 860.492 310.469 861.815 307.824C863.137 305.179 864.951 303.109 867.255 301.616C869.559 300.08 872.183 299.312 875.127 299.312C876.748 299.312 878.22 299.547 879.543 300.016C880.908 300.485 882.103 301.147 883.127 302C884.151 302.811 885.025 303.771 885.751 304.88C886.476 305.947 887.009 307.099 887.351 308.336L885.239 308.08V300.016H895.415V334H885.047V325.808L887.351 325.744C887.009 326.939 886.455 328.069 885.687 329.136C884.919 330.203 883.98 331.141 882.871 331.952C881.761 332.763 880.524 333.403 879.159 333.872C877.793 334.341 876.343 334.576 874.807 334.576ZM877.623 325.936C879.201 325.936 880.567 325.573 881.719 324.848C882.871 324.123 883.767 323.099 884.407 321.776C885.047 320.411 885.367 318.811 885.367 316.976C885.367 315.141 885.047 313.563 884.407 312.24C883.767 310.875 882.871 309.829 881.719 309.104C880.567 308.336 879.201 307.952 877.623 307.952C876.087 307.952 874.743 308.336 873.591 309.104C872.481 309.829 871.607 310.875 870.967 312.24C870.327 313.563 870.007 315.141 870.007 316.976C870.007 318.811 870.327 320.411 870.967 321.776C871.607 323.099 872.481 324.123 873.591 324.848C874.743 325.573 876.087 325.936 877.623 325.936Z" fill="url(#paint13_linear_577_2865)"/>
<path d="M904.45 334V300.016H914.178L914.626 311.088L912.706 308.976C913.218 307.141 914.05 305.499 915.202 304.048C916.397 302.597 917.783 301.445 919.362 300.592C920.941 299.739 922.626 299.312 924.418 299.312C925.186 299.312 925.89 299.376 926.53 299.504C927.213 299.632 927.831 299.781 928.386 299.952L925.57 311.28C925.101 310.981 924.461 310.747 923.65 310.576C922.882 310.363 922.071 310.256 921.218 310.256C920.279 310.256 919.405 310.427 918.594 310.768C917.783 311.067 917.101 311.515 916.546 312.112C915.991 312.709 915.543 313.413 915.202 314.224C914.903 315.035 914.754 315.952 914.754 316.976V334H904.45Z" fill="url(#paint14_linear_577_2865)"/>
<path d="M944.682 334.576C941.823 334.576 939.263 333.829 937.002 332.336C934.783 330.8 933.012 328.709 931.69 326.064C930.367 323.376 929.706 320.347 929.706 316.976C929.706 313.52 930.367 310.469 931.69 307.824C933.012 305.179 934.826 303.109 937.13 301.616C939.434 300.08 942.058 299.312 945.002 299.312C946.623 299.312 948.095 299.547 949.418 300.016C950.783 300.485 951.978 301.147 953.002 302C954.026 302.811 954.9 303.771 955.626 304.88C956.351 305.947 956.884 307.099 957.226 308.336L955.114 308.08V300.016H965.29V334H954.922V325.808L957.226 325.744C956.884 326.939 956.33 328.069 955.562 329.136C954.794 330.203 953.855 331.141 952.746 331.952C951.636 332.763 950.399 333.403 949.034 333.872C947.668 334.341 946.218 334.576 944.682 334.576ZM947.498 325.936C949.076 325.936 950.442 325.573 951.594 324.848C952.746 324.123 953.642 323.099 954.282 321.776C954.922 320.411 955.242 318.811 955.242 316.976C955.242 315.141 954.922 313.563 954.282 312.24C953.642 310.875 952.746 309.829 951.594 309.104C950.442 308.336 949.076 307.952 947.498 307.952C945.962 307.952 944.618 308.336 943.466 309.104C942.356 309.829 941.482 310.875 940.842 312.24C940.202 313.563 939.882 315.141 939.882 316.976C939.882 318.811 940.202 320.411 940.842 321.776C941.482 323.099 942.356 324.123 943.466 324.848C944.618 325.573 945.962 325.936 947.498 325.936Z" fill="url(#paint15_linear_577_2865)"/>
<path d="M977.141 334V291.44H987.381V334H977.141ZM971.125 308.976V300.016H993.973V308.976H971.125Z" fill="url(#paint16_linear_577_2865)"/>
<path d="M236 230C239.429 239.266 246.734 246.571 256 250C246.734 253.429 239.429 260.734 236 270C232.571 260.734 225.266 253.429 216 250C225.266 246.571 232.571 239.266 236 230Z" fill="#FFD700"/>
<path d="M1036 68L1036.97 81.8763L1042.18 68.9789L1038.81 82.4758L1047.76 71.8197L1040.38 83.6159L1052.18 76.2443L1041.52 85.1853L1055.02 81.8197L1042.12 87.0301L1056 88L1042.12 88.9699L1055.02 94.1803L1041.52 90.8147L1052.18 99.7557L1040.38 92.3841L1047.76 104.18L1038.81 93.5242L1042.18 107.021L1036.97 94.1237L1036 108L1035.03 94.1237L1029.82 107.021L1033.19 93.5242L1024.24 104.18L1031.62 92.3841L1019.82 99.7557L1030.48 90.8147L1016.98 94.1803L1029.88 88.9699L1016 88L1029.88 87.0301L1016.98 81.8197L1030.48 85.1853L1019.82 76.2443L1031.62 83.6159L1024.24 71.8197L1033.19 82.4758L1029.82 68.9789L1035.03 81.8763L1036 68Z" fill="#FFD700"/>
<circle cx="295" cy="131" r="39.5" fill="white" stroke="#3EC3A4"/>
<g clip-path="url(#clip0_577_2865)">
<path d="M313.324 137.297L310.243 151.243L300.033 146.047V133.669L313.324 137.297Z" fill="#3EC3A4"/>
<path d="M320.452 133.669V146.047L310.242 151.243V138.865L312.814 135.083L320.452 133.669Z" fill="#6FD7A3"/>
<path d="M320.453 133.669L310.243 138.865L300.033 133.669L310.243 128.473L320.453 133.669Z" fill="#9BE69D"/>
<path d="M282.838 137.297L279.757 151.243L269.547 146.047V133.669L282.838 137.297Z" fill="#3EC3A4"/>
<path d="M289.967 133.669V146.047L279.757 151.243V138.865L282.329 135.083L289.967 133.669Z" fill="#6FD7A3"/>
<path d="M289.967 133.669L279.757 138.865L269.547 133.669L279.757 128.473L289.967 133.669Z" fill="#9BE69D"/>
<path d="M298.081 145.054L295 159L284.79 153.804V141.426L298.081 145.054Z" fill="#3EC3A4"/>
<path d="M305.21 141.426V153.804L295 159V146.622L297.572 142.84L305.21 141.426Z" fill="#6FD7A3"/>
<path d="M305.21 141.426L295 146.622L284.79 141.426L295 136.23L305.21 141.426Z" fill="#9BE69D"/>
<path d="M298.081 111.824L295 125.77L284.79 120.574V108.196L298.081 111.824Z" fill="#3EC3A4"/>
<path d="M305.21 108.196V120.574L295 125.77V113.392L297.572 109.611L305.21 108.196Z" fill="#6FD7A3"/>
<path d="M305.21 108.196L295 113.392L284.79 108.196L295 103L305.21 108.196Z" fill="#9BE69D"/>
<path d="M313.324 119.581L310.243 133.527L300.033 128.331V115.953L313.324 119.581Z" fill="#3EC3A4"/>
<path d="M320.452 115.953V128.331L310.242 133.527V121.149L312.814 117.367L320.452 115.953Z" fill="#6FD7A3"/>
<path d="M320.453 115.953L310.243 121.149L300.033 115.953L310.243 110.757L320.453 115.953Z" fill="#9BE69D"/>
<path d="M282.838 119.581L279.757 133.527L269.547 128.331V115.953L282.838 119.581Z" fill="#3EC3A4"/>
<path d="M289.967 115.953V128.331L279.757 133.527V121.149L282.329 117.367L289.967 115.953Z" fill="#6FD7A3"/>
<path d="M289.967 115.953L279.757 121.149L269.547 115.953L279.757 110.757L289.967 115.953Z" fill="#9BE69D"/>
<path d="M298.081 127.338L295 141.285L284.79 136.089V123.71L298.081 127.338Z" fill="#3EC3A4"/>
<path d="M305.21 123.71V136.089L295 141.285V128.906L297.572 125.125L305.21 123.71Z" fill="#6FD7A3"/>
<path d="M305.21 123.71L295 128.906L284.79 123.71L295 118.514L305.21 123.71Z" fill="#9BE69D"/>
</g>
<circle cx="374" cy="329" r="39.5" fill="white" stroke="#CB97E7"/>
<path d="M374 310.336L356.249 323.233L363.029 344.1H384.97L391.751 323.233L374 310.336Z" fill="#E5CAF3"/>
<path d="M390.457 351.652L374 357L357.541 351.652L358.288 343.109L365.118 341.223H382.88L389.675 343.664L390.457 351.652Z" fill="#CB97E7"/>
<path d="M374 301L378.476 307.446L374 313.891L359.63 324.331L352.77 326.993L347.37 320.348L357.541 306.348L374 301ZM400.63 320.348V337.652L390.457 351.652L382.88 341.223L388.37 324.331L391.755 319.358L400.63 320.348Z" fill="#D9B1EE"/>
<path d="M365.119 341.223L357.541 351.653L347.37 337.653V320.348L359.63 324.331L365.119 341.223Z" fill="#BD80E1"/>
<path d="M400.63 320.348L388.37 324.331L374 313.891V301L390.457 306.348L400.63 320.348Z" fill="#CB97E7"/>
<circle cx="1084" cy="299" r="39.5" fill="white" stroke="#CB97E7"/>
<path d="M1091.85 292.476L1084 328L1057.99 314.765V283.235L1091.85 292.476Z" fill="#CB97E7"/>
<path d="M1110.01 283.235V314.765L1084 328V296.471L1090.55 286.838L1110.01 283.235Z" fill="#D9B1EE"/>
<path d="M1110.01 283.235L1084 296.471L1057.99 283.235L1084 270L1110.01 283.235Z" fill="#E5CAF3"/>
<path d="M1084 277.857L1073.43 283.235L1084 288.613L1087.17 283.235L1084 277.857Z" fill="#D9B1EE"/>
<path d="M1084 277.857L1094.57 283.235L1084 288.613V277.857Z" fill="#CB97E7"/>
<path d="M1066.16 296.558V309.757L1072.76 308.557L1075.83 303.828V301.478L1066.16 296.558Z" fill="#D9B1EE"/>
<path d="M1066.16 309.756L1075.83 314.677V303.828L1066.16 309.756Z" fill="#E5CAF3"/>
<path d="M1101.84 296.558V309.757L1095.24 308.557L1092.17 303.828V301.478L1101.84 296.558Z" fill="#CB97E7"/>
<path d="M1101.84 309.756L1092.17 314.677V303.828L1101.84 309.756Z" fill="#E5CAF3"/>
<circle cx="1172" cy="154" r="39.5" fill="white" stroke="#FB2B3A"/>
<path d="M1198 171.917L1179.79 165.501L1172 155.411L1167.88 148.271L1172 124.083L1198 171.917Z" fill="#FD8087"/>
<path d="M1172 124.083V155.411L1163.67 165.004L1146 171.917L1172 124.083Z" fill="#FE646F"/>
<path d="M1198 171.917H1146L1172 155.411L1198 171.917Z" fill="#FB2B3A"/>
<circle cx="1373" cy="359" r="150.5" stroke="#68BA4C" stroke-width="5"/>
<circle cx="-44" cy="153" r="150.5" stroke="#0169B6" stroke-width="5"/>
<circle cx="1373" cy="359" r="131" fill="#FF9F4A"/>
<circle cx="-44" cy="151" r="131" fill="#FF9F4A"/>
<defs>
<linearGradient id="paint0_linear_577_2865" x1="370.944" y1="228.688" x2="1071.83" y2="228.688" gradientUnits="userSpaceOnUse">
<stop stop-color="#0169B6"/>
<stop offset="1" stop-color="#68BA4C"/>
</linearGradient>
<linearGradient id="paint1_linear_577_2865" x1="370.944" y1="228.688" x2="1071.83" y2="228.688" gradientUnits="userSpaceOnUse">
<stop stop-color="#0169B6"/>
<stop offset="1" stop-color="#68BA4C"/>
</linearGradient>
<linearGradient id="paint2_linear_577_2865" x1="370.944" y1="228.688" x2="1071.83" y2="228.688" gradientUnits="userSpaceOnUse">
<stop stop-color="#0169B6"/>
<stop offset="1" stop-color="#68BA4C"/>
</linearGradient>
<linearGradient id="paint3_linear_577_2865" x1="370.944" y1="228.688" x2="1071.83" y2="228.688" gradientUnits="userSpaceOnUse">
<stop stop-color="#0169B6"/>
<stop offset="1" stop-color="#68BA4C"/>
</linearGradient>
<linearGradient id="paint4_linear_577_2865" x1="370.944" y1="228.688" x2="1071.83" y2="228.688" gradientUnits="userSpaceOnUse">
<stop stop-color="#0169B6"/>
<stop offset="1" stop-color="#68BA4C"/>
</linearGradient>
<linearGradient id="paint5_linear_577_2865" x1="370.944" y1="228.688" x2="1071.83" y2="228.688" gradientUnits="userSpaceOnUse">
<stop stop-color="#0169B6"/>
<stop offset="1" stop-color="#68BA4C"/>
</linearGradient>
<linearGradient id="paint6_linear_577_2865" x1="370.944" y1="228.688" x2="1071.83" y2="228.688" gradientUnits="userSpaceOnUse">
<stop stop-color="#0169B6"/>
<stop offset="1" stop-color="#68BA4C"/>
</linearGradient>
<linearGradient id="paint7_linear_577_2865" x1="370.944" y1="228.688" x2="1071.83" y2="228.688" gradientUnits="userSpaceOnUse">
<stop stop-color="#0169B6"/>
<stop offset="1" stop-color="#68BA4C"/>
</linearGradient>
<linearGradient id="paint8_linear_577_2865" x1="370.944" y1="228.688" x2="1071.83" y2="228.688" gradientUnits="userSpaceOnUse">
<stop stop-color="#0169B6"/>
<stop offset="1" stop-color="#68BA4C"/>
</linearGradient>
<linearGradient id="paint9_linear_577_2865" x1="370.944" y1="228.688" x2="1071.83" y2="228.688" gradientUnits="userSpaceOnUse">
<stop stop-color="#0169B6"/>
<stop offset="1" stop-color="#68BA4C"/>
</linearGradient>
<linearGradient id="paint10_linear_577_2865" x1="370.944" y1="228.688" x2="1071.83" y2="228.688" gradientUnits="userSpaceOnUse">
<stop stop-color="#0169B6"/>
<stop offset="1" stop-color="#68BA4C"/>
</linearGradient>
<linearGradient id="paint11_linear_577_2865" x1="370.944" y1="228.688" x2="1071.83" y2="228.688" gradientUnits="userSpaceOnUse">
<stop offset="0.625" stop-color="#FF8A14"/>
<stop offset="0.855769" stop-color="#46B000"/>
</linearGradient>
<linearGradient id="paint12_linear_577_2865" x1="370.944" y1="228.688" x2="1071.83" y2="228.688" gradientUnits="userSpaceOnUse">
<stop offset="0.625" stop-color="#FF8A14"/>
<stop offset="0.855769" stop-color="#46B000"/>
</linearGradient>
<linearGradient id="paint13_linear_577_2865" x1="370.944" y1="228.688" x2="1071.83" y2="228.688" gradientUnits="userSpaceOnUse">
<stop offset="0.625" stop-color="#FF8A14"/>
<stop offset="0.855769" stop-color="#46B000"/>
</linearGradient>
<linearGradient id="paint14_linear_577_2865" x1="370.944" y1="228.688" x2="1071.83" y2="228.688" gradientUnits="userSpaceOnUse">
<stop offset="0.625" stop-color="#FF8A14"/>
<stop offset="0.855769" stop-color="#46B000"/>
</linearGradient>
<linearGradient id="paint15_linear_577_2865" x1="370.944" y1="228.688" x2="1071.83" y2="228.688" gradientUnits="userSpaceOnUse">
<stop offset="0.625" stop-color="#FF8A14"/>
<stop offset="0.855769" stop-color="#46B000"/>
</linearGradient>
<linearGradient id="paint16_linear_577_2865" x1="370.944" y1="228.688" x2="1071.83" y2="228.688" gradientUnits="userSpaceOnUse">
<stop offset="0.625" stop-color="#FF8A14"/>
<stop offset="0.855769" stop-color="#46B000"/>
</linearGradient>
<clipPath id="clip0_577_2865">
<rect width="56" height="56" fill="white" transform="translate(267 103)"/>
</clipPath>
</defs>
</svg>
