<svg width="1021" height="341" viewBox="0 0 1021 341" fill="none" xmlns="http://www.w3.org/2000/svg">
<g clip-path="url(#clip0_577_2865)">
<path d="M173.944 126V81.1998H184.824V116.4H204.792V126H173.944Z" fill="#141219"/>
<path d="M226.798 126.64C223.044 126.64 219.78 125.893 217.006 124.4C214.233 122.864 212.078 120.795 210.542 118.192C209.006 115.547 208.238 112.539 208.238 109.168C208.238 106.565 208.665 104.176 209.518 102C210.372 99.8238 211.566 97.9465 213.102 96.3678C214.638 94.7465 216.452 93.5092 218.542 92.6558C220.676 91.7598 223.001 91.3118 225.518 91.3118C227.908 91.3118 230.084 91.7385 232.046 92.5918C234.052 93.4452 235.78 94.6398 237.23 96.1758C238.681 97.7118 239.79 99.5252 240.558 101.616C241.326 103.707 241.668 105.989 241.582 108.464L241.518 111.216H214.446L212.974 105.456H233.198L232.11 106.672V105.392C232.025 104.325 231.684 103.387 231.086 102.576C230.532 101.723 229.785 101.061 228.846 100.592C227.908 100.123 226.841 99.8878 225.646 99.8878C223.982 99.8878 222.553 100.229 221.358 100.912C220.206 101.552 219.332 102.512 218.734 103.792C218.137 105.029 217.838 106.565 217.838 108.4C217.838 110.277 218.222 111.92 218.99 113.328C219.801 114.693 220.953 115.76 222.446 116.528C223.982 117.296 225.796 117.68 227.886 117.68C229.337 117.68 230.617 117.467 231.726 117.04C232.878 116.613 234.116 115.888 235.438 114.864L240.238 121.648C238.916 122.8 237.508 123.739 236.014 124.464C234.521 125.189 232.985 125.723 231.406 126.064C229.87 126.448 228.334 126.64 226.798 126.64Z" fill="#141219"/>
<path d="M260.65 126.576C257.792 126.576 255.232 125.829 252.97 124.336C250.752 122.8 248.981 120.709 247.658 118.064C246.336 115.376 245.674 112.347 245.674 108.976C245.674 105.52 246.336 102.469 247.658 99.8238C248.981 97.1785 250.794 95.1092 253.098 93.6158C255.402 92.0798 258.026 91.3118 260.97 91.3118C262.592 91.3118 264.064 91.5465 265.386 92.0158C266.752 92.4852 267.946 93.1465 268.97 93.9998C269.994 94.8105 270.869 95.7705 271.594 96.8798C272.32 97.9465 272.853 99.0985 273.194 100.336L271.082 100.08V92.0158H281.258V126H270.89V117.808L273.194 117.744C272.853 118.939 272.298 120.069 271.53 121.136C270.762 122.203 269.824 123.141 268.714 123.952C267.605 124.763 266.368 125.403 265.002 125.872C263.637 126.341 262.186 126.576 260.65 126.576ZM263.466 117.936C265.045 117.936 266.41 117.573 267.562 116.848C268.714 116.123 269.61 115.099 270.25 113.776C270.89 112.411 271.21 110.811 271.21 108.976C271.21 107.141 270.89 105.563 270.25 104.24C269.61 102.875 268.714 101.829 267.562 101.104C266.41 100.336 265.045 99.9518 263.466 99.9518C261.93 99.9518 260.586 100.336 259.434 101.104C258.325 101.829 257.45 102.875 256.81 104.24C256.17 105.563 255.85 107.141 255.85 108.976C255.85 110.811 256.17 112.411 256.81 113.776C257.45 115.099 258.325 116.123 259.434 116.848C260.586 117.573 261.93 117.936 263.466 117.936Z" fill="#141219"/>
<path d="M290.294 126V92.0158H300.022L300.47 103.088L298.55 100.976C299.062 99.1412 299.894 97.4985 301.046 96.0478C302.241 94.5972 303.627 93.4452 305.206 92.5918C306.785 91.7385 308.47 91.3118 310.262 91.3118C311.03 91.3118 311.734 91.3758 312.374 91.5038C313.057 91.6318 313.675 91.7812 314.23 91.9518L311.414 103.28C310.944 102.981 310.305 102.747 309.494 102.576C308.726 102.363 307.915 102.256 307.062 102.256C306.123 102.256 305.249 102.427 304.438 102.768C303.627 103.067 302.944 103.515 302.39 104.112C301.835 104.709 301.387 105.413 301.046 106.224C300.747 107.035 300.598 107.952 300.598 108.976V126H290.294Z" fill="#141219"/>
<path d="M319.419 126V92.0158H329.147L329.467 98.9278L327.419 99.6958C327.888 98.1598 328.72 96.7732 329.915 95.5358C331.152 94.2558 332.624 93.2318 334.331 92.4638C336.038 91.6958 337.829 91.3118 339.707 91.3118C342.267 91.3118 344.422 91.8452 346.171 92.9118C347.92 93.9358 349.243 95.4932 350.139 97.5838C351.035 99.6318 351.483 102.149 351.483 105.136V126H341.179V105.968C341.179 104.603 340.987 103.472 340.603 102.576C340.219 101.68 339.622 101.019 338.811 100.592C338.043 100.123 337.083 99.9092 335.931 99.9518C335.035 99.9518 334.203 100.101 333.435 100.4C332.667 100.656 332.006 101.061 331.451 101.616C330.896 102.128 330.448 102.725 330.107 103.408C329.808 104.091 329.659 104.837 329.659 105.648V126H324.603C323.408 126 322.384 126 321.531 126C320.678 126 319.974 126 319.419 126Z" fill="#141219"/>
<path d="M360.62 126V92.0158H370.86V126H360.62ZM365.74 85.2958C363.82 85.2958 362.305 84.8478 361.196 83.9518C360.129 83.0132 359.596 81.6905 359.596 79.9838C359.596 78.4478 360.151 77.1892 361.26 76.2078C362.369 75.2265 363.863 74.7358 365.74 74.7358C367.66 74.7358 369.153 75.2052 370.22 76.1438C371.287 77.0398 371.82 78.3198 371.82 79.9838C371.82 81.5625 371.265 82.8425 370.156 83.8238C369.089 84.8052 367.617 85.2958 365.74 85.2958Z" fill="#141219"/>
<path d="M380.481 126V92.0158H390.209L390.529 98.9278L388.481 99.6958C388.951 98.1598 389.783 96.7732 390.977 95.5358C392.215 94.2558 393.687 93.2318 395.393 92.4638C397.1 91.6958 398.892 91.3118 400.769 91.3118C403.329 91.3118 405.484 91.8452 407.233 92.9118C408.983 93.9358 410.305 95.4932 411.201 97.5838C412.097 99.6318 412.545 102.149 412.545 105.136V126H402.241V105.968C402.241 104.603 402.049 103.472 401.665 102.576C401.281 101.68 400.684 101.019 399.873 100.592C399.105 100.123 398.145 99.9092 396.993 99.9518C396.097 99.9518 395.265 100.101 394.497 100.4C393.729 100.656 393.068 101.061 392.513 101.616C391.959 102.128 391.511 102.725 391.169 103.408C390.871 104.091 390.721 104.837 390.721 105.648V126H385.665C384.471 126 383.447 126 382.593 126C381.74 126 381.036 126 380.481 126Z" fill="#141219"/>
<path d="M436.658 140.72C433.885 140.72 431.112 140.315 428.338 139.504C425.608 138.693 423.389 137.648 421.682 136.368L425.266 129.2C426.162 129.797 427.144 130.309 428.21 130.736C429.32 131.205 430.472 131.568 431.666 131.824C432.861 132.08 434.077 132.208 435.314 132.208C437.49 132.208 439.261 131.888 440.626 131.248C441.992 130.608 443.016 129.627 443.698 128.304C444.381 127.024 444.722 125.403 444.722 123.44V117.744L446.706 118.064C446.408 119.472 445.661 120.752 444.466 121.904C443.314 123.056 441.885 123.995 440.178 124.72C438.472 125.403 436.658 125.744 434.738 125.744C431.666 125.744 428.914 125.04 426.482 123.632C424.093 122.181 422.194 120.197 420.786 117.68C419.421 115.12 418.738 112.176 418.738 108.848C418.738 105.435 419.421 102.427 420.786 99.8238C422.152 97.1785 424.029 95.1092 426.418 93.6158C428.808 92.0798 431.496 91.3118 434.482 91.3118C435.762 91.3118 436.978 91.4612 438.13 91.7598C439.325 92.0585 440.413 92.4638 441.394 92.9758C442.418 93.4452 443.314 94.0212 444.082 94.7038C444.893 95.3438 445.533 96.0478 446.002 96.8158C446.514 97.5838 446.856 98.3732 447.026 99.1838L444.914 99.6958L445.298 92.0158H455.026V123.248C455.026 126.021 454.6 128.475 453.746 130.608C452.936 132.784 451.72 134.619 450.098 136.112C448.52 137.648 446.6 138.8 444.338 139.568C442.077 140.336 439.517 140.72 436.658 140.72ZM436.914 117.808C438.578 117.808 440.008 117.445 441.202 116.72C442.44 115.952 443.378 114.907 444.018 113.584C444.701 112.261 445.042 110.704 445.042 108.912C445.042 107.12 444.701 105.563 444.018 104.24C443.378 102.875 442.44 101.829 441.202 101.104C440.008 100.336 438.578 99.9518 436.914 99.9518C435.293 99.9518 433.885 100.336 432.69 101.104C431.496 101.829 430.557 102.875 429.874 104.24C429.234 105.563 428.914 107.12 428.914 108.912C428.914 110.704 429.234 112.261 429.874 113.584C430.557 114.907 431.496 115.952 432.69 116.72C433.885 117.445 435.293 117.808 436.914 117.808Z" fill="#141219"/>
<path d="M497.923 89.7118L496.323 99.0558H510.979L509.507 107.312H494.851L493.059 117.36H509.635L508.099 126H480.579L488.515 81.0718H516.035L514.499 89.7118H497.923Z" fill="url(#paint0_linear_577_2865)"/>
<path d="M539.46 108.336L548.612 126H536.324L531.204 116.144L523.716 126H511.876L526.852 107.76L517.828 90.2878H530.116L535.236 100.208L542.724 90.2878H554.564L539.46 108.336Z" fill="url(#paint1_linear_577_2865)"/>
<path d="M569.149 95.3438C570.514 93.6798 572.221 92.3358 574.269 91.3118C576.359 90.2878 578.664 89.7758 581.181 89.7758C585.021 89.7758 588.114 91.0345 590.461 93.5518C592.85 96.0692 594.045 99.4825 594.045 103.792C594.045 105.115 593.917 106.544 593.661 108.08C593.021 111.749 591.762 114.992 589.885 117.808C588.007 120.581 585.746 122.736 583.101 124.272C580.455 125.765 577.661 126.512 574.717 126.512C572.242 126.512 570.151 126 568.445 124.976C566.738 123.952 565.479 122.629 564.669 121.008L560.765 143.024H549.821L559.101 90.2878H570.045L569.149 95.3438ZM582.589 108.08C582.717 107.355 582.781 106.693 582.781 106.096C582.781 103.963 582.162 102.299 580.925 101.104C579.73 99.9092 578.194 99.3118 576.317 99.3118C574.141 99.3118 572.157 100.101 570.365 101.68C568.573 103.259 567.421 105.413 566.909 108.144C566.781 108.912 566.717 109.616 566.717 110.256C566.717 112.347 567.314 113.989 568.509 115.184C569.704 116.379 571.239 116.976 573.117 116.976C575.293 116.976 577.277 116.187 579.069 114.608C580.904 112.987 582.077 110.811 582.589 108.08Z" fill="url(#paint2_linear_577_2865)"/>
<path d="M618.538 89.7758C623.146 89.7758 626.794 91.0345 629.482 93.5518C632.213 96.0265 633.578 99.4185 633.578 103.728C633.578 105.136 633.472 106.395 633.258 107.504C633.088 108.485 632.832 109.531 632.49 110.64H607.722C607.68 110.896 607.658 111.301 607.658 111.856C607.658 113.733 608.17 115.163 609.194 116.144C610.218 117.125 611.584 117.616 613.29 117.616C616.021 117.616 618.112 116.464 619.562 114.16H631.21C629.674 117.787 627.178 120.752 623.722 123.056C620.266 125.36 616.384 126.512 612.074 126.512C607.466 126.512 603.776 125.232 601.002 122.672C598.272 120.112 596.906 116.635 596.906 112.24C596.906 110.917 597.034 109.552 597.29 108.144C597.93 104.432 599.253 101.189 601.258 98.4158C603.264 95.6425 605.76 93.5092 608.746 92.0158C611.733 90.5225 614.997 89.7758 618.538 89.7758ZM622.506 105.072C622.592 104.475 622.634 104.069 622.634 103.856C622.634 102.149 622.101 100.848 621.034 99.9518C619.968 99.0132 618.56 98.5438 616.81 98.5438C614.933 98.5438 613.269 99.1198 611.818 100.272C610.41 101.381 609.386 102.981 608.746 105.072H622.506Z" fill="url(#paint3_linear_577_2865)"/>
<path d="M651.768 96.7518C653.432 94.6185 655.331 92.9545 657.464 91.7598C659.64 90.5225 661.901 89.9038 664.248 89.9038L662.2 101.488H659.192C656.461 101.488 654.307 102.085 652.728 103.28C651.149 104.432 650.104 106.48 649.592 109.424L646.648 126H635.704L641.976 90.2878H652.92L651.768 96.7518Z" fill="url(#paint4_linear_577_2865)"/>
<path d="M675.559 86.5758C673.852 86.5758 672.487 86.1278 671.463 85.2318C670.481 84.2932 669.991 83.1198 669.991 81.7118C669.991 79.7918 670.738 78.1492 672.231 76.7838C673.724 75.4185 675.538 74.7358 677.671 74.7358C679.378 74.7358 680.722 75.2052 681.703 76.1438C682.684 77.0398 683.175 78.2132 683.175 79.6638C683.175 81.5412 682.428 83.1625 680.935 84.5278C679.442 85.8932 677.65 86.5758 675.559 86.5758ZM680.295 90.2878L674.023 126H663.079L669.351 90.2878H680.295Z" fill="url(#paint5_linear_577_2865)"/>
<path d="M704.226 89.7758C708.834 89.7758 712.482 91.0345 715.17 93.5518C717.901 96.0265 719.266 99.4185 719.266 103.728C719.266 105.136 719.159 106.395 718.946 107.504C718.775 108.485 718.519 109.531 718.178 110.64H693.41C693.367 110.896 693.346 111.301 693.346 111.856C693.346 113.733 693.858 115.163 694.882 116.144C695.906 117.125 697.271 117.616 698.978 117.616C701.709 117.616 703.799 116.464 705.25 114.16H716.898C715.362 117.787 712.866 120.752 709.41 123.056C705.954 125.36 702.071 126.512 697.762 126.512C693.154 126.512 689.463 125.232 686.69 122.672C683.959 120.112 682.594 116.635 682.594 112.24C682.594 110.917 682.722 109.552 682.978 108.144C683.618 104.432 684.941 101.189 686.946 98.4158C688.951 95.6425 691.447 93.5092 694.434 92.0158C697.421 90.5225 700.684 89.7758 704.226 89.7758ZM708.194 105.072C708.279 104.475 708.322 104.069 708.322 103.856C708.322 102.149 707.789 100.848 706.722 99.9518C705.655 99.0132 704.247 98.5438 702.498 98.5438C700.621 98.5438 698.957 99.1198 697.506 100.272C696.098 101.381 695.074 102.981 694.434 105.072H708.194Z" fill="url(#paint6_linear_577_2865)"/>
<path d="M749.487 89.9038C753.071 89.9038 755.887 90.9065 757.935 92.9118C759.983 94.9172 761.007 97.7118 761.007 101.296C761.007 102.491 760.879 103.771 760.623 105.136L756.911 126H746.031L749.487 106.608C749.615 105.883 749.679 105.243 749.679 104.688C749.679 102.896 749.167 101.509 748.143 100.528C747.162 99.5465 745.775 99.0558 743.983 99.0558C741.85 99.0558 740.058 99.7172 738.607 101.04C737.157 102.363 736.218 104.219 735.791 106.608V106.288L732.335 126H721.391L727.663 90.2878H738.607L737.775 95.0878C739.183 93.5092 740.89 92.2505 742.895 91.3118C744.943 90.3732 747.141 89.9038 749.487 89.9038Z" fill="url(#paint7_linear_577_2865)"/>
<path d="M765.54 108.144C766.18 104.432 767.503 101.189 769.508 98.4158C771.514 95.6425 773.988 93.5092 776.932 92.0158C779.919 90.5225 783.162 89.7758 786.66 89.7758C791.14 89.7758 794.682 90.9492 797.284 93.2958C799.887 95.6425 801.274 98.9492 801.444 103.216H789.796C789.327 100.485 787.663 99.1198 784.804 99.1198C782.799 99.1198 781.071 99.9092 779.62 101.488C778.17 103.024 777.188 105.243 776.676 108.144C776.506 109.04 776.42 109.979 776.42 110.96C776.42 112.965 776.89 114.501 777.828 115.568C778.767 116.635 780.047 117.168 781.668 117.168C784.484 117.168 786.596 115.803 788.004 113.072H799.716C798.052 117.253 795.492 120.539 792.036 122.928C788.58 125.317 784.634 126.512 780.196 126.512C775.588 126.512 771.919 125.253 769.188 122.736C766.5 120.176 765.156 116.699 765.156 112.304C765.156 110.981 765.284 109.595 765.54 108.144Z" fill="url(#paint8_linear_577_2865)"/>
<path d="M825.538 89.7758C830.146 89.7758 833.794 91.0345 836.482 93.5518C839.213 96.0265 840.578 99.4185 840.578 103.728C840.578 105.136 840.472 106.395 840.258 107.504C840.088 108.485 839.832 109.531 839.49 110.64H814.722C814.68 110.896 814.658 111.301 814.658 111.856C814.658 113.733 815.17 115.163 816.194 116.144C817.218 117.125 818.584 117.616 820.29 117.616C823.021 117.616 825.112 116.464 826.562 114.16H838.21C836.674 117.787 834.178 120.752 830.722 123.056C827.266 125.36 823.384 126.512 819.074 126.512C814.466 126.512 810.776 125.232 808.002 122.672C805.272 120.112 803.906 116.635 803.906 112.24C803.906 110.917 804.034 109.552 804.29 108.144C804.93 104.432 806.253 101.189 808.258 98.4158C810.264 95.6425 812.76 93.5092 815.746 92.0158C818.733 90.5225 821.997 89.7758 825.538 89.7758ZM829.506 105.072C829.592 104.475 829.634 104.069 829.634 103.856C829.634 102.149 829.101 100.848 828.034 99.9518C826.968 99.0132 825.56 98.5438 823.81 98.5438C821.933 98.5438 820.269 99.1198 818.818 100.272C817.41 101.381 816.386 102.981 815.746 105.072H829.506Z" fill="url(#paint9_linear_577_2865)"/>
<path d="M857.552 126.512C854.736 126.512 852.197 126.064 849.936 125.168C847.717 124.272 845.968 123.035 844.688 121.456C843.408 119.835 842.768 117.979 842.768 115.888C842.768 115.589 842.81 115.056 842.896 114.288H853.456C853.37 115.611 853.755 116.677 854.608 117.488C855.504 118.256 856.763 118.64 858.384 118.64C859.749 118.64 860.88 118.384 861.776 117.872C862.672 117.36 863.12 116.635 863.12 115.696C863.12 114.8 862.629 114.096 861.648 113.584C860.709 113.029 859.131 112.368 856.912 111.6C854.608 110.832 852.666 110.085 851.088 109.36C849.552 108.592 848.229 107.504 847.12 106.096C846.01 104.688 845.456 102.917 845.456 100.784C845.456 98.6932 846.074 96.8158 847.312 95.1518C848.549 93.4452 850.277 92.1225 852.496 91.1838C854.757 90.2452 857.36 89.7758 860.304 89.7758C863.248 89.7758 865.808 90.2665 867.984 91.2478C870.16 92.1865 871.845 93.5092 873.04 95.2158C874.235 96.9225 874.832 98.8425 874.832 100.976L874.768 101.936H864.848C864.933 100.656 864.549 99.6318 863.696 98.8638C862.843 98.0958 861.627 97.7118 860.048 97.7118C858.811 97.7118 857.786 97.9678 856.976 98.4798C856.208 98.9918 855.824 99.6958 855.824 100.592C855.824 101.531 856.336 102.32 857.36 102.96C858.427 103.557 860.069 104.24 862.288 105.008C864.592 105.776 866.49 106.544 867.984 107.312C869.52 108.037 870.821 109.083 871.888 110.448C872.997 111.771 873.552 113.435 873.552 115.44C873.552 117.744 872.848 119.728 871.44 121.392C870.074 123.056 868.176 124.336 865.744 125.232C863.355 126.085 860.624 126.512 857.552 126.512Z" fill="url(#paint10_linear_577_2865)"/>
<path d="M198.829 206V163.44H209.069V206H198.829ZM192.813 180.976V172.016H215.661V180.976H192.813Z" fill="#141219"/>
<path d="M221.513 206V158.64H231.561V178.928L229.513 179.696C229.982 178.16 230.814 176.773 232.009 175.536C233.246 174.256 234.718 173.232 236.425 172.464C238.131 171.696 239.923 171.312 241.801 171.312C244.361 171.312 246.515 171.845 248.265 172.912C250.014 173.936 251.337 175.493 252.233 177.584C253.129 179.632 253.577 182.149 253.577 185.136V206H243.273V185.968C243.273 184.603 243.081 183.472 242.697 182.576C242.313 181.68 241.715 181.019 240.905 180.592C240.137 180.123 239.177 179.909 238.025 179.952C237.129 179.952 236.297 180.101 235.529 180.4C234.761 180.656 234.099 181.061 233.545 181.616C232.99 182.128 232.542 182.725 232.201 183.408C231.902 184.091 231.753 184.837 231.753 185.648V206H226.697C225.502 206 224.478 206 223.625 206C222.771 206 222.067 206 221.513 206Z" fill="#141219"/>
<path d="M274.682 206.576C271.823 206.576 269.263 205.829 267.002 204.336C264.783 202.8 263.012 200.709 261.69 198.064C260.367 195.376 259.706 192.347 259.706 188.976C259.706 185.52 260.367 182.469 261.69 179.824C263.012 177.179 264.826 175.109 267.13 173.616C269.434 172.08 272.058 171.312 275.002 171.312C276.623 171.312 278.095 171.547 279.418 172.016C280.783 172.485 281.978 173.147 283.002 174C284.026 174.811 284.9 175.771 285.626 176.88C286.351 177.947 286.884 179.099 287.226 180.336L285.114 180.08V172.016H295.29V206H284.922V197.808L287.226 197.744C286.884 198.939 286.33 200.069 285.562 201.136C284.794 202.203 283.855 203.141 282.746 203.952C281.636 204.763 280.399 205.403 279.034 205.872C277.668 206.341 276.218 206.576 274.682 206.576ZM277.498 197.936C279.076 197.936 280.442 197.573 281.594 196.848C282.746 196.123 283.642 195.099 284.282 193.776C284.922 192.411 285.242 190.811 285.242 188.976C285.242 187.141 284.922 185.563 284.282 184.24C283.642 182.875 282.746 181.829 281.594 181.104C280.442 180.336 279.076 179.952 277.498 179.952C275.962 179.952 274.618 180.336 273.466 181.104C272.356 181.829 271.482 182.875 270.842 184.24C270.202 185.563 269.882 187.141 269.882 188.976C269.882 190.811 270.202 192.411 270.842 193.776C271.482 195.099 272.356 196.123 273.466 196.848C274.618 197.573 275.962 197.936 277.498 197.936Z" fill="#141219"/>
<path d="M307.141 206V163.44H317.381V206H307.141ZM301.125 180.976V172.016H323.973V180.976H301.125Z" fill="#141219"/>
<path d="M351.413 206V161.2H382.645V170.48H361.973V196.72H383.285V206H351.413ZM356.533 187.632V178.8H379.765V187.632H356.533Z" fill="#141219"/>
<path d="M391.511 206V172.016H401.239L401.559 178.16L400.215 178.224C400.727 177.115 401.367 176.133 402.135 175.28C402.946 174.427 403.842 173.723 404.823 173.168C405.847 172.571 406.892 172.123 407.959 171.824C409.068 171.525 410.178 171.376 411.287 171.376C412.951 171.376 414.466 171.632 415.831 172.144C417.196 172.656 418.391 173.488 419.415 174.64C420.439 175.749 421.25 177.264 421.847 179.184L420.247 179.056L420.759 178.032C421.314 177.008 422.018 176.091 422.871 175.28C423.767 174.427 424.748 173.723 425.815 173.168C426.882 172.571 427.991 172.123 429.143 171.824C430.295 171.525 431.404 171.376 432.471 171.376C435.159 171.376 437.399 171.909 439.191 172.976C440.983 174 442.327 175.557 443.223 177.648C444.162 179.739 444.631 182.277 444.631 185.264V206H434.327V186.096C434.327 184.731 434.135 183.6 433.751 182.704C433.367 181.808 432.791 181.147 432.023 180.72C431.298 180.251 430.38 180.016 429.271 180.016C428.375 180.016 427.543 180.165 426.775 180.464C426.05 180.763 425.41 181.168 424.855 181.68C424.343 182.192 423.938 182.789 423.639 183.472C423.34 184.155 423.191 184.923 423.191 185.776V206H412.887V186.032C412.887 184.752 412.695 183.664 412.311 182.768C411.927 181.872 411.351 181.189 410.583 180.72C409.815 180.251 408.919 180.016 407.895 180.016C406.999 180.016 406.167 180.165 405.399 180.464C404.674 180.763 404.034 181.168 403.479 181.68C402.967 182.192 402.562 182.789 402.263 183.472C401.964 184.155 401.815 184.901 401.815 185.712V206H391.511Z" fill="#141219"/>
<path d="M453.138 220.08V172.016H462.866L463.25 179.632L461.33 179.056C461.628 177.648 462.354 176.368 463.506 175.216C464.658 174.064 466.108 173.147 467.858 172.464C469.65 171.739 471.527 171.376 473.49 171.376C476.391 171.376 478.972 172.144 481.234 173.68C483.495 175.173 485.266 177.243 486.546 179.888C487.868 182.491 488.53 185.52 488.53 188.976C488.53 192.389 487.868 195.419 486.546 198.064C485.266 200.709 483.474 202.8 481.17 204.336C478.908 205.829 476.306 206.576 473.362 206.576C471.442 206.576 469.607 206.213 467.858 205.488C466.108 204.763 464.636 203.781 463.442 202.544C462.247 201.307 461.458 199.963 461.074 198.512L463.442 197.616V220.08H453.138ZM470.866 197.936C472.402 197.936 473.746 197.573 474.898 196.848C476.05 196.08 476.946 195.035 477.586 193.712C478.226 192.389 478.546 190.811 478.546 188.976C478.546 187.184 478.226 185.627 477.586 184.304C476.946 182.939 476.05 181.893 474.898 181.168C473.788 180.4 472.444 180.016 470.866 180.016C469.287 180.016 467.922 180.379 466.77 181.104C465.618 181.829 464.722 182.875 464.082 184.24C463.442 185.605 463.122 187.184 463.122 188.976C463.122 190.811 463.442 192.389 464.082 193.712C464.722 195.035 465.618 196.08 466.77 196.848C467.922 197.573 469.287 197.936 470.866 197.936Z" fill="#141219"/>
<path d="M511.325 206.64C507.784 206.64 504.626 205.872 501.853 204.336C499.122 202.8 496.946 200.709 495.325 198.064C493.746 195.419 492.957 192.389 492.957 188.976C492.957 185.563 493.746 182.533 495.325 179.888C496.946 177.243 499.122 175.152 501.853 173.616C504.626 172.08 507.784 171.312 511.325 171.312C514.866 171.312 518.002 172.08 520.733 173.616C523.506 175.152 525.682 177.243 527.261 179.888C528.84 182.533 529.629 185.563 529.629 188.976C529.629 192.389 528.84 195.419 527.261 198.064C525.682 200.709 523.506 202.8 520.733 204.336C518.002 205.872 514.866 206.64 511.325 206.64ZM511.325 197.808C512.861 197.808 514.226 197.424 515.421 196.656C516.616 195.888 517.554 194.843 518.237 193.52C518.92 192.197 519.24 190.683 519.197 188.976C519.24 187.269 518.92 185.755 518.237 184.432C517.554 183.067 516.616 182 515.421 181.232C514.226 180.464 512.861 180.08 511.325 180.08C509.789 180.08 508.402 180.464 507.165 181.232C505.97 182 505.032 183.067 504.349 184.432C503.666 185.755 503.346 187.269 503.389 188.976C503.346 190.683 503.666 192.197 504.349 193.52C505.032 194.843 505.97 195.888 507.165 196.656C508.402 197.424 509.789 197.808 511.325 197.808Z" fill="#141219"/>
<path d="M542.499 206L531.299 172.016H542.115L548.387 194.096L547.043 193.84L554.083 176.688H560.099L567.523 193.904L566.051 194.032L572.323 172.016H583.139L571.555 206H564.003L556.643 187.76L557.411 187.888L550.051 206H542.499Z" fill="#141219"/>
<path d="M603.705 206.64C599.95 206.64 596.686 205.893 593.913 204.4C591.139 202.864 588.985 200.795 587.449 198.192C585.913 195.547 585.145 192.539 585.145 189.168C585.145 186.565 585.571 184.176 586.425 182C587.278 179.824 588.473 177.947 590.009 176.368C591.545 174.747 593.358 173.509 595.449 172.656C597.582 171.76 599.907 171.312 602.425 171.312C604.814 171.312 606.99 171.739 608.953 172.592C610.958 173.445 612.686 174.64 614.137 176.176C615.587 177.712 616.697 179.525 617.465 181.616C618.233 183.707 618.574 185.989 618.489 188.464L618.425 191.216H591.353L589.881 185.456H610.105L609.017 186.672V185.392C608.931 184.325 608.59 183.387 607.993 182.576C607.438 181.723 606.691 181.061 605.753 180.592C604.814 180.123 603.747 179.888 602.553 179.888C600.889 179.888 599.459 180.229 598.265 180.912C597.113 181.552 596.238 182.512 595.641 183.792C595.043 185.029 594.745 186.565 594.745 188.4C594.745 190.277 595.129 191.92 595.897 193.328C596.707 194.693 597.859 195.76 599.353 196.528C600.889 197.296 602.702 197.68 604.793 197.68C606.243 197.68 607.523 197.467 608.633 197.04C609.785 196.613 611.022 195.888 612.345 194.864L617.145 201.648C615.822 202.8 614.414 203.739 612.921 204.464C611.427 205.189 609.891 205.723 608.313 206.064C606.777 206.448 605.241 206.64 603.705 206.64Z" fill="#141219"/>
<path d="M625.013 206V172.016H634.741L635.189 183.088L633.269 180.976C633.781 179.141 634.613 177.499 635.765 176.048C636.959 174.597 638.346 173.445 639.925 172.592C641.503 171.739 643.189 171.312 644.981 171.312C645.749 171.312 646.453 171.376 647.093 171.504C647.775 171.632 648.394 171.781 648.949 171.952L646.133 183.28C645.663 182.981 645.023 182.747 644.213 182.576C643.445 182.363 642.634 182.256 641.781 182.256C640.842 182.256 639.967 182.427 639.157 182.768C638.346 183.067 637.663 183.515 637.109 184.112C636.554 184.709 636.106 185.413 635.765 186.224C635.466 187.035 635.317 187.952 635.317 188.976V206H625.013Z" fill="#141219"/>
<path d="M675.726 206V161.2H706.958V170.48H686.286V196.72H707.598V206H675.726ZM680.846 187.632V178.8H704.078V187.632H680.846Z" fill="#141219"/>
<path d="M725.382 206L711.174 172.016H722.502L730.95 197.424L728.454 197.68L737.158 172.016H748.358L733.446 206H725.382Z" fill="#141219"/>
<path d="M768.955 206.64C765.2 206.64 761.936 205.893 759.163 204.4C756.389 202.864 754.235 200.795 752.699 198.192C751.163 195.547 750.395 192.539 750.395 189.168C750.395 186.565 750.821 184.176 751.675 182C752.528 179.824 753.723 177.947 755.259 176.368C756.795 174.747 758.608 173.509 760.699 172.656C762.832 171.76 765.157 171.312 767.675 171.312C770.064 171.312 772.24 171.739 774.203 172.592C776.208 173.445 777.936 174.64 779.387 176.176C780.837 177.712 781.947 179.525 782.715 181.616C783.483 183.707 783.824 185.989 783.739 188.464L783.675 191.216H756.603L755.131 185.456H775.355L774.267 186.672V185.392C774.181 184.325 773.84 183.387 773.243 182.576C772.688 181.723 771.941 181.061 771.003 180.592C770.064 180.123 768.997 179.888 767.803 179.888C766.139 179.888 764.709 180.229 763.515 180.912C762.363 181.552 761.488 182.512 760.891 183.792C760.293 185.029 759.995 186.565 759.995 188.4C759.995 190.277 760.379 191.92 761.147 193.328C761.957 194.693 763.109 195.76 764.603 196.528C766.139 197.296 767.952 197.68 770.043 197.68C771.493 197.68 772.773 197.467 773.883 197.04C775.035 196.613 776.272 195.888 777.595 194.864L782.395 201.648C781.072 202.8 779.664 203.739 778.171 204.464C776.677 205.189 775.141 205.723 773.563 206.064C772.027 206.448 770.491 206.64 768.955 206.64Z" fill="#141219"/>
<path d="M790.263 206V172.016H799.991L800.439 183.088L798.519 180.976C799.031 179.141 799.863 177.499 801.015 176.048C802.209 174.597 803.596 173.445 805.175 172.592C806.753 171.739 808.439 171.312 810.231 171.312C810.999 171.312 811.703 171.376 812.343 171.504C813.025 171.632 813.644 171.781 814.199 171.952L811.383 183.28C810.913 182.981 810.273 182.747 809.463 182.576C808.695 182.363 807.884 182.256 807.031 182.256C806.092 182.256 805.217 182.427 804.407 182.768C803.596 183.067 802.913 183.515 802.359 184.112C801.804 184.709 801.356 185.413 801.015 186.224C800.716 187.035 800.567 187.952 800.567 188.976V206H790.263Z" fill="#141219"/>
<path d="M823.676 220.72L831.42 202.48L831.548 207.728L815.164 172.016H826.748L833.916 189.104C834.3 189.957 834.662 190.875 835.004 191.856C835.345 192.837 835.601 193.776 835.772 194.672L834.364 195.504C834.62 194.864 834.897 194.075 835.196 193.136C835.537 192.155 835.9 191.109 836.284 190L842.556 172.016H854.204L839.74 206L833.852 220.72H823.676Z" fill="#141219"/>
<path d="M273.703 286.64C270.332 286.64 267.217 286.085 264.359 284.976C261.543 283.824 259.089 282.224 256.999 280.176C254.908 278.085 253.287 275.632 252.135 272.816C251.025 269.957 250.471 266.821 250.471 263.408C250.471 260.08 251.068 257.008 252.263 254.192C253.457 251.376 255.1 248.944 257.191 246.896C259.324 244.805 261.82 243.184 264.679 242.032C267.58 240.88 270.737 240.304 274.151 240.304C276.284 240.304 278.375 240.581 280.423 241.136C282.471 241.691 284.369 242.523 286.119 243.632C287.911 244.699 289.447 245.979 290.727 247.472L284.071 255.088C283.175 254.149 282.215 253.339 281.191 252.656C280.209 251.931 279.121 251.376 277.927 250.992C276.732 250.608 275.452 250.416 274.087 250.416C272.38 250.416 270.759 250.736 269.223 251.376C267.729 251.973 266.407 252.848 265.255 254C264.145 255.109 263.271 256.475 262.631 258.096C261.991 259.717 261.671 261.531 261.671 263.536C261.671 265.499 261.991 267.291 262.631 268.912C263.271 270.491 264.167 271.856 265.319 273.008C266.471 274.16 267.857 275.035 269.479 275.632C271.143 276.229 272.977 276.528 274.983 276.528C276.348 276.528 277.649 276.336 278.887 275.952C280.124 275.568 281.255 275.056 282.279 274.416C283.345 273.733 284.284 272.965 285.095 272.112L290.343 280.432C289.276 281.627 287.847 282.693 286.055 283.632C284.305 284.571 282.343 285.317 280.167 285.872C278.033 286.384 275.879 286.64 273.703 286.64Z" fill="#141219"/>
<path d="M312.7 286.64C309.159 286.64 306.001 285.872 303.228 284.336C300.497 282.8 298.321 280.709 296.7 278.064C295.121 275.419 294.332 272.389 294.332 268.976C294.332 265.563 295.121 262.533 296.7 259.888C298.321 257.243 300.497 255.152 303.228 253.616C306.001 252.08 309.159 251.312 312.7 251.312C316.241 251.312 319.377 252.08 322.108 253.616C324.881 255.152 327.057 257.243 328.636 259.888C330.215 262.533 331.004 265.563 331.004 268.976C331.004 272.389 330.215 275.419 328.636 278.064C327.057 280.709 324.881 282.8 322.108 284.336C319.377 285.872 316.241 286.64 312.7 286.64ZM312.7 277.808C314.236 277.808 315.601 277.424 316.796 276.656C317.991 275.888 318.929 274.843 319.612 273.52C320.295 272.197 320.615 270.683 320.572 268.976C320.615 267.269 320.295 265.755 319.612 264.432C318.929 263.067 317.991 262 316.796 261.232C315.601 260.464 314.236 260.08 312.7 260.08C311.164 260.08 309.777 260.464 308.54 261.232C307.345 262 306.407 263.067 305.724 264.432C305.041 265.755 304.721 267.269 304.764 268.976C304.721 270.683 305.041 272.197 305.724 273.52C306.407 274.843 307.345 275.888 308.54 276.656C309.777 277.424 311.164 277.808 312.7 277.808Z" fill="#141219"/>
<path d="M337.7 286V252.016H347.428L347.876 263.088L345.956 260.976C346.468 259.141 347.3 257.499 348.452 256.048C349.647 254.597 351.033 253.445 352.612 252.592C354.191 251.739 355.876 251.312 357.668 251.312C358.436 251.312 359.14 251.376 359.78 251.504C360.463 251.632 361.081 251.781 361.636 251.952L358.82 263.28C358.351 262.981 357.711 262.747 356.9 262.576C356.132 262.363 355.321 262.256 354.468 262.256C353.529 262.256 352.655 262.427 351.844 262.768C351.033 263.067 350.351 263.515 349.796 264.112C349.241 264.709 348.793 265.413 348.452 266.224C348.153 267.035 348.004 267.952 348.004 268.976V286H337.7Z" fill="#141219"/>
<path d="M366.825 286V252.016H376.553L376.873 258.928L374.825 259.696C375.294 258.16 376.126 256.773 377.321 255.536C378.558 254.256 380.03 253.232 381.737 252.464C383.444 251.696 385.236 251.312 387.113 251.312C389.673 251.312 391.828 251.845 393.577 252.912C395.326 253.936 396.649 255.493 397.545 257.584C398.441 259.632 398.889 262.149 398.889 265.136V286H388.585V265.968C388.585 264.603 388.393 263.472 388.009 262.576C387.625 261.68 387.028 261.019 386.217 260.592C385.449 260.123 384.489 259.909 383.337 259.952C382.441 259.952 381.609 260.101 380.841 260.4C380.073 260.656 379.412 261.061 378.857 261.616C378.302 262.128 377.854 262.725 377.513 263.408C377.214 264.091 377.065 264.837 377.065 265.648V286H372.009C370.814 286 369.79 286 368.937 286C368.084 286 367.38 286 366.825 286Z" fill="#141219"/>
<path d="M423.642 286.64C419.887 286.64 416.623 285.893 413.85 284.4C411.077 282.864 408.922 280.795 407.386 278.192C405.85 275.547 405.082 272.539 405.082 269.168C405.082 266.565 405.509 264.176 406.362 262C407.215 259.824 408.41 257.947 409.946 256.368C411.482 254.747 413.295 253.509 415.386 252.656C417.519 251.76 419.845 251.312 422.362 251.312C424.751 251.312 426.927 251.739 428.89 252.592C430.895 253.445 432.623 254.64 434.074 256.176C435.525 257.712 436.634 259.525 437.402 261.616C438.17 263.707 438.511 265.989 438.426 268.464L438.362 271.216H411.29L409.818 265.456H430.042L428.954 266.672V265.392C428.869 264.325 428.527 263.387 427.93 262.576C427.375 261.723 426.629 261.061 425.69 260.592C424.751 260.123 423.685 259.888 422.49 259.888C420.826 259.888 419.397 260.229 418.202 260.912C417.05 261.552 416.175 262.512 415.578 263.792C414.981 265.029 414.682 266.565 414.682 268.4C414.682 270.277 415.066 271.92 415.834 273.328C416.645 274.693 417.797 275.76 419.29 276.528C420.826 277.296 422.639 277.68 424.73 277.68C426.181 277.68 427.461 277.467 428.57 277.04C429.722 276.613 430.959 275.888 432.282 274.864L437.082 281.648C435.759 282.8 434.351 283.739 432.858 284.464C431.365 285.189 429.829 285.723 428.25 286.064C426.714 286.448 425.178 286.64 423.642 286.64Z" fill="#141219"/>
<path d="M444.95 286V252.016H454.678L455.126 263.088L453.206 260.976C453.718 259.141 454.55 257.499 455.702 256.048C456.897 254.597 458.283 253.445 459.862 252.592C461.441 251.739 463.126 251.312 464.918 251.312C465.686 251.312 466.39 251.376 467.03 251.504C467.713 251.632 468.331 251.781 468.886 251.952L466.07 263.28C465.601 262.981 464.961 262.747 464.15 262.576C463.382 262.363 462.571 262.256 461.718 262.256C460.779 262.256 459.905 262.427 459.094 262.768C458.283 263.067 457.601 263.515 457.046 264.112C456.491 264.709 456.043 265.413 455.702 266.224C455.403 267.035 455.254 267.952 455.254 268.976V286H444.95Z" fill="#141219"/>
<path d="M510.575 286.64C507.034 286.64 503.876 285.872 501.103 284.336C498.372 282.8 496.196 280.709 494.575 278.064C492.996 275.419 492.207 272.389 492.207 268.976C492.207 265.563 492.996 262.533 494.575 259.888C496.196 257.243 498.372 255.152 501.103 253.616C503.876 252.08 507.034 251.312 510.575 251.312C514.116 251.312 517.252 252.08 519.983 253.616C522.756 255.152 524.932 257.243 526.511 259.888C528.09 262.533 528.879 265.563 528.879 268.976C528.879 272.389 528.09 275.419 526.511 278.064C524.932 280.709 522.756 282.8 519.983 284.336C517.252 285.872 514.116 286.64 510.575 286.64ZM510.575 277.808C512.111 277.808 513.476 277.424 514.671 276.656C515.866 275.888 516.804 274.843 517.487 273.52C518.17 272.197 518.49 270.683 518.447 268.976C518.49 267.269 518.17 265.755 517.487 264.432C516.804 263.067 515.866 262 514.671 261.232C513.476 260.464 512.111 260.08 510.575 260.08C509.039 260.08 507.652 260.464 506.415 261.232C505.22 262 504.282 263.067 503.599 264.432C502.916 265.755 502.596 267.269 502.639 268.976C502.596 270.683 502.916 272.197 503.599 273.52C504.282 274.843 505.22 275.888 506.415 276.656C507.652 277.424 509.039 277.808 510.575 277.808Z" fill="#141219"/>
<path d="M536.437 286V250.352C536.437 248.133 536.906 246.128 537.845 244.336C538.826 242.544 540.17 241.136 541.877 240.112C543.626 239.045 545.653 238.512 547.957 238.512C549.578 238.512 551.072 238.747 552.437 239.216C553.802 239.685 555.018 240.347 556.085 241.2L553.141 248.688C552.586 248.389 552.053 248.155 551.541 247.984C551.029 247.813 550.56 247.728 550.133 247.728C549.365 247.728 548.725 247.856 548.213 248.112C547.701 248.368 547.317 248.773 547.061 249.328C546.848 249.84 546.741 250.48 546.741 251.248V286H541.621C540.469 286 539.445 286 538.549 286C537.696 286 536.992 286 536.437 286ZM531.509 261.424V252.976H553.717V261.424H531.509Z" fill="#141219"/>
<path d="M581.038 286V241.2H600.814C603.886 241.2 606.489 241.648 608.622 242.544C610.755 243.397 612.355 244.656 613.422 246.32C614.531 247.941 615.086 249.904 615.086 252.208C615.086 254.768 614.446 256.923 613.166 258.672C611.929 260.421 610.115 261.595 607.726 262.192L607.598 260.976C609.603 261.403 611.331 262.149 612.782 263.216C614.275 264.283 615.427 265.605 616.238 267.184C617.049 268.72 617.454 270.469 617.454 272.432C617.454 274.693 617.07 276.677 616.302 278.384C615.534 280.048 614.425 281.456 612.974 282.608C611.523 283.76 609.817 284.613 607.854 285.168C605.934 285.723 603.801 286 601.454 286H581.038ZM591.278 276.912H601.07C602.265 276.912 603.267 276.72 604.078 276.336C604.931 275.952 605.593 275.397 606.062 274.672C606.531 273.904 606.766 272.987 606.766 271.92C606.766 270.939 606.51 270.107 605.998 269.424C605.529 268.741 604.846 268.229 603.95 267.888C603.054 267.504 601.987 267.312 600.75 267.312H591.278V276.912ZM591.278 259.184H599.278C600.387 259.184 601.326 259.013 602.094 258.672C602.905 258.288 603.502 257.776 603.886 257.136C604.313 256.453 604.526 255.643 604.526 254.704C604.526 253.339 604.057 252.272 603.118 251.504C602.179 250.693 600.771 250.288 598.894 250.288H591.278V259.184Z" fill="url(#paint11_linear_577_2865)"/>
<path d="M624.638 286V238.64H634.686V258.928L632.638 259.696C633.107 258.16 633.939 256.773 635.134 255.536C636.371 254.256 637.843 253.232 639.55 252.464C641.256 251.696 643.048 251.312 644.926 251.312C647.486 251.312 649.64 251.845 651.39 252.912C653.139 253.936 654.462 255.493 655.358 257.584C656.254 259.632 656.702 262.149 656.702 265.136V286H646.398V265.968C646.398 264.603 646.206 263.472 645.822 262.576C645.438 261.68 644.84 261.019 644.03 260.592C643.262 260.123 642.302 259.909 641.15 259.952C640.254 259.952 639.422 260.101 638.654 260.4C637.886 260.656 637.224 261.061 636.67 261.616C636.115 262.128 635.667 262.725 635.326 263.408C635.027 264.091 634.878 264.837 634.878 265.648V286H629.822C628.627 286 627.603 286 626.75 286C625.896 286 625.192 286 624.638 286Z" fill="url(#paint12_linear_577_2865)"/>
<path d="M677.807 286.576C674.948 286.576 672.388 285.829 670.127 284.336C667.908 282.8 666.137 280.709 664.815 278.064C663.492 275.376 662.831 272.347 662.831 268.976C662.831 265.52 663.492 262.469 664.815 259.824C666.137 257.179 667.951 255.109 670.255 253.616C672.559 252.08 675.183 251.312 678.127 251.312C679.748 251.312 681.22 251.547 682.543 252.016C683.908 252.485 685.103 253.147 686.127 254C687.151 254.811 688.025 255.771 688.751 256.88C689.476 257.947 690.009 259.099 690.351 260.336L688.239 260.08V252.016H698.415V286H688.047V277.808L690.351 277.744C690.009 278.939 689.455 280.069 688.687 281.136C687.919 282.203 686.98 283.141 685.871 283.952C684.761 284.763 683.524 285.403 682.159 285.872C680.793 286.341 679.343 286.576 677.807 286.576ZM680.623 277.936C682.201 277.936 683.567 277.573 684.719 276.848C685.871 276.123 686.767 275.099 687.407 273.776C688.047 272.411 688.367 270.811 688.367 268.976C688.367 267.141 688.047 265.563 687.407 264.24C686.767 262.875 685.871 261.829 684.719 261.104C683.567 260.336 682.201 259.952 680.623 259.952C679.087 259.952 677.743 260.336 676.591 261.104C675.481 261.829 674.607 262.875 673.967 264.24C673.327 265.563 673.007 267.141 673.007 268.976C673.007 270.811 673.327 272.411 673.967 273.776C674.607 275.099 675.481 276.123 676.591 276.848C677.743 277.573 679.087 277.936 680.623 277.936Z" fill="url(#paint13_linear_577_2865)"/>
<path d="M707.45 286V252.016H717.178L717.626 263.088L715.706 260.976C716.218 259.141 717.05 257.499 718.202 256.048C719.397 254.597 720.783 253.445 722.362 252.592C723.941 251.739 725.626 251.312 727.418 251.312C728.186 251.312 728.89 251.376 729.53 251.504C730.213 251.632 730.831 251.781 731.386 251.952L728.57 263.28C728.101 262.981 727.461 262.747 726.65 262.576C725.882 262.363 725.071 262.256 724.218 262.256C723.279 262.256 722.405 262.427 721.594 262.768C720.783 263.067 720.101 263.515 719.546 264.112C718.991 264.709 718.543 265.413 718.202 266.224C717.903 267.035 717.754 267.952 717.754 268.976V286H707.45Z" fill="url(#paint14_linear_577_2865)"/>
<path d="M747.682 286.576C744.823 286.576 742.263 285.829 740.002 284.336C737.783 282.8 736.012 280.709 734.69 278.064C733.367 275.376 732.706 272.347 732.706 268.976C732.706 265.52 733.367 262.469 734.69 259.824C736.012 257.179 737.826 255.109 740.13 253.616C742.434 252.08 745.058 251.312 748.002 251.312C749.623 251.312 751.095 251.547 752.418 252.016C753.783 252.485 754.978 253.147 756.002 254C757.026 254.811 757.9 255.771 758.626 256.88C759.351 257.947 759.884 259.099 760.226 260.336L758.114 260.08V252.016H768.29V286H757.922V277.808L760.226 277.744C759.884 278.939 759.33 280.069 758.562 281.136C757.794 282.203 756.855 283.141 755.746 283.952C754.636 284.763 753.399 285.403 752.034 285.872C750.668 286.341 749.218 286.576 747.682 286.576ZM750.498 277.936C752.076 277.936 753.442 277.573 754.594 276.848C755.746 276.123 756.642 275.099 757.282 273.776C757.922 272.411 758.242 270.811 758.242 268.976C758.242 267.141 757.922 265.563 757.282 264.24C756.642 262.875 755.746 261.829 754.594 261.104C753.442 260.336 752.076 259.952 750.498 259.952C748.962 259.952 747.618 260.336 746.466 261.104C745.356 261.829 744.482 262.875 743.842 264.24C743.202 265.563 742.882 267.141 742.882 268.976C742.882 270.811 743.202 272.411 743.842 273.776C744.482 275.099 745.356 276.123 746.466 276.848C747.618 277.573 748.962 277.936 750.498 277.936Z" fill="url(#paint15_linear_577_2865)"/>
<path d="M780.141 286V243.44H790.381V286H780.141ZM774.125 260.976V252.016H796.973V260.976H774.125Z" fill="url(#paint16_linear_577_2865)"/>
<path d="M39 182C42.4287 191.266 49.7342 198.571 59 202C49.7342 205.429 42.4287 212.734 39 222C35.5713 212.734 28.2658 205.429 19 202C28.2658 198.571 35.5713 191.266 39 182Z" fill="#FFD700"/>
<path d="M839 20L839.97 33.8763L845.18 20.9789L841.815 34.4758L850.756 23.8197L843.384 35.6159L855.18 28.2443L844.524 37.1853L858.021 33.8197L845.124 39.0301L859 40L845.124 40.9699L858.021 46.1803L844.524 42.8147L855.18 51.7557L843.384 44.3841L850.756 56.1803L841.815 45.5242L845.18 59.0211L839.97 46.1237L839 60L838.03 46.1237L832.82 59.0211L836.185 45.5242L827.244 56.1803L834.616 44.3841L822.82 51.7557L833.476 42.8147L819.979 46.1803L832.876 40.9699L819 40L832.876 39.0301L819.979 33.8197L833.476 37.1853L822.82 28.2443L834.616 35.6159L827.244 23.8197L836.185 34.4758L832.82 20.9789L838.03 33.8763L839 20Z" fill="#FFD700"/>
<circle cx="98" cy="83" r="39.5" fill="white" stroke="#3EC3A4"/>
<g clip-path="url(#clip1_577_2865)">
<path d="M116.324 89.2968L113.243 103.243L103.033 98.047V85.6689L116.324 89.2968Z" fill="#3EC3A4"/>
<path d="M123.452 85.6689V98.047L113.242 103.243V90.8649L115.814 87.0831L123.452 85.6689Z" fill="#6FD7A3"/>
<path d="M123.453 85.6687L113.243 90.8647L103.033 85.6687L113.243 80.4727L123.453 85.6687Z" fill="#9BE69D"/>
<path d="M85.838 89.2968L82.7567 103.243L72.5469 98.047V85.6689L85.838 89.2968Z" fill="#3EC3A4"/>
<path d="M92.9667 85.6689V98.047L82.7568 103.243V90.8649L85.3287 87.0831L92.9667 85.6689Z" fill="#6FD7A3"/>
<path d="M92.9665 85.6687L82.7567 90.8647L72.5469 85.6687L82.7567 80.4727L92.9665 85.6687Z" fill="#9BE69D"/>
<path d="M101.081 97.0537L97.9999 111L87.79 105.804V93.4258L101.081 97.0537Z" fill="#3EC3A4"/>
<path d="M108.21 93.4258V105.804L98 111V98.6219L100.572 94.84L108.21 93.4258Z" fill="#6FD7A3"/>
<path d="M108.21 93.426L97.9999 98.622L87.79 93.426L97.9999 88.23L108.21 93.426Z" fill="#9BE69D"/>
<path d="M101.081 63.8241L97.9999 77.7704L87.79 72.5745V60.1963L101.081 63.8241Z" fill="#3EC3A4"/>
<path d="M108.21 60.1963V72.5745L98 77.7704V65.3924L100.572 61.6105L108.21 60.1963Z" fill="#6FD7A3"/>
<path d="M108.21 60.1961L97.9999 65.3922L87.79 60.1961L97.9999 55L108.21 60.1961Z" fill="#9BE69D"/>
<path d="M116.324 71.581L113.243 85.5273L103.033 80.3312V67.9531L116.324 71.581Z" fill="#3EC3A4"/>
<path d="M123.452 67.9531V80.3312L113.242 85.5273V73.1491L115.814 69.3673L123.452 67.9531Z" fill="#6FD7A3"/>
<path d="M123.453 67.9534L113.243 73.1494L103.033 67.9534L113.243 62.7573L123.453 67.9534Z" fill="#9BE69D"/>
<path d="M85.838 71.581L82.7567 85.5273L72.5469 80.3312V67.9531L85.838 71.581Z" fill="#3EC3A4"/>
<path d="M92.9667 67.9531V80.3312L82.7568 85.5273V73.1491L85.3287 69.3673L92.9667 67.9531Z" fill="#6FD7A3"/>
<path d="M92.9665 67.9534L82.7567 73.1494L72.5469 67.9534L82.7567 62.7573L92.9665 67.9534Z" fill="#9BE69D"/>
<path d="M101.081 79.3383L97.9999 93.2846L87.79 88.0885V75.7104L101.081 79.3383Z" fill="#3EC3A4"/>
<path d="M108.21 75.7104V88.0885L98 93.2846V80.9064L100.572 77.1246L108.21 75.7104Z" fill="#6FD7A3"/>
<path d="M108.21 75.7102L97.9999 80.9062L87.79 75.7102L97.9999 70.5142L108.21 75.7102Z" fill="#9BE69D"/>
</g>
<circle cx="177" cy="281" r="39.5" fill="white" stroke="#CB97E7"/>
<path d="M177 262.336L159.249 275.233L166.029 296.1H187.97L194.751 275.233L177 262.336Z" fill="#E5CAF3"/>
<path d="M193.457 303.652L177 309L160.541 303.652L161.288 295.109L168.118 293.223H185.88L192.675 295.664L193.457 303.652Z" fill="#CB97E7"/>
<path d="M177 253L181.476 259.446L177 265.891L162.63 276.331L155.77 278.993L150.37 272.348L160.541 258.348L177 253ZM203.63 272.348V289.652L193.457 303.652L185.88 293.223L191.37 276.331L194.755 271.358L203.63 272.348Z" fill="#D9B1EE"/>
<path d="M168.119 293.223L160.541 303.653L150.37 289.653V272.348L162.63 276.331L168.119 293.223Z" fill="#BD80E1"/>
<path d="M203.63 272.348L191.37 276.331L177 265.891V253L193.457 258.348L203.63 272.348Z" fill="#CB97E7"/>
<circle cx="887" cy="251" r="39.5" fill="white" stroke="#CB97E7"/>
<path d="M894.849 244.476L887 280L860.994 266.765V235.235L894.849 244.476Z" fill="#CB97E7"/>
<path d="M913.006 235.235V266.765L887 280V248.471L893.551 238.838L913.006 235.235Z" fill="#D9B1EE"/>
<path d="M913.007 235.235L887 248.471L860.994 235.235L887 222L913.007 235.235Z" fill="#E5CAF3"/>
<path d="M887.001 229.857L876.433 235.235L887.001 240.613L890.17 235.235L887.001 229.857Z" fill="#D9B1EE"/>
<path d="M887 229.857L897.568 235.235L887 240.613V229.857Z" fill="#CB97E7"/>
<path d="M869.163 248.558V261.757L875.762 260.557L878.832 255.828V253.478L869.163 248.558Z" fill="#D9B1EE"/>
<path d="M869.163 261.756L878.832 266.677V255.828L869.163 261.756Z" fill="#E5CAF3"/>
<path d="M904.838 248.558V261.757L898.239 260.557L895.169 255.828V253.478L904.838 248.558Z" fill="#CB97E7"/>
<path d="M904.838 261.756L895.169 266.677V255.828L904.838 261.756Z" fill="#E5CAF3"/>
<circle cx="975" cy="106" r="39.5" fill="white" stroke="#FB2B3A"/>
<path d="M1001 123.917L982.791 117.501L975 107.411L970.876 100.271L975 76.083L1001 123.917Z" fill="#FD8087"/>
<path d="M975 76.083V107.411L966.674 117.004L949 123.917L975 76.083Z" fill="#FE646F"/>
<path d="M1001 123.917H949L975 107.411L1001 123.917Z" fill="#FB2B3A"/>
</g>
<defs>
<linearGradient id="paint0_linear_577_2865" x1="173.944" y1="180.688" x2="874.832" y2="180.688" gradientUnits="userSpaceOnUse">
<stop stop-color="#0169B6"/>
<stop offset="1" stop-color="#68BA4C"/>
</linearGradient>
<linearGradient id="paint1_linear_577_2865" x1="173.944" y1="180.688" x2="874.832" y2="180.688" gradientUnits="userSpaceOnUse">
<stop stop-color="#0169B6"/>
<stop offset="1" stop-color="#68BA4C"/>
</linearGradient>
<linearGradient id="paint2_linear_577_2865" x1="173.944" y1="180.688" x2="874.832" y2="180.688" gradientUnits="userSpaceOnUse">
<stop stop-color="#0169B6"/>
<stop offset="1" stop-color="#68BA4C"/>
</linearGradient>
<linearGradient id="paint3_linear_577_2865" x1="173.944" y1="180.688" x2="874.832" y2="180.688" gradientUnits="userSpaceOnUse">
<stop stop-color="#0169B6"/>
<stop offset="1" stop-color="#68BA4C"/>
</linearGradient>
<linearGradient id="paint4_linear_577_2865" x1="173.944" y1="180.688" x2="874.832" y2="180.688" gradientUnits="userSpaceOnUse">
<stop stop-color="#0169B6"/>
<stop offset="1" stop-color="#68BA4C"/>
</linearGradient>
<linearGradient id="paint5_linear_577_2865" x1="173.944" y1="180.688" x2="874.832" y2="180.688" gradientUnits="userSpaceOnUse">
<stop stop-color="#0169B6"/>
<stop offset="1" stop-color="#68BA4C"/>
</linearGradient>
<linearGradient id="paint6_linear_577_2865" x1="173.944" y1="180.688" x2="874.832" y2="180.688" gradientUnits="userSpaceOnUse">
<stop stop-color="#0169B6"/>
<stop offset="1" stop-color="#68BA4C"/>
</linearGradient>
<linearGradient id="paint7_linear_577_2865" x1="173.944" y1="180.688" x2="874.832" y2="180.688" gradientUnits="userSpaceOnUse">
<stop stop-color="#0169B6"/>
<stop offset="1" stop-color="#68BA4C"/>
</linearGradient>
<linearGradient id="paint8_linear_577_2865" x1="173.944" y1="180.688" x2="874.832" y2="180.688" gradientUnits="userSpaceOnUse">
<stop stop-color="#0169B6"/>
<stop offset="1" stop-color="#68BA4C"/>
</linearGradient>
<linearGradient id="paint9_linear_577_2865" x1="173.944" y1="180.688" x2="874.832" y2="180.688" gradientUnits="userSpaceOnUse">
<stop stop-color="#0169B6"/>
<stop offset="1" stop-color="#68BA4C"/>
</linearGradient>
<linearGradient id="paint10_linear_577_2865" x1="173.944" y1="180.688" x2="874.832" y2="180.688" gradientUnits="userSpaceOnUse">
<stop stop-color="#0169B6"/>
<stop offset="1" stop-color="#68BA4C"/>
</linearGradient>
<linearGradient id="paint11_linear_577_2865" x1="173.944" y1="180.688" x2="874.832" y2="180.688" gradientUnits="userSpaceOnUse">
<stop offset="0.625" stop-color="#FF8A14"/>
<stop offset="0.855769" stop-color="#46B000"/>
</linearGradient>
<linearGradient id="paint12_linear_577_2865" x1="173.944" y1="180.688" x2="874.832" y2="180.688" gradientUnits="userSpaceOnUse">
<stop offset="0.625" stop-color="#FF8A14"/>
<stop offset="0.855769" stop-color="#46B000"/>
</linearGradient>
<linearGradient id="paint13_linear_577_2865" x1="173.944" y1="180.688" x2="874.832" y2="180.688" gradientUnits="userSpaceOnUse">
<stop offset="0.625" stop-color="#FF8A14"/>
<stop offset="0.855769" stop-color="#46B000"/>
</linearGradient>
<linearGradient id="paint14_linear_577_2865" x1="173.944" y1="180.688" x2="874.832" y2="180.688" gradientUnits="userSpaceOnUse">
<stop offset="0.625" stop-color="#FF8A14"/>
<stop offset="0.855769" stop-color="#46B000"/>
</linearGradient>
<linearGradient id="paint15_linear_577_2865" x1="173.944" y1="180.688" x2="874.832" y2="180.688" gradientUnits="userSpaceOnUse">
<stop offset="0.625" stop-color="#FF8A14"/>
<stop offset="0.855769" stop-color="#46B000"/>
</linearGradient>
<linearGradient id="paint16_linear_577_2865" x1="173.944" y1="180.688" x2="874.832" y2="180.688" gradientUnits="userSpaceOnUse">
<stop offset="0.625" stop-color="#FF8A14"/>
<stop offset="0.855769" stop-color="#46B000"/>
</linearGradient>
<clipPath id="clip0_577_2865">
<rect width="1021" height="341" fill="white"/>
</clipPath>
<clipPath id="clip1_577_2865">
<rect width="56" height="56" fill="white" transform="translate(70 55)"/>
</clipPath>
</defs>
</svg>
