<svg width="80" height="80" viewBox="0 0 80 80" fill="none" xmlns="http://www.w3.org/2000/svg">
<circle cx="40" cy="40" r="39.5" fill="white" stroke="#CB97E7"/>
<path d="M39.9998 21.3359L22.249 34.2327L29.0293 55.0999H50.9704L57.7506 34.2327L39.9998 21.3359Z" fill="#E5CAF3"/>
<path d="M56.457 62.6525L39.9995 68L23.541 62.6525L24.2878 54.109L31.1184 52.2231H48.8796L55.6746 54.6638L56.457 62.6525Z" fill="#CB97E7"/>
<path d="M40 12L44.4765 18.4456L40 24.8913L25.6304 35.3307L18.7704 37.9931L13.3701 31.3476L23.5414 17.3476L40 12ZM66.6298 31.3476V48.6524L56.4574 62.6524L48.88 52.2231L54.3696 35.3307L57.7549 30.3576L66.6298 31.3476Z" fill="#D9B1EE"/>
<path d="M31.1188 52.2232L23.5414 62.6525L13.3701 48.6525V31.3477L25.6304 35.3308L31.1188 52.2232Z" fill="#BD80E1"/>
<path d="M66.6299 31.3476L54.3696 35.3307L40 24.8913V12L56.4574 17.3476L66.6299 31.3476Z" fill="#CB97E7"/>
</svg>
