<svg width="30" height="30" viewBox="0 0 30 30" fill="none" xmlns="http://www.w3.org/2000/svg">
<g clip-path="url(#clip0_387_2856)">
<path d="M15.0494 10.4663C15.4623 10.4663 15.7967 10.1317 15.7967 9.71898C15.7967 9.30631 15.4623 8.97168 15.0494 8.97168C11.7479 8.97168 9.07129 11.6482 9.07129 14.9501C9.07129 18.2517 11.7479 20.9283 15.0494 20.9283C18.3513 20.9283 21.0279 18.2517 21.0279 14.9501C21.0279 14.5372 20.6932 14.2028 20.2806 14.2028C19.8679 14.2028 19.5333 14.5372 19.5333 14.9501C19.5333 17.4263 17.526 19.4339 15.0494 19.4339C12.5732 19.4339 10.5657 17.4263 10.5657 14.9501C10.5657 12.4736 12.5732 10.4663 15.0494 10.4663Z" fill="white"/>
<path d="M29.3085 10.5114C29.1787 10.1193 28.7558 9.90672 28.3634 10.0364C27.9803 10.1632 27.7669 10.5711 27.8812 10.9581C30.1159 18.0748 26.1586 25.6555 19.042 27.8903C11.9256 30.1251 4.34482 26.1678 2.11006 19.0512C-0.124991 11.9346 3.8326 4.3538 10.949 2.11898C13.5832 1.29181 16.4077 1.29181 19.042 2.11898C19.4375 2.23822 19.8547 2.01439 19.974 1.61889C20.0915 1.2293 19.8761 0.817561 19.489 0.691702C11.5869 -1.78757 3.1709 2.60859 0.691687 10.5109C-1.78759 18.4131 2.60875 26.829 10.5109 29.3082C18.4133 31.7875 26.829 27.3914 29.3082 19.489C30.2251 16.5667 30.2252 13.4338 29.3085 10.5114H29.3085Z" fill="white"/>
<path d="M16.473 5.33875C16.4769 4.91324 16.1501 4.55758 15.7257 4.52576C15.5026 4.50678 15.2792 4.48779 15.05 4.48779C9.27193 4.48779 4.58789 9.17183 4.58789 14.9499C4.58789 20.7279 9.27193 25.4119 15.05 25.4119C20.828 25.4119 25.512 20.7279 25.512 14.95C25.512 14.6796 25.4955 14.4096 25.4624 14.1413C25.4026 13.7312 25.0218 13.4471 24.6116 13.5069C24.2014 13.5664 23.9174 13.9475 23.9769 14.3577C23.9792 14.3732 23.982 14.3885 23.9851 14.4041C24.0014 14.5851 24.0174 14.7646 24.0174 14.9495C24.0176 19.9023 20.0029 23.9171 15.0503 23.9175C10.0975 23.9178 6.08268 19.9027 6.0825 14.9502C6.08227 9.99765 10.0968 5.98258 15.0496 5.9824H15.0498C15.2353 5.9824 15.4148 5.9984 15.5955 6.01439L15.7355 6.02611C16.1261 6.04281 16.4561 5.73977 16.4726 5.3493C16.4728 5.34561 16.4728 5.34221 16.473 5.33875Z" fill="white"/>
<path d="M19.5342 6.72986V9.40965L14.522 14.4217C14.2252 14.7085 14.217 15.1816 14.5038 15.4784C14.7906 15.7753 15.2637 15.7835 15.5605 15.4968C15.5667 15.4908 15.5729 15.4846 15.5788 15.4784L20.591 10.4664H23.2706C23.4688 10.4664 23.6588 10.3876 23.7991 10.2474L28.2827 5.76353C28.5745 5.47174 28.5745 4.99865 28.2827 4.7068C28.2134 4.63742 28.131 4.5824 28.0404 4.54486C27.9497 4.50732 27.8526 4.488 27.7544 4.48801H25.5125V2.24609C25.5125 1.83342 25.178 1.49879 24.765 1.49902C24.567 1.49907 24.377 1.57777 24.237 1.71781L19.7532 6.20164C19.6837 6.27096 19.6286 6.3533 19.5911 6.44394C19.5535 6.53458 19.5341 6.63174 19.5342 6.72986ZM21.0288 7.03936L24.0179 4.05014V5.23531C24.0179 5.64799 24.3526 5.98262 24.7652 5.98262H25.9504L22.9612 8.97178H21.0288V7.03936Z" fill="white"/>
</g>
<defs>
<clipPath id="clip0_387_2856">
<rect width="30" height="30" fill="white"/>
</clipPath>
</defs>
</svg>
