<svg width="36" height="36" viewBox="0 0 36 36" fill="none" xmlns="http://www.w3.org/2000/svg">
<path d="M35.8027 17.3858C33.9087 14.7424 29.7482 10.4291 25.1027 8.15386C22.7243 6.98906 20.3583 6.39844 18.0703 6.39844C15.7833 6.39844 13.4106 6.98864 11.0184 8.15266C6.70036 10.2537 2.42606 14.3312 0.20271 17.3783C0.0709829 17.5588 0 17.7765 0 18C0 18.2234 0.0709829 18.4411 0.20271 18.6216C0.284272 18.7334 2.23587 21.3893 5.38284 24.0756C8.94037 27.1124 13.3523 29.6016 18.0703 29.6016C22.7716 29.6016 27.1501 27.1299 30.692 24.0718C33.805 21.3839 35.7226 18.726 35.8028 18.6142C35.931 18.4351 36 18.2203 36 18C36 17.7797 35.931 17.5649 35.8027 17.3858ZM18.0703 27.5063C12.0993 27.5063 6.13153 22.612 2.3933 18.0004C4.18057 15.7988 10.6606 8.49375 18.0703 8.49375C24.0438 8.49375 29.9465 13.3947 33.6156 17.9996C31.867 20.191 25.4831 27.5063 18.0703 27.5063Z" fill="white"/>
<path d="M18.0703 10.6172C13.9844 10.6172 10.5469 13.9221 10.5469 18C10.5469 22.0705 13.9757 25.3828 18.0703 25.3828C22.1412 25.3828 25.4531 22.0709 25.4531 18C25.4531 13.9291 22.1412 10.6172 18.0703 10.6172ZM18.0703 23.2875C15.1356 23.2875 12.6422 20.8444 12.6422 17.9859C12.6422 15.1275 15.1356 12.7125 18.0703 12.7125C20.9781 12.7125 23.3578 15.0782 23.3578 17.9859C23.3578 20.8937 20.9781 23.2875 18.0703 23.2875Z" fill="white"/>
<path d="M18.0703 14.8359C16.279 14.8359 14.7656 16.2849 14.7656 18C14.7656 19.7151 16.279 21.1641 18.0703 21.1641C19.815 21.1641 21.2344 19.7447 21.2344 18C21.2344 16.2553 19.815 14.8359 18.0703 14.8359ZM18.0703 19.0688C17.4559 19.0688 16.875 18.5421 16.875 18C16.875 17.4579 17.4559 16.9453 18.0703 16.9453C18.6519 16.9453 19.125 17.4184 19.125 18C19.125 18.5816 18.6519 19.0688 18.0703 19.0688Z" fill="white"/>
</svg>
