<svg width="80" height="80" viewBox="0 0 80 80" fill="none" xmlns="http://www.w3.org/2000/svg">
<circle cx="40" cy="40" r="39.5" fill="white" stroke="#3EC3A4"/>
<g clip-path="url(#clip0_557_2867)">
<path d="M58.3243 46.2968L55.243 60.2431L45.0332 55.047V42.6689L58.3243 46.2968Z" fill="#3EC3A4"/>
<path d="M65.452 42.6689V55.047L55.2422 60.2431V47.8649L57.814 44.0831L65.452 42.6689Z" fill="#6FD7A3"/>
<path d="M65.4529 42.6687L55.243 47.8647L45.0332 42.6687L55.243 37.4727L65.4529 42.6687Z" fill="#9BE69D"/>
<path d="M27.838 46.2968L24.7567 60.2431L14.5469 55.047V42.6689L27.838 46.2968Z" fill="#3EC3A4"/>
<path d="M34.9667 42.6689V55.047L24.7568 60.2431V47.8649L27.3287 44.0831L34.9667 42.6689Z" fill="#6FD7A3"/>
<path d="M34.9665 42.6687L24.7567 47.8647L14.5469 42.6687L24.7567 37.4727L34.9665 42.6687Z" fill="#9BE69D"/>
<path d="M43.0812 54.0537L39.9999 68L29.79 62.804V50.4258L43.0812 54.0537Z" fill="#3EC3A4"/>
<path d="M50.2098 50.4258V62.804L40 68V55.6219L42.5718 51.84L50.2098 50.4258Z" fill="#6FD7A3"/>
<path d="M50.2097 50.426L39.9999 55.622L29.79 50.426L39.9999 45.23L50.2097 50.426Z" fill="#9BE69D"/>
<path d="M43.0812 20.8241L39.9999 34.7704L29.79 29.5745V17.1963L43.0812 20.8241Z" fill="#3EC3A4"/>
<path d="M50.2098 17.1963V29.5745L40 34.7704V22.3924L42.5718 18.6105L50.2098 17.1963Z" fill="#6FD7A3"/>
<path d="M50.2097 17.1961L39.9999 22.3922L29.79 17.1961L39.9999 12L50.2097 17.1961Z" fill="#9BE69D"/>
<path d="M58.3243 28.581L55.243 42.5273L45.0332 37.3312V24.9531L58.3243 28.581Z" fill="#3EC3A4"/>
<path d="M65.452 24.9531V37.3312L55.2422 42.5273V30.1491L57.814 26.3673L65.452 24.9531Z" fill="#6FD7A3"/>
<path d="M65.4529 24.9534L55.243 30.1494L45.0332 24.9534L55.243 19.7573L65.4529 24.9534Z" fill="#9BE69D"/>
<path d="M27.838 28.581L24.7567 42.5273L14.5469 37.3312V24.9531L27.838 28.581Z" fill="#3EC3A4"/>
<path d="M34.9667 24.9531V37.3312L24.7568 42.5273V30.1491L27.3287 26.3673L34.9667 24.9531Z" fill="#6FD7A3"/>
<path d="M34.9665 24.9534L24.7567 30.1494L14.5469 24.9534L24.7567 19.7573L34.9665 24.9534Z" fill="#9BE69D"/>
<path d="M43.0812 36.3383L39.9999 50.2846L29.79 45.0885V32.7104L43.0812 36.3383Z" fill="#3EC3A4"/>
<path d="M50.2098 32.7104V45.0885L40 50.2846V37.9064L42.5718 34.1246L50.2098 32.7104Z" fill="#6FD7A3"/>
<path d="M50.2097 32.7102L39.9999 37.9062L29.79 32.7102L39.9999 27.5142L50.2097 32.7102Z" fill="#9BE69D"/>
</g>
<defs>
<clipPath id="clip0_557_2867">
<rect width="56" height="56" fill="white" transform="translate(12 12)"/>
</clipPath>
</defs>
</svg>
