<svg width="239" height="135" viewBox="0 0 239 135" fill="none" xmlns="http://www.w3.org/2000/svg">
<g clip-path="url(#clip0_58_2441)">
<path d="M204.867 54.1894C204.867 54.6093 204.733 55.005 204.501 55.3284C204.269 55.6533 203.936 55.9043 203.541 56.0362C200.24 57.1334 189.386 61.2261 186.531 65.6614C184.79 68.3673 181.889 75.1369 179.375 81.3628C178.561 83.377 177.788 85.3332 177.108 87.0771C170.396 82.69 160.893 73.8145 156.592 69.6817L163.037 54.2618C164.29 51.2647 166.289 48.6408 168.841 46.6443L172.446 43.8258C173.21 43.229 174.259 43.1582 175.095 43.6488C175.858 44.0961 176.271 44.8972 176.271 45.7097C176.271 46.2389 176.096 46.7714 175.731 47.2171C174.144 49.154 172.286 51.9098 173.386 53.1147C174.84 54.709 185.334 50.4619 189.179 48.829C189.997 48.4831 190.944 48.7759 191.426 49.524C191.624 49.8329 191.72 50.1788 191.72 50.5214C191.72 50.7708 191.671 51.0169 191.573 51.2454L197.886 49.9053C198.886 49.6929 199.875 50.3107 200.131 51.3049C200.172 51.4658 200.192 51.6266 200.192 51.7859C200.192 51.9452 200.172 52.098 200.136 52.246H202.933C204.002 52.246 204.867 53.1163 204.867 54.1894Z" fill="#F2A89B"/>
<path d="M189.938 57.4665C190.749 57.1399 196.309 54.7316 199.038 53.5492C199.603 53.3047 199.996 52.814 200.135 52.2461" stroke="#E57263" stroke-width="0.43" stroke-linecap="round" stroke-linejoin="round"/>
<path d="M183.609 56.7046C185.822 55.5929 189.09 53.3439 190.946 52.0247C191.233 51.822 191.444 51.5501 191.573 51.2461" stroke="#E57263" stroke-width="0.43" stroke-linecap="round" stroke-linejoin="round"/>
<path d="M184.121 89.0792L170.556 112.355C165.676 120.73 156.743 125.876 147.088 125.876C143.747 125.876 140.463 125.257 137.394 124.079C134.323 122.902 131.464 121.164 128.972 118.928L117.269 108.423L101.013 93.8298L102.086 84.0486L104.908 58.3359C117.89 60.9453 147.422 91.6162 147.422 91.6162L156.591 69.6809C160.893 73.8137 170.396 82.6892 177.107 87.0763C180.511 89.2996 183.198 90.3694 184.121 89.0792Z" fill="#FF9C39"/>
<path d="M117.269 108.422L101.013 93.8307L102.086 84.0495L105.008 79.7461C105.008 79.7461 111.78 92.2734 117.269 108.422Z" fill="#F28C30"/>
<path d="M184.259 88.844L184.121 89.0805C183.198 90.3707 180.511 89.3009 177.107 87.0776C177.787 85.3337 178.56 83.3774 179.375 81.3633C182.673 84.5422 184.927 87.4074 184.259 88.844Z" fill="#DD791F"/>
<path d="M26.6941 64.2086C11.1964 76.1182 0 135.002 0 135.002H29.6496L26.6941 64.207V64.2086Z" fill="#FF9C39"/>
<path d="M26.0881 98.1367L18.5801 135.001H29.6501L26.0881 98.1367Z" fill="#F28C30"/>
<path d="M89.6756 20.2214C93.8104 18.4469 99.4846 15.3517 97.1404 8.23295C96.1435 5.20689 91.1109 1.22845 84.7471 3.85554C81.1899 0.374199 70.7247 -2.88996 64.7049 6.95882C60.3652 5.15541 57.3441 7.9482 56.1216 9.49099C50.9882 15.9727 56.6384 28.1686 56.6384 28.1686C56.6384 28.1686 81.8651 23.5708 89.6772 20.2198L89.6756 20.2214Z" fill="black"/>
<path d="M73.7984 49.4043C82.1785 49.607 89.1361 42.942 89.3377 34.5153L89.6705 20.598C89.8466 13.2187 84.0395 7.09094 76.6995 6.91398L72.9327 6.82228C65.5928 6.64532 59.4977 12.4835 59.3217 19.8628L58.9889 33.7801C58.7872 42.2052 65.4167 49.2 73.7984 49.4027V49.4043Z" fill="#F2A89B"/>
<path d="M61.7958 28.6061C65.2585 28.0478 66.9243 18.6061 66.9243 18.6061C66.9243 18.6061 84.0894 22.4912 88.7923 15.4803C92.4663 10.0041 74.6835 -0.631395 63.2855 9.11925C51.8875 18.8699 58.6002 27.3078 58.6002 27.3078L61.7958 28.6061Z" fill="black"/>
<path d="M83.8653 28.5465C83.8701 29.4506 84.3166 30.1826 84.8622 30.1778C85.4063 30.1746 85.8431 29.4378 85.8383 28.5336C85.8335 27.6295 85.3871 26.8975 84.8414 26.9024C84.2974 26.9056 83.8589 27.6424 83.8653 28.5465Z" fill="black"/>
<path d="M88.2949 24.3066C87.9957 24.0702 87.3268 23.6068 86.3523 23.4604C85.213 23.2867 84.3249 23.6455 83.9824 23.8063" stroke="black" stroke-width="0.93" stroke-linecap="round" stroke-linejoin="round"/>
<path d="M75.977 28.5961C75.9818 29.5002 75.5449 30.2371 75.0009 30.2403C74.4568 30.2435 74.0103 29.5131 74.0039 28.609C73.9991 27.7049 74.436 26.9681 74.9801 26.9649C75.5241 26.9616 75.9706 27.692 75.977 28.5961Z" fill="black"/>
<path d="M71.9453 23.629C72.2269 23.37 72.8574 22.8568 73.8175 22.6348C74.9408 22.3742 75.8529 22.6621 76.2066 22.7957" stroke="black" stroke-width="0.93" stroke-linecap="round" stroke-linejoin="round"/>
<path d="M81.3535 27.9961L81.3903 33.9453C81.3903 33.9453 83.1873 32.314 83.9634 33.9292C84.7891 35.6489 81.4079 36.7043 81.4079 36.7043" stroke="#E57263" stroke-width="0.93" stroke-linecap="round" stroke-linejoin="round"/>
<path d="M78.9831 39.5652C78.4262 39.4509 77.3845 39.1581 76.3508 38.3296C75.4867 37.6363 74.9907 36.8608 74.7314 36.375" stroke="#E57263" stroke-width="0.87" stroke-linecap="round" stroke-linejoin="round"/>
<path d="M57.757 34.7881C60.3119 34.7881 62.3831 32.7059 62.3831 30.1372C62.3831 27.5686 60.3119 25.4863 57.757 25.4863C55.202 25.4863 53.1309 27.5686 53.1309 30.1372C53.1309 32.7059 55.202 34.7881 57.757 34.7881Z" fill="#F2A89B"/>
<path d="M58.592 31.5516C59.3687 31.0883 59.6248 30.0796 59.164 29.2987C58.7031 28.5178 57.6998 28.2603 56.9231 28.7236C56.1463 29.1869 55.8902 30.1956 56.351 30.9765C56.8119 31.7575 57.8152 32.0149 58.592 31.5516Z" fill="#E57263"/>
<path d="M60.4641 30.7419C60.796 29.2396 59.8536 27.7513 58.3594 27.4177C56.8651 27.0841 55.3848 28.0315 55.053 29.5338C54.7211 31.0361 55.6635 32.5243 57.1577 32.8579C58.652 33.1915 60.1323 32.2441 60.4641 30.7419Z" fill="#F28C2F"/>
<path d="M58.3222 32.718C59.7389 32.1353 60.4175 30.5083 59.8379 29.084C59.2583 27.6597 57.64 26.9775 56.2233 27.5602C54.8067 28.1429 54.128 29.7698 54.7076 31.1941C55.2872 32.6184 56.9055 33.3006 58.3222 32.718Z" fill="#FF9C39"/>
<path d="M57.7572 30.1379C57.7572 24.0858 54.9857 8.01111 64.7051 6.95898" stroke="#FF9C39" stroke-width="1.4" stroke-linecap="round" stroke-linejoin="round"/>
<path d="M26.6942 64.2081L25.4316 135.003H105.269L104.909 58.3362C94.3542 57.49 82.2377 57.1827 68.8843 58.0096C52.7898 59.007 38.5931 61.4266 26.6942 64.2097V64.2081Z" fill="#FF9C39"/>
<path d="M87.1822 57.5343C87.043 62.5472 85.3868 70.4574 76.6626 72.5279C65.135 75.2643 56.5133 64.0546 53.5098 59.4326C58.4159 58.8277 63.5444 58.3403 68.8826 58.0089C75.2785 57.6115 81.3896 57.4764 87.1822 57.5343Z" fill="#F2A89B"/>
<path d="M159.432 90.7891H102.454C101.619 90.7891 100.885 91.3489 100.659 92.1581L88.709 135.001H148.147C148.983 135.001 149.717 134.441 149.943 133.632L161.229 93.17C161.562 91.9747 160.669 90.7891 159.433 90.7891H159.432Z" fill="#4882E0"/>
<path d="M66.2505 131.9H93.2614V135H66.2505C65.7528 135 65.3496 134.595 65.3496 134.095V132.806C65.3496 132.306 65.7528 131.9 66.2505 131.9Z" fill="#4882E0"/>
<path d="M162.687 90.7891H105.709C104.874 90.7891 104.14 91.3489 103.914 92.1581L91.9639 135.001H151.402C152.238 135.001 152.972 134.441 153.198 133.632L164.484 93.17C164.816 91.9747 163.924 90.7891 162.688 90.7891H162.687Z" fill="#6290FF"/>
<path d="M149.047 25.6232C154.878 19.7616 154.878 10.258 149.047 4.39634C143.217 -1.4653 133.764 -1.46529 127.934 4.39634C122.103 10.258 122.103 19.7616 127.934 25.6232C133.764 31.4848 143.217 31.4848 149.047 25.6232Z" fill="#AEC9FF"/>
<path d="M142.081 18.1491C141.487 18.1491 140.975 18.0622 140.545 17.8868C140.112 17.7131 139.767 17.4541 139.503 17.1098C139.2 17.4074 138.904 17.6327 138.616 17.7855C138.328 17.9367 138.047 18.0139 137.771 18.0139C137.151 18.0139 136.563 17.7597 136.011 17.2498C135.459 16.7398 135.184 16.1816 135.184 15.5735C135.184 14.5326 135.592 13.5802 136.406 12.7195C137.221 11.8588 138.146 11.4277 139.183 11.4277C139.418 11.4277 139.613 11.5146 139.77 11.6899C139.927 11.8653 140.005 12.076 140.005 12.3238C140.005 12.6616 139.725 12.9126 139.165 13.0751C138.421 13.289 137.895 13.5336 137.586 13.8103C137.133 14.2092 136.906 14.798 136.906 15.5751C136.906 15.7392 136.981 15.8952 137.133 16.048C137.306 16.217 137.522 16.2958 137.779 16.2845C138.266 16.262 138.717 15.8067 139.132 14.9171C139.506 14.1401 139.84 13.7523 140.132 13.7523C140.367 13.7523 140.557 13.8392 140.703 14.0146C140.849 14.1883 140.921 14.4023 140.921 14.6565C140.921 14.7691 140.903 14.938 140.866 15.1632C140.829 15.3884 140.812 15.5574 140.812 15.67C140.812 16.0352 140.969 16.2668 141.282 16.3617C141.405 16.4004 141.671 16.4213 142.081 16.4213C142.847 16.4213 143.385 16.233 143.694 15.855C143.974 15.5171 144.113 14.9573 144.113 14.1754C144.113 12.7967 143.561 11.6706 142.458 10.7987C141.45 9.99913 140.247 9.60016 138.847 9.60016C137.218 9.60016 135.941 10.2195 135.018 11.4583C134.184 12.5619 133.766 13.9486 133.766 15.6201C133.766 17.1629 134.256 18.4628 135.235 19.5213C136.254 20.6249 137.565 21.1767 139.165 21.1767C139.618 21.1767 140.132 21.0899 140.701 20.9145L142.17 20.3659C142.417 20.2758 142.577 20.2308 142.649 20.2308C142.878 20.2308 143.078 20.3225 143.246 20.5059C143.414 20.6893 143.497 20.9016 143.497 21.1429C143.497 21.6771 142.9 22.1114 141.708 22.4428C140.807 22.6906 139.964 22.8144 139.18 22.8144C138.395 22.8144 137.583 22.6616 136.757 22.3543C135.931 22.0471 135.224 21.6384 134.637 21.1253C132.9 19.6162 132.033 17.7823 132.033 15.6201C132.033 13.4579 132.627 11.6513 133.814 10.2002C135.074 8.64617 136.751 7.86914 138.845 7.86914C140.738 7.86914 142.359 8.44025 143.708 9.58246C145.124 10.7922 145.833 12.3238 145.833 14.1754C145.833 15.4415 145.526 16.4164 144.91 17.0969C144.267 17.8 143.322 18.1523 142.079 18.1523L142.081 18.1491Z" fill="white"/>
<path d="M191.837 25.6232C197.668 19.7616 197.668 10.258 191.837 4.39633C186.007 -1.46531 176.554 -1.4653 170.724 4.39633C164.893 10.258 164.893 19.7616 170.724 25.6232C176.554 31.4848 186.007 31.4848 191.837 25.6232Z" fill="#AEC9FF"/>
<path d="M187.672 17.9538L183.702 16.4158C183.267 16.2469 182.774 16.4319 182.558 16.847C182.282 17.3746 181.922 18.1436 181.665 18.9785C180.645 18.4621 179.548 17.661 178.66 16.419C177.999 15.4956 177.605 14.5432 177.378 13.6584C178.122 13.6246 178.821 13.5152 179.327 13.4155C179.785 13.3254 180.1 12.9023 180.065 12.4358L179.73 8.17096C179.689 7.64811 179.225 7.26362 178.704 7.32475C177.269 7.49206 174.691 7.99882 174.459 9.47565C174.262 10.5825 173.819 14.4757 176.384 18.0632C179.125 21.8968 183.222 22.5838 184.412 22.7012C184.46 22.706 184.507 22.7076 184.553 22.7076C186.046 22.7076 187.617 20.5197 188.187 19.1829C188.393 18.7002 188.16 18.1436 187.672 17.9538Z" fill="white"/>
<path d="M234.628 25.6232C240.459 19.7616 240.459 10.258 234.628 4.39634C228.798 -1.46529 219.345 -1.4653 213.515 4.39633C207.684 10.258 207.684 19.7616 213.515 25.6232C219.345 31.4848 228.798 31.4848 234.628 25.6232Z" fill="#AEC9FF"/>
<path d="M229.863 12.1909C229.863 17.3115 224.07 23.8382 224.07 23.8382C224.07 23.8382 218.277 17.3115 218.277 12.1909C218.277 8.97497 220.871 6.36719 224.07 6.36719C227.269 6.36719 229.863 8.97497 229.863 12.1909Z" fill="white"/>
<path d="M224.07 14.6138C225.493 14.6138 226.647 13.4542 226.647 12.0237C226.647 10.5932 225.493 9.43359 224.07 9.43359C222.648 9.43359 221.494 10.5932 221.494 12.0237C221.494 13.4542 222.648 14.6138 224.07 14.6138Z" fill="#AEC9FF"/>
</g>
<defs>
<clipPath id="clip0_58_2441">
<rect width="239" height="135" fill="white"/>
</clipPath>
</defs>
</svg>
